G04*
G04 #@! TF.GenerationSoftware,Altium Limited,Altium Designer,25.8.1 (18)*
G04*
G04 Layer_Color=65535*
%FSLAX25Y25*%
%MOIN*%
G70*
G04*
G04 #@! TF.SameCoordinates,64F7C8A9-438D-4F9F-9055-C3E4DFCE694A*
G04*
G04*
G04 #@! TF.FilePolarity,Positive*
G04*
G01*
G75*
%ADD10C,0.00787*%
%ADD11C,0.00984*%
%ADD12C,0.01181*%
%ADD13C,0.00394*%
%ADD14C,0.01000*%
%ADD15C,0.00500*%
%ADD16C,0.00600*%
%ADD17C,0.00807*%
%ADD18C,0.00591*%
%ADD19C,0.00606*%
G36*
X179631Y160514D02*
X179629Y137408D01*
X164624D01*
X153693Y137410D01*
X153652Y137369D01*
X153638Y137363D01*
X153577Y137301D01*
X153563Y137294D01*
X153501Y137232D01*
X153488Y137226D01*
X153443Y137181D01*
X153440Y137171D01*
X153426Y137164D01*
X153392Y137130D01*
X153378Y137123D01*
X153344Y137109D01*
X153327Y137120D01*
X153320Y137147D01*
X153330Y137212D01*
X153334Y137215D01*
X153327Y137236D01*
X153326Y137410D01*
X152931Y137410D01*
X152934Y160516D01*
X179631Y160514D01*
D02*
G37*
%LPC*%
G36*
X166034Y159188D02*
X166020Y159183D01*
X165780Y159178D01*
X165766Y159174D01*
X165660Y159169D01*
X165646Y159164D01*
X165557Y159157D01*
X165504Y159152D01*
X165291Y159140D01*
X165272Y159135D01*
X165181Y159130D01*
X165166Y159126D01*
X165116Y159118D01*
X165092Y159114D01*
X165063Y159109D01*
X165025Y159104D01*
X164977Y159099D01*
X164871Y159090D01*
X164833Y159085D01*
X164804Y159080D01*
X164780Y159075D01*
X164742Y159066D01*
X164718Y159061D01*
X164680Y159056D01*
X164536Y159042D01*
X164507Y159037D01*
X164459Y159027D01*
X164420Y159018D01*
X164392Y159013D01*
X164327Y159006D01*
X164294Y159001D01*
X164248Y158994D01*
X164209Y158984D01*
X164169Y158972D01*
X164150Y158967D01*
X164104Y158960D01*
X164066Y158955D01*
X164037Y158951D01*
X164013Y158946D01*
X163994Y158941D01*
X163953Y158929D01*
X163915Y158919D01*
X163847Y158910D01*
X163828Y158905D01*
X163797Y158898D01*
X163728Y158876D01*
X163708Y158871D01*
X163641Y158862D01*
X163603Y158852D01*
X163579Y158843D01*
X163531Y158828D01*
X163473Y158819D01*
X163454Y158814D01*
X163428Y158807D01*
X163375Y158788D01*
X163337Y158778D01*
X163308Y158773D01*
X163284Y158768D01*
X163265Y158764D01*
X163226Y158749D01*
X163195Y158737D01*
X163164Y158730D01*
X163140Y158725D01*
X163102Y158716D01*
X163037Y158689D01*
X163006Y158682D01*
X162982Y158677D01*
X162963Y158672D01*
X162924Y158658D01*
X162898Y158646D01*
X162860Y158636D01*
X162829Y158629D01*
X162809Y158624D01*
X162749Y158598D01*
X162718Y158591D01*
X162680Y158581D01*
X162656Y158572D01*
X162639Y158565D01*
X162615Y158555D01*
X162582Y158545D01*
X162550Y158538D01*
X162512Y158524D01*
X162490Y158512D01*
X162443Y158497D01*
X162416Y158490D01*
X162392Y158481D01*
X162332Y158454D01*
X162306Y158447D01*
X162267Y158433D01*
X162260Y158425D01*
X162236Y158416D01*
X162203Y158406D01*
X162157Y158390D01*
X162121Y158368D01*
X162090Y158361D01*
X162052Y158346D01*
X162011Y158325D01*
X161987Y158315D01*
X161961Y158308D01*
X161937Y158298D01*
X161929Y158291D01*
X161886Y158272D01*
X161834Y158253D01*
X161795Y158229D01*
X161769Y158222D01*
X161730Y158207D01*
X161694Y158186D01*
X161635Y158164D01*
X161574Y158133D01*
X161529Y158116D01*
X161522Y158109D01*
X161512Y158104D01*
X161469Y158085D01*
X161438Y158073D01*
X161409Y158054D01*
X161383Y158042D01*
X161337Y158025D01*
X161308Y158006D01*
X161282Y157994D01*
X161263Y157989D01*
X161229Y157970D01*
X161200Y157951D01*
X161174Y157944D01*
X161150Y157934D01*
X161143Y157927D01*
X161133Y157922D01*
X161124Y157912D01*
X161100Y157903D01*
X161069Y157891D01*
X161040Y157872D01*
X161033Y157864D01*
X160987Y157848D01*
X160958Y157828D01*
X160951Y157821D01*
X160918Y157807D01*
X160874Y157783D01*
X160865Y157773D01*
X160831Y157759D01*
X160798Y157740D01*
X160769Y157721D01*
X160745Y157711D01*
X160721Y157697D01*
X160711Y157687D01*
X160702Y157682D01*
X160640Y157649D01*
X160630Y157639D01*
X160620Y157634D01*
X160558Y157601D01*
X160548Y157591D01*
X160539Y157586D01*
X160505Y157572D01*
X160496Y157567D01*
X160448Y157534D01*
X160416Y157522D01*
X160400Y157510D01*
X160385Y157495D01*
X160352Y157481D01*
X160318Y157462D01*
X160304Y157447D01*
X160280Y157438D01*
X160246Y157419D01*
X160232Y157404D01*
X160222Y157399D01*
X160179Y157375D01*
X160160Y157356D01*
X160126Y157337D01*
X160100Y157315D01*
X160083Y157299D01*
X160074Y157294D01*
X160035Y157255D01*
X160026Y157251D01*
X160014Y157239D01*
X160009Y157229D01*
X159970Y157191D01*
X159966Y157181D01*
X159944Y157155D01*
X159927Y157138D01*
X159918Y157114D01*
X159913Y157104D01*
X159879Y157056D01*
X159872Y157030D01*
X159841Y156970D01*
X159832Y156937D01*
X159822Y156898D01*
X159810Y156867D01*
X159798Y156826D01*
X159793Y156807D01*
X159788Y156759D01*
X159783Y156697D01*
X159788Y156495D01*
X159793Y156481D01*
X159798Y156452D01*
X159803Y156438D01*
X159812Y156414D01*
X159827Y156366D01*
X159832Y156347D01*
X159839Y156320D01*
X159870Y156260D01*
X159884Y156222D01*
X159918Y156174D01*
X159937Y156141D01*
X159956Y156121D01*
X159961Y156112D01*
X159970Y156102D01*
X159975Y156093D01*
X160023Y156045D01*
X160028Y156035D01*
X160035Y156028D01*
X160045Y156023D01*
X160074Y155994D01*
X160083Y155990D01*
X160107Y155965D01*
X160117Y155961D01*
X160150Y155937D01*
X160165Y155922D01*
X160174Y155918D01*
X160227Y155889D01*
X160237Y155879D01*
X160246Y155874D01*
X160280Y155860D01*
X160361Y155822D01*
X160400Y155812D01*
X160474Y155786D01*
X160493Y155781D01*
X160522Y155776D01*
X160565Y155771D01*
X160642Y155766D01*
X160764Y155764D01*
X160778Y155769D01*
X160884Y155774D01*
X160898Y155779D01*
X160930Y155786D01*
X160970Y155803D01*
X161004Y155812D01*
X161030Y155819D01*
X161054Y155829D01*
X161083Y155848D01*
X161114Y155860D01*
X161148Y155879D01*
X161162Y155894D01*
X161196Y155908D01*
X161205Y155913D01*
X161232Y155934D01*
X161244Y155946D01*
X161275Y155958D01*
X161282Y155965D01*
X161292Y155970D01*
X161306Y155985D01*
X161316Y155990D01*
X161352Y156006D01*
X161354Y156009D01*
X161378Y156033D01*
X161440Y156066D01*
X161455Y156081D01*
X161479Y156090D01*
X161512Y156109D01*
X161527Y156124D01*
X161560Y156138D01*
X161570Y156143D01*
X161596Y156165D01*
X161603Y156172D01*
X161627Y156181D01*
X161670Y156205D01*
X161685Y156220D01*
X161730Y156237D01*
X161738Y156244D01*
X161747Y156248D01*
X161757Y156258D01*
X161766Y156263D01*
X161800Y156277D01*
X161834Y156296D01*
X161843Y156306D01*
X161877Y156320D01*
X161901Y156330D01*
X161934Y156354D01*
X161958Y156364D01*
X161989Y156376D01*
X161996Y156383D01*
X162006Y156387D01*
X162035Y156407D01*
X162054Y156412D01*
X162107Y156440D01*
X162140Y156455D01*
X162172Y156467D01*
X162241Y156503D01*
X162279Y156517D01*
X162308Y156536D01*
X162332Y156546D01*
X162351Y156551D01*
X162382Y156563D01*
X162390Y156570D01*
X162433Y156589D01*
X162478Y156606D01*
X162538Y156637D01*
X162558Y156642D01*
X162589Y156654D01*
X162625Y156675D01*
X162673Y156690D01*
X162754Y156728D01*
X162773Y156733D01*
X162819Y156750D01*
X162879Y156776D01*
X162898Y156781D01*
X162924Y156788D01*
X162994Y156819D01*
X163032Y156829D01*
X163064Y156841D01*
X163123Y156867D01*
X163155Y156874D01*
X163207Y156893D01*
X163215Y156901D01*
X163234Y156905D01*
X163258Y156915D01*
X163294Y156922D01*
X163313Y156927D01*
X163373Y156953D01*
X163406Y156963D01*
X163437Y156970D01*
X163457Y156975D01*
X163521Y157001D01*
X163541Y157006D01*
X163596Y157018D01*
X163634Y157033D01*
X163658Y157042D01*
X163684Y157049D01*
X163704Y157054D01*
X163759Y157066D01*
X163783Y157076D01*
X163814Y157088D01*
X163847Y157097D01*
X163881Y157102D01*
X163900Y157107D01*
X163931Y157114D01*
X163984Y157133D01*
X164011Y157140D01*
X164068Y157150D01*
X164087Y157155D01*
X164118Y157162D01*
X164171Y157181D01*
X164190Y157186D01*
X164214Y157191D01*
X164253Y157195D01*
X164281Y157200D01*
X164305Y157205D01*
X164332Y157212D01*
X164356Y157222D01*
X164375Y157227D01*
X164433Y157236D01*
X164466Y157241D01*
X164540Y157253D01*
X164579Y157263D01*
X164605Y157270D01*
X164624Y157275D01*
X164706Y157284D01*
X164739Y157289D01*
X164795Y157296D01*
X164814Y157301D01*
X164838Y157306D01*
X164876Y157315D01*
X164900Y157320D01*
X164965Y157327D01*
X165013Y157332D01*
X165075Y157337D01*
X165094Y157342D01*
X165154Y157349D01*
X165183Y157354D01*
X165207Y157359D01*
X165305Y157371D01*
X165368Y157375D01*
X165459Y157380D01*
X165492Y157385D01*
X165591Y157392D01*
X165629Y157397D01*
X165677Y157402D01*
X165730Y157406D01*
X165778Y157411D01*
X165874Y157416D01*
X166017Y157421D01*
X166825Y157423D01*
X166840Y157419D01*
X167032Y157414D01*
X167046Y157409D01*
X167149Y157402D01*
X167235Y157392D01*
X167360Y157383D01*
X167494Y157373D01*
X167542Y157368D01*
X167633Y157354D01*
X167662Y157349D01*
X167727Y157342D01*
X167760Y157337D01*
X167840Y157330D01*
X167887Y157325D01*
X167945Y157315D01*
X167969Y157311D01*
X167988Y157306D01*
X168036Y157296D01*
X168075Y157291D01*
X168118Y157287D01*
X168166Y157282D01*
X168223Y157272D01*
X168300Y157253D01*
X168329Y157248D01*
X168393Y157241D01*
X168413Y157236D01*
X168451Y157231D01*
X168465Y157227D01*
X168518Y157212D01*
X168556Y157203D01*
X168590Y157198D01*
X168609Y157193D01*
X168657Y157188D01*
X168672Y157184D01*
X168748Y157160D01*
X168767Y157155D01*
X168801Y157150D01*
X168820Y157145D01*
X168851Y157138D01*
X168904Y157119D01*
X168942Y157109D01*
X169014Y157095D01*
X169034Y157090D01*
X169058Y157080D01*
X169113Y157064D01*
X169132Y157059D01*
X169187Y157047D01*
X169211Y157037D01*
X169242Y157025D01*
X169276Y157016D01*
X169295Y157011D01*
X169326Y157004D01*
X169372Y156987D01*
X169405Y156973D01*
X169460Y156961D01*
X169480Y156956D01*
X169503Y156946D01*
X169530Y156934D01*
X169554Y156925D01*
X169585Y156917D01*
X169623Y156908D01*
X169683Y156881D01*
X169717Y156872D01*
X169743Y156865D01*
X169767Y156855D01*
X169798Y156838D01*
X169832Y156829D01*
X169851Y156824D01*
X169882Y156812D01*
X169923Y156790D01*
X169957Y156781D01*
X170017Y156759D01*
X170024Y156752D01*
X170055Y156740D01*
X170074Y156735D01*
X170127Y156716D01*
X170158Y156699D01*
X170232Y156673D01*
X170273Y156651D01*
X170297Y156642D01*
X170324Y156634D01*
X170362Y156611D01*
X170393Y156598D01*
X170412Y156594D01*
X170465Y156565D01*
X170499Y156551D01*
X170530Y156539D01*
X170590Y156507D01*
X170621Y156495D01*
X170659Y156471D01*
X170721Y156448D01*
X170750Y156428D01*
X170777Y156416D01*
X170808Y156404D01*
X170846Y156380D01*
X170873Y156368D01*
X170935Y156335D01*
X171007Y156296D01*
X171036Y156277D01*
X171055Y156272D01*
X171100Y156241D01*
X171158Y156212D01*
X171175Y156201D01*
X171184Y156191D01*
X171215Y156179D01*
X171254Y156155D01*
X171285Y156138D01*
X171328Y156114D01*
X171357Y156095D01*
X171388Y156083D01*
X171405Y156071D01*
X171414Y156061D01*
X171424Y156057D01*
X171477Y156028D01*
X171510Y156004D01*
X171554Y155980D01*
X171563Y155970D01*
X171573Y155965D01*
X171625Y155937D01*
X171645Y155918D01*
X171707Y155884D01*
X171716Y155874D01*
X171750Y155860D01*
X171803Y155831D01*
X171836Y155817D01*
X171856Y155812D01*
X171901Y155795D01*
X171927Y155783D01*
X171947Y155779D01*
X172014Y155769D01*
X172105Y155764D01*
X172311Y155769D01*
X172326Y155774D01*
X172371Y155781D01*
X172390Y155786D01*
X172429Y155800D01*
X172455Y155807D01*
X172474Y155812D01*
X172501Y155819D01*
X172532Y155831D01*
X172561Y155851D01*
X172606Y155867D01*
X172623Y155879D01*
X172632Y155889D01*
X172642Y155894D01*
X172685Y155918D01*
X172709Y155942D01*
X172719Y155946D01*
X172762Y155980D01*
X172781Y155999D01*
X172791Y156004D01*
X172800Y156014D01*
X172810Y156018D01*
X172822Y156035D01*
X172865Y156078D01*
X172870Y156088D01*
X172891Y156114D01*
X172908Y156131D01*
X172913Y156141D01*
X172932Y156174D01*
X172951Y156193D01*
X172956Y156203D01*
X172970Y156237D01*
X172975Y156246D01*
X172999Y156280D01*
X173014Y156328D01*
X173047Y156400D01*
X173052Y156433D01*
X173057Y156452D01*
X173064Y156503D01*
X173069Y156541D01*
X173074Y156632D01*
X173076Y156702D01*
X173071Y156716D01*
X173064Y156786D01*
X173059Y156824D01*
X173045Y156915D01*
X173021Y156968D01*
X173014Y156994D01*
X173009Y157013D01*
X172999Y157037D01*
X172994Y157047D01*
X172970Y157080D01*
X172966Y157100D01*
X172947Y157133D01*
X172923Y157157D01*
X172903Y157191D01*
X172865Y157229D01*
X172860Y157239D01*
X172853Y157246D01*
X172843Y157251D01*
X172834Y157260D01*
X172824Y157265D01*
X172812Y157282D01*
X172805Y157289D01*
X172795Y157294D01*
X172762Y157318D01*
X172748Y157332D01*
X172738Y157337D01*
X172704Y157356D01*
X172690Y157371D01*
X172680Y157375D01*
X172671Y157385D01*
X172628Y157409D01*
X172613Y157423D01*
X172551Y157457D01*
X172532Y157476D01*
X172501Y157488D01*
X172450Y157524D01*
X172407Y157548D01*
X172397Y157558D01*
X172388Y157562D01*
X172326Y157596D01*
X172316Y157606D01*
X172306Y157610D01*
X172244Y157644D01*
X172234Y157653D01*
X172225Y157658D01*
X172162Y157692D01*
X172153Y157701D01*
X172143Y157706D01*
X172110Y157721D01*
X172086Y157735D01*
X172076Y157745D01*
X172067Y157749D01*
X172023Y157769D01*
X171999Y157783D01*
X171990Y157792D01*
X171956Y157807D01*
X171904Y157836D01*
X171894Y157845D01*
X171848Y157862D01*
X171820Y157881D01*
X171812Y157888D01*
X171788Y157898D01*
X171757Y157910D01*
X171729Y157929D01*
X171678Y157951D01*
X171645Y157970D01*
X171621Y157984D01*
X171575Y158001D01*
X171558Y158013D01*
X171505Y158037D01*
X171453Y158066D01*
X171410Y158085D01*
X171378Y158097D01*
X171350Y158116D01*
X171287Y158140D01*
X171227Y158171D01*
X171168Y158193D01*
X171160Y158200D01*
X171151Y158205D01*
X171117Y158219D01*
X171072Y158236D01*
X171036Y158258D01*
X171002Y158267D01*
X170971Y158279D01*
X170921Y158306D01*
X170901Y158310D01*
X170856Y158327D01*
X170815Y158349D01*
X170767Y158363D01*
X170695Y158397D01*
X170676Y158402D01*
X170616Y158423D01*
X170585Y158440D01*
X170537Y158454D01*
X170506Y158466D01*
X170451Y158493D01*
X170419Y158500D01*
X170400Y158505D01*
X170376Y158514D01*
X170316Y158541D01*
X170285Y158548D01*
X170266Y158553D01*
X170242Y158562D01*
X170192Y158584D01*
X170172Y158589D01*
X170141Y158596D01*
X170103Y158610D01*
X170077Y158622D01*
X170043Y158632D01*
X169993Y158644D01*
X169973Y158649D01*
X169923Y158670D01*
X169885Y158680D01*
X169854Y158687D01*
X169834Y158692D01*
X169786Y158711D01*
X169765Y158718D01*
X169746Y158723D01*
X169671Y158740D01*
X169652Y158744D01*
X169626Y158756D01*
X169592Y158766D01*
X169573Y158771D01*
X169539Y158776D01*
X169520Y158780D01*
X169460Y158802D01*
X169434Y158809D01*
X169415Y158814D01*
X169357Y158824D01*
X169338Y158828D01*
X169278Y158850D01*
X169252Y158857D01*
X169194Y158867D01*
X169175Y158871D01*
X169144Y158879D01*
X169074Y158900D01*
X169055Y158905D01*
X169010Y158912D01*
X168952Y158922D01*
X168914Y158931D01*
X168883Y158943D01*
X168825Y158953D01*
X168806Y158958D01*
X168751Y158965D01*
X168722Y158970D01*
X168684Y158979D01*
X168657Y158987D01*
X168638Y158991D01*
X168604Y158996D01*
X168585Y159001D01*
X168516Y159008D01*
X168458Y159018D01*
X168401Y159032D01*
X168377Y159037D01*
X168348Y159042D01*
X168305Y159046D01*
X168209Y159056D01*
X168170Y159061D01*
X168142Y159066D01*
X168122Y159071D01*
X168098Y159075D01*
X168041Y159085D01*
X168003Y159090D01*
X167887Y159099D01*
X167835Y159104D01*
X167796Y159109D01*
X167768Y159114D01*
X167744Y159118D01*
X167715Y159123D01*
X167650Y159130D01*
X167602Y159135D01*
X167540Y159140D01*
X167418Y159147D01*
X167341Y159152D01*
X167235Y159162D01*
X167197Y159166D01*
X167072Y159176D01*
X166962Y159181D01*
X166804Y159186D01*
X166034Y159188D01*
D02*
G37*
G36*
X173529Y156459D02*
X173507Y156448D01*
X173503Y156428D01*
X173498Y156395D01*
X173493Y156342D01*
X173479Y156308D01*
X173469Y156284D01*
X173460Y156246D01*
X173452Y156215D01*
X173448Y156196D01*
X173412Y156117D01*
X173404Y156090D01*
X173376Y156042D01*
X173364Y156011D01*
X173340Y155968D01*
X173330Y155958D01*
X173297Y155896D01*
X173287Y155886D01*
X173263Y155843D01*
X173234Y155815D01*
X173229Y155795D01*
X173234Y155776D01*
X173285Y155726D01*
X173294Y155721D01*
X173325Y155690D01*
X173330Y155680D01*
X173347Y155668D01*
X173359Y155656D01*
X173364Y155647D01*
X173412Y155599D01*
X173416Y155589D01*
X173460Y155546D01*
X173464Y155536D01*
X173507Y155493D01*
X173512Y155484D01*
X173556Y155440D01*
X173560Y155431D01*
X173594Y155397D01*
X173599Y155388D01*
X173613Y155373D01*
X173615Y155366D01*
X173625Y155361D01*
X173637Y155349D01*
X173642Y155340D01*
X173663Y155313D01*
X173680Y155297D01*
X173685Y155287D01*
X173706Y155261D01*
X173719Y155249D01*
X173723Y155239D01*
X173747Y155206D01*
X173752Y155196D01*
X173776Y155172D01*
X173781Y155162D01*
X173814Y155119D01*
X173824Y155110D01*
X173838Y155086D01*
X173858Y155066D01*
X173862Y155057D01*
X173896Y155014D01*
X173920Y154980D01*
X173934Y154956D01*
X173958Y154932D01*
X173977Y154899D01*
X173997Y154879D01*
X174021Y154836D01*
X174042Y154810D01*
X174049Y154803D01*
X174073Y154760D01*
X174088Y154745D01*
X174093Y154736D01*
X174117Y154692D01*
X174136Y154673D01*
X174141Y154664D01*
X174160Y154630D01*
X174181Y154604D01*
X174203Y154563D01*
X174224Y154537D01*
X174232Y154529D01*
X174260Y154477D01*
X174270Y154467D01*
X174275Y154457D01*
X174304Y154405D01*
X174313Y154395D01*
X174318Y154385D01*
X174347Y154333D01*
X174371Y154299D01*
X174399Y154246D01*
X174409Y154237D01*
X174414Y154227D01*
X174428Y154194D01*
X174443Y154170D01*
X174462Y154141D01*
X174471Y154117D01*
X174491Y154083D01*
X174500Y154074D01*
X174515Y154040D01*
X174543Y153988D01*
X174563Y153944D01*
X174586Y153901D01*
X174610Y153848D01*
X174634Y153805D01*
X174658Y153753D01*
X174678Y153719D01*
X174692Y153695D01*
X174709Y153649D01*
X174733Y153611D01*
X174757Y153549D01*
X174783Y153498D01*
X174805Y153438D01*
X174826Y153402D01*
X174853Y153328D01*
X174874Y153292D01*
X174879Y153273D01*
X174889Y153239D01*
X174898Y153216D01*
X174903Y153206D01*
X174927Y153153D01*
X174932Y153134D01*
X174939Y153108D01*
X174956Y153072D01*
X174970Y153038D01*
X174980Y153000D01*
X174994Y152961D01*
X175018Y152909D01*
X175025Y152877D01*
X175044Y152825D01*
X175052Y152817D01*
X175066Y152765D01*
X175076Y152726D01*
X175088Y152695D01*
X175100Y152669D01*
X175109Y152635D01*
X175114Y152616D01*
X175121Y152585D01*
X175136Y152547D01*
X175145Y152523D01*
X175157Y152482D01*
X175169Y152427D01*
X175174Y152408D01*
X175186Y152376D01*
X175203Y152331D01*
X175222Y152312D01*
X175339Y152300D01*
X175363Y152295D01*
X175402Y152285D01*
X175430Y152280D01*
X175454Y152276D01*
X175517Y152266D01*
X175555Y152256D01*
X175615Y152230D01*
X175646Y152223D01*
X175685Y152208D01*
X175721Y152187D01*
X175780Y152165D01*
X175793Y152153D01*
X175802Y152148D01*
X175864Y152115D01*
X175879Y152101D01*
X175903Y152091D01*
X175927Y152077D01*
X175955Y152048D01*
X175979Y152038D01*
X175999Y152033D01*
X176018Y152038D01*
X176025Y152045D01*
X176020Y152098D01*
X176006Y152132D01*
X175999Y152192D01*
X175994Y152220D01*
X175989Y152244D01*
X175984Y152264D01*
X175968Y152319D01*
X175963Y152338D01*
X175953Y152395D01*
X175944Y152434D01*
X175936Y152460D01*
X175924Y152491D01*
X175915Y152525D01*
X175910Y152544D01*
X175905Y152578D01*
X175900Y152597D01*
X175879Y152657D01*
X175867Y152698D01*
X175862Y152717D01*
X175850Y152767D01*
X175840Y152791D01*
X175828Y152822D01*
X175819Y152856D01*
X175812Y152887D01*
X175807Y152906D01*
X175783Y152959D01*
X175776Y152985D01*
X175766Y153024D01*
X175754Y153055D01*
X175728Y153115D01*
X175723Y153134D01*
X175716Y153160D01*
X175680Y153239D01*
X175673Y153271D01*
X175663Y153295D01*
X175637Y153350D01*
X175629Y153376D01*
X175615Y153414D01*
X175593Y153450D01*
X175586Y153477D01*
X175582Y153496D01*
X175572Y153520D01*
X175550Y153561D01*
X175529Y153621D01*
X175502Y153671D01*
X175493Y153705D01*
X175481Y153736D01*
X175462Y153764D01*
X175452Y153788D01*
X175433Y153841D01*
X175426Y153848D01*
X175421Y153858D01*
X175407Y153892D01*
X175390Y153937D01*
X175382Y153944D01*
X175378Y153954D01*
X175363Y153978D01*
X175347Y154024D01*
X175327Y154052D01*
X175311Y154093D01*
X175287Y154136D01*
X175263Y154189D01*
X175243Y154223D01*
X175224Y154251D01*
X175217Y154278D01*
X175193Y154316D01*
X175186Y154323D01*
X175171Y154357D01*
X175162Y154381D01*
X175152Y154390D01*
X175147Y154400D01*
X175138Y154410D01*
X175124Y154443D01*
X175104Y154477D01*
X175090Y154491D01*
X175080Y154515D01*
X175061Y154549D01*
X175052Y154558D01*
X175047Y154568D01*
X175013Y154630D01*
X174999Y154645D01*
X174985Y154678D01*
X174980Y154688D01*
X174958Y154714D01*
X174922Y154779D01*
X174898Y154812D01*
X174886Y154843D01*
X174865Y154865D01*
X174860Y154875D01*
X174831Y154927D01*
X174824Y154935D01*
X174821Y154937D01*
X174812Y154947D01*
X174783Y154999D01*
X174764Y155018D01*
X174735Y155071D01*
X174721Y155086D01*
X174697Y155129D01*
X174673Y155153D01*
X174649Y155196D01*
X174634Y155210D01*
X174630Y155220D01*
X174599Y155265D01*
X174582Y155282D01*
X174563Y155316D01*
X174548Y155330D01*
X174543Y155340D01*
X174534Y155349D01*
X174529Y155359D01*
X174505Y155393D01*
X174491Y155407D01*
X174486Y155417D01*
X174462Y155450D01*
X174443Y155469D01*
X174438Y155479D01*
X174416Y155505D01*
X174399Y155522D01*
X174395Y155532D01*
X174361Y155575D01*
X174347Y155589D01*
X174342Y155599D01*
X174320Y155625D01*
X174304Y155642D01*
X174299Y155651D01*
X174277Y155678D01*
X174256Y155699D01*
X174251Y155709D01*
X174229Y155735D01*
X174203Y155762D01*
X174198Y155771D01*
X174169Y155800D01*
X174164Y155810D01*
X174143Y155836D01*
X174121Y155858D01*
X174117Y155867D01*
X174095Y155894D01*
X174073Y155915D01*
X174069Y155925D01*
X174059Y155934D01*
X174054Y155944D01*
X174016Y155982D01*
X174011Y155992D01*
X173973Y156030D01*
X173968Y156040D01*
X173925Y156083D01*
X173920Y156093D01*
X173908Y156105D01*
X173898Y156109D01*
X173886Y156121D01*
X173882Y156131D01*
X173855Y156157D01*
X173846Y156162D01*
X173834Y156179D01*
X173764Y156248D01*
X173755Y156253D01*
X173742Y156270D01*
X173721Y156292D01*
X173711Y156296D01*
X173699Y156308D01*
X173695Y156318D01*
X173683Y156330D01*
X173673Y156335D01*
X173651Y156356D01*
X173647Y156366D01*
X173639Y156373D01*
X173630Y156378D01*
X173582Y156426D01*
X173572Y156431D01*
X173548Y156455D01*
X173529Y156459D01*
D02*
G37*
G36*
X159321Y156464D02*
X159302Y156459D01*
X159285Y156448D01*
X159270Y156423D01*
X159261Y156414D01*
X159256Y156404D01*
X159172Y156320D01*
X159162Y156316D01*
X159155Y156308D01*
X159151Y156299D01*
X159016Y156165D01*
X159011Y156155D01*
X158964Y156107D01*
X158959Y156097D01*
X158916Y156054D01*
X158911Y156045D01*
X158868Y156001D01*
X158863Y155992D01*
X158841Y155965D01*
X158832Y155961D01*
X158820Y155944D01*
X158798Y155918D01*
X158776Y155896D01*
X158772Y155886D01*
X158733Y155848D01*
X158729Y155839D01*
X158707Y155812D01*
X158685Y155790D01*
X158681Y155781D01*
X158659Y155754D01*
X158637Y155733D01*
X158633Y155723D01*
X158611Y155697D01*
X158589Y155675D01*
X158585Y155666D01*
X158563Y155640D01*
X158546Y155623D01*
X158542Y155613D01*
X158520Y155587D01*
X158498Y155565D01*
X158479Y155532D01*
X158455Y155508D01*
X158450Y155498D01*
X158417Y155455D01*
X158407Y155445D01*
X158388Y155412D01*
X158379Y155407D01*
X158374Y155397D01*
X158359Y155383D01*
X158340Y155349D01*
X158321Y155330D01*
X158316Y155321D01*
X158285Y155275D01*
X158273Y155263D01*
X158254Y155229D01*
X158235Y155210D01*
X158230Y155201D01*
X158206Y155157D01*
X158192Y155143D01*
X158187Y155134D01*
X158177Y155124D01*
X158158Y155090D01*
X158148Y155081D01*
X158143Y155071D01*
X158134Y155062D01*
X158110Y155018D01*
X158086Y154985D01*
X158067Y154951D01*
X158052Y154937D01*
X158048Y154927D01*
X158024Y154884D01*
X158014Y154875D01*
X158009Y154865D01*
X158000Y154855D01*
X157971Y154803D01*
X157957Y154788D01*
X157923Y154726D01*
X157909Y154712D01*
X157875Y154649D01*
X157865Y154640D01*
X157861Y154630D01*
X157832Y154577D01*
X157822Y154568D01*
X157817Y154558D01*
X157784Y154496D01*
X157765Y154467D01*
X157755Y154443D01*
X157750Y154434D01*
X157717Y154385D01*
X157700Y154340D01*
X157688Y154328D01*
X157683Y154318D01*
X157597Y154155D01*
X157568Y154093D01*
X157563Y154083D01*
X157539Y154050D01*
X157530Y154026D01*
X157518Y153995D01*
X157499Y153966D01*
X157487Y153940D01*
X157470Y153894D01*
X157463Y153887D01*
X157458Y153877D01*
X157434Y153824D01*
X157422Y153793D01*
X157400Y153757D01*
X157379Y153697D01*
X157352Y153642D01*
X157331Y153582D01*
X157309Y153542D01*
X157300Y153508D01*
X157283Y153462D01*
X157276Y153455D01*
X157261Y153422D01*
X157256Y153402D01*
X157235Y153342D01*
X157228Y153335D01*
X157218Y153311D01*
X157204Y153263D01*
X157192Y153232D01*
X157165Y153172D01*
X157158Y153146D01*
X157153Y153127D01*
X157144Y153103D01*
X157136Y153096D01*
X157124Y153064D01*
X157117Y153038D01*
X157113Y153019D01*
X157096Y152973D01*
X157079Y152933D01*
X157069Y152899D01*
X157062Y152868D01*
X157048Y152829D01*
X157036Y152803D01*
X157026Y152765D01*
X157019Y152734D01*
X157014Y152714D01*
X157000Y152676D01*
X156983Y152621D01*
X156966Y152547D01*
X156952Y152508D01*
X156940Y152467D01*
X156935Y152448D01*
X156918Y152369D01*
X156909Y152345D01*
X156897Y152304D01*
X156887Y152266D01*
X156880Y152211D01*
X156875Y152187D01*
X156844Y152089D01*
X156839Y152060D01*
X156844Y152045D01*
X156849Y152036D01*
X156856Y152029D01*
X156870Y152024D01*
X156933Y152057D01*
X156952Y152077D01*
X156962Y152081D01*
X157005Y152105D01*
X157019Y152120D01*
X157053Y152134D01*
X157086Y152153D01*
X157115Y152173D01*
X157141Y152180D01*
X157173Y152192D01*
X157201Y152211D01*
X157235Y152220D01*
X157254Y152225D01*
X157314Y152247D01*
X157345Y152259D01*
X157364Y152264D01*
X157398Y152268D01*
X157417Y152273D01*
X157467Y152280D01*
X157515Y152290D01*
X157535Y152295D01*
X157597Y152304D01*
X157626Y152309D01*
X157657Y152321D01*
X157674Y152338D01*
X157681Y152369D01*
X157686Y152388D01*
X157690Y152412D01*
X157710Y152460D01*
X157717Y152487D01*
X157734Y152566D01*
X157748Y152604D01*
X157760Y152635D01*
X157770Y152674D01*
X157777Y152705D01*
X157791Y152743D01*
X157813Y152794D01*
X157820Y152825D01*
X157825Y152844D01*
X157834Y152868D01*
X157856Y152918D01*
X157865Y152956D01*
X157875Y152980D01*
X157899Y153033D01*
X157909Y153067D01*
X157925Y153112D01*
X157952Y153167D01*
X157959Y153194D01*
X157973Y153232D01*
X157981Y153239D01*
X157995Y153273D01*
X158004Y153307D01*
X158017Y153338D01*
X158038Y153374D01*
X158048Y153407D01*
X158060Y153438D01*
X158091Y153498D01*
X158108Y153544D01*
X158127Y153573D01*
X158139Y153604D01*
X158156Y153649D01*
X158163Y153657D01*
X158168Y153666D01*
X158187Y153709D01*
X158199Y153741D01*
X158206Y153748D01*
X158211Y153757D01*
X158235Y153810D01*
X158259Y153853D01*
X158287Y153916D01*
X158292Y153925D01*
X158302Y153935D01*
X158307Y153944D01*
X158350Y154026D01*
X158359Y154035D01*
X158369Y154059D01*
X158393Y154103D01*
X158403Y154112D01*
X158407Y154122D01*
X158436Y154174D01*
X158455Y154203D01*
X158465Y154227D01*
X158484Y154261D01*
X158498Y154275D01*
X158508Y154299D01*
X158527Y154333D01*
X158551Y154366D01*
X158556Y154385D01*
X158599Y154448D01*
X158604Y154467D01*
X158614Y154477D01*
X158618Y154486D01*
X158637Y154505D01*
X158666Y154558D01*
X158676Y154568D01*
X158681Y154577D01*
X158705Y154621D01*
X158724Y154640D01*
X158729Y154649D01*
X158753Y154692D01*
X158776Y154716D01*
X158800Y154760D01*
X158825Y154783D01*
X158848Y154827D01*
X158868Y154846D01*
X158892Y154889D01*
X158916Y154913D01*
X158940Y154956D01*
X158964Y154980D01*
X158983Y155014D01*
X159004Y155040D01*
X159031Y155081D01*
X159055Y155105D01*
X159069Y155129D01*
X159091Y155155D01*
X159103Y155167D01*
X159107Y155177D01*
X159129Y155203D01*
X159141Y155215D01*
X159146Y155225D01*
X159179Y155268D01*
X159194Y155282D01*
X159198Y155292D01*
X159220Y155318D01*
X159237Y155335D01*
X159242Y155345D01*
X159263Y155371D01*
X159280Y155388D01*
X159285Y155397D01*
X159294Y155407D01*
X159299Y155417D01*
X159328Y155445D01*
X159330Y155448D01*
X159354Y155481D01*
X159364Y155486D01*
X159371Y155493D01*
X159376Y155503D01*
X159386Y155512D01*
X159390Y155522D01*
X159407Y155539D01*
X159417Y155544D01*
X159424Y155551D01*
X159429Y155560D01*
X159438Y155570D01*
X159441Y155577D01*
X159450Y155582D01*
X159472Y155604D01*
X159477Y155613D01*
X159498Y155635D01*
X159508Y155640D01*
X159515Y155647D01*
X159520Y155656D01*
X159546Y155683D01*
X159556Y155687D01*
X159563Y155695D01*
X159568Y155704D01*
X159589Y155726D01*
X159599Y155731D01*
X159620Y155752D01*
X159625Y155762D01*
X159640Y155786D01*
X159635Y155815D01*
X159616Y155834D01*
X159611Y155843D01*
X159589Y155870D01*
X159582Y155877D01*
X159577Y155886D01*
X159553Y155930D01*
X159532Y155956D01*
X159508Y156004D01*
X159496Y156021D01*
X159477Y156050D01*
X159472Y156078D01*
X159438Y156131D01*
X159429Y156165D01*
X159424Y156184D01*
X159395Y156246D01*
X159386Y156280D01*
X159381Y156299D01*
X159373Y156344D01*
X159369Y156368D01*
X159362Y156395D01*
X159354Y156440D01*
X159342Y156457D01*
X159321Y156464D01*
D02*
G37*
G36*
X165857Y150758D02*
X165842Y150753D01*
X165794Y150758D01*
X163857Y150753D01*
X163845Y150741D01*
X163840Y150722D01*
X163836Y150286D01*
Y149403D01*
Y149398D01*
X163833Y146466D01*
X163836Y146373D01*
X163831Y146358D01*
X163836Y144023D01*
X163840Y143054D01*
X163852Y143033D01*
X163876Y143023D01*
X164586Y143018D01*
X165845Y143021D01*
X165914Y143018D01*
X165929Y143023D01*
X165953Y143037D01*
X165960Y143059D01*
X165967Y143944D01*
X165969Y143989D01*
X165965Y144004D01*
X165969Y144109D01*
X165967Y144505D01*
X165969Y145303D01*
X165965Y145318D01*
X165967Y145449D01*
X165965Y145461D01*
X165969Y145476D01*
X165965Y145524D01*
X165967Y145742D01*
X165965Y145778D01*
X165969Y145792D01*
X165965Y145869D01*
X165969Y145903D01*
X165967Y148586D01*
X165969Y148641D01*
X165965Y148655D01*
X165969Y149480D01*
X165965Y149494D01*
X165960Y150732D01*
X165948Y150748D01*
X165929Y150753D01*
X165898Y150756D01*
X165861Y150753D01*
X165857Y150758D01*
D02*
G37*
G36*
X167545Y153832D02*
X167530Y153827D01*
X164567Y153822D01*
X164552Y153817D01*
X163876Y153813D01*
X163852Y153798D01*
X163840Y153772D01*
X163845Y153652D01*
X163840Y153259D01*
X163843Y151770D01*
X163840Y151762D01*
X163845Y151748D01*
X163850Y151729D01*
X163862Y151717D01*
X163895Y151707D01*
X164646Y151700D01*
X167873Y151695D01*
X167964Y151691D01*
X168022Y151686D01*
X168075Y151681D01*
X168170Y151671D01*
X168209Y151667D01*
X168238Y151662D01*
X168257Y151657D01*
X168326Y151635D01*
X168345Y151631D01*
X168377Y151623D01*
X168401Y151619D01*
X168439Y151604D01*
X168489Y151583D01*
X168528Y151573D01*
X168619Y151530D01*
X168650Y151518D01*
X168657Y151511D01*
X168667Y151506D01*
X168676Y151496D01*
X168722Y151480D01*
X168729Y151472D01*
X168739Y151468D01*
X168748Y151458D01*
X168758Y151453D01*
X168811Y151424D01*
X168830Y151405D01*
X168883Y151376D01*
X168906Y151353D01*
X168940Y151333D01*
X168964Y151309D01*
X168974Y151304D01*
X169000Y151283D01*
X169026Y151257D01*
X169036Y151252D01*
X169074Y151213D01*
X169084Y151209D01*
X169106Y151187D01*
X169108Y151180D01*
X169117Y151175D01*
X169134Y151158D01*
X169139Y151149D01*
X169182Y151105D01*
X169187Y151096D01*
X169221Y151062D01*
X169235Y151038D01*
X169259Y151014D01*
X169264Y151005D01*
X169288Y150971D01*
X169302Y150957D01*
X169307Y150947D01*
X169331Y150904D01*
X169350Y150885D01*
X169360Y150861D01*
X169379Y150827D01*
X169398Y150799D01*
X169408Y150775D01*
X169436Y150722D01*
X169451Y150688D01*
X169467Y150643D01*
X169489Y150607D01*
X169494Y150578D01*
X169499Y150564D01*
X169520Y150504D01*
X169532Y150477D01*
X169537Y150458D01*
X169544Y150427D01*
X169549Y150398D01*
X169559Y150360D01*
X169575Y150305D01*
X169580Y150286D01*
X169590Y150204D01*
X169599Y150108D01*
X169607Y150039D01*
X169611Y149976D01*
X169614Y149801D01*
X169609Y149787D01*
X169604Y149686D01*
X169599Y149672D01*
X169592Y149588D01*
X169587Y149545D01*
X169583Y149506D01*
X169578Y149482D01*
X169568Y149444D01*
X169559Y149420D01*
X169551Y149394D01*
X169547Y149374D01*
X169542Y149341D01*
X169532Y149307D01*
X169508Y149255D01*
X169503Y149235D01*
X169501Y149233D01*
X169492Y149195D01*
X169456Y149125D01*
X169439Y149080D01*
X169420Y149051D01*
X169408Y149024D01*
X169379Y148972D01*
X169369Y148962D01*
X169336Y148900D01*
X169321Y148885D01*
X169297Y148842D01*
X169278Y148823D01*
X169273Y148813D01*
X169249Y148780D01*
X169230Y148761D01*
X169225Y148751D01*
X169216Y148741D01*
X169211Y148732D01*
X169177Y148698D01*
X169173Y148689D01*
X169089Y148605D01*
X169079Y148600D01*
X169041Y148562D01*
X169031Y148557D01*
X169005Y148535D01*
X168983Y148514D01*
X168950Y148495D01*
X168926Y148471D01*
X168916Y148466D01*
X168870Y148435D01*
X168863Y148427D01*
X168811Y148399D01*
X168777Y148375D01*
X168758Y148370D01*
X168724Y148351D01*
X168695Y148331D01*
X168669Y148324D01*
X168631Y148310D01*
X168624Y148303D01*
X168580Y148284D01*
X168561Y148279D01*
X168509Y148260D01*
X168465Y148240D01*
X168434Y148233D01*
X168405Y148228D01*
X168367Y148219D01*
X168329Y148204D01*
X168302Y148197D01*
X168283Y148192D01*
X168235Y148188D01*
X168202Y148183D01*
X168127Y148176D01*
X168041Y148166D01*
X167988Y148161D01*
X167926Y148156D01*
X167631Y148149D01*
X167307Y148147D01*
X167305Y148149D01*
X167295Y148144D01*
X167281Y148149D01*
X167118Y148144D01*
X166957Y148147D01*
X166938Y148142D01*
X166924Y148128D01*
X166919Y148108D01*
X166914Y147140D01*
X166919Y146085D01*
X166936Y146058D01*
X166955Y146054D01*
X167192Y146051D01*
X167554Y146054D01*
X167569Y146049D01*
X167703Y146054D01*
X168197Y146058D01*
X168211Y146063D01*
X168317Y146068D01*
X168331Y146073D01*
X168386Y146080D01*
X168410Y146085D01*
X168439Y146090D01*
X168504Y146097D01*
X168523Y146102D01*
X168595Y146107D01*
X168609Y146111D01*
X168645Y146118D01*
X168664Y146123D01*
X168691Y146131D01*
X168729Y146140D01*
X168808Y146152D01*
X168832Y146157D01*
X168851Y146162D01*
X168921Y146183D01*
X168959Y146193D01*
X169000Y146200D01*
X169038Y146214D01*
X169079Y146231D01*
X169134Y146243D01*
X169173Y146257D01*
X169223Y146279D01*
X169261Y146289D01*
X169292Y146301D01*
X169328Y146322D01*
X169360Y146329D01*
X169398Y146344D01*
X169434Y146365D01*
X169508Y146392D01*
X169520Y146404D01*
X169554Y146418D01*
X169585Y146430D01*
X169611Y146447D01*
X169635Y146461D01*
X169683Y146481D01*
X169710Y146502D01*
X169736Y146514D01*
X169760Y146524D01*
X169770Y146528D01*
X169784Y146543D01*
X169794Y146548D01*
X169856Y146581D01*
X169870Y146596D01*
X169923Y146624D01*
X169942Y146644D01*
X169995Y146672D01*
X170009Y146687D01*
X170019Y146692D01*
X170053Y146711D01*
X170072Y146730D01*
X170081Y146735D01*
X170141Y146775D01*
X170153Y146787D01*
X170187Y146807D01*
X170211Y146831D01*
X170244Y146850D01*
X170273Y146879D01*
X170283Y146883D01*
X170326Y146917D01*
X170340Y146931D01*
X170350Y146936D01*
X170376Y146958D01*
X170398Y146979D01*
X170407Y146984D01*
X170451Y147027D01*
X170460Y147032D01*
X170477Y147049D01*
X170482Y147058D01*
X170489Y147065D01*
X170499Y147070D01*
X170546Y147118D01*
X170556Y147123D01*
X170568Y147135D01*
X170573Y147145D01*
X170594Y147166D01*
X170604Y147171D01*
X170611Y147178D01*
X170616Y147188D01*
X170664Y147236D01*
X170669Y147245D01*
X170676Y147253D01*
X170686Y147257D01*
X170702Y147274D01*
X170707Y147284D01*
X170750Y147327D01*
X170755Y147336D01*
X170765Y147346D01*
X170767Y147353D01*
X170777Y147358D01*
X170789Y147370D01*
X170793Y147380D01*
X170827Y147423D01*
X170841Y147437D01*
X170846Y147447D01*
X170868Y147473D01*
X170885Y147490D01*
X170889Y147500D01*
X170911Y147531D01*
X170921Y147536D01*
X170928Y147543D01*
X170947Y147576D01*
X170966Y147595D01*
X170971Y147605D01*
X170980Y147615D01*
X171000Y147648D01*
X171014Y147663D01*
X171019Y147672D01*
X171038Y147706D01*
X171057Y147725D01*
X171062Y147734D01*
X171086Y147778D01*
X171107Y147804D01*
X171119Y147826D01*
X171139Y147859D01*
X171148Y147869D01*
X171153Y147878D01*
X171187Y147941D01*
X171196Y147950D01*
X171201Y147960D01*
X171239Y148032D01*
X171287Y148123D01*
X171307Y148166D01*
X171350Y148257D01*
X171362Y148288D01*
X171388Y148339D01*
X171412Y148406D01*
X171441Y148468D01*
X171448Y148499D01*
X171462Y148538D01*
X171484Y148588D01*
X171491Y148619D01*
X171496Y148638D01*
X171510Y148677D01*
X171522Y148703D01*
X171532Y148737D01*
X171537Y148756D01*
X171549Y148811D01*
X171565Y148852D01*
X171575Y148885D01*
X171585Y148943D01*
X171597Y148998D01*
X171606Y149022D01*
X171613Y149048D01*
X171618Y149068D01*
X171625Y149113D01*
X171635Y149199D01*
X171645Y149257D01*
X171649Y149281D01*
X171654Y149300D01*
X171659Y149329D01*
X171664Y149367D01*
X171669Y149420D01*
X171676Y149562D01*
X171680Y149609D01*
X171685Y149816D01*
X171690Y149864D01*
X171685Y150108D01*
X171680Y150122D01*
X171673Y150283D01*
X171664Y150408D01*
X171659Y150446D01*
X171654Y150475D01*
X171649Y150494D01*
X171640Y150542D01*
X171633Y150607D01*
X171628Y150640D01*
X171621Y150696D01*
X171616Y150724D01*
X171611Y150743D01*
X171594Y150799D01*
X171589Y150818D01*
X171585Y150851D01*
X171580Y150871D01*
X171573Y150916D01*
X171568Y150935D01*
X171556Y150967D01*
X171542Y151014D01*
X171534Y151055D01*
X171529Y151079D01*
X171525Y151098D01*
X171515Y151122D01*
X171503Y151154D01*
X171493Y151187D01*
X171489Y151206D01*
X171482Y151233D01*
X171472Y151257D01*
X171450Y151307D01*
X171441Y151345D01*
X171429Y151376D01*
X171402Y151432D01*
X171395Y151458D01*
X171386Y151482D01*
X171350Y151561D01*
X171345Y151580D01*
X171326Y151614D01*
X171302Y151667D01*
X171278Y151710D01*
X171259Y151753D01*
X171235Y151796D01*
X171215Y151825D01*
X171208Y151851D01*
X171189Y151880D01*
X171177Y151892D01*
X171165Y151923D01*
X171158Y151940D01*
X171136Y151966D01*
X171129Y151973D01*
X171117Y152005D01*
X171100Y152031D01*
X171091Y152041D01*
X171086Y152050D01*
X171057Y152103D01*
X171038Y152122D01*
X171009Y152175D01*
X170985Y152208D01*
X170971Y152232D01*
X170949Y152259D01*
X170942Y152266D01*
X170918Y152309D01*
X170894Y152333D01*
X170875Y152367D01*
X170868Y152374D01*
X170861Y152376D01*
X170856Y152386D01*
X170846Y152395D01*
X170841Y152405D01*
X170820Y152431D01*
X170813Y152434D01*
X170808Y152443D01*
X170774Y152487D01*
X170755Y152506D01*
X170750Y152515D01*
X170741Y152525D01*
X170736Y152534D01*
X170702Y152568D01*
X170697Y152578D01*
X170654Y152621D01*
X170650Y152630D01*
X170633Y152647D01*
X170623Y152652D01*
X170611Y152664D01*
X170606Y152674D01*
X170585Y152695D01*
X170575Y152700D01*
X170568Y152707D01*
X170563Y152717D01*
X170542Y152738D01*
X170532Y152743D01*
X170515Y152760D01*
X170510Y152769D01*
X170494Y152781D01*
X170484Y152791D01*
X170475Y152796D01*
X170467Y152803D01*
X170463Y152813D01*
X170455Y152820D01*
X170446Y152825D01*
X170427Y152844D01*
X170419Y152846D01*
X170415Y152856D01*
X170403Y152868D01*
X170393Y152873D01*
X170379Y152887D01*
X170369Y152892D01*
X170335Y152925D01*
X170326Y152930D01*
X170292Y152964D01*
X170283Y152969D01*
X170256Y152990D01*
X170235Y153012D01*
X170225Y153016D01*
X170199Y153038D01*
X170187Y153050D01*
X170177Y153055D01*
X170134Y153088D01*
X170100Y153112D01*
X170077Y153127D01*
X170057Y153146D01*
X170014Y153170D01*
X169995Y153189D01*
X169985Y153194D01*
X169942Y153218D01*
X169923Y153237D01*
X169913Y153242D01*
X169870Y153266D01*
X169856Y153280D01*
X169846Y153285D01*
X169794Y153314D01*
X169784Y153323D01*
X169774Y153328D01*
X169702Y153366D01*
X169693Y153376D01*
X169669Y153386D01*
X169626Y153410D01*
X169563Y153438D01*
X169539Y153453D01*
X169506Y153472D01*
X169460Y153489D01*
X169400Y153520D01*
X169381Y153525D01*
X169350Y153537D01*
X169333Y153544D01*
X169281Y153568D01*
X169261Y153573D01*
X169216Y153589D01*
X169209Y153597D01*
X169185Y153606D01*
X169127Y153621D01*
X169096Y153633D01*
X169079Y153640D01*
X169055Y153649D01*
X169022Y153659D01*
X168990Y153666D01*
X168966Y153671D01*
X168928Y153685D01*
X168873Y153702D01*
X168854Y153707D01*
X168820Y153712D01*
X168801Y153717D01*
X168770Y153724D01*
X168700Y153745D01*
X168667Y153750D01*
X168648Y153755D01*
X168588Y153762D01*
X168559Y153767D01*
X168482Y153786D01*
X168453Y153791D01*
X168410Y153796D01*
X168357Y153800D01*
X168295Y153805D01*
X168161Y153815D01*
X168084Y153820D01*
X167979Y153824D01*
X167734Y153829D01*
X167545Y153832D01*
D02*
G37*
G36*
X176075Y147818D02*
X176068Y147811D01*
Y147806D01*
X176063Y147792D01*
X176068Y147778D01*
X176071Y147775D01*
X176078Y147782D01*
X176080Y147814D01*
X176075Y147818D01*
D02*
G37*
G36*
X156458Y151185D02*
X156410Y151180D01*
X156367Y151156D01*
X156352Y151142D01*
X156319Y151127D01*
X156309Y151122D01*
X156283Y151101D01*
X156242Y151079D01*
X156180Y151036D01*
X156156Y151022D01*
X156137Y151002D01*
X156127Y150998D01*
X156094Y150974D01*
X156067Y150952D01*
X156029Y150928D01*
X156007Y150907D01*
X155998Y150902D01*
X155971Y150880D01*
X155945Y150854D01*
X155935Y150849D01*
X155892Y150806D01*
X155883Y150801D01*
X155871Y150789D01*
X155866Y150779D01*
X155844Y150758D01*
X155835Y150753D01*
X155827Y150746D01*
X155823Y150736D01*
X155775Y150688D01*
X155770Y150679D01*
X155763Y150672D01*
X155753Y150667D01*
X155741Y150655D01*
X155736Y150645D01*
X155715Y150619D01*
X155703Y150612D01*
X155698Y150602D01*
X155688Y150593D01*
X155684Y150583D01*
X155662Y150557D01*
X155650Y150545D01*
X155645Y150535D01*
X155636Y150525D01*
X155631Y150516D01*
X155609Y150489D01*
X155602Y150482D01*
X155597Y150473D01*
X155573Y150439D01*
X155559Y150425D01*
X155554Y150415D01*
X155535Y150382D01*
X155516Y150362D01*
X155511Y150353D01*
X155487Y150310D01*
X155468Y150290D01*
X155434Y150228D01*
X155425Y150218D01*
X155391Y150156D01*
X155372Y150127D01*
X155338Y150065D01*
X155329Y150055D01*
X155319Y150031D01*
X155307Y150000D01*
X155295Y149984D01*
X155281Y149960D01*
X155269Y149928D01*
X155259Y149904D01*
X155247Y149888D01*
X155228Y149844D01*
X155211Y149799D01*
X155190Y149763D01*
X155180Y149729D01*
X155175Y149710D01*
X155142Y149638D01*
X155127Y149581D01*
X155115Y149549D01*
X155106Y149525D01*
X155094Y149494D01*
X155082Y149434D01*
X155067Y149396D01*
X155051Y149341D01*
X155046Y149322D01*
X155029Y149243D01*
X155010Y149190D01*
X155000Y149142D01*
X154991Y149080D01*
X154981Y149032D01*
X154972Y148993D01*
X154967Y148969D01*
X154962Y148950D01*
X154957Y148921D01*
X154952Y148878D01*
X154943Y148782D01*
X154931Y148674D01*
X154926Y148655D01*
X154919Y148566D01*
X154914Y148408D01*
X154911Y148315D01*
X154916Y148300D01*
X154921Y148142D01*
X154926Y148128D01*
X154931Y148041D01*
X154936Y148027D01*
X154945Y147922D01*
X154950Y147902D01*
X154955Y147821D01*
X154959Y147806D01*
X154964Y147768D01*
X154969Y147754D01*
X154979Y147720D01*
X154983Y147701D01*
X154993Y147643D01*
X154998Y147610D01*
X155010Y147555D01*
X155036Y147471D01*
X155046Y147413D01*
X155067Y147353D01*
X155079Y147322D01*
X155094Y147265D01*
X155106Y147233D01*
X155127Y147183D01*
X155151Y147116D01*
X155180Y147054D01*
X155187Y147027D01*
X155223Y146958D01*
X155240Y146912D01*
X155259Y146883D01*
X155276Y146843D01*
X155300Y146799D01*
X155343Y146718D01*
X155353Y146708D01*
X155367Y146675D01*
X155382Y146651D01*
X155405Y146617D01*
X155434Y146564D01*
X155449Y146550D01*
X155473Y146507D01*
X155487Y146493D01*
X155492Y146483D01*
X155511Y146449D01*
X155520Y146440D01*
X155525Y146430D01*
X155535Y146425D01*
X155540Y146416D01*
X155573Y146373D01*
X155619Y146313D01*
X155631Y146301D01*
X155636Y146291D01*
X155645Y146282D01*
X155650Y146272D01*
X155684Y146238D01*
X155688Y146229D01*
X155710Y146202D01*
X155741Y146171D01*
X155746Y146162D01*
X155753Y146154D01*
X155763Y146150D01*
X155780Y146133D01*
X155784Y146123D01*
X155806Y146102D01*
X155815Y146097D01*
X155827Y146085D01*
X155832Y146075D01*
X155849Y146058D01*
X155859Y146054D01*
X155880Y146032D01*
X155885Y146023D01*
X155914Y146003D01*
X155928Y145989D01*
X155933Y145979D01*
X155962Y145960D01*
X155993Y145929D01*
X156002Y145924D01*
X156012Y145915D01*
X156022Y145910D01*
X156046Y145886D01*
X156055Y145881D01*
X156072Y145869D01*
X156074Y145867D01*
X156084Y145862D01*
X156108Y145838D01*
X156117Y145833D01*
X156151Y145809D01*
X156166Y145795D01*
X156175Y145790D01*
X156218Y145766D01*
X156237Y145747D01*
X156300Y145713D01*
X156314Y145699D01*
X156377Y145665D01*
X156391Y145651D01*
X156424Y145641D01*
X156463Y145646D01*
X156470Y145653D01*
X156475Y145673D01*
X156480Y146401D01*
X156484Y146416D01*
X156489Y147701D01*
X156484Y150698D01*
X156480Y150712D01*
X156475Y151163D01*
X156458Y151185D01*
D02*
G37*
G36*
X176449Y151170D02*
X176416Y151165D01*
X176409Y151158D01*
X176404Y151139D01*
X176397Y150619D01*
X176394Y146694D01*
Y146689D01*
X176399Y146655D01*
X176394Y146646D01*
X176399Y146632D01*
X176397Y146610D01*
X176401Y146188D01*
X176404Y146176D01*
X176399Y146166D01*
X176404Y146152D01*
X176409Y145663D01*
X176430Y145637D01*
X176473Y145641D01*
X176507Y145660D01*
X176526Y145680D01*
X176550Y145689D01*
X176584Y145709D01*
X176598Y145723D01*
X176660Y145756D01*
X176675Y145771D01*
X176728Y145800D01*
X176747Y145819D01*
X176780Y145838D01*
X176797Y145850D01*
X176799Y145857D01*
X176809Y145862D01*
X176843Y145886D01*
X176852Y145891D01*
X176876Y145915D01*
X176886Y145920D01*
X176912Y145941D01*
X176934Y145963D01*
X176943Y145967D01*
X176970Y145989D01*
X176974Y145999D01*
X176991Y146011D01*
X177013Y146027D01*
X177018Y146037D01*
X177034Y146054D01*
X177044Y146058D01*
X177070Y146085D01*
X177073Y146092D01*
X177082Y146097D01*
X177114Y146128D01*
X177118Y146138D01*
X177126Y146145D01*
X177135Y146150D01*
X177147Y146162D01*
X177152Y146171D01*
X177195Y146214D01*
X177200Y146224D01*
X177209Y146234D01*
X177212Y146241D01*
X177222Y146246D01*
X177234Y146257D01*
X177238Y146267D01*
X177260Y146293D01*
X177277Y146310D01*
X177281Y146320D01*
X177315Y146363D01*
X177325Y146373D01*
X177329Y146382D01*
X177348Y146416D01*
X177377Y146445D01*
X177401Y146488D01*
X177420Y146507D01*
X177449Y146560D01*
X177459Y146569D01*
X177464Y146579D01*
X177492Y146632D01*
X177516Y146665D01*
X177521Y146684D01*
X177552Y146730D01*
X177564Y146756D01*
X177574Y146780D01*
X177579Y146790D01*
X177603Y146823D01*
X177620Y146869D01*
X177627Y146886D01*
X177646Y146915D01*
X177655Y146939D01*
X177672Y146984D01*
X177679Y146991D01*
X177699Y147034D01*
X177703Y147054D01*
X177720Y147099D01*
X177747Y147159D01*
X177751Y147178D01*
X177759Y147205D01*
X177768Y147229D01*
X177790Y147279D01*
X177806Y147353D01*
X177826Y147406D01*
X177833Y147432D01*
X177842Y147471D01*
X177850Y147521D01*
X177876Y147605D01*
X177881Y147624D01*
X177898Y147742D01*
X177902Y147771D01*
X177907Y147794D01*
X177917Y147833D01*
X177922Y147857D01*
X177926Y147895D01*
X177931Y147938D01*
X177936Y147996D01*
X177941Y148063D01*
X177953Y148276D01*
X177957Y148339D01*
X177953Y148540D01*
X177948Y148555D01*
X177941Y148686D01*
X177936Y148749D01*
X177931Y148816D01*
X177926Y148873D01*
X177917Y148931D01*
X177912Y148950D01*
X177907Y148974D01*
X177902Y148993D01*
X177898Y149017D01*
X177890Y149082D01*
X177886Y149101D01*
X177878Y149156D01*
X177874Y149176D01*
X177852Y149245D01*
X177847Y149264D01*
X177840Y149305D01*
X177835Y149329D01*
X177831Y149348D01*
X177816Y149386D01*
X177809Y149408D01*
X177799Y149446D01*
X177787Y149497D01*
X177778Y149521D01*
X177766Y149547D01*
X177756Y149571D01*
X177749Y149607D01*
X177744Y149626D01*
X177723Y149667D01*
X177713Y149691D01*
X177703Y149729D01*
X177691Y149760D01*
X177670Y149796D01*
X177646Y149864D01*
X177622Y149897D01*
X177615Y149924D01*
X177605Y149948D01*
X177588Y149974D01*
X177574Y149998D01*
X177564Y150022D01*
X177545Y150055D01*
X177536Y150065D01*
X177531Y150075D01*
X177516Y150108D01*
X177502Y150132D01*
X177478Y150166D01*
X177466Y150197D01*
X177459Y150204D01*
X177454Y150214D01*
X177440Y150228D01*
X177406Y150290D01*
X177392Y150305D01*
X177368Y150348D01*
X177348Y150367D01*
X177344Y150377D01*
X177325Y150410D01*
X177301Y150434D01*
X177296Y150444D01*
X177272Y150477D01*
X177253Y150497D01*
X177248Y150506D01*
X177226Y150532D01*
X177214Y150545D01*
X177209Y150554D01*
X177200Y150564D01*
X177195Y150573D01*
X177157Y150612D01*
X177152Y150621D01*
X177104Y150669D01*
X177099Y150679D01*
X176977Y150801D01*
X176967Y150806D01*
X176924Y150849D01*
X176915Y150854D01*
X176905Y150863D01*
X176895Y150868D01*
X176862Y150902D01*
X176838Y150916D01*
X176809Y150945D01*
X176776Y150964D01*
X176756Y150983D01*
X176713Y151007D01*
X176699Y151022D01*
X176689Y151026D01*
X176641Y151055D01*
X176627Y151070D01*
X176617Y151074D01*
X176555Y151108D01*
X176545Y151118D01*
X176483Y151151D01*
X176473Y151161D01*
X176449Y151170D01*
D02*
G37*
G36*
X162855Y152273D02*
X162831Y152268D01*
X162802Y152240D01*
X162771Y152228D01*
X162754Y152220D01*
X162735Y152201D01*
X162673Y152168D01*
X162658Y152153D01*
X162649Y152148D01*
X162606Y152125D01*
X162586Y152105D01*
X162543Y152081D01*
X162529Y152067D01*
X162519Y152062D01*
X162476Y152038D01*
X162452Y152014D01*
X162418Y151995D01*
X162399Y151976D01*
X162390Y151971D01*
X162356Y151947D01*
X162347Y151942D01*
X162323Y151918D01*
X162313Y151914D01*
X162282Y151892D01*
X162277Y151882D01*
X162270Y151875D01*
X162260Y151870D01*
X162234Y151849D01*
X162207Y151822D01*
X162198Y151818D01*
X162160Y151779D01*
X162150Y151775D01*
X162112Y151736D01*
X162102Y151731D01*
X162016Y151645D01*
X162006Y151640D01*
X161989Y151623D01*
X161985Y151614D01*
X161958Y151587D01*
X161951Y151585D01*
X161946Y151576D01*
X161903Y151532D01*
X161898Y151523D01*
X161860Y151484D01*
X161855Y151475D01*
X161846Y151465D01*
X161843Y151458D01*
X161834Y151453D01*
X161817Y151436D01*
X161812Y151427D01*
X161802Y151417D01*
X161797Y151408D01*
X161769Y151379D01*
X161764Y151369D01*
X161754Y151360D01*
X161750Y151350D01*
X161726Y151326D01*
X161721Y151316D01*
X161687Y151273D01*
X161678Y151264D01*
X161673Y151254D01*
X161649Y151221D01*
X161630Y151201D01*
X161610Y151168D01*
X161591Y151149D01*
X161567Y151105D01*
X161546Y151079D01*
X161539Y151072D01*
X161515Y151029D01*
X161500Y151014D01*
X161467Y150952D01*
X161448Y150933D01*
X161435Y150902D01*
X161399Y150851D01*
X161390Y150827D01*
X161375Y150803D01*
X161356Y150775D01*
X161342Y150741D01*
X161328Y150717D01*
X161308Y150688D01*
X161296Y150657D01*
X161287Y150633D01*
X161275Y150621D01*
X161270Y150612D01*
X161256Y150578D01*
X161246Y150554D01*
X161227Y150521D01*
X161213Y150487D01*
X161203Y150453D01*
X161165Y150372D01*
X161157Y150341D01*
X161148Y150317D01*
X161126Y150281D01*
X161119Y150254D01*
X161109Y150216D01*
X161083Y150161D01*
X161073Y150127D01*
X161066Y150096D01*
X161061Y150077D01*
X161035Y150017D01*
X161028Y149986D01*
X161023Y149962D01*
X161018Y149933D01*
X161011Y149907D01*
X161002Y149883D01*
X160992Y149849D01*
X160987Y149830D01*
X160982Y149796D01*
X160977Y149777D01*
X160970Y149736D01*
X160961Y149698D01*
X160954Y149677D01*
X160944Y149638D01*
X160939Y149605D01*
X160934Y149585D01*
X160927Y149521D01*
X160918Y149473D01*
X160908Y149434D01*
X160903Y149410D01*
X160898Y149382D01*
X160894Y149343D01*
X160889Y149291D01*
X160884Y149223D01*
X160879Y149166D01*
X160870Y149060D01*
X160862Y148919D01*
X160858Y148842D01*
X160862Y148684D01*
X160867Y148670D01*
X160872Y148555D01*
X160877Y148540D01*
X160884Y148427D01*
X160889Y148365D01*
X160894Y148317D01*
X160903Y148260D01*
X160908Y148240D01*
X160913Y148216D01*
X160922Y148178D01*
X160934Y148080D01*
X160939Y148061D01*
X160946Y148025D01*
X160951Y148005D01*
X160963Y147965D01*
X160973Y147926D01*
X160982Y147869D01*
X160992Y147830D01*
X161009Y147785D01*
X161021Y147744D01*
X161038Y147670D01*
X161047Y147646D01*
X161059Y147619D01*
X161078Y147543D01*
X161088Y147519D01*
X161107Y147476D01*
X161117Y147442D01*
X161121Y147423D01*
X161136Y147384D01*
X161160Y147332D01*
X161167Y147305D01*
X161181Y147267D01*
X161203Y147231D01*
X161210Y147205D01*
X161215Y147185D01*
X161251Y147116D01*
X161268Y147070D01*
X161275Y147063D01*
X161280Y147054D01*
X161304Y147001D01*
X161328Y146958D01*
X161371Y146876D01*
X161385Y146852D01*
X161395Y146828D01*
X161414Y146795D01*
X161428Y146780D01*
X161438Y146756D01*
X161457Y146723D01*
X161467Y146713D01*
X161471Y146704D01*
X161495Y146660D01*
X161517Y146634D01*
X161524Y146627D01*
X161534Y146603D01*
X161558Y146569D01*
X161567Y146560D01*
X161591Y146517D01*
X161615Y146493D01*
X161639Y146449D01*
X161663Y146425D01*
X161682Y146392D01*
X161706Y146368D01*
X161711Y146358D01*
X161745Y146315D01*
X161759Y146301D01*
X161764Y146291D01*
X161785Y146265D01*
X161802Y146248D01*
X161807Y146238D01*
X161817Y146229D01*
X161821Y146219D01*
X161855Y146186D01*
X161860Y146176D01*
X161870Y146166D01*
X161872Y146159D01*
X161881Y146154D01*
X161903Y146133D01*
X161908Y146123D01*
X161946Y146085D01*
X161951Y146075D01*
X162004Y146023D01*
X162006Y146015D01*
X162016Y146011D01*
X162047Y145979D01*
X162049Y145972D01*
X162059Y145967D01*
X162112Y145915D01*
X162121Y145910D01*
X162138Y145893D01*
X162143Y145884D01*
X162150Y145876D01*
X162160Y145871D01*
X162181Y145855D01*
X162186Y145845D01*
X162203Y145828D01*
X162212Y145824D01*
X162251Y145785D01*
X162260Y145780D01*
X162287Y145759D01*
X162303Y145742D01*
X162313Y145737D01*
X162356Y145704D01*
X162371Y145689D01*
X162394Y145675D01*
X162411Y145663D01*
X162414Y145656D01*
X162423Y145651D01*
X162469Y145620D01*
X162481Y145608D01*
X162490Y145603D01*
X162524Y145584D01*
X162550Y145562D01*
X162558Y145555D01*
X162601Y145531D01*
X162615Y145517D01*
X162668Y145488D01*
X162677Y145478D01*
X162687Y145474D01*
X162697Y145464D01*
X162716Y145459D01*
X162749Y145435D01*
X162759Y145426D01*
X162783Y145416D01*
X162807Y145402D01*
X162826Y145382D01*
X162836Y145378D01*
X162850Y145373D01*
X162879Y145378D01*
X162891Y145404D01*
X162886Y145481D01*
X162891Y146018D01*
X162896Y146339D01*
X162891Y146560D01*
X162881Y146569D01*
X162876Y146579D01*
X162845Y146610D01*
X162836Y146615D01*
X162821Y146629D01*
X162812Y146634D01*
X162773Y146672D01*
X162764Y146677D01*
X162725Y146715D01*
X162716Y146720D01*
X162673Y146763D01*
X162663Y146768D01*
X162656Y146775D01*
X162651Y146785D01*
X162629Y146807D01*
X162620Y146811D01*
X162608Y146823D01*
X162603Y146833D01*
X162560Y146876D01*
X162555Y146886D01*
X162522Y146919D01*
X162517Y146929D01*
X162507Y146939D01*
X162502Y146948D01*
X162478Y146972D01*
X162474Y146982D01*
X162440Y147025D01*
X162426Y147039D01*
X162407Y147073D01*
X162382Y147097D01*
X162359Y147140D01*
X162344Y147154D01*
X162339Y147164D01*
X162315Y147207D01*
X162296Y147226D01*
X162291Y147236D01*
X162263Y147289D01*
X162253Y147298D01*
X162248Y147308D01*
X162234Y147341D01*
X162229Y147351D01*
X162196Y147399D01*
X162191Y147418D01*
X162172Y147452D01*
X162152Y147480D01*
X162143Y147514D01*
X162114Y147567D01*
X162104Y147591D01*
X162100Y147610D01*
X162083Y147655D01*
X162076Y147663D01*
X162071Y147672D01*
X162061Y147696D01*
X162057Y147715D01*
X162047Y147749D01*
X162018Y147811D01*
X161999Y147888D01*
X161987Y147919D01*
X161975Y147945D01*
X161965Y147979D01*
X161944Y148077D01*
X161934Y148101D01*
X161922Y148142D01*
X161915Y148188D01*
X161910Y148226D01*
X161901Y148284D01*
X161896Y148308D01*
X161891Y148327D01*
X161886Y148351D01*
X161881Y148370D01*
X161877Y148408D01*
X161872Y148461D01*
X161867Y148538D01*
X161865Y148550D01*
Y148555D01*
X161860Y148804D01*
X161865Y149101D01*
X161870Y149116D01*
X161874Y149231D01*
X161879Y149245D01*
X161884Y149293D01*
X161889Y149307D01*
X161896Y149338D01*
X161905Y149386D01*
X161910Y149415D01*
X161920Y149478D01*
X161925Y149506D01*
X161929Y149525D01*
X161939Y149549D01*
X161951Y149590D01*
X161956Y149609D01*
X161963Y149655D01*
X161968Y149679D01*
X161973Y149698D01*
X161987Y149736D01*
X161999Y149768D01*
X162006Y149799D01*
X162011Y149823D01*
X162030Y149876D01*
X162042Y149902D01*
X162052Y149935D01*
X162057Y149955D01*
X162073Y150000D01*
X162080Y150007D01*
X162095Y150041D01*
X162102Y150067D01*
X162114Y150099D01*
X162133Y150127D01*
X162143Y150151D01*
X162160Y150197D01*
X162172Y150209D01*
X162176Y150218D01*
X162191Y150252D01*
X162215Y150295D01*
X162229Y150319D01*
X162239Y150343D01*
X162258Y150377D01*
X162272Y150391D01*
X162301Y150444D01*
X162311Y150453D01*
X162315Y150463D01*
X162325Y150473D01*
X162349Y150516D01*
X162363Y150530D01*
X162368Y150540D01*
X162387Y150573D01*
X162411Y150597D01*
X162416Y150607D01*
X162447Y150652D01*
X162464Y150669D01*
X162469Y150679D01*
X162490Y150705D01*
X162507Y150722D01*
X162512Y150732D01*
X162534Y150758D01*
X162555Y150779D01*
X162560Y150789D01*
X162608Y150837D01*
X162610Y150844D01*
X162620Y150849D01*
X162651Y150880D01*
X162654Y150887D01*
X162663Y150892D01*
X162694Y150923D01*
X162699Y150933D01*
X162728Y150957D01*
X162754Y150983D01*
X162764Y150988D01*
X162802Y151026D01*
X162826Y151041D01*
X162850Y151065D01*
X162860Y151070D01*
X162881Y151091D01*
X162886Y151125D01*
X162888Y151463D01*
X162884Y152249D01*
X162874Y152268D01*
X162855Y152273D01*
D02*
G37*
G36*
X157659Y151868D02*
X157573Y151863D01*
X157515Y151854D01*
X157477Y151839D01*
X157451Y151832D01*
X157412Y151822D01*
X157381Y151810D01*
X157352Y151791D01*
X157321Y151779D01*
X157288Y151760D01*
X157278Y151751D01*
X157268Y151746D01*
X157259Y151736D01*
X157240Y151731D01*
X157213Y151710D01*
X157196Y151693D01*
X157187Y151688D01*
X157160Y151667D01*
X157074Y151580D01*
X157069Y151571D01*
X157036Y151528D01*
X157026Y151518D01*
X157014Y151487D01*
X157002Y151470D01*
X156983Y151441D01*
X156974Y151417D01*
X156969Y151398D01*
X156935Y151326D01*
X156930Y151307D01*
X156918Y151252D01*
X156909Y151213D01*
X156904Y151189D01*
X156897Y151125D01*
X156892Y151005D01*
X156885Y149943D01*
X156882Y149844D01*
X156887Y149830D01*
X156882Y149696D01*
X156885Y149578D01*
X156882Y149403D01*
X156887Y149389D01*
X156882Y149269D01*
X156885Y148830D01*
X156882Y148751D01*
X156887Y148737D01*
X156885Y148394D01*
X156887Y148363D01*
X156882Y148348D01*
X156887Y148200D01*
X156882Y147936D01*
X156887Y147888D01*
X156882Y147830D01*
X156887Y147816D01*
X156892Y146353D01*
X156897Y146339D01*
X156904Y145785D01*
X156909Y145709D01*
X156914Y145685D01*
X156928Y145598D01*
X156938Y145560D01*
X156952Y145521D01*
X156964Y145500D01*
X156988Y145433D01*
X157012Y145399D01*
X157021Y145375D01*
X157026Y145366D01*
X157069Y145303D01*
X157074Y145294D01*
X157108Y145260D01*
X157113Y145250D01*
X157134Y145224D01*
X157144Y145219D01*
X157160Y145203D01*
X157165Y145193D01*
X157173Y145186D01*
X157182Y145181D01*
X157209Y145159D01*
X157230Y145138D01*
X157273Y145114D01*
X157288Y145099D01*
X157321Y145085D01*
X157345Y145076D01*
X157379Y145052D01*
X157405Y145044D01*
X157443Y145035D01*
X157467Y145025D01*
X157508Y145008D01*
X157554Y145001D01*
X157597Y144996D01*
X157815Y144994D01*
X157829Y144999D01*
X157887Y145004D01*
X157911Y145013D01*
X157945Y145028D01*
X157978Y145037D01*
X157997Y145042D01*
X158028Y145054D01*
X158040Y145066D01*
X158050Y145071D01*
X158122Y145109D01*
X158136Y145124D01*
X158179Y145147D01*
X158199Y145171D01*
X158208Y145176D01*
X158218Y145186D01*
X158227Y145191D01*
X158251Y145219D01*
X158283Y145250D01*
X158287Y145260D01*
X158321Y145294D01*
X158340Y145327D01*
X158354Y145342D01*
X158359Y145351D01*
X158398Y145423D01*
X158417Y145466D01*
X158424Y145493D01*
X158450Y145548D01*
X158460Y145605D01*
X158465Y145625D01*
X158472Y145742D01*
X158477Y146591D01*
X158482Y147909D01*
X158484Y149518D01*
X158479Y149533D01*
Y150151D01*
Y150156D01*
X158474Y151134D01*
X158470Y151149D01*
X158465Y151240D01*
X158460Y151254D01*
X158455Y151302D01*
X158422Y151374D01*
X158403Y151427D01*
X158374Y151470D01*
X158350Y151513D01*
X158335Y151528D01*
X158331Y151537D01*
X158299Y151583D01*
X158290Y151587D01*
X158283Y151595D01*
X158278Y151604D01*
X158256Y151631D01*
X158247Y151635D01*
X158203Y151679D01*
X158194Y151683D01*
X158168Y151705D01*
X158151Y151722D01*
X158108Y151746D01*
X158074Y151770D01*
X158050Y151779D01*
X158007Y151803D01*
X157973Y151818D01*
X157935Y151827D01*
X157875Y151849D01*
X157837Y151858D01*
X157772Y151866D01*
X157659Y151868D01*
D02*
G37*
G36*
X175203Y151866D02*
X175073Y151861D01*
X175059Y151856D01*
X175030Y151851D01*
X175006Y151842D01*
X174958Y151827D01*
X174927Y151820D01*
X174889Y151806D01*
X174853Y151784D01*
X174807Y151767D01*
X174790Y151755D01*
X174781Y151746D01*
X174771Y151741D01*
X174728Y151717D01*
X174704Y151693D01*
X174694Y151688D01*
X174663Y151667D01*
X174658Y151657D01*
X174637Y151635D01*
X174627Y151631D01*
X174610Y151614D01*
X174606Y151604D01*
X174567Y151566D01*
X174548Y151532D01*
X174529Y151513D01*
X174524Y151504D01*
X174495Y151451D01*
X174486Y151441D01*
X174481Y151432D01*
X174471Y151408D01*
X174455Y151362D01*
X174428Y151302D01*
X174421Y151261D01*
X174402Y151165D01*
X174397Y151127D01*
X174392Y151041D01*
X174390Y149374D01*
X174395Y149360D01*
X174392Y148634D01*
X174395Y148171D01*
X174390Y148156D01*
X174392Y148025D01*
X174390Y147960D01*
X174395Y147945D01*
Y147221D01*
Y147217D01*
X174392Y147176D01*
X174395Y147034D01*
X174390Y147020D01*
X174395Y146713D01*
X174399Y145696D01*
X174404Y145682D01*
X174411Y145632D01*
X174416Y145603D01*
X174421Y145579D01*
X174426Y145550D01*
X174431Y145531D01*
X174443Y145500D01*
X174467Y145447D01*
X174479Y145416D01*
X174486Y145409D01*
X174491Y145399D01*
X174510Y145370D01*
X174534Y145327D01*
X174553Y145308D01*
X174558Y145299D01*
X174591Y145255D01*
X174610Y145236D01*
X174615Y145227D01*
X174632Y145215D01*
X174644Y145203D01*
X174649Y145193D01*
X174656Y145186D01*
X174666Y145181D01*
X174675Y145171D01*
X174685Y145167D01*
X174714Y145138D01*
X174723Y145133D01*
X174757Y145109D01*
X174771Y145095D01*
X174802Y145083D01*
X174841Y145059D01*
X174881Y145042D01*
X174901Y145037D01*
X174946Y145020D01*
X174972Y145008D01*
X175030Y144999D01*
X175049Y144994D01*
X175152Y144987D01*
X175246Y144984D01*
X175260Y144989D01*
X175330Y144996D01*
X175387Y145006D01*
X175426Y145020D01*
X175452Y145032D01*
X175471Y145037D01*
X175517Y145054D01*
X175546Y145073D01*
X175603Y145102D01*
X175620Y145119D01*
X175629Y145124D01*
X175658Y145143D01*
X175668Y145147D01*
X175680Y145159D01*
X175685Y145169D01*
X175723Y145198D01*
X175728Y145207D01*
X175771Y145250D01*
X175776Y145260D01*
X175809Y145294D01*
X175833Y145337D01*
X175848Y145351D01*
X175852Y145361D01*
X175872Y145404D01*
X175876Y145414D01*
X175886Y145423D01*
X175891Y145433D01*
X175900Y145442D01*
X175915Y145495D01*
X175924Y145519D01*
X175944Y145562D01*
X175953Y145601D01*
X175958Y145677D01*
X175963Y145711D01*
X175968Y145946D01*
X175972Y146397D01*
X175977Y146603D01*
X175982Y147399D01*
X175979Y149108D01*
X175982Y149183D01*
X175977Y149197D01*
X175982Y149302D01*
X175977Y149667D01*
X175970Y150384D01*
X175965Y150696D01*
X175960Y151094D01*
X175955Y151204D01*
X175951Y151252D01*
X175946Y151276D01*
X175941Y151295D01*
X175915Y151355D01*
X175908Y151386D01*
X175898Y151410D01*
X175891Y151417D01*
X175886Y151427D01*
X175876Y151436D01*
X175857Y151484D01*
X175836Y151511D01*
X175828Y151518D01*
X175804Y151561D01*
X175776Y151590D01*
X175771Y151600D01*
X175761Y151609D01*
X175757Y151619D01*
X175749Y151626D01*
X175740Y151631D01*
X175697Y151674D01*
X175687Y151679D01*
X175644Y151712D01*
X175634Y151722D01*
X175582Y151751D01*
X175567Y151765D01*
X175533Y151779D01*
X175510Y151789D01*
X175481Y151808D01*
X175457Y151818D01*
X175426Y151825D01*
X175402Y151830D01*
X175375Y151837D01*
X175351Y151846D01*
X175313Y151856D01*
X175279Y151861D01*
X175203Y151866D01*
D02*
G37*
G36*
X158645Y144869D02*
X158606Y144864D01*
X158589Y144848D01*
X158585Y144838D01*
X158563Y144817D01*
X158554Y144812D01*
X158529Y144788D01*
X158520Y144783D01*
X158474Y144752D01*
X158467Y144745D01*
X158443Y144735D01*
X158410Y144716D01*
X158381Y144697D01*
X158357Y144687D01*
X158326Y144675D01*
X158309Y144663D01*
X158266Y144644D01*
X158239Y144637D01*
X158199Y144615D01*
X158165Y144601D01*
X158134Y144594D01*
X158115Y144589D01*
X158076Y144574D01*
X158045Y144562D01*
X158007Y144553D01*
X157959Y144548D01*
X157940Y144543D01*
X157810Y144529D01*
X157777Y144524D01*
X157623Y144529D01*
X157609Y144534D01*
X157551Y144538D01*
X157537Y144543D01*
X157491Y144550D01*
X157460Y144553D01*
X157448Y144546D01*
X157439Y144517D01*
X157463Y144474D01*
X157472Y144464D01*
X157482Y144440D01*
X157494Y144409D01*
X157518Y144371D01*
X157530Y144344D01*
X157542Y144313D01*
X157561Y144284D01*
X157573Y144258D01*
X157582Y144234D01*
X157597Y144210D01*
X157616Y144181D01*
X157628Y144150D01*
X157635Y144133D01*
X157659Y144100D01*
X157669Y144076D01*
X157693Y144033D01*
X157707Y144009D01*
X157717Y143985D01*
X157736Y143951D01*
X157746Y143941D01*
X157760Y143908D01*
X157779Y143874D01*
X157798Y143845D01*
X157827Y143793D01*
X157846Y143764D01*
X157856Y143740D01*
X157861Y143730D01*
X157882Y143704D01*
X157918Y143639D01*
X157932Y143625D01*
X157947Y143591D01*
X157952Y143582D01*
X157961Y143572D01*
X157966Y143563D01*
X157981Y143548D01*
X157990Y143524D01*
X157995Y143515D01*
X158017Y143488D01*
X158052Y143428D01*
X158072Y143409D01*
X158100Y143356D01*
X158115Y143342D01*
X158120Y143332D01*
X158139Y143299D01*
X158163Y143275D01*
X158187Y143232D01*
X158206Y143213D01*
X158211Y143203D01*
X158242Y143157D01*
X158259Y143141D01*
X158278Y143107D01*
X158297Y143088D01*
X158302Y143078D01*
X158321Y143050D01*
X158326Y143040D01*
X158350Y143016D01*
X158354Y143006D01*
X158379Y142973D01*
X158393Y142958D01*
X158398Y142949D01*
X158431Y142906D01*
X158455Y142872D01*
X158460Y142862D01*
X158482Y142836D01*
X158494Y142824D01*
X158498Y142815D01*
X158520Y142788D01*
X158537Y142771D01*
X158556Y142738D01*
X158580Y142714D01*
X158585Y142704D01*
X158606Y142678D01*
X158618Y142661D01*
X158633Y142647D01*
X158637Y142637D01*
X158659Y142611D01*
X158681Y142589D01*
X158695Y142565D01*
X158724Y142536D01*
X158729Y142527D01*
X158767Y142489D01*
X158772Y142479D01*
X158793Y142453D01*
X158815Y142431D01*
X158820Y142421D01*
X158853Y142388D01*
X158858Y142378D01*
X158872Y142364D01*
X158877Y142354D01*
X158911Y142321D01*
X158916Y142311D01*
X158959Y142268D01*
X158964Y142258D01*
X159007Y142215D01*
X159011Y142206D01*
X159028Y142189D01*
X159038Y142184D01*
X159045Y142177D01*
X159050Y142167D01*
X159059Y142158D01*
X159062Y142150D01*
X159071Y142146D01*
X159093Y142124D01*
X159098Y142114D01*
X159124Y142088D01*
X159131Y142086D01*
X159136Y142076D01*
X159146Y142067D01*
X159151Y142057D01*
X159158Y142050D01*
X159167Y142045D01*
X159184Y142028D01*
X159189Y142018D01*
X159211Y141997D01*
X159220Y141992D01*
X159232Y141975D01*
X159302Y141906D01*
X159311Y141901D01*
X159318Y141894D01*
X159323Y141884D01*
X159345Y141863D01*
X159354Y141858D01*
X159371Y141841D01*
X159376Y141832D01*
X159383Y141824D01*
X159393Y141820D01*
X159441Y141772D01*
X159450Y141767D01*
X159462Y141755D01*
X159467Y141745D01*
X159474Y141738D01*
X159484Y141733D01*
X159493Y141724D01*
X159503Y141719D01*
X159510Y141712D01*
X159515Y141702D01*
X159527Y141690D01*
X159537Y141685D01*
X159575Y141647D01*
X159584Y141642D01*
X159594Y141632D01*
X159604Y141628D01*
X159611Y141621D01*
X159616Y141611D01*
X159628Y141599D01*
X159637Y141594D01*
X159647Y141585D01*
X159656Y141580D01*
X159690Y141546D01*
X159700Y141541D01*
X159738Y141503D01*
X159748Y141498D01*
X159767Y141479D01*
X159774Y141477D01*
X159779Y141467D01*
X159786Y141460D01*
X159795Y141455D01*
X159805Y141446D01*
X159815Y141441D01*
X159853Y141402D01*
X159863Y141398D01*
X159896Y141364D01*
X159906Y141359D01*
X159932Y141338D01*
X159954Y141316D01*
X159963Y141311D01*
X159997Y141278D01*
X160006Y141273D01*
X160033Y141251D01*
X160040Y141244D01*
X160050Y141239D01*
X160069Y141220D01*
X160078Y141215D01*
X160105Y141194D01*
X160122Y141177D01*
X160146Y141163D01*
X160174Y141134D01*
X160184Y141129D01*
X160210Y141107D01*
X160227Y141091D01*
X160244Y141084D01*
X160246Y141081D01*
X160273Y141060D01*
X160285Y141048D01*
X160294Y141043D01*
X160328Y141019D01*
X160347Y140999D01*
X160356Y140995D01*
X160390Y140971D01*
X160405Y140956D01*
X160414Y140952D01*
X160460Y140920D01*
X160476Y140904D01*
X160510Y140884D01*
X160522Y140877D01*
X160524Y140870D01*
X160534Y140865D01*
X160544Y140856D01*
X160577Y140837D01*
X160591Y140822D01*
X160601Y140817D01*
X160635Y140798D01*
X160654Y140779D01*
X160663Y140774D01*
X160673Y140765D01*
X160707Y140745D01*
X160721Y140731D01*
X160731Y140726D01*
X160774Y140702D01*
X160793Y140683D01*
X160802Y140678D01*
X160836Y140659D01*
X160862Y140638D01*
X160870Y140630D01*
X160913Y140606D01*
X160946Y140582D01*
X160989Y140558D01*
X161009Y140539D01*
X161061Y140510D01*
X161071Y140501D01*
X161081Y140496D01*
X161133Y140467D01*
X161148Y140453D01*
X161210Y140419D01*
X161224Y140405D01*
X161258Y140391D01*
X161268Y140386D01*
X161316Y140352D01*
X161368Y140323D01*
X161378Y140314D01*
X161388Y140309D01*
X161450Y140276D01*
X161460Y140266D01*
X161531Y140227D01*
X161555Y140213D01*
X161579Y140203D01*
X161603Y140189D01*
X161632Y140170D01*
X161656Y140160D01*
X161690Y140141D01*
X161718Y140122D01*
X161764Y140105D01*
X161771Y140098D01*
X161781Y140093D01*
X161790Y140084D01*
X161838Y140065D01*
X161872Y140045D01*
X161896Y140031D01*
X161920Y140021D01*
X161973Y139992D01*
X162016Y139973D01*
X162040Y139964D01*
X162068Y139945D01*
X162092Y139935D01*
X162138Y139918D01*
X162145Y139911D01*
X162155Y139906D01*
X162198Y139887D01*
X162229Y139875D01*
X162251Y139858D01*
X162284Y139844D01*
X162303Y139839D01*
X162335Y139827D01*
X162342Y139820D01*
X162394Y139796D01*
X162414Y139791D01*
X162495Y139753D01*
X162541Y139736D01*
X162558Y139729D01*
X162610Y139705D01*
X162642Y139698D01*
X162721Y139662D01*
X162740Y139657D01*
X162785Y139640D01*
X162845Y139614D01*
X162876Y139606D01*
X162915Y139592D01*
X162936Y139580D01*
X162984Y139566D01*
X163004Y139561D01*
X163035Y139549D01*
X163085Y139527D01*
X163119Y139518D01*
X163138Y139513D01*
X163200Y139484D01*
X163258Y139470D01*
X163303Y139453D01*
X163354Y139432D01*
X163385Y139424D01*
X163409Y139419D01*
X163447Y139405D01*
X163488Y139388D01*
X163545Y139379D01*
X163565Y139374D01*
X163610Y139357D01*
X163665Y139340D01*
X163684Y139336D01*
X163725Y139328D01*
X163744Y139324D01*
X163828Y139297D01*
X163886Y139288D01*
X163905Y139283D01*
X163936Y139276D01*
X164006Y139254D01*
X164037Y139247D01*
X164099Y139237D01*
X164138Y139228D01*
X164193Y139211D01*
X164250Y139201D01*
X164284Y139197D01*
X164303Y139192D01*
X164339Y139184D01*
X164358Y139180D01*
X164385Y139173D01*
X164418Y139163D01*
X164584Y139137D01*
X164608Y139132D01*
X164665Y139117D01*
X164689Y139113D01*
X164739Y139110D01*
X164756Y139122D01*
X164761Y139141D01*
X164763Y140367D01*
X164756Y140383D01*
X164744Y140395D01*
X164725Y140400D01*
X164658Y140410D01*
X164639Y140415D01*
X164603Y140422D01*
X164584Y140427D01*
X164557Y140434D01*
X164519Y140443D01*
X164452Y140453D01*
X164433Y140458D01*
X164382Y140470D01*
X164327Y140486D01*
X164294Y140491D01*
X164274Y140496D01*
X164224Y140503D01*
X164200Y140508D01*
X164116Y140534D01*
X164083Y140539D01*
X164063Y140544D01*
X164013Y140556D01*
X163975Y140570D01*
X163948Y140578D01*
X163910Y140587D01*
X163869Y140594D01*
X163850Y140599D01*
X163812Y140613D01*
X163780Y140626D01*
X163749Y140633D01*
X163725Y140638D01*
X163706Y140642D01*
X163653Y140662D01*
X163629Y140671D01*
X163591Y140681D01*
X163567Y140685D01*
X163541Y140693D01*
X163488Y140717D01*
X163430Y140731D01*
X163399Y140743D01*
X163339Y140769D01*
X163301Y140779D01*
X163229Y140813D01*
X163210Y140817D01*
X163150Y140839D01*
X163128Y140851D01*
X163104Y140860D01*
X163071Y140870D01*
X163047Y140880D01*
X162975Y140913D01*
X162948Y140920D01*
X162924Y140930D01*
X162917Y140937D01*
X162908Y140942D01*
X162874Y140956D01*
X162855Y140961D01*
X162831Y140971D01*
X162793Y140995D01*
X162759Y141004D01*
X162728Y141016D01*
X162699Y141035D01*
X162673Y141048D01*
X162654Y141052D01*
X162591Y141086D01*
X162567Y141095D01*
X162536Y141107D01*
X162507Y141127D01*
X162481Y141139D01*
X162450Y141151D01*
X162411Y141175D01*
X162385Y141187D01*
X162354Y141199D01*
X162327Y141215D01*
X162275Y141239D01*
X162241Y141259D01*
X162232Y141268D01*
X162207Y141278D01*
X162155Y141306D01*
X162131Y141321D01*
X162078Y141350D01*
X161996Y141393D01*
X161987Y141402D01*
X161977Y141407D01*
X161915Y141441D01*
X161901Y141455D01*
X161867Y141470D01*
X161857Y141474D01*
X161831Y141496D01*
X161766Y141532D01*
X161752Y141546D01*
X161690Y141580D01*
X161675Y141594D01*
X161623Y141623D01*
X161613Y141632D01*
X161603Y141637D01*
X161560Y141661D01*
X161541Y141681D01*
X161531Y141685D01*
X161498Y141704D01*
X161471Y141726D01*
X161435Y141748D01*
X161426Y141752D01*
X161399Y141774D01*
X161392Y141781D01*
X161359Y141800D01*
X161349Y141810D01*
X161340Y141815D01*
X161325Y141829D01*
X161292Y141848D01*
X161265Y141870D01*
X161224Y141896D01*
X161205Y141915D01*
X161196Y141920D01*
X161150Y141951D01*
X161138Y141963D01*
X161129Y141968D01*
X161095Y141992D01*
X161076Y142011D01*
X161042Y142031D01*
X161018Y142054D01*
X161009Y142059D01*
X160975Y142083D01*
X160961Y142098D01*
X160951Y142102D01*
X160918Y142126D01*
X160898Y142146D01*
X160889Y142150D01*
X160855Y142174D01*
X160831Y142198D01*
X160822Y142203D01*
X160795Y142225D01*
X160778Y142242D01*
X160769Y142246D01*
X160743Y142268D01*
X160726Y142285D01*
X160716Y142289D01*
X160707Y142299D01*
X160697Y142304D01*
X160663Y142337D01*
X160654Y142342D01*
X160627Y142364D01*
X160606Y142385D01*
X160596Y142390D01*
X160558Y142429D01*
X160548Y142433D01*
X160532Y142445D01*
X160527Y142455D01*
X160515Y142467D01*
X160505Y142472D01*
X160496Y142481D01*
X160486Y142486D01*
X160462Y142515D01*
X160452Y142520D01*
X160414Y142558D01*
X160405Y142563D01*
X160323Y142644D01*
X160313Y142649D01*
X160110Y142853D01*
X160105Y142862D01*
X160028Y142939D01*
X160023Y142949D01*
X159975Y142997D01*
X159970Y143006D01*
X159927Y143050D01*
X159923Y143059D01*
X159906Y143076D01*
X159899Y143078D01*
X159894Y143088D01*
X159884Y143097D01*
X159879Y143107D01*
X159867Y143119D01*
X159858Y143124D01*
X159851Y143131D01*
X159846Y143141D01*
X159824Y143167D01*
X159815Y143177D01*
X159808Y143179D01*
X159803Y143189D01*
X159793Y143198D01*
X159788Y143208D01*
X159772Y143225D01*
X159764Y143227D01*
X159759Y143236D01*
X159750Y143246D01*
X159745Y143256D01*
X159712Y143289D01*
X159707Y143299D01*
X159697Y143308D01*
X159692Y143318D01*
X159664Y143347D01*
X159659Y143356D01*
X159637Y143383D01*
X159616Y143404D01*
X159611Y143414D01*
X159589Y143440D01*
X159568Y143462D01*
X159553Y143486D01*
X159525Y143515D01*
X159510Y143539D01*
X159489Y143565D01*
X159477Y143577D01*
X159457Y143611D01*
X159433Y143634D01*
X159429Y143644D01*
X159395Y143687D01*
X159386Y143697D01*
X159366Y143730D01*
X159342Y143754D01*
X159318Y143798D01*
X159299Y143817D01*
X159294Y143826D01*
X159275Y143860D01*
X159251Y143884D01*
X159227Y143927D01*
X159208Y143946D01*
X159179Y143999D01*
X159160Y144018D01*
X159131Y144071D01*
X159117Y144085D01*
X159088Y144138D01*
X159069Y144157D01*
X159040Y144210D01*
X159026Y144224D01*
X158997Y144277D01*
X158973Y144311D01*
X158949Y144354D01*
X158940Y144363D01*
X158935Y144373D01*
X158901Y144435D01*
X158887Y144450D01*
X158877Y144474D01*
X158858Y144507D01*
X158844Y144522D01*
X158829Y144555D01*
X158810Y144589D01*
X158791Y144618D01*
X158781Y144641D01*
X158762Y144675D01*
X158743Y144704D01*
X158738Y144723D01*
X158707Y144769D01*
X158695Y144795D01*
X158690Y144814D01*
X158678Y144845D01*
X158666Y144862D01*
X158645Y144869D01*
D02*
G37*
G36*
X162869Y154484D02*
X162831Y154479D01*
X162804Y154457D01*
X162773Y154446D01*
X162742Y154438D01*
X162706Y154421D01*
X162682Y154407D01*
X162622Y154385D01*
X162572Y154359D01*
X162519Y154340D01*
X162486Y154316D01*
X162467Y154311D01*
X162443Y154302D01*
X162399Y154278D01*
X162356Y154258D01*
X162325Y154246D01*
X162308Y154230D01*
X162275Y154215D01*
X162232Y154191D01*
X162207Y154177D01*
X162183Y154167D01*
X162150Y154148D01*
X162140Y154139D01*
X162107Y154124D01*
X162064Y154100D01*
X162049Y154086D01*
X162018Y154074D01*
X161992Y154057D01*
X161982Y154047D01*
X161973Y154043D01*
X161910Y154009D01*
X161896Y153995D01*
X161834Y153961D01*
X161819Y153947D01*
X161795Y153937D01*
X161785Y153932D01*
X161759Y153911D01*
X161752Y153904D01*
X161699Y153875D01*
X161673Y153853D01*
X161625Y153824D01*
X161608Y153808D01*
X161574Y153788D01*
X161560Y153774D01*
X161551Y153769D01*
X161541Y153760D01*
X161531Y153755D01*
X161498Y153731D01*
X161483Y153717D01*
X161474Y153712D01*
X161440Y153688D01*
X161421Y153669D01*
X161388Y153649D01*
X161378Y153640D01*
X161368Y153635D01*
X161354Y153621D01*
X161344Y153616D01*
X161301Y153582D01*
X161292Y153573D01*
X161282Y153568D01*
X161256Y153546D01*
X161239Y153530D01*
X161229Y153525D01*
X161203Y153503D01*
X161186Y153486D01*
X161177Y153482D01*
X161150Y153460D01*
X161129Y153438D01*
X161119Y153434D01*
X161093Y153412D01*
X161066Y153386D01*
X161057Y153381D01*
X161018Y153342D01*
X161009Y153338D01*
X160999Y153328D01*
X160992Y153326D01*
X160987Y153316D01*
X160966Y153295D01*
X160956Y153290D01*
X160918Y153251D01*
X160908Y153247D01*
X160865Y153203D01*
X160855Y153199D01*
X160838Y153182D01*
X160834Y153172D01*
X160827Y153165D01*
X160817Y153160D01*
X160656Y153000D01*
X160651Y152990D01*
X160608Y152947D01*
X160603Y152937D01*
X160587Y152921D01*
X160577Y152916D01*
X160553Y152882D01*
X160544Y152877D01*
X160527Y152861D01*
X160522Y152851D01*
X160500Y152825D01*
X160491Y152820D01*
X160479Y152803D01*
X160457Y152777D01*
X160436Y152755D01*
X160431Y152745D01*
X160421Y152736D01*
X160416Y152726D01*
X160388Y152698D01*
X160383Y152688D01*
X160361Y152662D01*
X160345Y152645D01*
X160340Y152635D01*
X160318Y152609D01*
X160301Y152592D01*
X160297Y152583D01*
X160275Y152551D01*
X160265Y152547D01*
X160258Y152539D01*
X160253Y152530D01*
X160220Y152487D01*
X160196Y152453D01*
X160191Y152443D01*
X160177Y152429D01*
X160172Y152419D01*
X160158Y152405D01*
X160153Y152395D01*
X160131Y152369D01*
X160119Y152357D01*
X160114Y152348D01*
X160095Y152314D01*
X160076Y152295D01*
X160071Y152285D01*
X160052Y152252D01*
X160030Y152225D01*
X160023Y152218D01*
X159999Y152175D01*
X159985Y152161D01*
X159980Y152151D01*
X159961Y152117D01*
X159939Y152091D01*
X159932Y152084D01*
X159903Y152031D01*
X159894Y152021D01*
X159889Y152012D01*
X159860Y151959D01*
X159841Y151940D01*
X159832Y151916D01*
X159808Y151873D01*
X159798Y151863D01*
X159793Y151854D01*
X159759Y151791D01*
X159750Y151782D01*
X159736Y151748D01*
X159716Y151715D01*
X159707Y151705D01*
X159692Y151671D01*
X159683Y151647D01*
X159678Y151638D01*
X159668Y151628D01*
X159664Y151619D01*
X159640Y151566D01*
X159620Y151532D01*
X159611Y151523D01*
X159606Y151504D01*
X159597Y151480D01*
X159573Y151436D01*
X159558Y151403D01*
X159548Y151379D01*
X159544Y151360D01*
X159534Y151350D01*
X159529Y151340D01*
X159510Y151297D01*
X159493Y151252D01*
X159486Y151245D01*
X159467Y151201D01*
X159460Y151175D01*
X159443Y151139D01*
X159419Y151086D01*
X159409Y151053D01*
X159376Y150981D01*
X159371Y150962D01*
X159354Y150916D01*
X159328Y150856D01*
X159321Y150825D01*
X159316Y150806D01*
X159306Y150782D01*
X159294Y150756D01*
X159285Y150732D01*
X159278Y150700D01*
X159273Y150676D01*
X159266Y150650D01*
X159256Y150626D01*
X159251Y150616D01*
X159242Y150593D01*
X159232Y150554D01*
X159225Y150523D01*
X159220Y150504D01*
X159211Y150480D01*
X159198Y150449D01*
X159189Y150415D01*
X159179Y150357D01*
X159170Y150324D01*
X159158Y150293D01*
X159151Y150266D01*
X159146Y150247D01*
X159141Y150214D01*
X159136Y150195D01*
X159129Y150154D01*
X159124Y150130D01*
X159107Y150075D01*
X159098Y150041D01*
X159088Y149960D01*
X159083Y149940D01*
X159076Y149899D01*
X159067Y149861D01*
X159059Y149835D01*
X159055Y149816D01*
X159050Y149768D01*
X159045Y149734D01*
X159033Y149617D01*
X159023Y149559D01*
X159014Y149511D01*
X159009Y149482D01*
X159004Y149430D01*
X159000Y149348D01*
X158995Y149243D01*
X158990Y149123D01*
X158985Y148979D01*
X158983Y148694D01*
X158987Y148679D01*
X158995Y148456D01*
X159000Y148355D01*
X159004Y148288D01*
X159009Y148231D01*
X159023Y148144D01*
X159033Y148082D01*
X159038Y148039D01*
X159043Y147991D01*
X159047Y147948D01*
X159052Y147900D01*
X159057Y147871D01*
X159062Y147847D01*
X159069Y147821D01*
X159076Y147790D01*
X159081Y147771D01*
X159088Y147706D01*
X159100Y147627D01*
X159105Y147603D01*
X159112Y147576D01*
X159127Y147528D01*
X159136Y147471D01*
X159141Y147452D01*
X159148Y147411D01*
X159175Y147327D01*
X159179Y147308D01*
Y147303D01*
Y147298D01*
X159184Y147284D01*
X159191Y147243D01*
X159196Y147224D01*
X159222Y147159D01*
X159227Y147125D01*
X159237Y147087D01*
X159249Y147056D01*
X159261Y147030D01*
X159270Y146996D01*
X159280Y146958D01*
X159297Y146912D01*
X159314Y146871D01*
X159323Y146833D01*
X159340Y146787D01*
X159357Y146756D01*
X159371Y146708D01*
X159383Y146677D01*
X159409Y146622D01*
X159419Y146588D01*
X159431Y146557D01*
X159453Y146517D01*
X159479Y146442D01*
X159486Y146435D01*
X159505Y146392D01*
X159510Y146373D01*
X159553Y146282D01*
X159565Y146250D01*
X159584Y146222D01*
X159597Y146195D01*
X159608Y146164D01*
X159637Y146116D01*
X159647Y146092D01*
X159659Y146061D01*
X159678Y146032D01*
X159683Y146023D01*
X159692Y145999D01*
X159721Y145946D01*
X159764Y145864D01*
X159774Y145855D01*
X159786Y145824D01*
X159810Y145785D01*
X159817Y145778D01*
X159832Y145745D01*
X159851Y145711D01*
X159865Y145696D01*
X159899Y145634D01*
X159913Y145620D01*
X159942Y145567D01*
X159966Y145534D01*
X159990Y145490D01*
X160004Y145476D01*
X160033Y145423D01*
X160052Y145404D01*
X160076Y145361D01*
X160095Y145342D01*
X160100Y145332D01*
X160119Y145299D01*
X160143Y145274D01*
X160148Y145265D01*
X160174Y145224D01*
X160184Y145219D01*
X160217Y145167D01*
X160239Y145145D01*
X160244Y145135D01*
X160265Y145104D01*
X160275Y145099D01*
X160282Y145092D01*
X160287Y145083D01*
X160321Y145040D01*
X160335Y145025D01*
X160340Y145016D01*
X160361Y144989D01*
X160378Y144972D01*
X160383Y144963D01*
X160405Y144936D01*
X160421Y144920D01*
X160426Y144910D01*
X160436Y144901D01*
X160441Y144891D01*
X160474Y144857D01*
X160479Y144848D01*
X160488Y144838D01*
X160493Y144829D01*
X160510Y144817D01*
X160517Y144809D01*
X160522Y144800D01*
X160544Y144773D01*
X160553Y144764D01*
X160560Y144761D01*
X160565Y144752D01*
X160575Y144742D01*
X160580Y144733D01*
X160591Y144721D01*
X160601Y144716D01*
X160608Y144709D01*
X160613Y144699D01*
X160666Y144646D01*
X160671Y144637D01*
X160678Y144630D01*
X160687Y144625D01*
X160704Y144608D01*
X160709Y144598D01*
X160731Y144577D01*
X160740Y144572D01*
X160747Y144565D01*
X160752Y144555D01*
X160778Y144529D01*
X160788Y144524D01*
X160800Y144507D01*
X160822Y144486D01*
X160831Y144481D01*
X160843Y144469D01*
X160848Y144459D01*
X160860Y144447D01*
X160870Y144442D01*
X160891Y144421D01*
X160896Y144411D01*
X160903Y144404D01*
X160913Y144399D01*
X160922Y144390D01*
X160930Y144387D01*
X160934Y144378D01*
X160961Y144351D01*
X160970Y144347D01*
X161009Y144308D01*
X161018Y144304D01*
X161057Y144265D01*
X161066Y144260D01*
X161100Y144227D01*
X161109Y144222D01*
X161119Y144212D01*
X161129Y144208D01*
X161148Y144188D01*
X161157Y144184D01*
X161172Y144169D01*
X161181Y144164D01*
X161208Y144143D01*
X161224Y144126D01*
X161234Y144121D01*
X161260Y144100D01*
X161277Y144083D01*
X161287Y144078D01*
X161313Y144056D01*
X161320Y144049D01*
X161330Y144044D01*
X161340Y144035D01*
X161349Y144030D01*
X161392Y143997D01*
X161421Y143977D01*
X161431Y143973D01*
X161460Y143944D01*
X161503Y143920D01*
X161522Y143901D01*
X161565Y143877D01*
X161584Y143858D01*
X161594Y143853D01*
X161627Y143833D01*
X161646Y143814D01*
X161656Y143810D01*
X161699Y143786D01*
X161714Y143771D01*
X161723Y143766D01*
X161766Y143742D01*
X161781Y143728D01*
X161790Y143723D01*
X161800Y143714D01*
X161831Y143702D01*
X161848Y143690D01*
X161857Y143680D01*
X161867Y143675D01*
X161920Y143647D01*
X161934Y143632D01*
X162006Y143594D01*
X162016Y143584D01*
X162059Y143565D01*
X162083Y143551D01*
X162112Y143531D01*
X162136Y143522D01*
X162179Y143498D01*
X162203Y143483D01*
X162234Y143472D01*
X162272Y143447D01*
X162299Y143436D01*
X162330Y143423D01*
X162368Y143400D01*
X162431Y143376D01*
X162459Y143356D01*
X162490Y143344D01*
X162536Y143328D01*
X162572Y143306D01*
X162603Y143294D01*
X162642Y143280D01*
X162677Y143258D01*
X162711Y143248D01*
X162742Y143236D01*
X162812Y143205D01*
X162845Y143196D01*
X162864Y143191D01*
X162884Y143196D01*
X162900Y143213D01*
X162905Y143246D01*
X162903Y143306D01*
X162908Y143560D01*
X162910Y144220D01*
X162900Y144244D01*
X162896Y144253D01*
X162884Y144265D01*
X162840Y144284D01*
X162831Y144289D01*
X162821Y144299D01*
X162812Y144304D01*
X162778Y144318D01*
X162747Y144330D01*
X162730Y144342D01*
X162721Y144351D01*
X162697Y144361D01*
X162665Y144373D01*
X162649Y144385D01*
X162639Y144395D01*
X162596Y144414D01*
X162562Y144433D01*
X162553Y144442D01*
X162510Y144462D01*
X162500Y144466D01*
X162452Y144500D01*
X162421Y144512D01*
X162414Y144519D01*
X162404Y144524D01*
X162390Y144538D01*
X162327Y144572D01*
X162313Y144586D01*
X162260Y144615D01*
X162246Y144630D01*
X162236Y144634D01*
X162203Y144653D01*
X162183Y144673D01*
X162174Y144677D01*
X162131Y144702D01*
X162107Y144726D01*
X162064Y144749D01*
X162040Y144773D01*
X162030Y144778D01*
X161996Y144802D01*
X161977Y144821D01*
X161944Y144841D01*
X161915Y144869D01*
X161891Y144884D01*
X161881Y144893D01*
X161874Y144896D01*
X161870Y144905D01*
X161841Y144924D01*
X161824Y144936D01*
X161817Y144944D01*
X161814Y144951D01*
X161805Y144956D01*
X161795Y144965D01*
X161785Y144970D01*
X161757Y144999D01*
X161747Y145004D01*
X161721Y145025D01*
X161692Y145049D01*
X161685Y145056D01*
X161675Y145061D01*
X161642Y145095D01*
X161632Y145099D01*
X161623Y145109D01*
X161613Y145114D01*
X161574Y145152D01*
X161565Y145157D01*
X161522Y145200D01*
X161512Y145205D01*
X161500Y145217D01*
X161495Y145227D01*
X161488Y145234D01*
X161479Y145239D01*
X161426Y145291D01*
X161416Y145296D01*
X161404Y145313D01*
X161383Y145334D01*
X161373Y145339D01*
X161349Y145368D01*
X161313Y145404D01*
X161308Y145414D01*
X161296Y145426D01*
X161287Y145430D01*
X161275Y145442D01*
X161270Y145452D01*
X161232Y145490D01*
X161227Y145500D01*
X161217Y145510D01*
X161213Y145519D01*
X161184Y145548D01*
X161179Y145557D01*
X161169Y145567D01*
X161165Y145577D01*
X161136Y145605D01*
X161131Y145615D01*
X161109Y145641D01*
X161088Y145663D01*
X161083Y145673D01*
X161061Y145699D01*
X161045Y145716D01*
X161040Y145725D01*
X161018Y145752D01*
X161002Y145768D01*
X160997Y145778D01*
X160963Y145821D01*
X160954Y145831D01*
X160930Y145874D01*
X160910Y145893D01*
X160891Y145927D01*
X160872Y145946D01*
X160867Y145955D01*
X160843Y145999D01*
X160824Y146018D01*
X160819Y146027D01*
X160795Y146071D01*
X160771Y146095D01*
X160759Y146126D01*
X160735Y146154D01*
X160728Y146162D01*
X160719Y146186D01*
X160704Y146210D01*
X160695Y146219D01*
X160690Y146229D01*
X160680Y146238D01*
X160666Y146277D01*
X160644Y146303D01*
X160637Y146310D01*
X160625Y146342D01*
X160618Y146358D01*
X160596Y146385D01*
X160584Y146411D01*
X160556Y146464D01*
X160546Y146473D01*
X160534Y146504D01*
X160524Y146528D01*
X160517Y146536D01*
X160512Y146545D01*
X160493Y146574D01*
X160486Y146600D01*
X160479Y146617D01*
X160455Y146651D01*
X160445Y146675D01*
X160441Y146694D01*
X160412Y146747D01*
X160397Y146780D01*
X160390Y146807D01*
X160376Y146835D01*
X160359Y146867D01*
X160349Y146900D01*
X160337Y146931D01*
X160311Y146986D01*
X160301Y147025D01*
X160289Y147056D01*
X160263Y147116D01*
X160253Y147154D01*
X160241Y147185D01*
X160220Y147236D01*
X160213Y147262D01*
X160208Y147286D01*
X160203Y147305D01*
X160189Y147344D01*
X160177Y147375D01*
X160167Y147413D01*
X160160Y147454D01*
X160155Y147473D01*
X160136Y147526D01*
X160129Y147552D01*
X160119Y147619D01*
X160114Y147639D01*
X160102Y147689D01*
X160086Y147744D01*
X160081Y147778D01*
X160076Y147797D01*
X160069Y147857D01*
X160064Y147886D01*
X160059Y147905D01*
X160052Y147931D01*
X160043Y147969D01*
X160033Y148027D01*
X160026Y148101D01*
X160021Y148144D01*
X160016Y148173D01*
X160011Y148192D01*
X160002Y148250D01*
X159997Y148274D01*
X159992Y148327D01*
X159983Y148466D01*
X159978Y148590D01*
X159973Y148753D01*
X159970Y148962D01*
X159975Y148976D01*
X159980Y149207D01*
X159985Y149221D01*
X159990Y149355D01*
X159994Y149370D01*
X160002Y149425D01*
X160011Y149473D01*
X160016Y149502D01*
X160026Y149578D01*
X160030Y149645D01*
X160035Y149689D01*
X160045Y149741D01*
X160054Y149780D01*
X160062Y149806D01*
X160071Y149864D01*
X160076Y149897D01*
X160088Y149952D01*
X160114Y150036D01*
X160122Y150082D01*
X160126Y150106D01*
X160131Y150125D01*
X160146Y150163D01*
X160162Y150218D01*
X160179Y150293D01*
X160191Y150319D01*
X160201Y150343D01*
X160215Y150401D01*
X160222Y150432D01*
X160253Y150501D01*
X160261Y150532D01*
X160265Y150552D01*
X160275Y150576D01*
X160282Y150583D01*
X160297Y150616D01*
X160306Y150655D01*
X160318Y150686D01*
X160345Y150736D01*
X160349Y150756D01*
X160366Y150801D01*
X160373Y150808D01*
X160378Y150818D01*
X160397Y150861D01*
X160405Y150887D01*
X160429Y150926D01*
X160441Y150952D01*
X160445Y150971D01*
X160455Y150995D01*
X160460Y151005D01*
X160479Y151034D01*
X160488Y151058D01*
X160500Y151089D01*
X160520Y151118D01*
X160541Y151168D01*
X160546Y151178D01*
X160570Y151211D01*
X160584Y151245D01*
X160603Y151278D01*
X160613Y151288D01*
X160627Y151321D01*
X160647Y151355D01*
X160671Y151389D01*
X160675Y151408D01*
X160699Y151441D01*
X160719Y151470D01*
X160723Y151489D01*
X160733Y151499D01*
X160738Y151508D01*
X160752Y151523D01*
X160757Y151532D01*
X160781Y151576D01*
X160795Y151590D01*
X160800Y151600D01*
X160824Y151643D01*
X160843Y151662D01*
X160848Y151671D01*
X160872Y151715D01*
X160896Y151739D01*
X160915Y151772D01*
X160925Y151782D01*
X160930Y151791D01*
X160944Y151806D01*
X160963Y151839D01*
X160987Y151863D01*
X161006Y151897D01*
X161035Y151926D01*
X161040Y151935D01*
X161061Y151962D01*
X161078Y151978D01*
X161083Y151988D01*
X161105Y152014D01*
X161117Y152031D01*
X161136Y152050D01*
X161141Y152060D01*
X161174Y152093D01*
X161179Y152103D01*
X161200Y152129D01*
X161210Y152134D01*
X161222Y152151D01*
X161244Y152177D01*
X161270Y152204D01*
X161275Y152213D01*
X161292Y152230D01*
X161301Y152235D01*
X161308Y152242D01*
X161313Y152252D01*
X161361Y152300D01*
X161366Y152309D01*
X161378Y152321D01*
X161388Y152326D01*
X161404Y152343D01*
X161409Y152352D01*
X161421Y152364D01*
X161431Y152369D01*
X161448Y152386D01*
X161452Y152395D01*
X161464Y152408D01*
X161474Y152412D01*
X161527Y152465D01*
X161536Y152470D01*
X161548Y152487D01*
X161560Y152499D01*
X161570Y152503D01*
X161613Y152547D01*
X161623Y152551D01*
X161644Y152573D01*
X161646Y152580D01*
X161656Y152585D01*
X161682Y152606D01*
X161704Y152628D01*
X161714Y152633D01*
X161740Y152654D01*
X161766Y152681D01*
X161776Y152686D01*
X161802Y152707D01*
X161819Y152724D01*
X161853Y152743D01*
X161865Y152755D01*
X161870Y152765D01*
X161908Y152789D01*
X161934Y152815D01*
X161944Y152820D01*
X161970Y152841D01*
X161977Y152849D01*
X161987Y152853D01*
X161996Y152863D01*
X162030Y152882D01*
X162049Y152901D01*
X162059Y152906D01*
X162092Y152925D01*
X162116Y152949D01*
X162169Y152978D01*
X162183Y152992D01*
X162193Y152997D01*
X162236Y153021D01*
X162251Y153036D01*
X162260Y153040D01*
X162313Y153069D01*
X162327Y153084D01*
X162337Y153088D01*
X162399Y153122D01*
X162414Y153136D01*
X162445Y153148D01*
X162462Y153156D01*
X162471Y153165D01*
X162481Y153170D01*
X162490Y153180D01*
X162514Y153189D01*
X162546Y153201D01*
X162553Y153208D01*
X162562Y153213D01*
X162572Y153223D01*
X162606Y153237D01*
X162637Y153249D01*
X162644Y153256D01*
X162654Y153261D01*
X162706Y153285D01*
X162759Y153314D01*
X162793Y153328D01*
X162812Y153333D01*
X162843Y153345D01*
X162881Y153369D01*
X162898Y153381D01*
X162905Y153388D01*
X162915Y153422D01*
X162912Y153673D01*
X162915Y153690D01*
X162910Y153705D01*
X162905Y154390D01*
X162900Y154405D01*
X162896Y154472D01*
X162888Y154479D01*
X162869Y154484D01*
D02*
G37*
G36*
X166303Y141417D02*
X166279Y141412D01*
X166267Y141400D01*
X166262Y141381D01*
X166257Y141175D01*
X166252Y140638D01*
X166247Y140359D01*
X166240Y140352D01*
X166202Y140357D01*
X166190Y140369D01*
X166185Y140379D01*
X166168Y140400D01*
X166159Y140405D01*
X166121Y140443D01*
X166111Y140448D01*
X166072Y140486D01*
X166063Y140491D01*
X166024Y140530D01*
X166015Y140534D01*
X165981Y140568D01*
X165972Y140573D01*
X165953Y140592D01*
X165943Y140597D01*
X165905Y140635D01*
X165895Y140640D01*
X165852Y140683D01*
X165842Y140688D01*
X165825Y140705D01*
X165821Y140714D01*
X165792Y140743D01*
X165787Y140753D01*
X165770Y140769D01*
X165737Y140765D01*
X165725Y140753D01*
X165720Y140743D01*
X165710Y140733D01*
X165706Y140724D01*
X165689Y140712D01*
X165677Y140695D01*
X165660Y140673D01*
X165650Y140669D01*
X165643Y140662D01*
X165638Y140652D01*
X165617Y140626D01*
X165607Y140621D01*
X165586Y140599D01*
X165576Y140570D01*
X165591Y140546D01*
X165607Y140530D01*
X165617Y140525D01*
X165638Y140503D01*
X165641Y140501D01*
X165650Y140491D01*
X165660Y140486D01*
X165703Y140443D01*
X165713Y140438D01*
X165751Y140400D01*
X165761Y140395D01*
X165804Y140352D01*
X165814Y140347D01*
X165857Y140304D01*
X165866Y140299D01*
X165948Y140218D01*
X165957Y140213D01*
X166020Y140151D01*
X166029Y140146D01*
X166171Y140005D01*
X166166Y139966D01*
X166144Y139945D01*
X166135Y139940D01*
X165960Y139765D01*
X165955Y139755D01*
X165938Y139743D01*
X165921Y139726D01*
X165917Y139717D01*
X165900Y139700D01*
X165890Y139695D01*
X165761Y139566D01*
X165751Y139561D01*
X165730Y139539D01*
X165725Y139530D01*
X165696Y139506D01*
X165660Y139470D01*
X165650Y139465D01*
X165622Y139436D01*
X165598Y139422D01*
X165591Y139400D01*
X165598Y139374D01*
X165682Y139290D01*
X165687Y139280D01*
X165696Y139271D01*
X165701Y139261D01*
X165720Y139242D01*
X165725Y139233D01*
X165737Y139216D01*
X165756Y139211D01*
X165775Y139216D01*
X165825Y139266D01*
X165830Y139276D01*
X165838Y139283D01*
X165847Y139288D01*
X165890Y139331D01*
X165900Y139336D01*
X165926Y139357D01*
X165938Y139369D01*
X165948Y139374D01*
X165962Y139388D01*
X165972Y139393D01*
X166010Y139432D01*
X166020Y139436D01*
X166063Y139479D01*
X166072Y139484D01*
X166111Y139523D01*
X166121Y139527D01*
X166130Y139537D01*
X166140Y139542D01*
X166185Y139587D01*
X166190Y139597D01*
X166207Y139614D01*
X166224Y139616D01*
X166240Y139609D01*
X166247Y139602D01*
X166245Y139518D01*
X166255Y138597D01*
X166257Y138571D01*
X166252Y138556D01*
X166262Y138528D01*
X166274Y138516D01*
X166293Y138511D01*
X166312Y138516D01*
X166365Y138568D01*
X166375Y138573D01*
X166387Y138590D01*
X166408Y138607D01*
X166418Y138611D01*
X166425Y138619D01*
X166430Y138628D01*
X166446Y138645D01*
X166456Y138650D01*
X166499Y138693D01*
X166509Y138698D01*
X166547Y138736D01*
X166557Y138741D01*
X166600Y138784D01*
X166610Y138789D01*
X166657Y138837D01*
X166667Y138842D01*
X166715Y138890D01*
X166725Y138894D01*
X166737Y138906D01*
X166741Y138916D01*
X166749Y138923D01*
X166758Y138928D01*
X166806Y138976D01*
X166816Y138981D01*
X166832Y138997D01*
X166837Y139007D01*
X166854Y139019D01*
X166876Y139036D01*
X166881Y139046D01*
X166897Y139062D01*
X166907Y139067D01*
X166917Y139077D01*
X166924Y139079D01*
X166928Y139089D01*
X166945Y139105D01*
X166955Y139110D01*
X166976Y139127D01*
X166981Y139137D01*
X166993Y139149D01*
X167003Y139153D01*
X167012Y139163D01*
X167022Y139168D01*
X167029Y139175D01*
X167034Y139184D01*
X167072Y139213D01*
X167077Y139223D01*
X167094Y139240D01*
X167104Y139244D01*
X167192Y139333D01*
X167202Y139357D01*
X167197Y139381D01*
X167175Y139403D01*
X167168Y139405D01*
X167163Y139415D01*
X166993Y139585D01*
X166986Y139587D01*
X166981Y139597D01*
X166950Y139628D01*
X166940Y139633D01*
X166928Y139650D01*
X166912Y139666D01*
X166902Y139671D01*
X166881Y139693D01*
X166876Y139702D01*
X166859Y139714D01*
X166811Y139762D01*
X166801Y139767D01*
X166794Y139774D01*
X166789Y139784D01*
X166768Y139805D01*
X166758Y139810D01*
X166741Y139827D01*
X166737Y139837D01*
X166725Y139849D01*
X166715Y139854D01*
X166698Y139870D01*
X166693Y139880D01*
X166677Y139897D01*
X166667Y139901D01*
X166655Y139913D01*
X166650Y139923D01*
X166643Y139930D01*
X166633Y139935D01*
X166607Y139957D01*
X166612Y139985D01*
X166657Y140031D01*
X166667Y140036D01*
X166758Y140127D01*
X166768Y140132D01*
X166811Y140175D01*
X166821Y140180D01*
X166832Y140191D01*
X166837Y140201D01*
X166849Y140213D01*
X166859Y140218D01*
X166907Y140266D01*
X166917Y140271D01*
X166928Y140283D01*
X166933Y140292D01*
X166945Y140304D01*
X166955Y140309D01*
X166976Y140331D01*
X166981Y140340D01*
X166998Y140352D01*
X167099Y140453D01*
X167106Y140455D01*
X167111Y140465D01*
X167132Y140486D01*
X167142Y140491D01*
X167185Y140534D01*
X167195Y140539D01*
X167202Y140546D01*
X167207Y140575D01*
X167192Y140599D01*
X167156Y140635D01*
X167147Y140640D01*
X167022Y140765D01*
X167012Y140769D01*
X166960Y140822D01*
X166950Y140827D01*
X166907Y140870D01*
X166897Y140875D01*
X166885Y140887D01*
X166881Y140896D01*
X166873Y140904D01*
X166864Y140908D01*
X166816Y140956D01*
X166806Y140961D01*
X166789Y140978D01*
X166785Y140988D01*
X166777Y140995D01*
X166768Y140999D01*
X166720Y141048D01*
X166710Y141052D01*
X166667Y141095D01*
X166657Y141100D01*
X166650Y141107D01*
X166646Y141117D01*
X166629Y141134D01*
X166619Y141139D01*
X166571Y141187D01*
X166562Y141191D01*
X166554Y141199D01*
X166550Y141208D01*
X166538Y141220D01*
X166528Y141225D01*
X166485Y141268D01*
X166475Y141273D01*
X166427Y141321D01*
X166418Y141326D01*
X166389Y141354D01*
X166379Y141359D01*
X166370Y141369D01*
X166360Y141374D01*
X166322Y141412D01*
X166303Y141417D01*
D02*
G37*
G36*
X174282Y144874D02*
X174244Y144869D01*
X174227Y144852D01*
X174193Y144781D01*
X174169Y144737D01*
X174160Y144728D01*
X174150Y144704D01*
X174126Y144661D01*
X174107Y144632D01*
X174097Y144608D01*
X174083Y144584D01*
X174073Y144574D01*
X174069Y144565D01*
X174035Y144502D01*
X174021Y144488D01*
X174016Y144478D01*
X173987Y144426D01*
X173977Y144416D01*
X173973Y144407D01*
X173944Y144354D01*
X173930Y144339D01*
X173925Y144330D01*
X173896Y144277D01*
X173877Y144258D01*
X173865Y144227D01*
X173858Y144220D01*
X173853Y144210D01*
X173834Y144191D01*
X173805Y144138D01*
X173791Y144124D01*
X173786Y144114D01*
X173762Y144071D01*
X173747Y144056D01*
X173742Y144047D01*
X173719Y144004D01*
X173695Y143980D01*
X173671Y143937D01*
X173651Y143918D01*
X173627Y143874D01*
X173608Y143855D01*
X173603Y143845D01*
X173572Y143800D01*
X173560Y143788D01*
X173556Y143778D01*
X173524Y143733D01*
X173512Y143721D01*
X173507Y143711D01*
X173484Y143678D01*
X173464Y143658D01*
X173445Y143625D01*
X173421Y143601D01*
X173416Y143591D01*
X173383Y143548D01*
X173373Y143539D01*
X173369Y143529D01*
X173347Y143503D01*
X173340Y143496D01*
X173335Y143486D01*
X173320Y143472D01*
X173316Y143462D01*
X173294Y143436D01*
X173277Y143419D01*
X173273Y143409D01*
X173263Y143400D01*
X173258Y143390D01*
X173229Y143361D01*
X173225Y143352D01*
X173215Y143342D01*
X173210Y143332D01*
X173181Y143304D01*
X173177Y143294D01*
X173167Y143284D01*
X173162Y143275D01*
X173145Y143263D01*
X173134Y143246D01*
X173112Y143220D01*
X173086Y143193D01*
X173081Y143184D01*
X173042Y143145D01*
X173038Y143136D01*
X172999Y143097D01*
X172994Y143088D01*
X172951Y143045D01*
X172947Y143035D01*
X172930Y143018D01*
X172923Y143016D01*
X172918Y143006D01*
X172860Y142949D01*
X172855Y142939D01*
X172774Y142858D01*
X172769Y142848D01*
X172748Y142826D01*
X172738Y142822D01*
X172731Y142815D01*
X172726Y142805D01*
X172709Y142788D01*
X172699Y142783D01*
X172532Y142615D01*
X172522Y142611D01*
X172469Y142558D01*
X172460Y142553D01*
X172453Y142546D01*
X172448Y142536D01*
X172436Y142524D01*
X172426Y142520D01*
X172383Y142476D01*
X172373Y142472D01*
X172335Y142433D01*
X172326Y142429D01*
X172287Y142390D01*
X172278Y142385D01*
X172263Y142371D01*
X172256Y142369D01*
X172251Y142359D01*
X172244Y142352D01*
X172234Y142347D01*
X172225Y142337D01*
X172215Y142333D01*
X172182Y142299D01*
X172172Y142294D01*
X172146Y142273D01*
X172124Y142251D01*
X172115Y142246D01*
X172088Y142225D01*
X172067Y142203D01*
X172043Y142189D01*
X172014Y142160D01*
X172004Y142155D01*
X171978Y142134D01*
X171966Y142122D01*
X171956Y142117D01*
X171911Y142086D01*
X171894Y142069D01*
X171860Y142050D01*
X171832Y142021D01*
X171808Y142007D01*
X171798Y141997D01*
X171788Y141992D01*
X171774Y141978D01*
X171740Y141959D01*
X171721Y141939D01*
X171712Y141935D01*
X171678Y141915D01*
X171649Y141887D01*
X171616Y141867D01*
X171597Y141848D01*
X171587Y141843D01*
X171542Y141812D01*
X171529Y141800D01*
X171520Y141796D01*
X171486Y141776D01*
X171472Y141762D01*
X171462Y141757D01*
X171453Y141748D01*
X171410Y141724D01*
X171395Y141709D01*
X171386Y141704D01*
X171343Y141681D01*
X171323Y141661D01*
X171271Y141632D01*
X171261Y141623D01*
X171251Y141618D01*
X171242Y141609D01*
X171199Y141585D01*
X171165Y141561D01*
X171141Y141551D01*
X171132Y141546D01*
X171112Y141527D01*
X171103Y141522D01*
X171060Y141498D01*
X171033Y141477D01*
X171007Y141465D01*
X170973Y141446D01*
X170964Y141436D01*
X170954Y141431D01*
X170892Y141398D01*
X170863Y141378D01*
X170839Y141369D01*
X170805Y141350D01*
X170796Y141340D01*
X170762Y141326D01*
X170729Y141306D01*
X170700Y141287D01*
X170669Y141275D01*
X170630Y141251D01*
X170623Y141244D01*
X170571Y141225D01*
X170537Y141201D01*
X170513Y141191D01*
X170482Y141179D01*
X170453Y141160D01*
X170403Y141139D01*
X170360Y141115D01*
X170316Y141095D01*
X170297Y141091D01*
X170249Y141062D01*
X170225Y141052D01*
X170199Y141045D01*
X170151Y141016D01*
X170110Y141004D01*
X170079Y140992D01*
X170043Y140971D01*
X169969Y140944D01*
X169933Y140923D01*
X169894Y140913D01*
X169870Y140904D01*
X169798Y140870D01*
X169772Y140863D01*
X169741Y140851D01*
X169688Y140827D01*
X169669Y140822D01*
X169623Y140805D01*
X169583Y140784D01*
X169525Y140769D01*
X169494Y140757D01*
X169444Y140736D01*
X169424Y140731D01*
X169391Y140721D01*
X169348Y140702D01*
X169324Y140693D01*
X169290Y140683D01*
X169264Y140676D01*
X169245Y140671D01*
X169221Y140662D01*
X169194Y140649D01*
X169161Y140640D01*
X169130Y140633D01*
X169106Y140628D01*
X169034Y140599D01*
X168962Y140585D01*
X168942Y140580D01*
X168890Y140561D01*
X168863Y140554D01*
X168844Y140549D01*
X168765Y140532D01*
X168681Y140506D01*
X168662Y140501D01*
X168616Y140494D01*
X168588Y140489D01*
X168549Y140479D01*
X168525Y140470D01*
X168487Y140460D01*
X168372Y140441D01*
X168333Y140431D01*
X168293Y140419D01*
X168273Y140415D01*
X168240Y140410D01*
X168221Y140405D01*
X168161Y140398D01*
X168142Y140393D01*
X168122Y140379D01*
X168113Y140345D01*
X168115Y139173D01*
X168113Y139146D01*
X168118Y139132D01*
X168130Y139110D01*
X168149Y139105D01*
X168192Y139110D01*
X168206Y139115D01*
X168240Y139120D01*
X168259Y139125D01*
X168293Y139134D01*
X168331Y139144D01*
X168377Y139151D01*
X168473Y139165D01*
X168513Y139177D01*
X168547Y139187D01*
X168566Y139192D01*
X168614Y139197D01*
X168633Y139201D01*
X168679Y139208D01*
X168703Y139213D01*
X168758Y139230D01*
X168796Y139240D01*
X168856Y139247D01*
X168880Y139252D01*
X168899Y139257D01*
X168923Y139266D01*
X168964Y139278D01*
X168983Y139283D01*
X169017Y139288D01*
X169036Y139292D01*
X169067Y139300D01*
X169086Y139304D01*
X169127Y139321D01*
X169165Y139331D01*
X169211Y139338D01*
X169230Y139343D01*
X169278Y139362D01*
X169300Y139369D01*
X169338Y139379D01*
X169369Y139386D01*
X169388Y139391D01*
X169412Y139400D01*
X169439Y139412D01*
X169477Y139422D01*
X169508Y139429D01*
X169532Y139434D01*
X169556Y139444D01*
X169621Y139470D01*
X169657Y139477D01*
X169676Y139482D01*
X169700Y139491D01*
X169750Y139513D01*
X169789Y139523D01*
X169834Y139539D01*
X169885Y139561D01*
X169916Y139568D01*
X169954Y139583D01*
X169976Y139594D01*
X170038Y139614D01*
X170069Y139626D01*
X170129Y139652D01*
X170168Y139662D01*
X170240Y139695D01*
X170259Y139700D01*
X170304Y139717D01*
X170345Y139738D01*
X170393Y139753D01*
X170475Y139791D01*
X170520Y139808D01*
X170549Y139827D01*
X170590Y139839D01*
X170690Y139887D01*
X170721Y139899D01*
X170750Y139918D01*
X170813Y139942D01*
X170829Y139954D01*
X170882Y139978D01*
X170935Y140007D01*
X170968Y140021D01*
X171021Y140050D01*
X171112Y140098D01*
X171122Y140108D01*
X171148Y140115D01*
X171196Y140144D01*
X171203Y140151D01*
X171227Y140160D01*
X171259Y140172D01*
X171266Y140180D01*
X171275Y140184D01*
X171285Y140194D01*
X171318Y140208D01*
X171362Y140232D01*
X171371Y140242D01*
X171405Y140256D01*
X171438Y140276D01*
X171448Y140285D01*
X171458Y140290D01*
X171520Y140323D01*
X171534Y140338D01*
X171565Y140350D01*
X171594Y140369D01*
X171606Y140381D01*
X171640Y140395D01*
X171649Y140400D01*
X171676Y140422D01*
X171712Y140443D01*
X171726Y140448D01*
X171753Y140470D01*
X171774Y140482D01*
X171808Y140501D01*
X171822Y140515D01*
X171832Y140520D01*
X171884Y140549D01*
X171904Y140568D01*
X171947Y140592D01*
X171961Y140606D01*
X171971Y140611D01*
X172023Y140640D01*
X172043Y140659D01*
X172086Y140683D01*
X172105Y140702D01*
X172115Y140707D01*
X172158Y140731D01*
X172177Y140750D01*
X172186Y140755D01*
X172220Y140774D01*
X172244Y140798D01*
X172287Y140822D01*
X172306Y140841D01*
X172316Y140846D01*
X172350Y140865D01*
X172373Y140889D01*
X172383Y140894D01*
X172429Y140925D01*
X172441Y140937D01*
X172450Y140942D01*
X172491Y140968D01*
X172493Y140976D01*
X172503Y140980D01*
X172512Y140990D01*
X172546Y141009D01*
X172570Y141033D01*
X172594Y141048D01*
X172618Y141071D01*
X172628Y141076D01*
X172644Y141088D01*
X172647Y141091D01*
X172656Y141095D01*
X172680Y141119D01*
X172690Y141124D01*
X172726Y141151D01*
X172731Y141160D01*
X172738Y141167D01*
X172748Y141172D01*
X172791Y141206D01*
X172805Y141220D01*
X172815Y141225D01*
X172841Y141246D01*
X172858Y141263D01*
X172867Y141268D01*
X172894Y141290D01*
X172910Y141306D01*
X172920Y141311D01*
X172947Y141333D01*
X172968Y141354D01*
X172978Y141359D01*
X173004Y141381D01*
X173026Y141402D01*
X173035Y141407D01*
X173045Y141417D01*
X173054Y141421D01*
X173066Y141438D01*
X173083Y141450D01*
X173109Y141472D01*
X173131Y141493D01*
X173141Y141498D01*
X173155Y141513D01*
X173162Y141515D01*
X173167Y141525D01*
X173184Y141537D01*
X173203Y141556D01*
X173213Y141561D01*
X173246Y141594D01*
X173256Y141599D01*
X173299Y141642D01*
X173309Y141647D01*
X173352Y141690D01*
X173361Y141695D01*
X173373Y141707D01*
X173378Y141716D01*
X173385Y141724D01*
X173395Y141728D01*
X173443Y141776D01*
X173452Y141781D01*
X173496Y141824D01*
X173505Y141829D01*
X173517Y141841D01*
X173522Y141851D01*
X173534Y141863D01*
X173544Y141867D01*
X173570Y141894D01*
X173575Y141903D01*
X173591Y141915D01*
X173661Y141985D01*
X173666Y141995D01*
X173683Y142007D01*
X173704Y142028D01*
X173709Y142038D01*
X173716Y142045D01*
X173726Y142050D01*
X173742Y142067D01*
X173747Y142076D01*
X173800Y142129D01*
X173805Y142138D01*
X173822Y142150D01*
X173834Y142162D01*
X173838Y142172D01*
X173882Y142215D01*
X173886Y142225D01*
X173930Y142268D01*
X173934Y142278D01*
X173977Y142321D01*
X173982Y142330D01*
X174016Y142364D01*
X174021Y142373D01*
X174035Y142388D01*
X174037Y142395D01*
X174047Y142400D01*
X174071Y142429D01*
X174083Y142445D01*
X174112Y142474D01*
X174117Y142484D01*
X174138Y142510D01*
X174160Y142532D01*
X174164Y142541D01*
X174177Y142558D01*
X174186Y142563D01*
X174193Y142570D01*
X174198Y142580D01*
X174232Y142623D01*
X174246Y142637D01*
X174251Y142647D01*
X174272Y142673D01*
X174289Y142690D01*
X174294Y142700D01*
X174328Y142743D01*
X174342Y142757D01*
X174356Y142781D01*
X174385Y142810D01*
X174390Y142819D01*
X174411Y142846D01*
X174428Y142862D01*
X174447Y142896D01*
X174467Y142915D01*
X174471Y142925D01*
X174481Y142934D01*
X174500Y142968D01*
X174524Y142992D01*
X174543Y143026D01*
X174563Y143045D01*
X174567Y143054D01*
X174586Y143088D01*
X174610Y143112D01*
X174615Y143121D01*
X174634Y143155D01*
X174663Y143184D01*
X174682Y143217D01*
X174692Y143227D01*
X174697Y143236D01*
X174706Y143246D01*
X174730Y143289D01*
X174754Y143313D01*
X174778Y143356D01*
X174788Y143366D01*
X174793Y143376D01*
X174817Y143419D01*
X174836Y143438D01*
X174841Y143447D01*
X174865Y143491D01*
X174884Y143510D01*
X174889Y143519D01*
X174913Y143563D01*
X174934Y143589D01*
X174965Y143644D01*
X174989Y143678D01*
X174994Y143697D01*
X175008Y143711D01*
X175013Y143721D01*
X175028Y143735D01*
X175037Y143759D01*
X175056Y143793D01*
X175071Y143807D01*
X175104Y143869D01*
X175114Y143879D01*
X175128Y143913D01*
X175147Y143946D01*
X175157Y143956D01*
X175162Y143965D01*
X175181Y144009D01*
X175186Y144018D01*
X175196Y144028D01*
X175200Y144037D01*
X175215Y144061D01*
X175227Y144093D01*
X175246Y144121D01*
X175253Y144128D01*
X175263Y144152D01*
X175291Y144205D01*
X175335Y144287D01*
X175358Y144339D01*
X175378Y144373D01*
X175397Y144402D01*
X175404Y144428D01*
X175414Y144452D01*
X175426Y144469D01*
X175440Y144483D01*
X175454Y144531D01*
X175459Y144560D01*
X175447Y144572D01*
X175404Y144567D01*
X175380Y144558D01*
X175361Y144553D01*
X175282Y144546D01*
X175025Y144543D01*
X175011Y144548D01*
X174920Y144553D01*
X174905Y144558D01*
X174869Y144565D01*
X174831Y144579D01*
X174812Y144584D01*
X174785Y144591D01*
X174735Y144603D01*
X174711Y144613D01*
X174651Y144639D01*
X174632Y144644D01*
X174579Y144673D01*
X174546Y144687D01*
X174515Y144699D01*
X174507Y144706D01*
X174498Y144711D01*
X174488Y144721D01*
X174455Y144735D01*
X174421Y144754D01*
X174407Y144769D01*
X174364Y144793D01*
X174339Y144817D01*
X174330Y144821D01*
X174308Y144838D01*
X174294Y144862D01*
X174282Y144874D01*
D02*
G37*
%LPD*%
G36*
X166571Y140808D02*
X166631Y140748D01*
X166636Y140738D01*
X166657Y140717D01*
X166667Y140712D01*
X166689Y140690D01*
X166693Y140681D01*
X166706Y140669D01*
X166715Y140664D01*
X166809Y140570D01*
X166804Y140542D01*
X166758Y140496D01*
X166749Y140491D01*
X166706Y140448D01*
X166696Y140443D01*
X166653Y140400D01*
X166643Y140395D01*
X166612Y140364D01*
X166610Y140357D01*
X166600Y140352D01*
X166576Y140328D01*
X166566Y140323D01*
X166542Y140314D01*
X166530Y140321D01*
X166526Y140340D01*
X166533Y140386D01*
X166535Y140388D01*
X166530Y140402D01*
X166528Y140721D01*
X166530Y140748D01*
X166526Y140762D01*
X166528Y140803D01*
X166530Y140805D01*
X166538Y140813D01*
X166571Y140808D01*
D02*
G37*
G36*
X166562Y139599D02*
X166576Y139585D01*
X166586Y139580D01*
X166643Y139523D01*
X166653Y139518D01*
X166686Y139484D01*
X166696Y139479D01*
X166722Y139458D01*
X166749Y139432D01*
X166758Y139427D01*
X166768Y139417D01*
X166777Y139412D01*
X166789Y139395D01*
X166806Y139383D01*
X166813Y139376D01*
X166818Y139357D01*
X166804Y139333D01*
X166763Y139292D01*
X166753Y139288D01*
X166737Y139271D01*
X166732Y139261D01*
X166715Y139249D01*
X166693Y139233D01*
Y139228D01*
X166691Y139225D01*
X166672Y139206D01*
X166662Y139201D01*
X166641Y139180D01*
X166636Y139170D01*
X166629Y139163D01*
X166619Y139158D01*
X166593Y139132D01*
X166590Y139125D01*
X166581Y139120D01*
X166557Y139105D01*
X166538Y139101D01*
X166526Y139113D01*
X166523Y139144D01*
X166528Y139527D01*
X166530Y139539D01*
X166526Y139554D01*
X166521Y139587D01*
X166526Y139606D01*
X166538Y139614D01*
X166562Y139599D01*
D02*
G37*
D10*
X182955Y225426D02*
G03*
X182955Y225426I-394J0D01*
G01*
X310176Y174164D02*
G03*
X310176Y174164I-394J0D01*
G01*
X54750Y220894D02*
G03*
X54750Y220894I-394J0D01*
G01*
X87914Y78306D02*
G03*
X87914Y78306I-394J0D01*
G01*
X30559Y65482D02*
G03*
X30559Y65482I-197J0D01*
G01*
X43935Y222218D02*
G03*
X43935Y222218I-197J0D01*
G01*
X45426Y195388D02*
G03*
X45426Y195388I-197J0D01*
G01*
X23435Y67152D02*
G03*
X23435Y67152I-394J0D01*
G01*
X65057Y62532D02*
G03*
X65057Y62532I-394J0D01*
G01*
X280697Y34860D02*
X282272D01*
X280697D02*
Y36435D01*
X292508Y34860D02*
X294083D01*
Y36435D01*
Y46671D02*
Y48246D01*
X292508D02*
X294083D01*
X280697D02*
X282272D01*
X280697Y46671D02*
Y48246D01*
X276160Y200000D02*
X276947D01*
X230300Y254953D02*
Y255740D01*
X31950Y227850D02*
X32738D01*
X41399Y171750D02*
X62895D01*
X41399Y161950D02*
X62895D01*
X41399D02*
Y171750D01*
X62895Y161950D02*
Y171750D01*
X106299Y213150D02*
Y222950D01*
X127795Y213150D02*
Y222950D01*
X106299D02*
X127795D01*
X106299Y213150D02*
X127795D01*
X301800Y52648D02*
X311600D01*
X301800Y31152D02*
X311600D01*
Y52648D01*
X301800Y31152D02*
Y52648D01*
X307216Y71596D02*
Y76714D01*
X283594Y71596D02*
Y76714D01*
X295405Y85769D02*
X302885D01*
X288318D02*
X302885D01*
X288318Y62147D02*
X302885D01*
X88561Y129039D02*
X103128D01*
X88561Y152661D02*
X103128D01*
X95647D02*
X103128D01*
X83836Y138488D02*
Y143606D01*
X107458Y138488D02*
Y143606D01*
X265913Y249089D02*
X280480D01*
X265913Y272711D02*
X280480D01*
X273000D02*
X280480D01*
X261189Y258538D02*
Y263656D01*
X284811Y258538D02*
Y263656D01*
X297500Y238648D02*
X307300D01*
X297500Y217152D02*
X307300D01*
Y238648D01*
X297500Y217152D02*
Y238648D01*
X2994Y251298D02*
X12794D01*
X2994Y229802D02*
X12794D01*
Y251298D01*
X2994Y229802D02*
Y251298D01*
D11*
X278630Y47655D02*
G03*
X278630Y47655I-492J0D01*
G01*
D12*
X77565Y234876D02*
G03*
X77565Y234876I-394J0D01*
G01*
D13*
X272617Y202756D02*
G03*
X272617Y202756I-197J0D01*
G01*
X233253Y259480D02*
G03*
X233253Y259480I-197J0D01*
G01*
X36675Y225094D02*
G03*
X36675Y225094I-197J0D01*
G01*
D14*
X205700Y94750D02*
X313800D01*
X205700Y204700D02*
X313800D01*
Y94750D02*
Y204700D01*
X205700Y94750D02*
Y204700D01*
X131300Y176300D02*
X248700D01*
X131300Y275700D02*
X248700D01*
Y176300D02*
Y275700D01*
X131300Y176300D02*
Y275700D01*
X2100Y32800D02*
X50000D01*
X2100Y88900D02*
X50000D01*
Y32800D02*
Y88900D01*
X2100Y32800D02*
Y88900D01*
X205182Y918D02*
X314082D01*
X205182Y87818D02*
X314082D01*
Y918D02*
Y87818D01*
X205182Y918D02*
Y87818D01*
X918Y122400D02*
X131100D01*
X918Y275882D02*
X131100D01*
Y122400D02*
Y275882D01*
X918Y122400D02*
Y275882D01*
X53400Y16300D02*
X173700D01*
X53400Y111400D02*
X173700D01*
Y16300D02*
Y111400D01*
X53400Y16300D02*
Y111400D01*
X147500Y196996D02*
X151499D01*
X149499D01*
Y190998D01*
X153498D02*
Y196996D01*
X156497D01*
X157497Y195996D01*
Y193997D01*
X156497Y192997D01*
X153498D01*
X163495Y195996D02*
X162495Y196996D01*
X160496D01*
X159496Y195996D01*
Y194996D01*
X160496Y193997D01*
X162495D01*
X163495Y192997D01*
Y191997D01*
X162495Y190998D01*
X160496D01*
X159496Y191997D01*
X171492Y196996D02*
Y190998D01*
X174491D01*
X175491Y191997D01*
Y192997D01*
X174491Y193997D01*
X171492D01*
X174491D01*
X175491Y194996D01*
Y195996D01*
X174491Y196996D01*
X171492D01*
X177490D02*
Y190998D01*
X180489D01*
X181489Y191997D01*
Y192997D01*
X180489Y193997D01*
X177490D01*
X180489D01*
X181489Y194996D01*
Y195996D01*
X180489Y196996D01*
X177490D01*
X157497Y186398D02*
X156497Y187398D01*
X154498D01*
X153498Y186398D01*
Y182400D01*
X154498Y181400D01*
X156497D01*
X157497Y182400D01*
X160496Y181400D02*
X162495D01*
X163495Y182400D01*
Y184399D01*
X162495Y185399D01*
X160496D01*
X159496Y184399D01*
Y182400D01*
X160496Y181400D01*
X165494D02*
Y185399D01*
X168493D01*
X169493Y184399D01*
Y181400D01*
X171492Y185399D02*
X173492Y181400D01*
X175491Y185399D01*
X12300Y142996D02*
Y136998D01*
X15299D01*
X16299Y137997D01*
Y138997D01*
X15299Y139997D01*
X12300D01*
X15299D01*
X16299Y140996D01*
Y141996D01*
X15299Y142996D01*
X12300D01*
X22297Y137997D02*
Y141996D01*
X21297Y142996D01*
X19298D01*
X18298Y141996D01*
Y137997D01*
X19298Y136998D01*
X21297D01*
X20297Y138997D02*
X22297Y136998D01*
X21297D02*
X22297Y137997D01*
X28295Y136998D02*
X24296D01*
X28295Y140996D01*
Y141996D01*
X27295Y142996D01*
X25296D01*
X24296Y141996D01*
X34293Y142996D02*
X30294D01*
Y139997D01*
X32293Y140996D01*
X33293D01*
X34293Y139997D01*
Y137997D01*
X33293Y136998D01*
X31294D01*
X30294Y137997D01*
X36292Y142996D02*
X40291D01*
Y141996D01*
X36292Y137997D01*
Y136998D01*
X42290Y137997D02*
X43290Y136998D01*
X45289D01*
X46289Y137997D01*
Y141996D01*
X45289Y142996D01*
X43290D01*
X42290Y141996D01*
Y140996D01*
X43290Y139997D01*
X46289D01*
X48288Y141996D02*
X49288Y142996D01*
X51287D01*
X52287Y141996D01*
Y140996D01*
X51287Y139997D01*
X52287Y138997D01*
Y137997D01*
X51287Y136998D01*
X49288D01*
X48288Y137997D01*
Y138997D01*
X49288Y139997D01*
X48288Y140996D01*
Y141996D01*
X49288Y139997D02*
X51287D01*
X18298Y127400D02*
Y133398D01*
X21297D01*
X22297Y132398D01*
Y130399D01*
X21297Y129399D01*
X18298D01*
X24296Y127400D02*
Y133398D01*
X26296Y131399D01*
X28295Y133398D01*
Y127400D01*
X30294Y133398D02*
X32293D01*
X31294D01*
Y127400D01*
X30294D01*
X32293D01*
X39291Y132398D02*
X38292Y133398D01*
X36292D01*
X35293Y132398D01*
Y128400D01*
X36292Y127400D01*
X38292D01*
X39291Y128400D01*
X214032Y142896D02*
X210700D01*
Y137898D01*
X214032D01*
X210700Y140397D02*
X212366D01*
X219031Y142063D02*
X218198Y142896D01*
X216531D01*
X215698Y142063D01*
Y141230D01*
X216531Y140397D01*
X218198D01*
X219031Y139564D01*
Y138731D01*
X218198Y137898D01*
X216531D01*
X215698Y138731D01*
X220697Y137898D02*
Y142896D01*
X223196D01*
X224029Y142063D01*
Y140397D01*
X223196Y139564D01*
X220697D01*
X225695Y142063D02*
X226528Y142896D01*
X228194D01*
X229027Y142063D01*
Y141230D01*
X228194Y140397D01*
X227361D01*
X228194D01*
X229027Y139564D01*
Y138731D01*
X228194Y137898D01*
X226528D01*
X225695Y138731D01*
X234026Y137898D02*
X230694D01*
X234026Y141230D01*
Y142063D01*
X233193Y142896D01*
X231527D01*
X230694Y142063D01*
X215698Y129500D02*
Y134498D01*
X217365Y132832D01*
X219031Y134498D01*
Y129500D01*
X224029Y133665D02*
X223196Y134498D01*
X221530D01*
X220697Y133665D01*
Y130333D01*
X221530Y129500D01*
X223196D01*
X224029Y130333D01*
X225695Y134498D02*
Y130333D01*
X226528Y129500D01*
X228194D01*
X229027Y130333D01*
Y134498D01*
X209400Y20897D02*
Y26895D01*
X211399Y24896D01*
X213399Y26895D01*
Y20897D01*
X215398D02*
Y24896D01*
X217397Y26895D01*
X219397Y24896D01*
Y20897D01*
Y23896D01*
X215398D01*
X221396Y26895D02*
X225395Y20897D01*
Y26895D02*
X221396Y20897D01*
X233392D02*
Y24896D01*
X235392Y26895D01*
X237391Y24896D01*
Y20897D01*
Y23896D01*
X233392D01*
X239390Y24896D02*
Y21897D01*
X240390Y20897D01*
X243389D01*
Y24896D01*
X249387Y26895D02*
Y20897D01*
X246388D01*
X245388Y21897D01*
Y23896D01*
X246388Y24896D01*
X249387D01*
X251386Y20897D02*
X253386D01*
X252386D01*
Y24896D01*
X251386D01*
X257384Y20897D02*
X259384D01*
X260384Y21897D01*
Y23896D01*
X259384Y24896D01*
X257384D01*
X256385Y23896D01*
Y21897D01*
X257384Y20897D01*
X215398Y11299D02*
Y15298D01*
X217397Y17297D01*
X219397Y15298D01*
Y11299D01*
Y14298D01*
X215398D01*
X221396Y11299D02*
Y15298D01*
X222396D01*
X223395Y14298D01*
Y11299D01*
Y14298D01*
X224395Y15298D01*
X225395Y14298D01*
Y11299D01*
X227394Y9300D02*
Y15298D01*
X230393D01*
X231393Y14298D01*
Y12299D01*
X230393Y11299D01*
X227394D01*
X233392D02*
X235392D01*
X234392D01*
Y17297D01*
X233392D01*
X238391Y11299D02*
X240390D01*
X239390D01*
Y15298D01*
X238391D01*
X244389Y11299D02*
Y16298D01*
Y14298D01*
X243389D01*
X245388D01*
X244389D01*
Y16298D01*
X245388Y17297D01*
X248387Y11299D02*
X250387D01*
X249387D01*
Y15298D01*
X248387D01*
X256385Y11299D02*
X254385D01*
X253386Y12299D01*
Y14298D01*
X254385Y15298D01*
X256385D01*
X257384Y14298D01*
Y13299D01*
X253386D01*
X259384Y15298D02*
Y11299D01*
Y13299D01*
X260384Y14298D01*
X261383Y15298D01*
X262383D01*
X66199Y23898D02*
X65199Y24898D01*
X63200D01*
X62200Y23898D01*
Y19900D01*
X63200Y18900D01*
X65199D01*
X66199Y19900D01*
X68198Y18900D02*
Y24898D01*
X71197D01*
X72197Y23898D01*
Y21899D01*
X71197Y20899D01*
X68198D01*
X78195Y18900D02*
X74196D01*
X78195Y22899D01*
Y23898D01*
X77195Y24898D01*
X75196D01*
X74196Y23898D01*
X80194Y18900D02*
X82193D01*
X81194D01*
Y24898D01*
X80194Y23898D01*
X85193D02*
X86192Y24898D01*
X88192D01*
X89191Y23898D01*
Y19900D01*
X88192Y18900D01*
X86192D01*
X85193Y19900D01*
Y23898D01*
X95189Y18900D02*
X91191D01*
X95189Y22899D01*
Y23898D01*
X94190Y24898D01*
X92190D01*
X91191Y23898D01*
X97189Y18900D02*
Y24898D01*
X101187Y18900D01*
Y24898D01*
X111184Y18900D02*
X109185Y20899D01*
Y22899D01*
X111184Y24898D01*
X114183D02*
Y19900D01*
X115183Y18900D01*
X117182D01*
X118182Y19900D01*
Y24898D01*
X124180Y23898D02*
X123180Y24898D01*
X121181D01*
X120181Y23898D01*
Y22899D01*
X121181Y21899D01*
X123180D01*
X124180Y20899D01*
Y19900D01*
X123180Y18900D01*
X121181D01*
X120181Y19900D01*
X126179Y24898D02*
Y18900D01*
X129178D01*
X130178Y19900D01*
Y20899D01*
X129178Y21899D01*
X126179D01*
X129178D01*
X130178Y22899D01*
Y23898D01*
X129178Y24898D01*
X126179D01*
X132177Y21899D02*
X136176D01*
X138175Y24898D02*
Y19900D01*
X139175Y18900D01*
X141174D01*
X142174Y19900D01*
Y24898D01*
X144174Y18900D02*
Y22899D01*
X146173Y24898D01*
X148172Y22899D01*
Y18900D01*
Y21899D01*
X144174D01*
X150171Y18900D02*
Y24898D01*
X153171D01*
X154170Y23898D01*
Y21899D01*
X153171Y20899D01*
X150171D01*
X152171D02*
X154170Y18900D01*
X156170Y24898D02*
X160168D01*
X158169D01*
Y18900D01*
X162168D02*
X164167Y20899D01*
Y22899D01*
X162168Y24898D01*
X183000Y77800D02*
Y83798D01*
X185999D01*
X186999Y82798D01*
Y80799D01*
X185999Y79799D01*
X183000D01*
X184999D02*
X186999Y77800D01*
X191997D02*
Y83798D01*
X188998Y80799D01*
X192997D01*
X197995Y77800D02*
Y83798D01*
X194996Y80799D01*
X198995D01*
D15*
X179806Y223458D02*
Y223694D01*
Y238969D02*
Y239206D01*
X178270D02*
X179806D01*
X167994D02*
X169530D01*
X167994Y238969D02*
Y239206D01*
Y223458D02*
Y223694D01*
Y223458D02*
X169530D01*
X178270D02*
X179806D01*
X238876Y169439D02*
X241435D01*
X238876Y159794D02*
Y169439D01*
Y98573D02*
Y108219D01*
Y98573D02*
X241435D01*
X313680Y169439D02*
X339270D01*
Y98573D02*
Y169439D01*
X313680Y98573D02*
X339270D01*
X58273Y206445D02*
X58982D01*
X73313D02*
X74021D01*
X73313Y222744D02*
X74021D01*
X58273D02*
X58982D01*
X111143Y62558D02*
Y64526D01*
X109174Y62558D02*
X111143D01*
X91457D02*
X93426D01*
X91457D02*
Y64526D01*
X111143Y80274D02*
Y82243D01*
X109174D02*
X111143D01*
X91457Y80274D02*
Y82243D01*
X93426D01*
X11211Y76404D02*
X18121D01*
X11211Y47270D02*
X18121D01*
Y75695D02*
Y76404D01*
Y47270D02*
Y47979D01*
X1191Y76404D02*
X2254D01*
X1191Y47270D02*
X2254D01*
X1191D02*
Y76404D01*
X67392Y51509D02*
Y57020D01*
X55424Y51509D02*
Y57020D01*
X66998Y51509D02*
X67392D01*
X66998Y57020D02*
X67392D01*
X55424Y51509D02*
X55817D01*
X55424Y57020D02*
X55817D01*
D16*
X41325Y64850D02*
X46675D01*
X41325Y72950D02*
X46675D01*
X126950Y69270D02*
Y71930D01*
Y64200D02*
X133450D01*
Y68190D01*
X126950Y77000D02*
X133450D01*
Y73010D02*
Y77000D01*
X127450Y87470D02*
Y90130D01*
Y82400D02*
X133950D01*
Y86390D01*
X127450Y95200D02*
X133950D01*
Y91210D02*
Y95200D01*
X161300Y247100D02*
X189100D01*
Y252240D01*
X161300Y273300D02*
X189100D01*
X161300Y268160D02*
Y273300D01*
Y247100D02*
Y252240D01*
X189100Y268160D02*
Y273300D01*
X170468Y245299D02*
Y241967D01*
X171134Y241301D01*
X172467D01*
X173134Y241967D01*
Y245299D01*
X176466Y241301D02*
Y245299D01*
X174467Y243300D01*
X177132D01*
X57996Y36700D02*
Y33500D01*
X59595D01*
X60128Y34034D01*
Y36166D01*
X59595Y36700D01*
X57996D01*
X61195Y33500D02*
X62261D01*
X61728D01*
Y36700D01*
X61195Y36166D01*
X94868Y166401D02*
Y170399D01*
X96868D01*
X97534Y169733D01*
Y168400D01*
X96868Y167734D01*
X94868D01*
X96201D02*
X97534Y166401D01*
X98867Y169733D02*
X99534Y170399D01*
X100866D01*
X101533Y169733D01*
Y169067D01*
X100866Y168400D01*
X100200D01*
X100866D01*
X101533Y167734D01*
Y167067D01*
X100866Y166401D01*
X99534D01*
X98867Y167067D01*
X102866Y169733D02*
X103532Y170399D01*
X104865D01*
X105532Y169733D01*
Y169067D01*
X104865Y168400D01*
X104199D01*
X104865D01*
X105532Y167734D01*
Y167067D01*
X104865Y166401D01*
X103532D01*
X102866Y167067D01*
X68868Y162001D02*
Y165999D01*
X70868D01*
X71534Y165333D01*
Y164000D01*
X70868Y163333D01*
X68868D01*
X70201D02*
X71534Y162001D01*
X72867Y165333D02*
X73534Y165999D01*
X74866D01*
X75533Y165333D01*
Y164666D01*
X74866Y164000D01*
X74200D01*
X74866D01*
X75533Y163333D01*
Y162667D01*
X74866Y162001D01*
X73534D01*
X72867Y162667D01*
X79532Y162001D02*
X76866D01*
X79532Y164666D01*
Y165333D01*
X78865Y165999D01*
X77532D01*
X76866Y165333D01*
X137435Y103300D02*
Y106500D01*
X139034D01*
X139567Y105966D01*
Y104900D01*
X139034Y104367D01*
X137435D01*
X138501D02*
X139567Y103300D01*
X142233D02*
Y106500D01*
X140634Y104900D01*
X142766D01*
X143833Y105966D02*
X144366Y106500D01*
X145432D01*
X145965Y105966D01*
Y105433D01*
X145432Y104900D01*
X144899D01*
X145432D01*
X145965Y104367D01*
Y103834D01*
X145432Y103300D01*
X144366D01*
X143833Y103834D01*
X85168Y105001D02*
Y108999D01*
X87168D01*
X87834Y108333D01*
Y107000D01*
X87168Y106333D01*
X85168D01*
X86501D02*
X87834Y105001D01*
X91166D02*
Y108999D01*
X89167Y107000D01*
X91833D01*
X95832Y105001D02*
X93166D01*
X95832Y107667D01*
Y108333D01*
X95165Y108999D01*
X93832D01*
X93166Y108333D01*
X72600Y52535D02*
X69401D01*
Y54134D01*
X69934Y54667D01*
X71000D01*
X71533Y54134D01*
Y52535D01*
Y53601D02*
X72600Y54667D01*
Y57333D02*
X69401D01*
X71000Y55734D01*
Y57866D01*
X69934Y58933D02*
X69401Y59466D01*
Y60532D01*
X69934Y61065D01*
X72066D01*
X72600Y60532D01*
Y59466D01*
X72066Y58933D01*
X69934D01*
X155068Y96201D02*
Y100199D01*
X157068D01*
X157734Y99533D01*
Y98200D01*
X157068Y97534D01*
X155068D01*
X156401D02*
X157734Y96201D01*
X159067Y99533D02*
X159733Y100199D01*
X161066D01*
X161733Y99533D01*
Y98866D01*
X161066Y98200D01*
X160400D01*
X161066D01*
X161733Y97534D01*
Y96867D01*
X161066Y96201D01*
X159733D01*
X159067Y96867D01*
X163066D02*
X163732Y96201D01*
X165065D01*
X165732Y96867D01*
Y99533D01*
X165065Y100199D01*
X163732D01*
X163066Y99533D01*
Y98866D01*
X163732Y98200D01*
X165732D01*
X234900Y238700D02*
Y242699D01*
X236899D01*
X237566Y242032D01*
Y240699D01*
X236899Y240033D01*
X234900D01*
X236233D02*
X237566Y238700D01*
X238899Y242032D02*
X239565Y242699D01*
X240898D01*
X241564Y242032D01*
Y241366D01*
X240898Y240699D01*
X240232D01*
X240898D01*
X241564Y240033D01*
Y239366D01*
X240898Y238700D01*
X239565D01*
X238899Y239366D01*
X242897Y242699D02*
X245563D01*
Y242032D01*
X242897Y239366D01*
Y238700D01*
X134235Y240500D02*
Y243700D01*
X135834D01*
X136367Y243166D01*
Y242100D01*
X135834Y241567D01*
X134235D01*
X135301D02*
X136367Y240500D01*
X137434Y243166D02*
X137967Y243700D01*
X139033D01*
X139566Y243166D01*
Y242633D01*
X139033Y242100D01*
X138500D01*
X139033D01*
X139566Y241567D01*
Y241034D01*
X139033Y240500D01*
X137967D01*
X137434Y241034D01*
X142232Y240500D02*
Y243700D01*
X140633Y242100D01*
X142765D01*
X111768Y194000D02*
Y197199D01*
X113367D01*
X113900Y196666D01*
Y195600D01*
X113367Y195067D01*
X111768D01*
X112834D02*
X113900Y194000D01*
X114967Y196666D02*
X115500Y197199D01*
X116566D01*
X117099Y196666D01*
Y196133D01*
X116566Y195600D01*
X116033D01*
X116566D01*
X117099Y195067D01*
Y194534D01*
X116566Y194000D01*
X115500D01*
X114967Y194534D01*
X118166Y194000D02*
X119232D01*
X118699D01*
Y197199D01*
X118166Y196666D01*
X104635Y155800D02*
Y159000D01*
X106234D01*
X106767Y158466D01*
Y157400D01*
X106234Y156867D01*
X104635D01*
X105701D02*
X106767Y155800D01*
X107834Y158466D02*
X108367Y159000D01*
X109433D01*
X109966Y158466D01*
Y157933D01*
X109433Y157400D01*
X108900D01*
X109433D01*
X109966Y156867D01*
Y156334D01*
X109433Y155800D01*
X108367D01*
X107834Y156334D01*
X111033Y158466D02*
X111566Y159000D01*
X112632D01*
X113165Y158466D01*
Y156334D01*
X112632Y155800D01*
X111566D01*
X111033Y156334D01*
Y158466D01*
X107568Y171401D02*
Y175399D01*
X109568D01*
X110234Y174733D01*
Y173400D01*
X109568Y172733D01*
X107568D01*
X108901D02*
X110234Y171401D01*
X114233D02*
X111567D01*
X114233Y174066D01*
Y174733D01*
X113567Y175399D01*
X112233D01*
X111567Y174733D01*
X115566Y172067D02*
X116232Y171401D01*
X117565D01*
X118232Y172067D01*
Y174733D01*
X117565Y175399D01*
X116232D01*
X115566Y174733D01*
Y174066D01*
X116232Y173400D01*
X118232D01*
X3134Y223700D02*
Y226900D01*
X4734D01*
X5267Y226366D01*
Y225300D01*
X4734Y224767D01*
X3134D01*
X4200D02*
X5267Y223700D01*
X8466D02*
X6333D01*
X8466Y225833D01*
Y226366D01*
X7933Y226900D01*
X6866D01*
X6333Y226366D01*
X304834Y244300D02*
Y241101D01*
Y242700D01*
X306967D01*
Y244300D01*
Y241101D01*
X310166Y244300D02*
X308033D01*
Y242700D01*
X309100Y243233D01*
X309633D01*
X310166Y242700D01*
Y241634D01*
X309633Y241101D01*
X308566D01*
X308033Y241634D01*
X21434Y258800D02*
Y255601D01*
Y257200D01*
X23567D01*
Y258800D01*
Y255601D01*
X26233D02*
Y258800D01*
X24633Y257200D01*
X26766D01*
X299168Y248601D02*
Y252599D01*
X300501Y251266D01*
X301834Y252599D01*
Y248601D01*
X303167Y252599D02*
Y248601D01*
Y250600D01*
X305833D01*
Y252599D01*
Y248601D01*
X309165D02*
Y252599D01*
X307166Y250600D01*
X309832D01*
X23168Y267701D02*
Y271699D01*
X24501Y270366D01*
X25834Y271699D01*
Y267701D01*
X27167Y271699D02*
Y267701D01*
Y269700D01*
X29833D01*
Y271699D01*
Y267701D01*
X31166Y271033D02*
X31832Y271699D01*
X33165D01*
X33832Y271033D01*
Y270366D01*
X33165Y269700D01*
X32499D01*
X33165D01*
X33832Y269034D01*
Y268367D01*
X33165Y267701D01*
X31832D01*
X31166Y268367D01*
X280868Y6701D02*
Y10699D01*
X282201Y9366D01*
X283534Y10699D01*
Y6701D01*
X284867Y10699D02*
Y6701D01*
Y8700D01*
X287533D01*
Y10699D01*
Y6701D01*
X291532D02*
X288866D01*
X291532Y9366D01*
Y10033D01*
X290865Y10699D01*
X289532D01*
X288866Y10033D01*
X22335Y4301D02*
Y8299D01*
X23668Y6966D01*
X25001Y8299D01*
Y4301D01*
X26334Y8299D02*
Y4301D01*
Y6300D01*
X28999D01*
Y8299D01*
Y4301D01*
X30332D02*
X31665D01*
X30999D01*
Y8299D01*
X30332Y7633D01*
X113268Y64499D02*
Y61167D01*
X113934Y60501D01*
X115267D01*
X115934Y61167D01*
Y64499D01*
X119932D02*
X117266D01*
Y62500D01*
X118599Y63166D01*
X119266D01*
X119932Y62500D01*
Y61167D01*
X119266Y60501D01*
X117933D01*
X117266Y61167D01*
X54121Y230951D02*
Y227618D01*
X54787Y226952D01*
X56120D01*
X56787Y227618D01*
Y230951D01*
X58120Y230284D02*
X58786Y230951D01*
X60119D01*
X60785Y230284D01*
Y229618D01*
X60119Y228951D01*
X59452D01*
X60119D01*
X60785Y228285D01*
Y227618D01*
X60119Y226952D01*
X58786D01*
X58120Y227618D01*
X228268Y164799D02*
Y161467D01*
X228934Y160801D01*
X230267D01*
X230934Y161467D01*
Y164799D01*
X234932Y160801D02*
X232266D01*
X234932Y163467D01*
Y164133D01*
X234266Y164799D01*
X232933D01*
X232266Y164133D01*
X293034Y54199D02*
Y50867D01*
X293701Y50201D01*
X295034D01*
X295700Y50867D01*
Y54199D01*
X297033Y50201D02*
X298366D01*
X297699D01*
Y54199D01*
X297033Y53533D01*
X78291Y29624D02*
Y31756D01*
Y30690D01*
X81490D01*
Y32823D02*
X78291D01*
Y34422D01*
X78824Y34955D01*
X79890D01*
X80423Y34422D01*
Y32823D01*
X81490Y36022D02*
Y37088D01*
Y36555D01*
X78291D01*
X78824Y36022D01*
X78291Y40820D02*
X78824Y39754D01*
X79890Y38688D01*
X80957D01*
X81490Y39221D01*
Y40287D01*
X80957Y40820D01*
X80423D01*
X79890Y40287D01*
Y38688D01*
X230002Y220699D02*
X232668D01*
X231335D01*
Y216701D01*
X234001D02*
Y220699D01*
X236000D01*
X236667Y220033D01*
Y218700D01*
X236000Y218034D01*
X234001D01*
X238000Y216701D02*
X239333D01*
X238666D01*
Y220699D01*
X238000Y220033D01*
X243998Y220699D02*
X241332D01*
Y218700D01*
X242665Y219366D01*
X243331D01*
X243998Y218700D01*
Y217367D01*
X243331Y216701D01*
X241998D01*
X241332Y217367D01*
X111802Y102699D02*
X113934D01*
X112868D01*
Y99501D01*
X115001D02*
Y102699D01*
X116600D01*
X117133Y102166D01*
Y101100D01*
X116600Y100567D01*
X115001D01*
X118200Y99501D02*
X119266D01*
X118733D01*
Y102699D01*
X118200Y102166D01*
X122465Y99501D02*
Y102699D01*
X120866Y101100D01*
X122998D01*
X93300Y36302D02*
Y38434D01*
Y37368D01*
X96500D01*
Y39501D02*
X93300D01*
Y41100D01*
X93834Y41633D01*
X94900D01*
X95433Y41100D01*
Y39501D01*
X96500Y42700D02*
Y43766D01*
Y43233D01*
X93300D01*
X93834Y42700D01*
Y45366D02*
X93300Y45899D01*
Y46965D01*
X93834Y47498D01*
X94367D01*
X94900Y46965D01*
Y46432D01*
Y46965D01*
X95433Y47498D01*
X95966D01*
X96500Y46965D01*
Y45899D01*
X95966Y45366D01*
X77702Y102899D02*
X80368D01*
X79035D01*
Y98901D01*
X81701D02*
Y102899D01*
X83700D01*
X84367Y102233D01*
Y100900D01*
X83700Y100234D01*
X81701D01*
X85700Y98901D02*
X87033D01*
X86366D01*
Y102899D01*
X85700Y102233D01*
X91698Y98901D02*
X89032D01*
X91698Y101566D01*
Y102233D01*
X91031Y102899D01*
X89698D01*
X89032Y102233D01*
X139235Y249699D02*
X141368D01*
X140301D01*
Y246500D01*
X142434D02*
Y249699D01*
X144033D01*
X144567Y249166D01*
Y248100D01*
X144033Y247567D01*
X142434D01*
X145633Y246500D02*
X146699D01*
X146166D01*
Y249699D01*
X145633Y249166D01*
X148299Y246500D02*
X149365D01*
X148832D01*
Y249699D01*
X148299Y249166D01*
X232802Y251399D02*
X235468D01*
X234135D01*
Y247401D01*
X236801D02*
Y251399D01*
X238800D01*
X239467Y250733D01*
Y249400D01*
X238800Y248734D01*
X236801D01*
X240800Y247401D02*
X242133D01*
X241466D01*
Y251399D01*
X240800Y250733D01*
X244132D02*
X244798Y251399D01*
X246131D01*
X246798Y250733D01*
Y248067D01*
X246131Y247401D01*
X244798D01*
X244132Y248067D01*
Y250733D01*
X293468Y28199D02*
X296134D01*
X294801D01*
Y24201D01*
X297467D02*
Y28199D01*
X299466D01*
X300133Y27533D01*
Y26200D01*
X299466Y25534D01*
X297467D01*
X301466Y24867D02*
X302132Y24201D01*
X303465D01*
X304132Y24867D01*
Y27533D01*
X303465Y28199D01*
X302132D01*
X301466Y27533D01*
Y26866D01*
X302132Y26200D01*
X304132D01*
X286268Y59799D02*
X288934D01*
X287601D01*
Y55801D01*
X290267D02*
Y59799D01*
X292266D01*
X292933Y59133D01*
Y57800D01*
X292266Y57134D01*
X290267D01*
X294266Y59133D02*
X294932Y59799D01*
X296265D01*
X296932Y59133D01*
Y58466D01*
X296265Y57800D01*
X296932Y57134D01*
Y56467D01*
X296265Y55801D01*
X294932D01*
X294266Y56467D01*
Y57134D01*
X294932Y57800D01*
X294266Y58466D01*
Y59133D01*
X294932Y57800D02*
X296265D01*
X263840Y26799D02*
X266506D01*
X265173D01*
Y22801D01*
X267839D02*
Y26799D01*
X269838D01*
X270505Y26133D01*
Y24800D01*
X269838Y24134D01*
X267839D01*
X271837Y26799D02*
X274503D01*
Y26133D01*
X271837Y23467D01*
Y22801D01*
X102050Y217968D02*
Y219634D01*
Y218801D01*
X104550D01*
Y220467D02*
X102050D01*
Y221716D01*
X102467Y222133D01*
X103300D01*
X103717Y221716D01*
Y220467D01*
X102050Y224632D02*
X102467Y223799D01*
X103300Y222966D01*
X104133D01*
X104550Y223383D01*
Y224216D01*
X104133Y224632D01*
X103717D01*
X103300Y224216D01*
Y222966D01*
X78368Y243199D02*
X81034D01*
X79701D01*
Y239201D01*
X82367D02*
Y243199D01*
X84366D01*
X85033Y242533D01*
Y241200D01*
X84366Y240534D01*
X82367D01*
X89032Y243199D02*
X86366D01*
Y241200D01*
X87699Y241866D01*
X88365D01*
X89032Y241200D01*
Y239867D01*
X88365Y239201D01*
X87032D01*
X86366Y239867D01*
X10950Y210768D02*
Y212434D01*
Y211601D01*
X13450D01*
Y213267D02*
X10950D01*
Y214516D01*
X11367Y214933D01*
X12200D01*
X12617Y214516D01*
Y213267D01*
X13450Y217016D02*
X10950D01*
X12200Y215766D01*
Y217432D01*
X45053Y208215D02*
X46561Y209723D01*
X45807Y208969D01*
X48069Y206707D01*
X49577Y208215D02*
X47315Y210477D01*
X48446Y211608D01*
X49200Y211608D01*
X49954Y210854D01*
Y210100D01*
X48823Y208969D01*
X49954Y212362D02*
X49954Y213116D01*
X50708Y213870D01*
X51462D01*
X51839Y213493D01*
Y212739D01*
X51462Y212362D01*
X51839Y212739D01*
X52593D01*
X52970Y212362D01*
Y211608D01*
X52216Y210854D01*
X51462D01*
X275468Y179899D02*
X278134D01*
X276801D01*
Y175901D01*
X279467D02*
Y179899D01*
X281466D01*
X282133Y179233D01*
Y177900D01*
X281466Y177234D01*
X279467D01*
X286132Y175901D02*
X283466D01*
X286132Y178567D01*
Y179233D01*
X285465Y179899D01*
X284132D01*
X283466Y179233D01*
X291768Y215100D02*
X293900D01*
X292834D01*
Y211900D01*
X294967D02*
Y215100D01*
X296566D01*
X297099Y214566D01*
Y213500D01*
X296566Y212967D01*
X294967D01*
X298166Y211900D02*
X299232D01*
X298699D01*
Y215100D01*
X298166Y214566D01*
X266521Y64026D02*
X265855Y64692D01*
X264522D01*
X263855Y64026D01*
Y63359D01*
X264522Y62693D01*
X265855D01*
X266521Y62027D01*
Y61360D01*
X265855Y60694D01*
X264522D01*
X263855Y61360D01*
X267854Y64692D02*
Y60694D01*
X269187Y62027D01*
X270520Y60694D01*
Y64692D01*
X271853Y64026D02*
X272519Y64692D01*
X273852D01*
X274518Y64026D01*
Y63359D01*
X273852Y62693D01*
X273186D01*
X273852D01*
X274518Y62027D01*
Y61360D01*
X273852Y60694D01*
X272519D01*
X271853Y61360D01*
X92381Y158283D02*
X91715Y158949D01*
X90382D01*
X89716Y158283D01*
Y157617D01*
X90382Y156950D01*
X91715D01*
X92381Y156284D01*
Y155617D01*
X91715Y154951D01*
X90382D01*
X89716Y155617D01*
X93714Y158949D02*
Y154951D01*
X95047Y156284D01*
X96380Y154951D01*
Y158949D01*
X100379Y154951D02*
X97713D01*
X100379Y157617D01*
Y158283D01*
X99712Y158949D01*
X98379D01*
X97713Y158283D01*
X270701Y263733D02*
X270034Y264399D01*
X268701D01*
X268035Y263733D01*
Y263066D01*
X268701Y262400D01*
X270034D01*
X270701Y261734D01*
Y261067D01*
X270034Y260401D01*
X268701D01*
X268035Y261067D01*
X272034Y264399D02*
Y260401D01*
X273366Y261734D01*
X274699Y260401D01*
Y264399D01*
X276032Y260401D02*
X277365D01*
X276699D01*
Y264399D01*
X276032Y263733D01*
X94668Y177001D02*
Y180999D01*
X96668D01*
X97334Y180333D01*
Y179000D01*
X96668Y178333D01*
X94668D01*
X96001D02*
X97334Y177001D01*
X101333D02*
X98667D01*
X101333Y179666D01*
Y180333D01*
X100666Y180999D01*
X99334D01*
X98667Y180333D01*
X105332Y180999D02*
X102666D01*
Y179000D01*
X103999Y179666D01*
X104665D01*
X105332Y179000D01*
Y177667D01*
X104665Y177001D01*
X103332D01*
X102666Y177667D01*
X108968Y89001D02*
Y92999D01*
X110968D01*
X111634Y92333D01*
Y91000D01*
X110968Y90334D01*
X108968D01*
X110301D02*
X111634Y89001D01*
X115633D02*
X112967D01*
X115633Y91666D01*
Y92333D01*
X114966Y92999D01*
X113634D01*
X112967Y92333D01*
X118965Y89001D02*
Y92999D01*
X116966Y91000D01*
X119632D01*
X87599Y85568D02*
X83601D01*
Y87568D01*
X84267Y88234D01*
X85600D01*
X86266Y87568D01*
Y85568D01*
Y86901D02*
X87599Y88234D01*
Y92233D02*
Y89567D01*
X84934Y92233D01*
X84267D01*
X83601Y91566D01*
Y90234D01*
X84267Y89567D01*
Y93566D02*
X83601Y94232D01*
Y95565D01*
X84267Y96232D01*
X84934D01*
X85600Y95565D01*
Y94899D01*
Y95565D01*
X86266Y96232D01*
X86933D01*
X87599Y95565D01*
Y94232D01*
X86933Y93566D01*
X260568Y177401D02*
Y181399D01*
X262568D01*
X263234Y180733D01*
Y179400D01*
X262568Y178734D01*
X260568D01*
X261901D02*
X263234Y177401D01*
X267233D02*
X264567D01*
X267233Y180067D01*
Y180733D01*
X266566Y181399D01*
X265234D01*
X264567Y180733D01*
X271232Y177401D02*
X268566D01*
X271232Y180067D01*
Y180733D01*
X270565Y181399D01*
X269232D01*
X268566Y180733D01*
X99868Y42801D02*
Y46000D01*
X101467D01*
X102000Y45466D01*
Y44400D01*
X101467Y43867D01*
X99868D01*
X100934D02*
X102000Y42801D01*
X105200D02*
X103067D01*
X105200Y44933D01*
Y45466D01*
X104666Y46000D01*
X103600D01*
X103067Y45466D01*
X106266Y42801D02*
X107332D01*
X106799D01*
Y46000D01*
X106266Y45466D01*
X82600Y51235D02*
X79400D01*
Y52834D01*
X79934Y53367D01*
X81000D01*
X81533Y52834D01*
Y51235D01*
Y52301D02*
X82600Y53367D01*
Y56566D02*
Y54434D01*
X80467Y56566D01*
X79934D01*
X79400Y56033D01*
Y54967D01*
X79934Y54434D01*
Y57633D02*
X79400Y58166D01*
Y59232D01*
X79934Y59765D01*
X82066D01*
X82600Y59232D01*
Y58166D01*
X82066Y57633D01*
X79934D01*
X104102Y49701D02*
Y53699D01*
X106101D01*
X106767Y53033D01*
Y51700D01*
X106101Y51034D01*
X104102D01*
X105435D02*
X106767Y49701D01*
X108100D02*
X109433D01*
X108767D01*
Y53699D01*
X108100Y53033D01*
X111433Y50367D02*
X112099Y49701D01*
X113432D01*
X114098Y50367D01*
Y53033D01*
X113432Y53699D01*
X112099D01*
X111433Y53033D01*
Y52366D01*
X112099Y51700D01*
X114098D01*
X284501Y197100D02*
Y200300D01*
X286101D01*
X286634Y199766D01*
Y198700D01*
X286101Y198167D01*
X284501D01*
X285568D02*
X286634Y197100D01*
X287700D02*
X288767D01*
X288233D01*
Y200300D01*
X287700Y199766D01*
X290366D02*
X290899Y200300D01*
X291966D01*
X292499Y199766D01*
Y199233D01*
X291966Y198700D01*
X292499Y198167D01*
Y197634D01*
X291966Y197100D01*
X290899D01*
X290366Y197634D01*
Y198167D01*
X290899Y198700D01*
X290366Y199233D01*
Y199766D01*
X290899Y198700D02*
X291966D01*
X218301Y240001D02*
Y243199D01*
X219901D01*
X220434Y242666D01*
Y241600D01*
X219901Y241067D01*
X218301D01*
X219368D02*
X220434Y240001D01*
X221500D02*
X222567D01*
X222033D01*
Y243199D01*
X221500Y242666D01*
X224166Y243199D02*
X226299D01*
Y242666D01*
X224166Y240534D01*
Y240001D01*
X252402Y212301D02*
Y216299D01*
X254401D01*
X255067Y215633D01*
Y214300D01*
X254401Y213634D01*
X252402D01*
X253734D02*
X255067Y212301D01*
X256400D02*
X257733D01*
X257067D01*
Y216299D01*
X256400Y215633D01*
X262398Y216299D02*
X261066Y215633D01*
X259733Y214300D01*
Y212967D01*
X260399Y212301D01*
X261732D01*
X262398Y212967D01*
Y213634D01*
X261732Y214300D01*
X259733D01*
X310999Y180701D02*
X307801D01*
Y182301D01*
X308334Y182834D01*
X309400D01*
X309933Y182301D01*
Y180701D01*
Y181768D02*
X310999Y182834D01*
Y183900D02*
Y184967D01*
Y184433D01*
X307801D01*
X308334Y183900D01*
X307801Y188699D02*
Y186566D01*
X309400D01*
X308867Y187632D01*
Y188166D01*
X309400Y188699D01*
X310466D01*
X310999Y188166D01*
Y187099D01*
X310466Y186566D01*
X203802Y212401D02*
Y216399D01*
X205801D01*
X206467Y215733D01*
Y214400D01*
X205801Y213734D01*
X203802D01*
X205135D02*
X206467Y212401D01*
X207800D02*
X209133D01*
X208467D01*
Y216399D01*
X207800Y215733D01*
X213132Y212401D02*
Y216399D01*
X211133Y214400D01*
X213798D01*
X210702Y223501D02*
Y227499D01*
X212701D01*
X213367Y226833D01*
Y225500D01*
X212701Y224834D01*
X210702D01*
X212035D02*
X213367Y223501D01*
X214700D02*
X216033D01*
X215367D01*
Y227499D01*
X214700Y226833D01*
X218033D02*
X218699Y227499D01*
X220032D01*
X220698Y226833D01*
Y226166D01*
X220032Y225500D01*
X219366D01*
X220032D01*
X220698Y224834D01*
Y224167D01*
X220032Y223501D01*
X218699D01*
X218033Y224167D01*
X181502Y215101D02*
Y219099D01*
X183501D01*
X184167Y218433D01*
Y217100D01*
X183501Y216434D01*
X181502D01*
X182834D02*
X184167Y215101D01*
X185500D02*
X186833D01*
X186167D01*
Y219099D01*
X185500Y218433D01*
X191498Y215101D02*
X188833D01*
X191498Y217766D01*
Y218433D01*
X190832Y219099D01*
X189499D01*
X188833Y218433D01*
X78068Y177401D02*
Y181399D01*
X80067D01*
X80734Y180733D01*
Y179400D01*
X80067Y178734D01*
X78068D01*
X79401D02*
X80734Y177401D01*
X82067D02*
X83400D01*
X82733D01*
Y181399D01*
X82067Y180733D01*
X85399Y177401D02*
X86732D01*
X86066D01*
Y181399D01*
X85399Y180733D01*
X55702Y153101D02*
Y157099D01*
X57701D01*
X58367Y156433D01*
Y155100D01*
X57701Y154434D01*
X55702D01*
X57034D02*
X58367Y153101D01*
X59700D02*
X61033D01*
X60367D01*
Y157099D01*
X59700Y156433D01*
X63033D02*
X63699Y157099D01*
X65032D01*
X65698Y156433D01*
Y153767D01*
X65032Y153101D01*
X63699D01*
X63033Y153767D01*
Y156433D01*
X208268Y78701D02*
Y82699D01*
X210267D01*
X210934Y82033D01*
Y80700D01*
X210267Y80034D01*
X208268D01*
X209601D02*
X210934Y78701D01*
X212266Y79367D02*
X212933Y78701D01*
X214266D01*
X214932Y79367D01*
Y82033D01*
X214266Y82699D01*
X212933D01*
X212266Y82033D01*
Y81366D01*
X212933Y80700D01*
X214932D01*
X66268Y199401D02*
Y203399D01*
X68267D01*
X68934Y202733D01*
Y201400D01*
X68267Y200733D01*
X66268D01*
X67601D02*
X68934Y199401D01*
X70266Y202733D02*
X70933Y203399D01*
X72266D01*
X72932Y202733D01*
Y202066D01*
X72266Y201400D01*
X72932Y200733D01*
Y200067D01*
X72266Y199401D01*
X70933D01*
X70266Y200067D01*
Y200733D01*
X70933Y201400D01*
X70266Y202066D01*
Y202733D01*
X70933Y201400D02*
X72266D01*
X208168Y96601D02*
Y100599D01*
X210167D01*
X210834Y99933D01*
Y98600D01*
X210167Y97934D01*
X208168D01*
X209501D02*
X210834Y96601D01*
X212167Y100599D02*
X214832D01*
Y99933D01*
X212167Y97267D01*
Y96601D01*
X28634Y191700D02*
Y194899D01*
X30234D01*
X30767Y194366D01*
Y193300D01*
X30234Y192767D01*
X28634D01*
X29700D02*
X30767Y191700D01*
X33966Y194899D02*
X32899Y194366D01*
X31833Y193300D01*
Y192234D01*
X32366Y191700D01*
X33433D01*
X33966Y192234D01*
Y192767D01*
X33433Y193300D01*
X31833D01*
X105868Y226901D02*
Y230899D01*
X107867D01*
X108534Y230233D01*
Y228900D01*
X107867Y228234D01*
X105868D01*
X107201D02*
X108534Y226901D01*
X112532Y230899D02*
X109866D01*
Y228900D01*
X111199Y229566D01*
X111866D01*
X112532Y228900D01*
Y227567D01*
X111866Y226901D01*
X110533D01*
X109866Y227567D01*
X99168Y188901D02*
Y192899D01*
X101167D01*
X101834Y192233D01*
Y190900D01*
X101167Y190234D01*
X99168D01*
X100501D02*
X101834Y188901D01*
X105166D02*
Y192899D01*
X103166Y190900D01*
X105832D01*
X79168Y194201D02*
Y198199D01*
X81167D01*
X81834Y197533D01*
Y196200D01*
X81167Y195534D01*
X79168D01*
X80501D02*
X81834Y194201D01*
X83166Y197533D02*
X83833Y198199D01*
X85166D01*
X85832Y197533D01*
Y196867D01*
X85166Y196200D01*
X84499D01*
X85166D01*
X85832Y195534D01*
Y194867D01*
X85166Y194201D01*
X83833D01*
X83166Y194867D01*
X260134Y49301D02*
Y53299D01*
X262134D01*
X262800Y52633D01*
Y51300D01*
X262134Y50634D01*
X260134D01*
X261467D02*
X262800Y49301D01*
X264133D02*
X265466D01*
X264799D01*
Y53299D01*
X264133Y52633D01*
X141833Y68467D02*
Y71133D01*
X141167Y71799D01*
X139834D01*
X139168Y71133D01*
Y68467D01*
X139834Y67801D01*
X141167D01*
X140501Y69134D02*
X141833Y67801D01*
X141167D02*
X141833Y68467D01*
X145832Y67801D02*
X143166D01*
X145832Y70466D01*
Y71133D01*
X145166Y71799D01*
X143833D01*
X143166Y71133D01*
X142600Y87467D02*
Y90133D01*
X141934Y90799D01*
X140601D01*
X139934Y90133D01*
Y87467D01*
X140601Y86801D01*
X141934D01*
X141267Y88134D02*
X142600Y86801D01*
X141934D02*
X142600Y87467D01*
X143933Y86801D02*
X145266D01*
X144599D01*
Y90799D01*
X143933Y90133D01*
X259569Y197499D02*
Y193501D01*
X262235D01*
X266234Y197499D02*
X263568D01*
Y193501D01*
X266234D01*
X263568Y195500D02*
X264901D01*
X267566Y197499D02*
Y193501D01*
X269566D01*
X270232Y194167D01*
Y196833D01*
X269566Y197499D01*
X267566D01*
X271565Y196833D02*
X272232Y197499D01*
X273565D01*
X274231Y196833D01*
Y196167D01*
X273565Y195500D01*
X272898D01*
X273565D01*
X274231Y194834D01*
Y194167D01*
X273565Y193501D01*
X272232D01*
X271565Y194167D01*
X223969Y265799D02*
Y261801D01*
X226635D01*
X230634Y265799D02*
X227968D01*
Y261801D01*
X230634D01*
X227968Y263800D02*
X229301D01*
X231966Y265799D02*
Y261801D01*
X233966D01*
X234632Y262467D01*
Y265133D01*
X233966Y265799D01*
X231966D01*
X238631Y261801D02*
X235965D01*
X238631Y264466D01*
Y265133D01*
X237965Y265799D01*
X236632D01*
X235965Y265133D01*
X14968Y232599D02*
Y229400D01*
X17101D01*
X20300Y232599D02*
X18167D01*
Y229400D01*
X20300D01*
X18167Y231000D02*
X19234D01*
X21366Y232599D02*
Y229400D01*
X22966D01*
X23499Y229934D01*
Y232066D01*
X22966Y232599D01*
X21366D01*
X24565Y229400D02*
X25632D01*
X25098D01*
Y232599D01*
X24565Y232066D01*
X147468Y265199D02*
Y261201D01*
X150134D01*
X154132D02*
X151467D01*
X154132Y263866D01*
Y264533D01*
X153466Y265199D01*
X152133D01*
X151467Y264533D01*
X63034Y258899D02*
Y254901D01*
X65700D01*
X67033D02*
X68366D01*
X67699D01*
Y258899D01*
X67033Y258233D01*
X8900Y84199D02*
X7567D01*
X8234D01*
Y80867D01*
X7567Y80201D01*
X6901D01*
X6234Y80867D01*
X10233Y80201D02*
X11566D01*
X10899D01*
Y84199D01*
X10233Y83533D01*
X45315Y160049D02*
Y156051D01*
Y158050D01*
X47981D01*
Y160049D01*
Y156051D01*
X49314Y159383D02*
X49980Y160049D01*
X51313D01*
X51980Y159383D01*
Y158717D01*
X51313Y158050D01*
X50647D01*
X51313D01*
X51980Y157384D01*
Y156717D01*
X51313Y156051D01*
X49980D01*
X49314Y156717D01*
X305268Y58599D02*
Y54601D01*
Y56600D01*
X307934D01*
Y58599D01*
Y54601D01*
X311932D02*
X309266D01*
X311932Y57266D01*
Y57933D01*
X311266Y58599D01*
X309933D01*
X309266Y57933D01*
X121034Y211099D02*
Y207101D01*
Y209100D01*
X123700D01*
Y211099D01*
Y207101D01*
X125033D02*
X126366D01*
X125699D01*
Y211099D01*
X125033Y210433D01*
X44800Y63199D02*
X42134D01*
Y61200D01*
X43467D01*
X42134D01*
Y59201D01*
X46133D02*
X47466D01*
X46799D01*
Y63199D01*
X46133Y62533D01*
X21168Y81899D02*
Y77901D01*
X23167D01*
X23833Y78567D01*
Y81233D01*
X23167Y81899D01*
X21168D01*
X27832D02*
X26499Y81233D01*
X25166Y79900D01*
Y78567D01*
X25833Y77901D01*
X27166D01*
X27832Y78567D01*
Y79234D01*
X27166Y79900D01*
X25166D01*
X46136Y225238D02*
Y222039D01*
X47735D01*
X48268Y222572D01*
Y224705D01*
X47735Y225238D01*
X46136D01*
X49335Y224705D02*
X49868Y225238D01*
X50934D01*
X51468Y224705D01*
Y224171D01*
X50934Y223638D01*
X50401D01*
X50934D01*
X51468Y223105D01*
Y222572D01*
X50934Y222039D01*
X49868D01*
X49335Y222572D01*
X56668Y200299D02*
Y196301D01*
X58667D01*
X59334Y196967D01*
Y199633D01*
X58667Y200299D01*
X56668D01*
X63332Y196301D02*
X60667D01*
X63332Y198967D01*
Y199633D01*
X62666Y200299D01*
X61333D01*
X60667Y199633D01*
X16567Y226966D02*
X16034Y227500D01*
X14968D01*
X14435Y226966D01*
Y224834D01*
X14968Y224301D01*
X16034D01*
X16567Y224834D01*
X17634Y226966D02*
X18167Y227500D01*
X19233D01*
X19766Y226966D01*
Y226433D01*
X19233Y225900D01*
X18700D01*
X19233D01*
X19766Y225367D01*
Y224834D01*
X19233Y224301D01*
X18167D01*
X17634Y224834D01*
X20833D02*
X21366Y224301D01*
X22432D01*
X22965Y224834D01*
Y226966D01*
X22432Y227500D01*
X21366D01*
X20833Y226966D01*
Y226433D01*
X21366Y225900D01*
X22965D01*
X88634Y222767D02*
X88100Y222234D01*
Y221168D01*
X88634Y220635D01*
X90766D01*
X91299Y221168D01*
Y222234D01*
X90766Y222767D01*
X88634Y223834D02*
X88100Y224367D01*
Y225433D01*
X88634Y225966D01*
X89167D01*
X89700Y225433D01*
Y224900D01*
Y225433D01*
X90233Y225966D01*
X90766D01*
X91299Y225433D01*
Y224367D01*
X90766Y223834D01*
X88634Y227033D02*
X88100Y227566D01*
Y228632D01*
X88634Y229165D01*
X89167D01*
X89700Y228632D01*
X90233Y229165D01*
X90766D01*
X91299Y228632D01*
Y227566D01*
X90766Y227033D01*
X90233D01*
X89700Y227566D01*
X89167Y227033D01*
X88634D01*
X89700Y227566D02*
Y228632D01*
X63534Y146133D02*
X62868Y146799D01*
X61535D01*
X60868Y146133D01*
Y143467D01*
X61535Y142801D01*
X62868D01*
X63534Y143467D01*
X64867Y146133D02*
X65534Y146799D01*
X66866D01*
X67533Y146133D01*
Y145466D01*
X66866Y144800D01*
X66200D01*
X66866D01*
X67533Y144133D01*
Y143467D01*
X66866Y142801D01*
X65534D01*
X64867Y143467D01*
X68866Y146799D02*
X71532D01*
Y146133D01*
X68866Y143467D01*
Y142801D01*
X40234Y227567D02*
X39700Y227034D01*
Y225968D01*
X40234Y225435D01*
X42366D01*
X42900Y225968D01*
Y227034D01*
X42366Y227567D01*
X40234Y228634D02*
X39700Y229167D01*
Y230233D01*
X40234Y230766D01*
X40767D01*
X41300Y230233D01*
Y229700D01*
Y230233D01*
X41833Y230766D01*
X42366D01*
X42900Y230233D01*
Y229167D01*
X42366Y228634D01*
X39700Y233965D02*
X40234Y232899D01*
X41300Y231833D01*
X42366D01*
X42900Y232366D01*
Y233432D01*
X42366Y233965D01*
X41833D01*
X41300Y233432D01*
Y231833D01*
X7067Y208066D02*
X6534Y208599D01*
X5468D01*
X4935Y208066D01*
Y205934D01*
X5468Y205400D01*
X6534D01*
X7067Y205934D01*
X8134Y208066D02*
X8667Y208599D01*
X9733D01*
X10266Y208066D01*
Y207533D01*
X9733Y207000D01*
X9200D01*
X9733D01*
X10266Y206467D01*
Y205934D01*
X9733Y205400D01*
X8667D01*
X8134Y205934D01*
X13465Y208599D02*
X11333D01*
Y207000D01*
X12399Y207533D01*
X12932D01*
X13465Y207000D01*
Y205934D01*
X12932Y205400D01*
X11866D01*
X11333Y205934D01*
X262334Y80333D02*
X261668Y80999D01*
X260335D01*
X259668Y80333D01*
Y77667D01*
X260335Y77001D01*
X261668D01*
X262334Y77667D01*
X263667Y80333D02*
X264334Y80999D01*
X265666D01*
X266333Y80333D01*
Y79666D01*
X265666Y79000D01*
X265000D01*
X265666D01*
X266333Y78334D01*
Y77667D01*
X265666Y77001D01*
X264334D01*
X263667Y77667D01*
X269665Y77001D02*
Y80999D01*
X267666Y79000D01*
X270332D01*
X89434Y31933D02*
X88768Y32599D01*
X87435D01*
X86768Y31933D01*
Y29267D01*
X87435Y28601D01*
X88768D01*
X89434Y29267D01*
X90767Y31933D02*
X91434Y32599D01*
X92766D01*
X93433Y31933D01*
Y31266D01*
X92766Y30600D01*
X92100D01*
X92766D01*
X93433Y29934D01*
Y29267D01*
X92766Y28601D01*
X91434D01*
X90767Y29267D01*
X94766Y31933D02*
X95432Y32599D01*
X96765D01*
X97432Y31933D01*
Y31266D01*
X96765Y30600D01*
X96099D01*
X96765D01*
X97432Y29934D01*
Y29267D01*
X96765Y28601D01*
X95432D01*
X94766Y29267D01*
X67434Y32967D02*
X66900Y32434D01*
Y31368D01*
X67434Y30835D01*
X69566D01*
X70100Y31368D01*
Y32434D01*
X69566Y32967D01*
X67434Y34034D02*
X66900Y34567D01*
Y35633D01*
X67434Y36166D01*
X67967D01*
X68500Y35633D01*
Y35100D01*
Y35633D01*
X69033Y36166D01*
X69566D01*
X70100Y35633D01*
Y34567D01*
X69566Y34034D01*
X70100Y39365D02*
Y37233D01*
X67967Y39365D01*
X67434D01*
X66900Y38832D01*
Y37766D01*
X67434Y37233D01*
X86466Y71468D02*
X86999Y72001D01*
Y73067D01*
X86466Y73601D01*
X84334D01*
X83801Y73067D01*
Y72001D01*
X84334Y71468D01*
X86466Y70402D02*
X86999Y69868D01*
Y68802D01*
X86466Y68269D01*
X85933D01*
X85400Y68802D01*
Y69335D01*
Y68802D01*
X84867Y68269D01*
X84334D01*
X83801Y68802D01*
Y69868D01*
X84334Y70402D01*
X83801Y67203D02*
Y66136D01*
Y66669D01*
X86999D01*
X86466Y67203D01*
X67567Y81803D02*
X66901Y81136D01*
Y79803D01*
X67567Y79137D01*
X70233D01*
X70899Y79803D01*
Y81136D01*
X70233Y81803D01*
X67567Y83136D02*
X66901Y83802D01*
Y85135D01*
X67567Y85801D01*
X68234D01*
X68900Y85135D01*
Y84469D01*
Y85135D01*
X69566Y85801D01*
X70233D01*
X70899Y85135D01*
Y83802D01*
X70233Y83136D01*
X67567Y87134D02*
X66901Y87801D01*
Y89134D01*
X67567Y89800D01*
X70233D01*
X70899Y89134D01*
Y87801D01*
X70233Y87134D01*
X67567D01*
X182834Y211233D02*
X182168Y211899D01*
X180835D01*
X180168Y211233D01*
Y208567D01*
X180835Y207901D01*
X182168D01*
X182834Y208567D01*
X186833Y207901D02*
X184167D01*
X186833Y210566D01*
Y211233D01*
X186167Y211899D01*
X184834D01*
X184167Y211233D01*
X188166Y208567D02*
X188832Y207901D01*
X190165D01*
X190832Y208567D01*
Y211233D01*
X190165Y211899D01*
X188832D01*
X188166Y211233D01*
Y210566D01*
X188832Y209900D01*
X190832D01*
X280334Y187433D02*
X279668Y188099D01*
X278335D01*
X277668Y187433D01*
Y184767D01*
X278335Y184101D01*
X279668D01*
X280334Y184767D01*
X284333Y184101D02*
X281667D01*
X284333Y186767D01*
Y187433D01*
X283666Y188099D01*
X282334D01*
X281667Y187433D01*
X285666D02*
X286332Y188099D01*
X287665D01*
X288332Y187433D01*
Y186767D01*
X287665Y186100D01*
X288332Y185433D01*
Y184767D01*
X287665Y184101D01*
X286332D01*
X285666Y184767D01*
Y185433D01*
X286332Y186100D01*
X285666Y186767D01*
Y187433D01*
X286332Y186100D02*
X287665D01*
X284234Y17033D02*
X283568Y17699D01*
X282235D01*
X281568Y17033D01*
Y14367D01*
X282235Y13701D01*
X283568D01*
X284234Y14367D01*
X288233Y13701D02*
X285567D01*
X288233Y16366D01*
Y17033D01*
X287566Y17699D01*
X286234D01*
X285567Y17033D01*
X289566Y17699D02*
X292232D01*
Y17033D01*
X289566Y14367D01*
Y13701D01*
X72234Y226567D02*
X71701Y226034D01*
Y224968D01*
X72234Y224435D01*
X74366D01*
X74900Y224968D01*
Y226034D01*
X74366Y226567D01*
X74900Y229766D02*
Y227634D01*
X72767Y229766D01*
X72234D01*
X71701Y229233D01*
Y228167D01*
X72234Y227634D01*
X71701Y232965D02*
X72234Y231899D01*
X73300Y230833D01*
X74366D01*
X74900Y231366D01*
Y232432D01*
X74366Y232965D01*
X73833D01*
X73300Y232432D01*
Y230833D01*
X148367Y242566D02*
X147834Y243099D01*
X146768D01*
X146235Y242566D01*
Y240434D01*
X146768Y239900D01*
X147834D01*
X148367Y240434D01*
X151566Y239900D02*
X149434D01*
X151566Y242033D01*
Y242566D01*
X151033Y243099D01*
X149967D01*
X149434Y242566D01*
X154765Y243099D02*
X152633D01*
Y241500D01*
X153699Y242033D01*
X154232D01*
X154765Y241500D01*
Y240434D01*
X154232Y239900D01*
X153166D01*
X152633Y240434D01*
X216834Y249833D02*
X216168Y250499D01*
X214835D01*
X214168Y249833D01*
Y247167D01*
X214835Y246501D01*
X216168D01*
X216834Y247167D01*
X220833Y246501D02*
X218167D01*
X220833Y249166D01*
Y249833D01*
X220166Y250499D01*
X218834D01*
X218167Y249833D01*
X224165Y246501D02*
Y250499D01*
X222166Y248500D01*
X224832D01*
X202934Y249633D02*
X202268Y250299D01*
X200935D01*
X200268Y249633D01*
Y246967D01*
X200935Y246301D01*
X202268D01*
X202934Y246967D01*
X206933Y246301D02*
X204267D01*
X206933Y248966D01*
Y249633D01*
X206266Y250299D01*
X204934D01*
X204267Y249633D01*
X208266D02*
X208932Y250299D01*
X210265D01*
X210932Y249633D01*
Y248966D01*
X210265Y248300D01*
X209599D01*
X210265D01*
X210932Y247634D01*
Y246967D01*
X210265Y246301D01*
X208932D01*
X208266Y246967D01*
X188667Y234534D02*
X188001Y233868D01*
Y232535D01*
X188667Y231868D01*
X191333D01*
X191999Y232535D01*
Y233868D01*
X191333Y234534D01*
X191999Y238533D02*
Y235867D01*
X189333Y238533D01*
X188667D01*
X188001Y237866D01*
Y236534D01*
X188667Y235867D01*
X191999Y242532D02*
Y239866D01*
X189333Y242532D01*
X188667D01*
X188001Y241865D01*
Y240532D01*
X188667Y239866D01*
X71887Y271884D02*
X71220Y272551D01*
X69887D01*
X69221Y271884D01*
Y269218D01*
X69887Y268552D01*
X71220D01*
X71887Y269218D01*
X75885Y268552D02*
X73220D01*
X75885Y271218D01*
Y271884D01*
X75219Y272551D01*
X73886D01*
X73220Y271884D01*
X77218Y268552D02*
X78551D01*
X77885D01*
Y272551D01*
X77218Y271884D01*
X81928Y211081D02*
X81395Y210548D01*
Y209482D01*
X81928Y208949D01*
X84061D01*
X84594Y209482D01*
Y210548D01*
X84061Y211081D01*
X84594Y214280D02*
Y212148D01*
X82462Y214280D01*
X81928D01*
X81395Y213747D01*
Y212681D01*
X81928Y212148D01*
Y215347D02*
X81395Y215880D01*
Y216946D01*
X81928Y217479D01*
X84061D01*
X84594Y216946D01*
Y215880D01*
X84061Y215347D01*
X81928D01*
X102754Y205135D02*
X102337Y204719D01*
Y203886D01*
X102754Y203469D01*
X104420D01*
X104836Y203886D01*
Y204719D01*
X104420Y205135D01*
X104836Y205968D02*
Y206801D01*
Y206385D01*
X102337D01*
X102754Y205968D01*
X104420Y208051D02*
X104836Y208467D01*
Y209300D01*
X104420Y209717D01*
X102754D01*
X102337Y209300D01*
Y208467D01*
X102754Y208051D01*
X103170D01*
X103587Y208467D01*
Y209717D01*
X8034Y199866D02*
X7501Y200399D01*
X6435D01*
X5901Y199866D01*
Y197734D01*
X6435Y197201D01*
X7501D01*
X8034Y197734D01*
X9100Y197201D02*
X10167D01*
X9633D01*
Y200399D01*
X9100Y199866D01*
X11766D02*
X12299Y200399D01*
X13365D01*
X13899Y199866D01*
Y199333D01*
X13365Y198800D01*
X13899Y198267D01*
Y197734D01*
X13365Y197201D01*
X12299D01*
X11766Y197734D01*
Y198267D01*
X12299Y198800D01*
X11766Y199333D01*
Y199866D01*
X12299Y198800D02*
X13365D01*
X51367Y261933D02*
X50701Y262599D01*
X49368D01*
X48702Y261933D01*
Y259267D01*
X49368Y258601D01*
X50701D01*
X51367Y259267D01*
X52700Y258601D02*
X54033D01*
X53367D01*
Y262599D01*
X52700Y261933D01*
X56033Y262599D02*
X58698D01*
Y261933D01*
X56033Y259267D01*
Y258601D01*
X120967Y257333D02*
X120301Y257999D01*
X118968D01*
X118302Y257333D01*
Y254667D01*
X118968Y254001D01*
X120301D01*
X120967Y254667D01*
X122300Y254001D02*
X123633D01*
X122967D01*
Y257999D01*
X122300Y257333D01*
X128298Y257999D02*
X126965Y257333D01*
X125633Y256000D01*
Y254667D01*
X126299Y254001D01*
X127632D01*
X128298Y254667D01*
Y255334D01*
X127632Y256000D01*
X125633D01*
X118867Y230633D02*
X118201Y231299D01*
X116868D01*
X116202Y230633D01*
Y227967D01*
X116868Y227301D01*
X118201D01*
X118867Y227967D01*
X120200Y227301D02*
X121533D01*
X120867D01*
Y231299D01*
X120200Y230633D01*
X126198Y231299D02*
X123533D01*
Y229300D01*
X124865Y229966D01*
X125532D01*
X126198Y229300D01*
Y227967D01*
X125532Y227301D01*
X124199D01*
X123533Y227967D01*
X107367Y257833D02*
X106701Y258499D01*
X105368D01*
X104702Y257833D01*
Y255167D01*
X105368Y254501D01*
X106701D01*
X107367Y255167D01*
X108700Y254501D02*
X110033D01*
X109367D01*
Y258499D01*
X108700Y257833D01*
X114032Y254501D02*
Y258499D01*
X112033Y256500D01*
X114698D01*
X94267Y258533D02*
X93601Y259199D01*
X92268D01*
X91602Y258533D01*
Y255867D01*
X92268Y255201D01*
X93601D01*
X94267Y255867D01*
X95600Y255201D02*
X96933D01*
X96267D01*
Y259199D01*
X95600Y258533D01*
X98933D02*
X99599Y259199D01*
X100932D01*
X101598Y258533D01*
Y257866D01*
X100932Y257200D01*
X100266D01*
X100932D01*
X101598Y256534D01*
Y255867D01*
X100932Y255201D01*
X99599D01*
X98933Y255867D01*
X79667Y256833D02*
X79001Y257499D01*
X77668D01*
X77002Y256833D01*
Y254167D01*
X77668Y253501D01*
X79001D01*
X79667Y254167D01*
X81000Y253501D02*
X82333D01*
X81667D01*
Y257499D01*
X81000Y256833D01*
X86998Y253501D02*
X84333D01*
X86998Y256166D01*
Y256833D01*
X86332Y257499D01*
X84999D01*
X84333Y256833D01*
X46684Y244333D02*
X46017Y244999D01*
X44684D01*
X44018Y244333D01*
Y241667D01*
X44684Y241001D01*
X46017D01*
X46684Y241667D01*
X48017Y241001D02*
X49350D01*
X48683D01*
Y244999D01*
X48017Y244333D01*
X51349Y241001D02*
X52682D01*
X52016D01*
Y244999D01*
X51349Y244333D01*
X19934Y252966D02*
X19401Y253500D01*
X18335D01*
X17801Y252966D01*
Y250834D01*
X18335Y250301D01*
X19401D01*
X19934Y250834D01*
X21000Y250301D02*
X22067D01*
X21533D01*
Y253500D01*
X21000Y252966D01*
X23666D02*
X24199Y253500D01*
X25265D01*
X25799Y252966D01*
Y250834D01*
X25265Y250301D01*
X24199D01*
X23666Y250834D01*
Y252966D01*
X30934Y253533D02*
X30267Y254199D01*
X28934D01*
X28268Y253533D01*
Y250867D01*
X28934Y250201D01*
X30267D01*
X30934Y250867D01*
X32267D02*
X32933Y250201D01*
X34266D01*
X34932Y250867D01*
Y253533D01*
X34266Y254199D01*
X32933D01*
X32267Y253533D01*
Y252866D01*
X32933Y252200D01*
X34932D01*
X42434Y253033D02*
X41767Y253699D01*
X40434D01*
X39768Y253033D01*
Y250367D01*
X40434Y249701D01*
X41767D01*
X42434Y250367D01*
X43766Y253033D02*
X44433Y253699D01*
X45766D01*
X46432Y253033D01*
Y252366D01*
X45766Y251700D01*
X46432Y251034D01*
Y250367D01*
X45766Y249701D01*
X44433D01*
X43766Y250367D01*
Y251034D01*
X44433Y251700D01*
X43766Y252366D01*
Y253033D01*
X44433Y251700D02*
X45766D01*
X39134Y177733D02*
X38467Y178399D01*
X37134D01*
X36468Y177733D01*
Y175067D01*
X37134Y174401D01*
X38467D01*
X39134Y175067D01*
X40466Y178399D02*
X43132D01*
Y177733D01*
X40466Y175067D01*
Y174401D01*
X33634Y205533D02*
X32967Y206199D01*
X31634D01*
X30968Y205533D01*
Y202867D01*
X31634Y202201D01*
X32967D01*
X33634Y202867D01*
X37632Y206199D02*
X36299Y205533D01*
X34966Y204200D01*
Y202867D01*
X35633Y202201D01*
X36966D01*
X37632Y202867D01*
Y203534D01*
X36966Y204200D01*
X34966D01*
X40034Y192033D02*
X39367Y192699D01*
X38034D01*
X37368Y192033D01*
Y189367D01*
X38034Y188701D01*
X39367D01*
X40034Y189367D01*
X44032Y192699D02*
X41366D01*
Y190700D01*
X42699Y191367D01*
X43366D01*
X44032Y190700D01*
Y189367D01*
X43366Y188701D01*
X42033D01*
X41366Y189367D01*
X39934Y185433D02*
X39267Y186099D01*
X37934D01*
X37268Y185433D01*
Y182767D01*
X37934Y182101D01*
X39267D01*
X39934Y182767D01*
X43266Y182101D02*
Y186099D01*
X41267Y184100D01*
X43932D01*
X264834Y244633D02*
X264167Y245299D01*
X262834D01*
X262168Y244633D01*
Y241967D01*
X262834Y241301D01*
X264167D01*
X264834Y241967D01*
X266166Y244633D02*
X266833Y245299D01*
X268166D01*
X268832Y244633D01*
Y243966D01*
X268166Y243300D01*
X267499D01*
X268166D01*
X268832Y242634D01*
Y241967D01*
X268166Y241301D01*
X266833D01*
X266166Y241967D01*
X287634Y194033D02*
X286967Y194699D01*
X285634D01*
X284968Y194033D01*
Y191367D01*
X285634Y190701D01*
X286967D01*
X287634Y191367D01*
X291632Y190701D02*
X288966D01*
X291632Y193367D01*
Y194033D01*
X290966Y194699D01*
X289633D01*
X288966Y194033D01*
X273200Y17533D02*
X272534Y18199D01*
X271201D01*
X270534Y17533D01*
Y14867D01*
X271201Y14201D01*
X272534D01*
X273200Y14867D01*
X274533Y14201D02*
X275866D01*
X275199D01*
Y18199D01*
X274533Y17533D01*
D17*
X277341Y198425D02*
Y201575D01*
X276160Y200000D02*
X277341Y201575D01*
X276160Y200000D02*
X277341Y198425D01*
X228725Y254559D02*
X230300Y255740D01*
X231875Y254559D01*
X228725D02*
X231875D01*
X31557Y226275D02*
Y229425D01*
Y226275D02*
X32738Y227850D01*
X31557Y229425D02*
X32738Y227850D01*
D18*
X165120Y134219D02*
Y130283D01*
X167088D01*
X167744Y130939D01*
Y131595D01*
X167088Y132251D01*
X165120D01*
X167088D01*
X167744Y132907D01*
Y133563D01*
X167088Y134219D01*
X165120D01*
X169056Y132907D02*
Y130939D01*
X169712Y130283D01*
X171680D01*
Y129627D01*
X171024Y128971D01*
X170368D01*
X171680Y130283D02*
Y132907D01*
X134618Y122831D02*
Y125454D01*
X135930Y126767D01*
X137242Y125454D01*
Y122831D01*
Y124799D01*
X134618D01*
X138554Y126767D02*
Y122831D01*
X140522D01*
X141178Y123487D01*
Y124143D01*
Y124799D01*
X140522Y125454D01*
X138554D01*
X142490Y126767D02*
Y122831D01*
Y124799D01*
X143146Y125454D01*
X144458D01*
X145114Y124799D01*
Y122831D01*
X146425D02*
X147737D01*
X147081D01*
Y125454D01*
X146425D01*
X149705D02*
Y122831D01*
Y124143D01*
X150361Y124799D01*
X151017Y125454D01*
X151673D01*
X154297D02*
X155609D01*
X156265Y124799D01*
Y122831D01*
X154297D01*
X153641Y123487D01*
X154297Y124143D01*
X156265D01*
X158233Y126110D02*
Y125454D01*
X157577D01*
X158889D01*
X158233D01*
Y123487D01*
X158889Y122831D01*
X160856Y126767D02*
Y122831D01*
Y124799D01*
X161512Y125454D01*
X162824D01*
X163480Y124799D01*
Y122831D01*
X171352D02*
X170696Y123487D01*
X170040Y122831D01*
X169384D01*
X168728Y123487D01*
Y124143D01*
X169384Y124799D01*
X168728Y125454D01*
Y126110D01*
X169384Y126767D01*
X170040D01*
X170696Y126110D01*
Y125454D01*
X170040Y124799D01*
X170696Y124143D01*
Y123487D01*
X171352Y124799D02*
X170696Y124143D01*
X169384Y124799D02*
X170040D01*
X176600Y126767D02*
Y122831D01*
X178567D01*
X179223Y123487D01*
Y124143D01*
X178567Y124799D01*
X176600D01*
X178567D01*
X179223Y125454D01*
Y126110D01*
X178567Y126767D01*
X176600D01*
X180535D02*
Y122831D01*
Y124799D01*
X181191Y125454D01*
X182503D01*
X183159Y124799D01*
Y122831D01*
X185127Y125454D02*
X186439D01*
X187095Y124799D01*
Y122831D01*
X185127D01*
X184471Y123487D01*
X185127Y124143D01*
X187095D01*
X188407Y125454D02*
Y122831D01*
Y124143D01*
X189063Y124799D01*
X189719Y125454D01*
X190375D01*
X192998D02*
X194310D01*
X194966Y124799D01*
Y122831D01*
X192998D01*
X192342Y123487D01*
X192998Y124143D01*
X194966D01*
X196934Y126110D02*
Y125454D01*
X196278D01*
X197590D01*
X196934D01*
Y123487D01*
X197590Y122831D01*
X199558Y126767D02*
Y122831D01*
Y124799D01*
X200214Y125454D01*
X201526D01*
X202182Y124799D01*
Y122831D01*
X159217Y116691D02*
Y120626D01*
X161185D01*
X161840Y119970D01*
Y118658D01*
X161185Y118002D01*
X159217D01*
X160529D02*
X161840Y116691D01*
X165120D02*
X163808D01*
X163152Y117347D01*
Y118658D01*
X163808Y119314D01*
X165120D01*
X165776Y118658D01*
Y118002D01*
X163152D01*
X167088Y119314D02*
X168400Y116691D01*
X169712Y119314D01*
X177583Y120626D02*
X174960D01*
Y118658D01*
X176271Y119314D01*
X176927D01*
X177583Y118658D01*
Y117347D01*
X176927Y116691D01*
X175616D01*
X174960Y117347D01*
D19*
X8506Y35406D02*
Y39342D01*
X9818Y38030D01*
X11130Y39342D01*
Y35406D01*
X12442D02*
X13754D01*
X13098D01*
Y38030D01*
X12442D01*
X18346D02*
X16378D01*
X15722Y37374D01*
Y36062D01*
X16378Y35406D01*
X18346D01*
X19658Y38030D02*
Y35406D01*
Y36718D01*
X20313Y37374D01*
X20969Y38030D01*
X21625D01*
X24249Y35406D02*
X25561D01*
X26217Y36062D01*
Y37374D01*
X25561Y38030D01*
X24249D01*
X23593Y37374D01*
Y36062D01*
X24249Y35406D01*
X31465Y39342D02*
Y36062D01*
X32121Y35406D01*
X33433D01*
X34089Y36062D01*
Y39342D01*
X38024Y38686D02*
X37368Y39342D01*
X36057D01*
X35401Y38686D01*
Y38030D01*
X36057Y37374D01*
X37368D01*
X38024Y36718D01*
Y36062D01*
X37368Y35406D01*
X36057D01*
X35401Y36062D01*
X39336Y39342D02*
Y35406D01*
X41304D01*
X41960Y36062D01*
Y36718D01*
X41304Y37374D01*
X39336D01*
X41304D01*
X41960Y38030D01*
Y38686D01*
X41304Y39342D01*
X39336D01*
M02*
