G04*
G04 #@! TF.GenerationSoftware,Altium Limited,Altium Designer,25.8.1 (18)*
G04*
G04 Layer_Color=16711935*
%FSLAX25Y25*%
%MOIN*%
G70*
G04*
G04 #@! TF.SameCoordinates,64F7C8A9-438D-4F9F-9055-C3E4DFCE694A*
G04*
G04*
G04 #@! TF.FilePolarity,Positive*
G04*
G01*
G75*
%ADD13C,0.00394*%
%ADD109C,0.00472*%
D13*
X59041Y209996D02*
Y207536D01*
X59533Y207044D01*
X60517D01*
X61009Y207536D01*
Y209996D01*
X61993Y209504D02*
X62485Y209996D01*
X63469D01*
X63961Y209504D01*
Y209012D01*
X63469Y208520D01*
X62977D01*
X63469D01*
X63961Y208028D01*
Y207536D01*
X63469Y207044D01*
X62485D01*
X61993Y207536D01*
D109*
X36951Y219060D02*
X37213Y219323D01*
Y219848D01*
X36951Y220110D01*
X35901D01*
X35639Y219848D01*
Y219323D01*
X35901Y219060D01*
X36951Y218536D02*
X37213Y218273D01*
Y217748D01*
X36951Y217486D01*
X36689D01*
X36426Y217748D01*
Y218011D01*
Y217748D01*
X36164Y217486D01*
X35901D01*
X35639Y217748D01*
Y218273D01*
X35901Y218536D01*
X37213Y215912D02*
X36951Y216437D01*
X36426Y216961D01*
X35901D01*
X35639Y216699D01*
Y216174D01*
X35901Y215912D01*
X36164D01*
X36426Y216174D01*
Y216961D01*
X88451Y216417D02*
X88713Y216680D01*
Y217204D01*
X88451Y217467D01*
X87401D01*
X87139Y217204D01*
Y216680D01*
X87401Y216417D01*
X87139Y214843D02*
Y215892D01*
X88189Y214843D01*
X88451D01*
X88713Y215105D01*
Y215630D01*
X88451Y215892D01*
Y214318D02*
X88713Y214056D01*
Y213531D01*
X88451Y213268D01*
X87401D01*
X87139Y213531D01*
Y214056D01*
X87401Y214318D01*
X88451D01*
X96351Y216417D02*
X96613Y216680D01*
Y217204D01*
X96351Y217467D01*
X95301D01*
X95039Y217204D01*
Y216680D01*
X95301Y216417D01*
X95039Y215892D02*
Y215368D01*
Y215630D01*
X96613D01*
X96351Y215892D01*
X95301Y214580D02*
X95039Y214318D01*
Y213793D01*
X95301Y213531D01*
X96351D01*
X96613Y213793D01*
Y214318D01*
X96351Y214580D01*
X96089D01*
X95826Y214318D01*
Y213531D01*
X126444Y237940D02*
X126181Y237677D01*
Y237153D01*
X126444Y236890D01*
X127493D01*
X127755Y237153D01*
Y237677D01*
X127493Y237940D01*
X127755Y238465D02*
Y238989D01*
Y238727D01*
X126181D01*
X126444Y238465D01*
X126181Y240826D02*
X126444Y240301D01*
X126968Y239776D01*
X127493D01*
X127755Y240039D01*
Y240564D01*
X127493Y240826D01*
X127231D01*
X126968Y240564D01*
Y239776D01*
X118744Y237940D02*
X118481Y237677D01*
Y237153D01*
X118744Y236890D01*
X119793D01*
X120055Y237153D01*
Y237677D01*
X119793Y237940D01*
X120055Y238465D02*
Y238989D01*
Y238727D01*
X118481D01*
X118744Y238465D01*
X118481Y240826D02*
Y239776D01*
X119268D01*
X119006Y240301D01*
Y240564D01*
X119268Y240826D01*
X119793D01*
X120055Y240564D01*
Y240039D01*
X119793Y239776D01*
X111044Y237940D02*
X110781Y237677D01*
Y237153D01*
X111044Y236890D01*
X112093D01*
X112355Y237153D01*
Y237677D01*
X112093Y237940D01*
X112355Y238465D02*
Y238989D01*
Y238727D01*
X110781D01*
X111044Y238465D01*
X112355Y240564D02*
X110781D01*
X111568Y239776D01*
Y240826D01*
X103344Y237940D02*
X103081Y237677D01*
Y237153D01*
X103344Y236890D01*
X104393D01*
X104656Y237153D01*
Y237677D01*
X104393Y237940D01*
X104656Y238465D02*
Y238989D01*
Y238727D01*
X103081D01*
X103344Y238465D01*
Y239776D02*
X103081Y240039D01*
Y240564D01*
X103344Y240826D01*
X103606D01*
X103868Y240564D01*
Y240301D01*
Y240564D01*
X104131Y240826D01*
X104393D01*
X104656Y240564D01*
Y240039D01*
X104393Y239776D01*
X95644Y237840D02*
X95381Y237577D01*
Y237053D01*
X95644Y236790D01*
X96693D01*
X96956Y237053D01*
Y237577D01*
X96693Y237840D01*
X96956Y238365D02*
Y238889D01*
Y238627D01*
X95381D01*
X95644Y238365D01*
X96956Y240726D02*
Y239676D01*
X95906Y240726D01*
X95644D01*
X95381Y240464D01*
Y239939D01*
X95644Y239676D01*
X22244Y238040D02*
X21981Y237777D01*
Y237253D01*
X22244Y236990D01*
X23293D01*
X23555Y237253D01*
Y237777D01*
X23293Y238040D01*
X23555Y238565D02*
Y239089D01*
Y238827D01*
X21981D01*
X22244Y238565D01*
Y239877D02*
X21981Y240139D01*
Y240664D01*
X22244Y240926D01*
X23293D01*
X23555Y240664D01*
Y240139D01*
X23293Y239877D01*
X22244D01*
X29943Y238040D02*
X29681Y237777D01*
Y237253D01*
X29943Y236990D01*
X30993D01*
X31255Y237253D01*
Y237777D01*
X30993Y238040D01*
Y238565D02*
X31255Y238827D01*
Y239352D01*
X30993Y239614D01*
X29943D01*
X29681Y239352D01*
Y238827D01*
X29943Y238565D01*
X30206D01*
X30468Y238827D01*
Y239614D01*
X37644Y238040D02*
X37381Y237777D01*
Y237253D01*
X37644Y236990D01*
X38693D01*
X38956Y237253D01*
Y237777D01*
X38693Y238040D01*
X37644Y238565D02*
X37381Y238827D01*
Y239352D01*
X37644Y239614D01*
X37906D01*
X38168Y239352D01*
X38431Y239614D01*
X38693D01*
X38956Y239352D01*
Y238827D01*
X38693Y238565D01*
X38431D01*
X38168Y238827D01*
X37906Y238565D01*
X37644D01*
X38168Y238827D02*
Y239352D01*
X29251Y219117D02*
X29513Y219379D01*
Y219904D01*
X29251Y220167D01*
X28201D01*
X27939Y219904D01*
Y219379D01*
X28201Y219117D01*
X29513Y217543D02*
X29251Y218068D01*
X28726Y218592D01*
X28201D01*
X27939Y218330D01*
Y217805D01*
X28201Y217543D01*
X28464D01*
X28726Y217805D01*
Y218592D01*
X48937Y189254D02*
X48674Y189516D01*
X48150D01*
X47887Y189254D01*
Y188204D01*
X48150Y187942D01*
X48674D01*
X48937Y188204D01*
X50511Y189516D02*
X49462D01*
Y188729D01*
X49986Y188991D01*
X50249D01*
X50511Y188729D01*
Y188204D01*
X50249Y187942D01*
X49724D01*
X49462Y188204D01*
X48980Y181954D02*
X48718Y182216D01*
X48193D01*
X47931Y181954D01*
Y180904D01*
X48193Y180642D01*
X48718D01*
X48980Y180904D01*
X50292Y180642D02*
Y182216D01*
X49505Y181429D01*
X50555D01*
X281268Y22590D02*
X281006Y22327D01*
Y21802D01*
X281268Y21540D01*
X282317D01*
X282580Y21802D01*
Y22327D01*
X282317Y22590D01*
X282580Y23114D02*
Y23639D01*
Y23377D01*
X281006D01*
X281268Y23114D01*
M02*
