G04*
G04 #@! TF.GenerationSoftware,Altium Limited,Altium Designer,25.8.1 (18)*
G04*
G04 Layer_Color=16711935*
%FSLAX25Y25*%
%MOIN*%
G70*
G04*
G04 #@! TF.SameCoordinates,64F7C8A9-438D-4F9F-9055-C3E4DFCE694A*
G04*
G04*
G04 #@! TF.FilePolarity,Positive*
G04*
G01*
G75*
%ADD10C,0.00787*%
%ADD11C,0.00984*%
%ADD13C,0.00394*%
%ADD14C,0.01000*%
%ADD15C,0.00500*%
%ADD16C,0.00600*%
%ADD111C,0.00100*%
%ADD112C,0.01457*%
%ADD113C,0.00374*%
D10*
X182955Y225426D02*
G03*
X182955Y225426I-394J0D01*
G01*
X310176Y174164D02*
G03*
X310176Y174164I-394J0D01*
G01*
X54750Y220894D02*
G03*
X54750Y220894I-394J0D01*
G01*
X87914Y78306D02*
G03*
X87914Y78306I-394J0D01*
G01*
X23435Y67152D02*
G03*
X23435Y67152I-394J0D01*
G01*
X74612Y234285D02*
Y251215D01*
X57683D02*
X74612D01*
X57683Y234285D02*
Y251215D01*
Y234285D02*
X74612D01*
D11*
X46147Y169467D02*
Y164350D01*
Y166908D01*
X49558D01*
Y169467D01*
Y164350D01*
X51264Y168614D02*
X52116Y169467D01*
X53822D01*
X54675Y168614D01*
Y167761D01*
X53822Y166908D01*
X52969D01*
X53822D01*
X54675Y166056D01*
Y165203D01*
X53822Y164350D01*
X52116D01*
X51264Y165203D01*
X123047Y215434D02*
Y220550D01*
Y217992D01*
X119636D01*
Y215434D01*
Y220550D01*
X117931D02*
X116225D01*
X117078D01*
Y215434D01*
X117931Y216286D01*
X304083Y35900D02*
X309200D01*
X306642D01*
Y39311D01*
X304083D01*
X309200D01*
Y44427D02*
Y41017D01*
X305789Y44427D01*
X304936D01*
X304083Y43575D01*
Y41869D01*
X304936Y41017D01*
X299783Y221900D02*
X304900D01*
X302342D01*
Y225311D01*
X299783D01*
X304900D01*
X299783Y230427D02*
Y227016D01*
X302342D01*
X301489Y228722D01*
Y229575D01*
X302342Y230427D01*
X304047D01*
X304900Y229575D01*
Y227869D01*
X304047Y227016D01*
X5277Y234550D02*
X10394D01*
X7835D01*
Y237961D01*
X5277D01*
X10394D01*
Y242225D02*
X5277D01*
X7835Y239667D01*
Y243078D01*
D13*
X285858Y45053D02*
G03*
X285858Y45053I-1969J0D01*
G01*
X281287Y35450D02*
X293492D01*
X281287Y47655D02*
X293492D01*
Y35450D02*
Y47655D01*
X281287Y35450D02*
Y47655D01*
X35691Y220582D02*
X41203D01*
X35691Y212118D02*
X41203D01*
Y220582D01*
X35691Y212118D02*
Y220582D01*
X87191Y209474D02*
Y217939D01*
X92703Y209474D02*
Y217939D01*
X87191Y209474D02*
X92703D01*
X87191Y217939D02*
X92703D01*
X95091Y209474D02*
Y217939D01*
X100603Y209474D02*
Y217939D01*
X95091Y209474D02*
X100603D01*
X95091Y217939D02*
X100603D01*
X127703Y236418D02*
Y244882D01*
X122191Y236418D02*
Y244882D01*
X127703D01*
X122191Y236418D02*
X127703D01*
X114491D02*
X120003D01*
X114491Y244882D02*
X120003D01*
X114491Y236418D02*
Y244882D01*
X120003Y236418D02*
Y244882D01*
X112303Y236418D02*
Y244882D01*
X106791Y236418D02*
Y244882D01*
X112303D01*
X106791Y236418D02*
X112303D01*
X104603D02*
Y244882D01*
X99091Y236418D02*
Y244882D01*
X104603D01*
X99091Y236418D02*
X104603D01*
X96903Y236318D02*
Y244782D01*
X91391Y236318D02*
Y244782D01*
X96903D01*
X91391Y236318D02*
X96903D01*
X23503Y236518D02*
Y244982D01*
X17991Y236518D02*
Y244982D01*
X23503D01*
X17991Y236518D02*
X23503D01*
X31203D02*
Y244982D01*
X25691Y236518D02*
Y244982D01*
X31203D01*
X25691Y236518D02*
X31203D01*
X38903D02*
Y244982D01*
X33391Y236518D02*
Y244982D01*
X38903D01*
X33391Y236518D02*
X38903D01*
X27991Y212175D02*
Y220639D01*
X33503Y212175D02*
Y220639D01*
X27991Y212175D02*
X33503D01*
X27991Y220639D02*
X33503D01*
X47415Y187994D02*
X55879D01*
X47415Y193506D02*
X55879D01*
Y187994D02*
Y193506D01*
X47415Y187994D02*
Y193506D01*
X47458Y180694D02*
X55923D01*
X47458Y186206D02*
X55923D01*
Y180694D02*
Y186206D01*
X47458Y180694D02*
Y186206D01*
X282528Y21068D02*
Y29532D01*
X277016Y21068D02*
Y29532D01*
X282528D01*
X277016Y21068D02*
X282528D01*
X269014Y49419D02*
X271519Y46914D01*
X264281Y44686D02*
X266787Y42181D01*
X271519Y46914D01*
X264281Y44686D02*
X269014Y49419D01*
X95501Y226878D02*
X102194D01*
X95501Y230422D02*
X102194D01*
Y226878D02*
Y230422D01*
X95501Y226878D02*
Y230422D01*
X94876Y196804D02*
Y203497D01*
X98419Y196804D02*
Y203497D01*
X94876Y196804D02*
X98419D01*
X94876Y203497D02*
X98419D01*
X92192Y196772D02*
Y203465D01*
X88649Y196772D02*
Y203465D01*
X92192D01*
X88649Y196772D02*
X92192D01*
X58076Y234679D02*
Y250821D01*
Y234679D02*
X74218D01*
X58076Y250821D02*
X74218D01*
Y234679D02*
Y250821D01*
X26032Y67450D02*
Y73750D01*
X29969D01*
Y67450D02*
Y73750D01*
X26032Y67450D02*
X29969D01*
X44131Y220250D02*
X48068D01*
X44131Y213950D02*
Y220250D01*
Y213950D02*
X48068D01*
Y220250D01*
X47198Y199719D02*
X53497D01*
Y195782D02*
Y199719D01*
X47198Y195782D02*
X53497D01*
X47198D02*
Y199719D01*
X273404Y198228D02*
X280097D01*
X273404Y201772D02*
X280097D01*
Y198228D02*
Y201772D01*
X273404Y198228D02*
Y201772D01*
X228528Y258496D02*
X232072D01*
X228528Y251803D02*
X232072D01*
Y258496D01*
X228528Y251803D02*
Y258496D01*
X28801Y229622D02*
X35494D01*
X28801Y226079D02*
X35494D01*
X28801D02*
Y229622D01*
X35494Y226079D02*
Y229622D01*
X41399Y171750D02*
X62895D01*
X41400Y161950D02*
X62895D01*
X41399Y171750D02*
X41400Y161949D01*
X62895Y161950D02*
Y171750D01*
X106299Y213150D02*
Y222950D01*
X127795Y222952D02*
X127795Y213150D01*
X106299Y222950D02*
X127795D01*
X106299Y213150D02*
X127795D01*
X301800Y52648D02*
X311600D01*
X301800Y31152D02*
X311602Y31153D01*
X311600D02*
Y52648D01*
X301800Y31152D02*
Y52648D01*
X297253Y202272D02*
X303946D01*
X297253Y198728D02*
X303946D01*
X297253D02*
Y202272D01*
X303946Y198728D02*
Y202272D01*
X228528Y233053D02*
X232072D01*
X228528Y239746D02*
X232072D01*
X228528Y233053D02*
Y239746D01*
X232072Y233053D02*
Y239746D01*
X201554Y222821D02*
X208246D01*
X201554Y219278D02*
X208246D01*
X201554D02*
Y222821D01*
X208246Y219278D02*
Y222821D01*
X225272Y226753D02*
Y233447D01*
X221728Y226753D02*
Y233447D01*
X225272D01*
X221728Y226753D02*
X225272D01*
X197472Y219054D02*
Y225746D01*
X193928Y219054D02*
Y225746D01*
X197472D01*
X193928Y219054D02*
X197472D01*
X86247Y183904D02*
X89791D01*
X86247Y190597D02*
X89791D01*
X86247Y183904D02*
Y190597D01*
X89791Y183904D02*
Y190597D01*
X78001Y199978D02*
X84694D01*
X78001Y203522D02*
X84694D01*
Y199978D02*
Y203522D01*
X78001Y199978D02*
Y203522D01*
X27796Y196428D02*
Y199972D01*
X21103Y196428D02*
Y199972D01*
Y196428D02*
X27796D01*
X21103Y199972D02*
X27796D01*
X84854Y167372D02*
X91546D01*
X84854Y163828D02*
X91546D01*
X84854D02*
Y167372D01*
X91546Y163828D02*
Y167372D01*
X74403Y171072D02*
X81096D01*
X74403Y167528D02*
X81096D01*
X74403D02*
Y171072D01*
X81096Y167528D02*
Y171072D01*
X184703Y70128D02*
X191396D01*
X184703Y73672D02*
X191396D01*
Y70128D02*
Y73672D01*
X184703Y70128D02*
Y73672D01*
X127553Y102972D02*
X134247D01*
X127553Y99428D02*
X134247D01*
X127553D02*
Y102972D01*
X134247Y99428D02*
Y102972D01*
X104053Y108672D02*
X110747D01*
X104053Y105128D02*
X110747D01*
X104053D02*
Y108672D01*
X110747Y105128D02*
Y108672D01*
X79172Y61753D02*
Y68446D01*
X75628Y61753D02*
Y68446D01*
X79172D01*
X75628Y61753D02*
X79172D01*
X155053Y102328D02*
X161747D01*
X155053Y105872D02*
X161747D01*
Y102328D02*
Y105872D01*
X155053Y102328D02*
Y105872D01*
X235428Y226754D02*
Y233447D01*
X238972Y226754D02*
Y233447D01*
X235428Y226754D02*
X238972D01*
X235428Y233447D02*
X238972D01*
X129550Y237368D02*
X136243D01*
X129550Y233825D02*
X136243D01*
X129550D02*
Y237368D01*
X136243Y233825D02*
Y237368D01*
X107978Y202353D02*
X111522D01*
X107978Y209046D02*
X111522D01*
X107978Y202353D02*
Y209046D01*
X111522Y202353D02*
Y209046D01*
X96102Y163772D02*
X102795D01*
X96102Y160228D02*
X102795D01*
X96102D02*
Y163772D01*
X102795Y160228D02*
Y163772D01*
X86403Y175072D02*
X93096D01*
X86403Y171528D02*
X93096D01*
X86403D02*
Y175072D01*
X93096Y171528D02*
Y175072D01*
X7472Y213703D02*
Y220396D01*
X3928Y213703D02*
Y220396D01*
X7472D01*
X3928Y213703D02*
X7472D01*
X92347Y183854D02*
X95891D01*
X92347Y190547D02*
X95891D01*
X92347Y183854D02*
Y190547D01*
X95891Y183854D02*
Y190547D01*
X104328Y87203D02*
Y93896D01*
X107872Y87203D02*
Y93896D01*
X104328Y87203D02*
X107872D01*
X104328Y93896D02*
X107872D01*
X89628Y86503D02*
Y93196D01*
X93172Y86503D02*
Y93196D01*
X89628Y86503D02*
X93172D01*
X89628Y93196D02*
X93172D01*
X269446Y183728D02*
Y187272D01*
X262754Y183728D02*
Y187272D01*
Y183728D02*
X269446D01*
X262754Y187272D02*
X269446D01*
X99296Y50228D02*
Y53772D01*
X92603Y50228D02*
Y53772D01*
Y50228D02*
X99296D01*
X92603Y53772D02*
X99296D01*
X84928Y55003D02*
X88472D01*
X84928Y61696D02*
X88472D01*
X84928Y55003D02*
Y61696D01*
X88472Y55003D02*
Y61696D01*
X99103Y55628D02*
Y59172D01*
X105796Y55628D02*
Y59172D01*
X99103D02*
X105796D01*
X99103Y55628D02*
X105796D01*
X256172Y201803D02*
Y208496D01*
X252628Y201803D02*
Y208496D01*
X256172D01*
X252628Y201803D02*
X256172D01*
X297754Y175828D02*
Y179372D01*
X304447Y175828D02*
Y179372D01*
X297754D02*
X304447D01*
X297754Y175828D02*
X304447D01*
X67876Y157897D02*
X71419D01*
X67876Y151204D02*
X71419D01*
Y157897D01*
X67876Y151204D02*
Y157897D01*
X224646Y82828D02*
Y86372D01*
X217953Y82828D02*
Y86372D01*
Y82828D02*
X224646D01*
X217953Y86372D02*
X224646D01*
X217953Y100872D02*
X224646D01*
X217953Y97328D02*
X224646D01*
X217953D02*
Y100872D01*
X224646Y97328D02*
Y100872D01*
X297500Y238648D02*
X307300D01*
X297500Y217152D02*
X307302Y217153D01*
X307300D02*
Y238648D01*
X297500Y217152D02*
Y238648D01*
X2994Y251298D02*
X12794D01*
X2994Y229802D02*
X12795Y229803D01*
X12794D02*
Y251298D01*
X2994Y229802D02*
Y251298D01*
X268961Y48275D02*
X270074Y47162D01*
X269517Y46605D01*
X269146D01*
X268775Y46976D01*
X268775Y47347D01*
X269332Y47904D01*
X268961Y47533D02*
X268218Y47533D01*
X267847Y47162D02*
X267476Y46791D01*
X267662Y46976D01*
X268775Y45863D01*
Y46234D01*
X96347Y227650D02*
Y229224D01*
X97134D01*
X97397Y228962D01*
Y228437D01*
X97134Y228175D01*
X96347D01*
X96872D02*
X97397Y227650D01*
X98971Y229224D02*
X97922D01*
Y228437D01*
X98446Y228700D01*
X98709D01*
X98971Y228437D01*
Y227912D01*
X98709Y227650D01*
X98184D01*
X97922Y227912D01*
X95647Y202650D02*
X97221D01*
Y201863D01*
X96959Y201601D01*
X96434D01*
X96172Y201863D01*
Y202650D01*
Y202125D02*
X95647Y201601D01*
Y200289D02*
X97221D01*
X96434Y201076D01*
Y200026D01*
X91421Y197619D02*
X89846D01*
Y198406D01*
X90109Y198668D01*
X90633D01*
X90896Y198406D01*
Y197619D01*
Y198143D02*
X91421Y198668D01*
X90109Y199193D02*
X89846Y199455D01*
Y199980D01*
X90109Y200242D01*
X90371D01*
X90633Y199980D01*
Y199718D01*
Y199980D01*
X90896Y200242D01*
X91158D01*
X91421Y199980D01*
Y199455D01*
X91158Y199193D01*
X273904Y200968D02*
Y199000D01*
X275216D01*
X277183Y200968D02*
X275871D01*
Y199000D01*
X277183D01*
X275871Y199984D02*
X276527D01*
X277839Y200968D02*
Y199000D01*
X278823D01*
X279151Y199328D01*
Y200640D01*
X278823Y200968D01*
X277839D01*
X279807Y200640D02*
X280135Y200968D01*
X280791D01*
X281119Y200640D01*
Y200312D01*
X280791Y199984D01*
X280463D01*
X280791D01*
X281119Y199656D01*
Y199328D01*
X280791Y199000D01*
X280135D01*
X279807Y199328D01*
X231267Y257996D02*
X229300D01*
Y256684D01*
X231267Y254717D02*
Y256029D01*
X229300D01*
Y254717D01*
X230284Y256029D02*
Y255373D01*
X231267Y254061D02*
X229300D01*
Y253077D01*
X229628Y252749D01*
X230940D01*
X231267Y253077D01*
Y254061D01*
X229300Y250781D02*
Y252093D01*
X230612Y250781D01*
X230940D01*
X231267Y251109D01*
Y251765D01*
X230940Y252093D01*
X34994Y226883D02*
Y228850D01*
X33682D01*
X31714Y226883D02*
X33026D01*
Y228850D01*
X31714D01*
X33026Y227867D02*
X32370D01*
X31058Y226883D02*
Y228850D01*
X30074D01*
X29746Y228522D01*
Y227210D01*
X30074Y226883D01*
X31058D01*
X29090Y228850D02*
X28435D01*
X28763D01*
Y226883D01*
X29090Y227210D01*
X13668Y73072D02*
Y73728D01*
Y73400D01*
X12028D01*
X11700Y73728D01*
Y74055D01*
X12028Y74383D01*
X11700Y72416D02*
Y71760D01*
Y72088D01*
X13668D01*
X13340Y72416D01*
X303100Y201500D02*
Y199926D01*
X302313D01*
X302050Y200188D01*
Y200713D01*
X302313Y200975D01*
X303100D01*
X302575D02*
X302050Y201500D01*
X301526D02*
X301001D01*
X301263D01*
Y199926D01*
X301526Y200188D01*
X300214D02*
X299951Y199926D01*
X299427D01*
X299164Y200188D01*
Y200450D01*
X299427Y200713D01*
X299164Y200975D01*
Y201238D01*
X299427Y201500D01*
X299951D01*
X300214Y201238D01*
Y200975D01*
X299951Y200713D01*
X300214Y200450D01*
Y200188D01*
X299951Y200713D02*
X299427D01*
X231300Y233900D02*
X229726D01*
Y234687D01*
X229988Y234949D01*
X230513D01*
X230775Y234687D01*
Y233900D01*
Y234425D02*
X231300Y234949D01*
Y235474D02*
Y235999D01*
Y235737D01*
X229726D01*
X229988Y235474D01*
X229726Y236786D02*
Y237836D01*
X229988D01*
X231038Y236786D01*
X231300D01*
X207400Y222050D02*
Y220475D01*
X206613D01*
X206350Y220738D01*
Y221262D01*
X206613Y221525D01*
X207400D01*
X206875D02*
X206350Y222050D01*
X205826D02*
X205301D01*
X205563D01*
Y220475D01*
X205826Y220738D01*
X203727Y222050D02*
Y220475D01*
X204514Y221262D01*
X203464D01*
X224500Y227600D02*
X222926D01*
Y228387D01*
X223188Y228649D01*
X223713D01*
X223975Y228387D01*
Y227600D01*
Y228125D02*
X224500Y228649D01*
Y229174D02*
Y229699D01*
Y229437D01*
X222926D01*
X223188Y229174D01*
Y230486D02*
X222926Y230749D01*
Y231273D01*
X223188Y231536D01*
X223450D01*
X223713Y231273D01*
Y231011D01*
Y231273D01*
X223975Y231536D01*
X224238D01*
X224500Y231273D01*
Y230749D01*
X224238Y230486D01*
X196700Y219900D02*
X195126D01*
Y220687D01*
X195388Y220950D01*
X195913D01*
X196175Y220687D01*
Y219900D01*
Y220425D02*
X196700Y220950D01*
Y221474D02*
Y221999D01*
Y221737D01*
X195126D01*
X195388Y221474D01*
X196700Y223836D02*
Y222786D01*
X195650Y223836D01*
X195388D01*
X195126Y223573D01*
Y223049D01*
X195388Y222786D01*
X89019Y184750D02*
X87445D01*
Y185537D01*
X87707Y185800D01*
X88232D01*
X88494Y185537D01*
Y184750D01*
Y185275D02*
X89019Y185800D01*
Y186324D02*
Y186849D01*
Y186587D01*
X87445D01*
X87707Y186324D01*
X89019Y187636D02*
Y188161D01*
Y187899D01*
X87445D01*
X87707Y187636D01*
X78847Y200750D02*
Y202324D01*
X79634D01*
X79897Y202062D01*
Y201537D01*
X79634Y201275D01*
X78847D01*
X79372D02*
X79897Y200750D01*
X80422Y202062D02*
X80684Y202324D01*
X81209D01*
X81471Y202062D01*
Y201800D01*
X81209Y201537D01*
X81471Y201275D01*
Y201012D01*
X81209Y200750D01*
X80684D01*
X80422Y201012D01*
Y201275D01*
X80684Y201537D01*
X80422Y201800D01*
Y202062D01*
X80684Y201537D02*
X81209D01*
X26950Y199200D02*
Y197626D01*
X26162D01*
X25900Y197888D01*
Y198413D01*
X26162Y198675D01*
X26950D01*
X26425D02*
X25900Y199200D01*
X24326Y197626D02*
X24850Y197888D01*
X25375Y198413D01*
Y198938D01*
X25113Y199200D01*
X24588D01*
X24326Y198938D01*
Y198675D01*
X24588Y198413D01*
X25375D01*
X90700Y166600D02*
Y165026D01*
X89913D01*
X89650Y165288D01*
Y165813D01*
X89913Y166075D01*
X90700D01*
X90175D02*
X89650Y166600D01*
X89126Y165288D02*
X88863Y165026D01*
X88339D01*
X88076Y165288D01*
Y165550D01*
X88339Y165813D01*
X88601D01*
X88339D01*
X88076Y166075D01*
Y166338D01*
X88339Y166600D01*
X88863D01*
X89126Y166338D01*
X87551Y165288D02*
X87289Y165026D01*
X86764D01*
X86502Y165288D01*
Y165550D01*
X86764Y165813D01*
X87027D01*
X86764D01*
X86502Y166075D01*
Y166338D01*
X86764Y166600D01*
X87289D01*
X87551Y166338D01*
X80250Y170300D02*
Y168726D01*
X79462D01*
X79200Y168988D01*
Y169513D01*
X79462Y169775D01*
X80250D01*
X79725D02*
X79200Y170300D01*
X78675Y168988D02*
X78413Y168726D01*
X77888D01*
X77626Y168988D01*
Y169251D01*
X77888Y169513D01*
X78150D01*
X77888D01*
X77626Y169775D01*
Y170038D01*
X77888Y170300D01*
X78413D01*
X78675Y170038D01*
X76051Y170300D02*
X77101D01*
X76051Y169251D01*
Y168988D01*
X76314Y168726D01*
X76839D01*
X77101Y168988D01*
X185550Y70900D02*
Y72474D01*
X186337D01*
X186599Y72212D01*
Y71687D01*
X186337Y71425D01*
X185550D01*
X186074D02*
X186599Y70900D01*
X187911D02*
Y72474D01*
X187124Y71687D01*
X188173D01*
X189485Y70900D02*
Y72474D01*
X188698Y71687D01*
X189748D01*
X133400Y102200D02*
Y100626D01*
X132613D01*
X132351Y100888D01*
Y101413D01*
X132613Y101675D01*
X133400D01*
X132875D02*
X132351Y102200D01*
X131039D02*
Y100626D01*
X131826Y101413D01*
X130776D01*
X130251Y100888D02*
X129989Y100626D01*
X129464D01*
X129202Y100888D01*
Y101151D01*
X129464Y101413D01*
X129727D01*
X129464D01*
X129202Y101675D01*
Y101938D01*
X129464Y102200D01*
X129989D01*
X130251Y101938D01*
X109900Y107900D02*
Y106326D01*
X109113D01*
X108851Y106588D01*
Y107113D01*
X109113Y107375D01*
X109900D01*
X109375D02*
X108851Y107900D01*
X107539D02*
Y106326D01*
X108326Y107113D01*
X107276D01*
X105702Y107900D02*
X106751D01*
X105702Y106851D01*
Y106588D01*
X105964Y106326D01*
X106489D01*
X106751Y106588D01*
X78400Y62600D02*
X76826D01*
Y63387D01*
X77088Y63649D01*
X77613D01*
X77875Y63387D01*
Y62600D01*
Y63125D02*
X78400Y63649D01*
Y64961D02*
X76826D01*
X77613Y64174D01*
Y65224D01*
X77088Y65749D02*
X76826Y66011D01*
Y66536D01*
X77088Y66798D01*
X78138D01*
X78400Y66536D01*
Y66011D01*
X78138Y65749D01*
X77088D01*
X155900Y103100D02*
Y104674D01*
X156687D01*
X156949Y104412D01*
Y103887D01*
X156687Y103625D01*
X155900D01*
X156425D02*
X156949Y103100D01*
X157474Y104412D02*
X157737Y104674D01*
X158261D01*
X158524Y104412D01*
Y104149D01*
X158261Y103887D01*
X157999D01*
X158261D01*
X158524Y103625D01*
Y103362D01*
X158261Y103100D01*
X157737D01*
X157474Y103362D01*
X159049D02*
X159311Y103100D01*
X159836D01*
X160098Y103362D01*
Y104412D01*
X159836Y104674D01*
X159311D01*
X159049Y104412D01*
Y104149D01*
X159311Y103887D01*
X160098D01*
X236200Y232600D02*
X237774D01*
Y231813D01*
X237512Y231551D01*
X236987D01*
X236725Y231813D01*
Y232600D01*
Y232075D02*
X236200Y231551D01*
X237512Y231026D02*
X237774Y230763D01*
Y230239D01*
X237512Y229976D01*
X237249D01*
X236987Y230239D01*
Y230501D01*
Y230239D01*
X236725Y229976D01*
X236462D01*
X236200Y230239D01*
Y230763D01*
X236462Y231026D01*
X237774Y229451D02*
Y228402D01*
X237512D01*
X236462Y229451D01*
X236200D01*
X135397Y236597D02*
Y235022D01*
X134610D01*
X134347Y235285D01*
Y235809D01*
X134610Y236072D01*
X135397D01*
X134872D02*
X134347Y236597D01*
X133823Y235285D02*
X133560Y235022D01*
X133035D01*
X132773Y235285D01*
Y235547D01*
X133035Y235809D01*
X133298D01*
X133035D01*
X132773Y236072D01*
Y236334D01*
X133035Y236597D01*
X133560D01*
X133823Y236334D01*
X131461Y236597D02*
Y235022D01*
X132248Y235809D01*
X131199D01*
X110750Y203200D02*
X109176D01*
Y203987D01*
X109438Y204249D01*
X109963D01*
X110225Y203987D01*
Y203200D01*
Y203724D02*
X110750Y204249D01*
X109438Y204774D02*
X109176Y205036D01*
Y205561D01*
X109438Y205823D01*
X109701D01*
X109963Y205561D01*
Y205298D01*
Y205561D01*
X110225Y205823D01*
X110488D01*
X110750Y205561D01*
Y205036D01*
X110488Y204774D01*
X110750Y206348D02*
Y206873D01*
Y206610D01*
X109176D01*
X109438Y206348D01*
X101949Y163000D02*
Y161426D01*
X101162D01*
X100899Y161688D01*
Y162213D01*
X101162Y162475D01*
X101949D01*
X101424D02*
X100899Y163000D01*
X100374Y161688D02*
X100112Y161426D01*
X99587D01*
X99325Y161688D01*
Y161951D01*
X99587Y162213D01*
X99850D01*
X99587D01*
X99325Y162475D01*
Y162738D01*
X99587Y163000D01*
X100112D01*
X100374Y162738D01*
X98800Y161688D02*
X98538Y161426D01*
X98013D01*
X97751Y161688D01*
Y162738D01*
X98013Y163000D01*
X98538D01*
X98800Y162738D01*
Y161688D01*
X92250Y174300D02*
Y172726D01*
X91462D01*
X91200Y172988D01*
Y173513D01*
X91462Y173775D01*
X92250D01*
X91725D02*
X91200Y174300D01*
X89626D02*
X90675D01*
X89626Y173250D01*
Y172988D01*
X89888Y172726D01*
X90413D01*
X90675Y172988D01*
X89101Y174038D02*
X88839Y174300D01*
X88314D01*
X88051Y174038D01*
Y172988D01*
X88314Y172726D01*
X88839D01*
X89101Y172988D01*
Y173250D01*
X88839Y173513D01*
X88051D01*
X6700Y214550D02*
X5126D01*
Y215337D01*
X5388Y215599D01*
X5913D01*
X6175Y215337D01*
Y214550D01*
Y215074D02*
X6700Y215599D01*
Y217173D02*
Y216124D01*
X5650Y217173D01*
X5388D01*
X5126Y216911D01*
Y216386D01*
X5388Y216124D01*
X95119Y184701D02*
X93545D01*
Y185488D01*
X93807Y185750D01*
X94332D01*
X94594Y185488D01*
Y184701D01*
Y185225D02*
X95119Y185750D01*
Y187324D02*
Y186275D01*
X94069Y187324D01*
X93807D01*
X93545Y187062D01*
Y186537D01*
X93807Y186275D01*
X93545Y188899D02*
Y187849D01*
X94332D01*
X94069Y188374D01*
Y188636D01*
X94332Y188899D01*
X94857D01*
X95119Y188636D01*
Y188111D01*
X94857Y187849D01*
X105100Y93050D02*
X106674D01*
Y92262D01*
X106412Y92000D01*
X105887D01*
X105625Y92262D01*
Y93050D01*
Y92525D02*
X105100Y92000D01*
Y90426D02*
Y91475D01*
X106149Y90426D01*
X106412D01*
X106674Y90688D01*
Y91213D01*
X106412Y91475D01*
X105100Y89114D02*
X106674D01*
X105887Y89901D01*
Y88851D01*
X90400Y92350D02*
X91974D01*
Y91562D01*
X91712Y91300D01*
X91187D01*
X90925Y91562D01*
Y92350D01*
Y91825D02*
X90400Y91300D01*
Y89726D02*
Y90775D01*
X91449Y89726D01*
X91712D01*
X91974Y89988D01*
Y90513D01*
X91712Y90775D01*
Y89201D02*
X91974Y88939D01*
Y88414D01*
X91712Y88152D01*
X91449D01*
X91187Y88414D01*
Y88676D01*
Y88414D01*
X90925Y88152D01*
X90662D01*
X90400Y88414D01*
Y88939D01*
X90662Y89201D01*
X268600Y186500D02*
Y184926D01*
X267813D01*
X267550Y185188D01*
Y185713D01*
X267813Y185975D01*
X268600D01*
X268075D02*
X267550Y186500D01*
X265976D02*
X267026D01*
X265976Y185450D01*
Y185188D01*
X266239Y184926D01*
X266763D01*
X267026Y185188D01*
X264402Y186500D02*
X265451D01*
X264402Y185450D01*
Y185188D01*
X264664Y184926D01*
X265189D01*
X265451Y185188D01*
X98450Y53000D02*
Y51426D01*
X97662D01*
X97400Y51688D01*
Y52213D01*
X97662Y52475D01*
X98450D01*
X97925D02*
X97400Y53000D01*
X95826D02*
X96875D01*
X95826Y51951D01*
Y51688D01*
X96088Y51426D01*
X96613D01*
X96875Y51688D01*
X95301Y53000D02*
X94776D01*
X95039D01*
Y51426D01*
X95301Y51688D01*
X87700Y55850D02*
X86126D01*
Y56637D01*
X86388Y56899D01*
X86913D01*
X87175Y56637D01*
Y55850D01*
Y56374D02*
X87700Y56899D01*
Y58473D02*
Y57424D01*
X86651Y58473D01*
X86388D01*
X86126Y58211D01*
Y57686D01*
X86388Y57424D01*
Y58998D02*
X86126Y59261D01*
Y59785D01*
X86388Y60048D01*
X87438D01*
X87700Y59785D01*
Y59261D01*
X87438Y58998D01*
X86388D01*
X99950Y56400D02*
Y57974D01*
X100737D01*
X100999Y57712D01*
Y57187D01*
X100737Y56925D01*
X99950D01*
X100474D02*
X100999Y56400D01*
X101524D02*
X102049D01*
X101786D01*
Y57974D01*
X101524Y57712D01*
X102836Y56662D02*
X103098Y56400D01*
X103623D01*
X103885Y56662D01*
Y57712D01*
X103623Y57974D01*
X103098D01*
X102836Y57712D01*
Y57450D01*
X103098Y57187D01*
X103885D01*
X255400Y202650D02*
X253826D01*
Y203437D01*
X254088Y203699D01*
X254613D01*
X254875Y203437D01*
Y202650D01*
Y203174D02*
X255400Y203699D01*
Y204224D02*
Y204749D01*
Y204486D01*
X253826D01*
X254088Y204224D01*
X253826Y206585D02*
X254088Y206061D01*
X254613Y205536D01*
X255138D01*
X255400Y205798D01*
Y206323D01*
X255138Y206585D01*
X254875D01*
X254613Y206323D01*
Y205536D01*
X298600Y176600D02*
Y178174D01*
X299387D01*
X299650Y177912D01*
Y177387D01*
X299387Y177125D01*
X298600D01*
X299125D02*
X299650Y176600D01*
X300174D02*
X300699D01*
X300437D01*
Y178174D01*
X300174Y177912D01*
X302536Y178174D02*
X301486D01*
Y177387D01*
X302011Y177649D01*
X302273D01*
X302536Y177387D01*
Y176862D01*
X302273Y176600D01*
X301749D01*
X301486Y176862D01*
X68647Y157050D02*
X70222D01*
Y156263D01*
X69959Y156001D01*
X69434D01*
X69172Y156263D01*
Y157050D01*
Y156525D02*
X68647Y156001D01*
Y155476D02*
Y154951D01*
Y155213D01*
X70222D01*
X69959Y155476D01*
Y154164D02*
X70222Y153902D01*
Y153377D01*
X69959Y153114D01*
X68910D01*
X68647Y153377D01*
Y153902D01*
X68910Y154164D01*
X69959D01*
X223800Y85600D02*
Y84026D01*
X223013D01*
X222750Y84288D01*
Y84813D01*
X223013Y85075D01*
X223800D01*
X223275D02*
X222750Y85600D01*
X222226Y85338D02*
X221963Y85600D01*
X221439D01*
X221176Y85338D01*
Y84288D01*
X221439Y84026D01*
X221963D01*
X222226Y84288D01*
Y84550D01*
X221963Y84813D01*
X221176D01*
X223800Y100100D02*
Y98526D01*
X223013D01*
X222750Y98788D01*
Y99313D01*
X223013Y99575D01*
X223800D01*
X223275D02*
X222750Y100100D01*
X222226Y98526D02*
X221176D01*
Y98788D01*
X222226Y99838D01*
Y100100D01*
D14*
X247586Y163512D02*
X242588D01*
X241588Y162512D01*
Y160513D01*
X242588Y159513D01*
X247586D01*
X241588Y153515D02*
Y157514D01*
X245587Y153515D01*
X246587D01*
X247586Y154515D01*
Y156514D01*
X246587Y157514D01*
D15*
X179806Y223458D02*
Y239206D01*
X167994D02*
X179806D01*
X167994Y223458D02*
Y239206D01*
Y223458D02*
X179806D01*
X339270Y98573D02*
Y169439D01*
X314900Y98573D02*
X339270D01*
X238876D02*
X314900D01*
X238876D02*
Y169439D01*
X314900D01*
X339270D01*
X314900Y98573D02*
Y169439D01*
X58273Y206721D02*
Y222469D01*
Y206721D02*
X74021D01*
Y222469D01*
X58273D02*
X74021D01*
X91457Y62558D02*
Y82243D01*
Y62558D02*
X111143D01*
Y82243D01*
X91457D02*
X111143D01*
X22176Y213204D02*
Y219897D01*
X25719Y213204D02*
Y219897D01*
X22176Y213204D02*
X25719D01*
X22176Y219897D02*
X25719D01*
X77732Y220479D02*
Y224022D01*
X84425Y220479D02*
Y224022D01*
X77732D02*
X84425D01*
X77732Y220479D02*
X84425D01*
X73776Y144604D02*
Y151297D01*
X77319Y144604D02*
Y151297D01*
X73776Y144604D02*
X77319D01*
X73776Y151297D02*
X77319D01*
X16276Y219897D02*
X19819D01*
X16276Y213204D02*
X19819D01*
Y219897D01*
X16276Y213204D02*
Y219897D01*
X275972Y70253D02*
Y76947D01*
X272428Y70253D02*
Y76947D01*
X275972D01*
X272428Y70253D02*
X275972D01*
X85919Y40507D02*
Y47200D01*
X89462Y40507D02*
Y47200D01*
X85919Y40507D02*
X89462D01*
X85919Y47200D02*
X89462D01*
X72119Y46869D02*
X75662D01*
X72119Y40176D02*
X75662D01*
Y46869D01*
X72119Y40176D02*
Y46869D01*
X78428Y72853D02*
X81972D01*
X78428Y79546D02*
X81972D01*
X78428Y72853D02*
Y79546D01*
X81972Y72853D02*
Y79546D01*
X73428Y73053D02*
X76972D01*
X73428Y79747D02*
X76972D01*
X73428Y73053D02*
Y79747D01*
X76972Y73053D02*
Y79747D01*
X174328Y212754D02*
Y219446D01*
X177872Y212754D02*
Y219446D01*
X174328Y212754D02*
X177872D01*
X174328Y219446D02*
X177872D01*
X303646Y183828D02*
Y187372D01*
X296954Y183828D02*
Y187372D01*
Y183828D02*
X303646D01*
X296954Y187372D02*
X303646D01*
X286000Y22853D02*
Y29546D01*
X289543Y22853D02*
Y29546D01*
X286000Y22853D02*
X289543D01*
X286000Y29546D02*
X289543D01*
X83919Y227972D02*
Y234665D01*
X80376Y227972D02*
Y234665D01*
X83919D01*
X80376Y227972D02*
X83919D01*
X150228Y231147D02*
X153772D01*
X150228Y224453D02*
X153772D01*
Y231147D01*
X150228Y224453D02*
Y231147D01*
X211928Y232554D02*
X215472D01*
X211928Y239247D02*
X215472D01*
X211928Y232554D02*
Y239247D01*
X215472Y232554D02*
Y239247D01*
X202928Y232653D02*
X206472D01*
X202928Y239347D02*
X206472D01*
X202928Y232653D02*
Y239347D01*
X206472Y232653D02*
Y239347D01*
X193928Y232753D02*
X197472D01*
X193928Y239446D02*
X197472D01*
X193928Y232753D02*
Y239446D01*
X197472Y232753D02*
Y239446D01*
X71101Y261279D02*
X77794D01*
X71101Y264822D02*
X77794D01*
Y261279D02*
Y264822D01*
X71101Y261279D02*
Y264822D01*
X20185Y202028D02*
X26878D01*
X20185Y205572D02*
X26878D01*
Y202028D02*
Y205572D01*
X20185Y202028D02*
Y205572D01*
X50576Y248504D02*
X54119D01*
X50576Y255197D02*
X54119D01*
X50576Y248504D02*
Y255197D01*
X54119Y248504D02*
Y255197D01*
X47026Y229404D02*
X50569D01*
X47026Y236097D02*
X50569D01*
X47026Y229404D02*
Y236097D01*
X50569Y229404D02*
Y236097D01*
X47432Y174778D02*
X54125D01*
X47432Y178322D02*
X54125D01*
Y174778D02*
Y178322D01*
X47432Y174778D02*
Y178322D01*
X251453Y245672D02*
X258147D01*
X251453Y242128D02*
X258147D01*
X251453D02*
Y245672D01*
X258147Y242128D02*
Y245672D01*
X297354Y195372D02*
X304047D01*
X297354Y191828D02*
X304047D01*
X297354D02*
Y195372D01*
X304047Y191828D02*
Y195372D01*
X1191Y47270D02*
Y76404D01*
X18121D01*
X-1565D02*
X1191D01*
X-3651Y77684D02*
X-1565Y76404D01*
X-3651Y45991D02*
Y77684D01*
Y45991D02*
X-1565Y47270D01*
X1191D01*
X18121D01*
Y76404D01*
X67392Y51509D02*
Y57020D01*
X55424D02*
X67392D01*
X55424Y51509D02*
Y57020D01*
Y51509D02*
X67392D01*
D16*
X-1368Y69514D02*
X600D01*
Y68530D01*
X272Y68202D01*
X-384D01*
X-712Y68530D01*
Y69514D01*
X272Y66234D02*
X600Y66562D01*
Y67218D01*
X272Y67546D01*
X-1040D01*
X-1368Y67218D01*
Y66562D01*
X-1040Y66234D01*
X600Y65579D02*
X-1368D01*
Y64595D01*
X-1040Y64267D01*
X-712D01*
X-384Y64595D01*
Y65579D01*
Y64595D01*
X-56Y64267D01*
X272D01*
X600Y64595D01*
Y65579D01*
Y60331D02*
Y61643D01*
X-1368D01*
Y60331D01*
X-384Y61643D02*
Y60987D01*
X-1368Y59675D02*
X600D01*
X-1368Y58363D01*
X600D01*
Y57707D02*
X-1368D01*
Y56723D01*
X-1040Y56395D01*
X272D01*
X600Y56723D01*
Y57707D01*
D111*
X50750Y65350D02*
Y72450D01*
X37250Y65350D02*
X50750D01*
X37250D02*
Y72450D01*
X50750D01*
X127450Y73340D02*
Y75340D01*
X125180D02*
X127450D01*
X125180Y73340D02*
Y75340D01*
Y73340D02*
X127450D01*
Y65860D02*
Y67860D01*
X125180D02*
X127450D01*
X125180Y65860D02*
Y67860D01*
Y65860D02*
X127450D01*
X132950Y69600D02*
Y71600D01*
Y69600D02*
X135220D01*
Y71600D01*
X132950D02*
X135220D01*
X127450Y64700D02*
Y76500D01*
Y64700D02*
X132950D01*
Y76500D01*
X127450D02*
X132950D01*
X127950Y91540D02*
Y93540D01*
X125680D02*
X127950D01*
X125680Y91540D02*
Y93540D01*
Y91540D02*
X127950D01*
Y84060D02*
Y86060D01*
X125680D02*
X127950D01*
X125680Y84060D02*
Y86060D01*
Y84060D02*
X127950D01*
X133450Y87800D02*
Y89800D01*
Y87800D02*
X135720D01*
Y89800D01*
X133450D02*
X135720D01*
X127950Y82900D02*
Y94700D01*
Y82900D02*
X133450D01*
Y94700D01*
X127950D02*
X133450D01*
X161800Y266500D02*
X168100Y272800D01*
X161800Y253900D02*
X168100Y247600D01*
X161800D02*
X188600D01*
Y272800D01*
X161800D02*
X188600D01*
X161800Y247600D02*
Y272800D01*
D112*
X324506Y157628D02*
X329171D01*
X331504Y155296D01*
X329171Y152963D01*
X324506D01*
X328005D01*
Y157628D01*
X324506Y150631D02*
X331504D01*
X324506Y145966D01*
X331504D01*
Y143633D02*
Y138968D01*
Y141300D01*
X324506D01*
X331504Y131970D02*
Y136635D01*
X324506D01*
Y131970D01*
X328005Y136635D02*
Y134302D01*
X324506Y129637D02*
X331504D01*
X324506Y124972D01*
X331504D01*
X324506Y122640D02*
X331504D01*
X324506Y117974D01*
X331504D01*
X324506Y115642D02*
X329171D01*
X331504Y113309D01*
X329171Y110977D01*
X324506D01*
X328005D01*
Y115642D01*
D113*
X282264Y38001D02*
Y36689D01*
X282526Y36427D01*
X283051D01*
X283313Y36689D01*
Y38001D01*
X283838Y36427D02*
X284363D01*
X284101D01*
Y38001D01*
X283838Y37739D01*
M02*
