G04*
G04 #@! TF.GenerationSoftware,Altium Limited,Altium Designer,25.8.1 (18)*
G04*
G04 Layer_Color=255*
%FSLAX25Y25*%
%MOIN*%
G70*
G04*
G04 #@! TF.SameCoordinates,64F7C8A9-438D-4F9F-9055-C3E4DFCE694A*
G04*
G04*
G04 #@! TF.FilePolarity,Positive*
G04*
G01*
G75*
%ADD99C,0.01968*%
%ADD100C,0.06299*%
%ADD101R,0.07480X0.07480*%
%ADD102C,0.18000*%
%ADD103O,0.06102X0.03950*%
%ADD104O,0.03500X0.05118*%
%ADD105R,0.06299X0.06299*%
%ADD106C,0.02000*%
%ADD107R,0.06299X0.06299*%
D99*
X171932Y227395D02*
D03*
X173900Y229363D02*
D03*
X171932Y235268D02*
D03*
X175868D02*
D03*
X173900Y233300D02*
D03*
X171932Y231331D02*
D03*
X175868D02*
D03*
Y227395D02*
D03*
D100*
X7894Y245550D02*
D03*
X302400Y232900D02*
D03*
X57147Y166850D02*
D03*
X112047Y218050D02*
D03*
X306700Y46900D02*
D03*
D101*
X285795Y269758D02*
D03*
X260205D02*
D03*
X82852Y131992D02*
D03*
X108442D02*
D03*
X282610Y65100D02*
D03*
X308200D02*
D03*
X282610Y82816D02*
D03*
X308200D02*
D03*
X108442Y149708D02*
D03*
X82852D02*
D03*
X260205Y252042D02*
D03*
X285795D02*
D03*
D102*
X12500Y11800D02*
D03*
X303000Y11900D02*
D03*
X12000Y264300D02*
D03*
X303100Y264600D02*
D03*
D103*
X6900Y48057D02*
D03*
Y75617D02*
D03*
D104*
X17530Y51995D02*
D03*
Y71680D02*
D03*
D105*
X122047Y218050D02*
D03*
X47147Y166850D02*
D03*
D106*
X284788Y130112D02*
D03*
X269688Y139612D02*
D03*
Y145312D02*
D03*
X273788Y130012D02*
D03*
X269788Y134112D02*
D03*
X273688Y149712D02*
D03*
X279288Y130012D02*
D03*
X279388Y149912D02*
D03*
X288988Y140212D02*
D03*
X288888Y145612D02*
D03*
Y134512D02*
D03*
X284888Y149912D02*
D03*
D107*
X306700Y36900D02*
D03*
X302400Y222900D02*
D03*
X7894Y235550D02*
D03*
M02*
