G04*
G04 #@! TF.GenerationSoftware,Altium Limited,Altium Designer,25.8.1 (18)*
G04*
G04 Layer_Color=32768*
%FSLAX25Y25*%
%MOIN*%
G70*
G04*
G04 #@! TF.SameCoordinates,64F7C8A9-438D-4F9F-9055-C3E4DFCE694A*
G04*
G04*
G04 #@! TF.FilePolarity,Positive*
G04*
G01*
G75*
%ADD13C,0.00394*%
%ADD16C,0.00600*%
%ADD114C,0.00197*%
G36*
X134450Y90800D02*
X138120D01*
Y86800D01*
X134450D01*
Y81900D01*
X126950D01*
Y83060D01*
X123280D01*
Y94540D01*
X126950D01*
Y95700D01*
X134450D01*
Y90800D01*
D02*
G37*
G36*
X52850Y64150D02*
X51750D01*
Y64350D01*
X36250D01*
Y64150D01*
X35150D01*
Y73650D01*
X36250D01*
Y73450D01*
X51750D01*
Y73650D01*
X52850D01*
Y64150D01*
D02*
G37*
G36*
X30756Y66190D02*
X25244D01*
Y75010D01*
X30756D01*
Y66190D01*
D02*
G37*
G36*
X133950Y72600D02*
X137620D01*
Y68600D01*
X133950D01*
Y63700D01*
X126450D01*
Y64860D01*
X122780D01*
Y76340D01*
X126450D01*
Y77500D01*
X133950D01*
Y72600D01*
D02*
G37*
G36*
X54757Y194994D02*
X45938D01*
Y200506D01*
X54757D01*
Y194994D01*
D02*
G37*
G36*
X43344Y212690D02*
Y221510D01*
X48856D01*
Y212690D01*
X43344D01*
D02*
G37*
G36*
X56495Y252354D02*
X74999D01*
Y233850D01*
X56495D01*
Y252354D01*
D02*
G37*
G36*
X189600Y267850D02*
X190200D01*
Y252550D01*
X189600D01*
Y246600D01*
X160800D01*
Y252550D01*
X160200D01*
Y267850D01*
X160800D01*
Y273800D01*
X189600D01*
Y267850D01*
D02*
G37*
D13*
X38447Y214382D02*
Y218319D01*
X36479Y216350D02*
X40416D01*
X87979Y213707D02*
X91916D01*
X89947Y211738D02*
Y215675D01*
X95879Y213707D02*
X99816D01*
X97847Y211738D02*
Y215675D01*
X122979Y240650D02*
X126916D01*
X124947Y238682D02*
Y242619D01*
X117247Y238682D02*
Y242619D01*
X115279Y240650D02*
X119216D01*
X107579D02*
X111516D01*
X109547Y238682D02*
Y242619D01*
X99879Y240650D02*
X103816D01*
X101847Y238682D02*
Y242619D01*
X92179Y240550D02*
X96116D01*
X94147Y238582D02*
Y242519D01*
X18779Y240750D02*
X22716D01*
X20747Y238782D02*
Y242719D01*
X26479Y240750D02*
X30416D01*
X28447Y238782D02*
Y242719D01*
X34179Y240750D02*
X38116D01*
X36147Y238782D02*
Y242719D01*
X28779Y216407D02*
X32716D01*
X30747Y214438D02*
Y218375D01*
X51647Y188782D02*
Y192719D01*
X49679Y190750D02*
X53616D01*
X51691Y181482D02*
Y185419D01*
X49722Y183450D02*
X53659D01*
X277803Y25300D02*
X281740D01*
X279772Y23332D02*
Y27268D01*
X266647Y44547D02*
X269153Y47053D01*
X266647D02*
X269153Y44547D01*
X98847Y226878D02*
Y230422D01*
X97076Y228650D02*
X100619D01*
X94876Y200150D02*
X98419D01*
X96647Y198378D02*
Y201922D01*
X88649Y200119D02*
X92192D01*
X90421Y198347D02*
Y201890D01*
X276750Y198031D02*
Y201969D01*
X274782Y200000D02*
X278719D01*
X230300Y253181D02*
Y257118D01*
X228331Y255150D02*
X232269D01*
X32147Y225882D02*
Y229819D01*
X30179Y227850D02*
X34116D01*
X50179Y166850D02*
X54116D01*
X52147Y164882D02*
Y168819D01*
X117047Y216082D02*
Y220019D01*
X115079Y218050D02*
X119016D01*
X304731Y41900D02*
X308668D01*
X306700Y39931D02*
Y43868D01*
X300600Y198728D02*
Y202272D01*
X298828Y200500D02*
X302372D01*
X230300Y234628D02*
Y238172D01*
X228528Y236400D02*
X232072D01*
X204900Y219278D02*
Y222821D01*
X203128Y221050D02*
X206672D01*
X221728Y230100D02*
X225272D01*
X223500Y228328D02*
Y231872D01*
X193928Y222400D02*
X197472D01*
X195700Y220628D02*
Y224172D01*
X88019Y185478D02*
Y189022D01*
X86247Y187250D02*
X89791D01*
X81347Y199978D02*
Y203522D01*
X79576Y201750D02*
X83119D01*
X22678Y198200D02*
X26221D01*
X24450Y196428D02*
Y199972D01*
X88200Y163828D02*
Y167372D01*
X86428Y165600D02*
X89972D01*
X77750Y167528D02*
Y171072D01*
X75978Y169300D02*
X79521D01*
X188050Y70128D02*
Y73672D01*
X186278Y71900D02*
X189821D01*
X130900Y99428D02*
Y102972D01*
X129128Y101200D02*
X132672D01*
X107400Y105128D02*
Y108672D01*
X105628Y106900D02*
X109172D01*
X75628Y65100D02*
X79172D01*
X77400Y63328D02*
Y66872D01*
X158400Y102328D02*
Y105872D01*
X156628Y104100D02*
X160172D01*
X235428Y230100D02*
X238972D01*
X237200Y228328D02*
Y231872D01*
X132897Y233825D02*
Y237368D01*
X131125Y235597D02*
X134669D01*
X109750Y203928D02*
Y207471D01*
X107978Y205699D02*
X111522D01*
X99449Y160228D02*
Y163772D01*
X97677Y162000D02*
X101220D01*
X89750Y171528D02*
Y175072D01*
X87978Y173300D02*
X91521D01*
X3928Y217050D02*
X7472D01*
X5700Y215278D02*
Y218821D01*
X94119Y185429D02*
Y188972D01*
X92347Y187200D02*
X95891D01*
X104328Y90550D02*
X107872D01*
X106100Y88778D02*
Y92321D01*
X89628Y89850D02*
X93172D01*
X91400Y88078D02*
Y91621D01*
X264328Y185500D02*
X267872D01*
X266100Y183728D02*
Y187272D01*
X94178Y52000D02*
X97721D01*
X95950Y50228D02*
Y53772D01*
X86700Y56578D02*
Y60121D01*
X84928Y58350D02*
X88472D01*
X100678Y57400D02*
X104221D01*
X102450Y55628D02*
Y59172D01*
X252628Y205150D02*
X256172D01*
X254400Y203378D02*
Y206921D01*
X299328Y177600D02*
X302872D01*
X301100Y175828D02*
Y179372D01*
X69647Y152778D02*
Y156322D01*
X67876Y154550D02*
X71419D01*
X219528Y84600D02*
X223072D01*
X221300Y82828D02*
Y86372D01*
Y97328D02*
Y100872D01*
X219528Y99100D02*
X223072D01*
X300431Y227900D02*
X304368D01*
X302400Y225932D02*
Y229869D01*
X5925Y240550D02*
X9862D01*
X7894Y238582D02*
Y242519D01*
D16*
X35150Y73650D02*
X36250D01*
Y73450D02*
Y73650D01*
Y73450D02*
X51750D01*
Y73650D01*
X52850D01*
X35150Y64150D02*
Y73650D01*
Y64150D02*
X36250D01*
Y64350D01*
X51750D01*
Y64150D02*
Y64350D01*
Y64150D02*
X52850D01*
Y73650D01*
X126450Y77500D02*
X133950D01*
Y72600D02*
Y77500D01*
Y72600D02*
X137620D01*
Y68600D02*
Y72600D01*
X133950Y68600D02*
X137620D01*
X133950Y63700D02*
Y68600D01*
X126450Y63700D02*
X133950D01*
X126450D02*
Y64860D01*
Y76340D02*
Y77500D01*
X122780Y64860D02*
X126450D01*
X122780Y76340D02*
X126450D01*
X122780Y64860D02*
Y76340D01*
X126950Y95700D02*
X134450D01*
Y90800D02*
Y95700D01*
Y90800D02*
X138120D01*
Y86800D02*
Y90800D01*
X134450Y86800D02*
X138120D01*
X134450Y81900D02*
Y86800D01*
X126950Y81900D02*
X134450D01*
X126950D02*
Y83060D01*
Y94540D02*
Y95700D01*
X123280Y83060D02*
X126950D01*
X123280Y94540D02*
X126950D01*
X123280Y83060D02*
Y94540D01*
X160200Y252550D02*
Y267850D01*
X160800D01*
Y273800D01*
X189600D01*
Y267850D02*
Y273800D01*
Y267850D02*
X190200D01*
Y252550D02*
Y267850D01*
X160200Y252550D02*
X160800D01*
Y246600D02*
Y252550D01*
Y246600D02*
X189600D01*
Y252550D01*
X190200D01*
D114*
X181577Y221686D02*
Y240977D01*
X166223D02*
X181577D01*
X166223Y221686D02*
Y240977D01*
Y221686D02*
X181577D01*
X319467Y170424D02*
X333325D01*
X340254D01*
Y97589D02*
Y170424D01*
X312538Y97589D02*
X340254D01*
X312538Y95621D02*
Y97589D01*
X235924Y95621D02*
X312538D01*
X235924D02*
Y172392D01*
X312538D01*
Y170424D02*
Y172392D01*
Y170424D02*
X319467D01*
X279319Y33482D02*
X295461D01*
X279319Y49624D02*
X295461D01*
Y33482D02*
Y49624D01*
X279319Y33482D02*
Y49624D01*
X56502Y224240D02*
X75803D01*
Y204949D02*
Y224240D01*
X56502Y204949D02*
X75803D01*
X56502D02*
Y224240D01*
X88997Y60097D02*
Y84703D01*
Y60097D02*
X113603D01*
Y84703D01*
X88997D02*
X113603D01*
X34707Y223043D02*
X42187D01*
X34707Y209657D02*
X42187D01*
Y223043D01*
X34707Y209657D02*
Y223043D01*
X86207Y207014D02*
Y220400D01*
X93687Y207014D02*
Y220400D01*
X86207Y207014D02*
X93687D01*
X86207Y220400D02*
X93687D01*
X94107Y207014D02*
Y220400D01*
X101587Y207014D02*
Y220400D01*
X94107Y207014D02*
X101587D01*
X94107Y220400D02*
X101587D01*
X128687Y233957D02*
Y247343D01*
X121207Y233957D02*
Y247343D01*
X128687D01*
X121207Y233957D02*
X128687D01*
X113507D02*
X120987D01*
X113507Y247343D02*
X120987D01*
X113507Y233957D02*
Y247343D01*
X120987Y233957D02*
Y247343D01*
X113287Y233957D02*
Y247343D01*
X105807Y233957D02*
Y247343D01*
X113287D01*
X105807Y233957D02*
X113287D01*
X105587D02*
Y247343D01*
X98107Y233957D02*
Y247343D01*
X105587D01*
X98107Y233957D02*
X105587D01*
X97887Y233857D02*
Y247243D01*
X90407Y233857D02*
Y247243D01*
X97887D01*
X90407Y233857D02*
X97887D01*
X24487Y234057D02*
Y247443D01*
X17007Y234057D02*
Y247443D01*
X24487D01*
X17007Y234057D02*
X24487D01*
X32187D02*
Y247443D01*
X24707Y234057D02*
Y247443D01*
X32187D01*
X24707Y234057D02*
X32187D01*
X39887D02*
Y247443D01*
X32407Y234057D02*
Y247443D01*
X39887D01*
X32407Y234057D02*
X39887D01*
X27007Y209714D02*
Y223100D01*
X34487Y209714D02*
Y223100D01*
X27007Y209714D02*
X34487D01*
X27007Y223100D02*
X34487D01*
X44954Y187010D02*
X58340D01*
X44954Y194490D02*
X58340D01*
Y187010D02*
Y194490D01*
X44954Y187010D02*
Y194490D01*
X44998Y179710D02*
X58384D01*
X44998Y187190D02*
X58384D01*
Y179710D02*
Y187190D01*
X44998Y179710D02*
Y187190D01*
X283512Y18607D02*
Y31993D01*
X276031Y18607D02*
Y31993D01*
X283512D01*
X276031Y18607D02*
X283512D01*
X265673Y39676D02*
X274025Y48027D01*
X261775Y43573D02*
X265673Y39676D01*
X270127Y51925D02*
X274025Y48027D01*
X261775Y43573D02*
X270127Y51925D01*
X21132Y210782D02*
Y222318D01*
X26762Y210782D02*
Y222318D01*
X21132D02*
X26762D01*
X21132Y210782D02*
X26762D01*
X86847Y219435D02*
Y225065D01*
X75311Y219435D02*
Y225065D01*
X86847D01*
X75311Y219435D02*
X86847D01*
X72732Y142182D02*
Y153718D01*
X78362Y142182D02*
Y153718D01*
X72732D02*
X78362D01*
X72732Y142182D02*
X78362D01*
X15232Y210782D02*
X20862D01*
X15232Y222318D02*
X20862D01*
Y210782D02*
Y222318D01*
X15232Y210782D02*
Y222318D01*
X277015Y67832D02*
Y79368D01*
X271385Y67832D02*
Y79368D01*
Y67832D02*
X277015D01*
X271385Y79368D02*
X277015D01*
X84875Y38086D02*
Y49621D01*
X90505Y38086D02*
Y49621D01*
X84875D02*
X90505D01*
X84875Y38086D02*
X90505D01*
X71075Y37754D02*
X76705D01*
X71075Y49290D02*
X76705D01*
Y37754D02*
Y49290D01*
X71075Y37754D02*
Y49290D01*
X77385Y81968D02*
X83015D01*
X77385Y70432D02*
X83015D01*
X77385D02*
Y81968D01*
X83015Y70432D02*
Y81968D01*
X72385Y82168D02*
X78015D01*
X72385Y70632D02*
X78015D01*
X72385D02*
Y82168D01*
X78015Y70632D02*
Y82168D01*
X173285Y210332D02*
Y221868D01*
X178915Y210332D02*
Y221868D01*
X173285D02*
X178915D01*
X173285Y210332D02*
X178915D01*
X294532Y182785D02*
Y188415D01*
X306068Y182785D02*
Y188415D01*
X294532Y182785D02*
X306068D01*
X294532Y188415D02*
X306068D01*
X284957Y20432D02*
Y31968D01*
X290587Y20432D02*
Y31968D01*
X284957D02*
X290587D01*
X284957Y20432D02*
X290587D01*
X84962Y225551D02*
Y237086D01*
X79332Y225551D02*
Y237086D01*
Y225551D02*
X84962D01*
X79332Y237086D02*
X84962D01*
X149185Y222032D02*
X154815D01*
X149185Y233568D02*
X154815D01*
Y222032D02*
Y233568D01*
X149185Y222032D02*
Y233568D01*
X210885Y241668D02*
X216515D01*
X210885Y230132D02*
X216515D01*
X210885D02*
Y241668D01*
X216515Y230132D02*
Y241668D01*
X201885Y241768D02*
X207515D01*
X201885Y230232D02*
X207515D01*
X201885D02*
Y241768D01*
X207515Y230232D02*
Y241768D01*
X192885Y241868D02*
X198515D01*
X192885Y230332D02*
X198515D01*
X192885D02*
Y241868D01*
X198515Y230332D02*
Y241868D01*
X68679Y260235D02*
X80215D01*
X68679Y265865D02*
X80215D01*
X68679Y260235D02*
Y265865D01*
X80215Y260235D02*
Y265865D01*
X17764Y200985D02*
X29299D01*
X17764Y206615D02*
X29299D01*
X17764Y200985D02*
Y206615D01*
X29299Y200985D02*
Y206615D01*
X49532Y257618D02*
X55162D01*
X49532Y246082D02*
X55162D01*
X49532D02*
Y257618D01*
X55162Y246082D02*
Y257618D01*
X45982Y238518D02*
X51612D01*
X45982Y226982D02*
X51612D01*
X45982D02*
Y238518D01*
X51612Y226982D02*
Y238518D01*
X45011Y173735D02*
X56546D01*
X45011Y179365D02*
X56546D01*
X45011Y173735D02*
Y179365D01*
X56546Y173735D02*
Y179365D01*
X249032Y246715D02*
X260568D01*
X249032Y241085D02*
X260568D01*
Y246715D01*
X249032Y241085D02*
Y246715D01*
X294932Y196415D02*
X306468D01*
X294932Y190785D02*
X306468D01*
Y196415D01*
X294932Y190785D02*
Y196415D01*
X92942Y225894D02*
X104753D01*
X92942D02*
Y231406D01*
X104753Y225894D02*
Y231406D01*
X92942D02*
X104753D01*
X93891Y194245D02*
Y206056D01*
X99403D01*
X93891Y194245D02*
X99403D01*
Y206056D01*
X93176Y194213D02*
Y206024D01*
X87665Y194213D02*
X93176D01*
X87665Y206024D02*
X93176D01*
X87665Y194213D02*
Y206024D01*
X271534Y197638D02*
X281967D01*
X271534Y202362D02*
X281967D01*
Y197638D02*
Y202362D01*
X271534Y197638D02*
Y202362D01*
X227938Y260366D02*
X232662D01*
X227938Y249933D02*
X232662D01*
Y260366D01*
X227938Y249933D02*
Y260366D01*
X26931Y230212D02*
X37364D01*
X26931Y225488D02*
X37364D01*
X26931D02*
Y230212D01*
X37364Y225488D02*
Y230212D01*
X40513Y172637D02*
X63781D01*
X40513Y161063D02*
X63781D01*
X40513D02*
Y172637D01*
X63781Y161063D02*
Y172637D01*
X105413Y212263D02*
Y223837D01*
X128681Y212263D02*
Y223837D01*
X105413D02*
X128681D01*
X105413Y212263D02*
X128681D01*
X21172Y45105D02*
Y78569D01*
X-4635Y43235D02*
Y80439D01*
X-1565Y78569D01*
X21172D01*
X-4635Y43235D02*
X-1565Y45105D01*
X21172D01*
X300913Y53534D02*
X312487D01*
X300913Y30266D02*
X312487D01*
Y53534D01*
X300913Y30266D02*
Y53534D01*
X68376Y46666D02*
Y61863D01*
X54439D02*
X68376D01*
X54439Y46666D02*
Y61863D01*
Y46666D02*
X68376D01*
X294694Y203256D02*
X306505D01*
Y197744D02*
Y203256D01*
X294694Y197744D02*
Y203256D01*
Y197744D02*
X306505D01*
X227544Y230494D02*
Y242305D01*
X233056D01*
X227544Y230494D02*
X233056D01*
Y242305D01*
X198995Y223805D02*
X210806D01*
Y218294D02*
Y223805D01*
X198995Y218294D02*
Y223805D01*
Y218294D02*
X210806D01*
X226256Y224195D02*
Y236005D01*
X220744Y224195D02*
X226256D01*
X220744Y236005D02*
X226256D01*
X220744Y224195D02*
Y236005D01*
X198456Y216494D02*
Y228306D01*
X192944Y216494D02*
X198456D01*
X192944Y228306D02*
X198456D01*
X192944Y216494D02*
Y228306D01*
X85263Y181345D02*
Y193156D01*
X90775D01*
X85263Y181345D02*
X90775D01*
Y193156D01*
X75442Y198994D02*
X87253D01*
X75442D02*
Y204506D01*
X87253Y198994D02*
Y204506D01*
X75442D02*
X87253D01*
X18544Y195444D02*
X30355D01*
X18544D02*
Y200956D01*
X30355Y195444D02*
Y200956D01*
X18544D02*
X30355D01*
X82294Y168356D02*
X94105D01*
Y162844D02*
Y168356D01*
X82294Y162844D02*
Y168356D01*
Y162844D02*
X94105D01*
X71844Y172056D02*
X83655D01*
Y166544D02*
Y172056D01*
X71844Y166544D02*
Y172056D01*
Y166544D02*
X83655D01*
X182144Y69144D02*
X193955D01*
X182144D02*
Y74656D01*
X193955Y69144D02*
Y74656D01*
X182144D02*
X193955D01*
X124995Y103956D02*
X136805D01*
Y98444D02*
Y103956D01*
X124995Y98444D02*
Y103956D01*
Y98444D02*
X136805D01*
X101495Y109656D02*
X113305D01*
Y104144D02*
Y109656D01*
X101495Y104144D02*
Y109656D01*
Y104144D02*
X113305D01*
X80156Y59194D02*
Y71005D01*
X74644Y59194D02*
X80156D01*
X74644Y71005D02*
X80156D01*
X74644Y59194D02*
Y71005D01*
X152495Y101344D02*
X164305D01*
X152495D02*
Y106856D01*
X164305Y101344D02*
Y106856D01*
X152495D02*
X164305D01*
X234444Y224195D02*
Y236005D01*
X239956D01*
X234444Y224195D02*
X239956D01*
Y236005D01*
X126991Y238352D02*
X138802D01*
Y232841D02*
Y238352D01*
X126991Y232841D02*
Y238352D01*
Y232841D02*
X138802D01*
X106994Y199794D02*
Y211605D01*
X112506D01*
X106994Y199794D02*
X112506D01*
Y211605D01*
X93543Y164756D02*
X105354D01*
Y159244D02*
Y164756D01*
X93543Y159244D02*
Y164756D01*
Y159244D02*
X105354D01*
X83844Y176056D02*
X95655D01*
Y170544D02*
Y176056D01*
X83844Y170544D02*
Y176056D01*
Y170544D02*
X95655D01*
X8456Y211144D02*
Y222955D01*
X2944Y211144D02*
X8456D01*
X2944Y222955D02*
X8456D01*
X2944Y211144D02*
Y222955D01*
X91363Y181295D02*
Y193106D01*
X96875D01*
X91363Y181295D02*
X96875D01*
Y193106D01*
X103344Y84644D02*
Y96455D01*
X108856D01*
X103344Y84644D02*
X108856D01*
Y96455D01*
X88644Y83944D02*
Y95755D01*
X94156D01*
X88644Y83944D02*
X94156D01*
Y95755D01*
X260194Y182744D02*
X272006D01*
X260194D02*
Y188256D01*
X272006Y182744D02*
Y188256D01*
X260194D02*
X272006D01*
X90044Y49244D02*
X101855D01*
X90044D02*
Y54756D01*
X101855Y49244D02*
Y54756D01*
X90044D02*
X101855D01*
X83944Y52444D02*
Y64255D01*
X89456D01*
X83944Y52444D02*
X89456D01*
Y64255D01*
X96544Y60156D02*
X108355D01*
Y54644D02*
Y60156D01*
X96544Y54644D02*
Y60156D01*
Y54644D02*
X108355D01*
X257156Y199244D02*
Y211055D01*
X251644Y199244D02*
X257156D01*
X251644Y211055D02*
X257156D01*
X251644Y199244D02*
Y211055D01*
X295195Y180356D02*
X307006D01*
Y174844D02*
Y180356D01*
X295195Y174844D02*
Y180356D01*
Y174844D02*
X307006D01*
X72403Y148645D02*
Y160456D01*
X66891Y148645D02*
X72403D01*
X66891Y160456D02*
X72403D01*
X66891Y148645D02*
Y160456D01*
X215394Y81844D02*
X227205D01*
X215394D02*
Y87356D01*
X227205Y81844D02*
Y87356D01*
X215394D02*
X227205D01*
X215394Y101856D02*
X227205D01*
Y96344D02*
Y101856D01*
X215394Y96344D02*
Y101856D01*
Y96344D02*
X227205D01*
X296613Y239534D02*
X308187D01*
X296613Y216266D02*
X308187D01*
Y239534D01*
X296613Y216266D02*
Y239534D01*
X2106Y252184D02*
X13681D01*
X2106Y228916D02*
X13681D01*
Y252184D01*
X2106Y228916D02*
Y252184D01*
M02*
