G04*
G04 #@! TF.GenerationSoftware,Altium Limited,Altium Designer,25.8.1 (18)*
G04*
G04 Layer_Physical_Order=2*
G04 Layer_Color=16711680*
%FSLAX25Y25*%
%MOIN*%
G70*
G04*
G04 #@! TF.SameCoordinates,64F7C8A9-438D-4F9F-9055-C3E4DFCE694A*
G04*
G04*
G04 #@! TF.FilePolarity,Positive*
G04*
G01*
G75*
%ADD14C,0.01000*%
%ADD16C,0.00600*%
%ADD97C,0.01091*%
%ADD99C,0.01968*%
%ADD100C,0.06299*%
%ADD101R,0.07480X0.07480*%
%ADD102C,0.18000*%
%ADD103O,0.06102X0.03950*%
%ADD104O,0.03500X0.05118*%
%ADD105R,0.06299X0.06299*%
%ADD106C,0.02000*%
%ADD107R,0.06299X0.06299*%
%ADD108C,0.04000*%
G36*
X314082Y918D02*
X918D01*
Y275882D01*
X314082D01*
Y918D01*
D02*
G37*
%LPC*%
G36*
X290535Y274498D02*
X286295D01*
Y270258D01*
X290535D01*
Y274498D01*
D02*
G37*
G36*
X285295D02*
X281055D01*
Y270258D01*
X285295D01*
Y274498D01*
D02*
G37*
G36*
X264945D02*
X260705D01*
Y270258D01*
X264945D01*
Y274498D01*
D02*
G37*
G36*
X259705D02*
X255465D01*
Y270258D01*
X259705D01*
Y274498D01*
D02*
G37*
G36*
X304085Y274600D02*
X303600D01*
Y265100D01*
X313100D01*
Y265585D01*
X312716Y267517D01*
X311962Y269337D01*
X310868Y270975D01*
X309475Y272368D01*
X307837Y273462D01*
X306017Y274216D01*
X304085Y274600D01*
D02*
G37*
G36*
X302600D02*
X302115D01*
X300183Y274216D01*
X298363Y273462D01*
X296725Y272368D01*
X295333Y270975D01*
X294238Y269337D01*
X293484Y267517D01*
X293100Y265585D01*
Y265100D01*
X302600D01*
Y274600D01*
D02*
G37*
G36*
X290535Y269258D02*
X286295D01*
Y265018D01*
X290535D01*
Y269258D01*
D02*
G37*
G36*
X285295D02*
X281055D01*
Y265018D01*
X285295D01*
Y269258D01*
D02*
G37*
G36*
X264945Y269258D02*
X260705D01*
Y265018D01*
X264945D01*
Y269258D01*
D02*
G37*
G36*
X259705D02*
X255465D01*
Y265018D01*
X259705D01*
Y269258D01*
D02*
G37*
G36*
X12985Y274300D02*
X12500D01*
Y264800D01*
X22000D01*
Y265285D01*
X21616Y267217D01*
X20862Y269037D01*
X19768Y270675D01*
X18375Y272067D01*
X16737Y273162D01*
X14917Y273916D01*
X12985Y274300D01*
D02*
G37*
G36*
X11500D02*
X11015D01*
X9083Y273916D01*
X7263Y273162D01*
X5625Y272067D01*
X4233Y270675D01*
X3138Y269037D01*
X2384Y267217D01*
X2000Y265285D01*
Y264800D01*
X11500D01*
Y274300D01*
D02*
G37*
G36*
X313100Y264100D02*
X303600D01*
Y254600D01*
X304085D01*
X306017Y254984D01*
X307837Y255738D01*
X309475Y256833D01*
X310868Y258225D01*
X311962Y259863D01*
X312716Y261683D01*
X313100Y263615D01*
Y264100D01*
D02*
G37*
G36*
X302600D02*
X293100D01*
Y263615D01*
X293484Y261683D01*
X294238Y259863D01*
X295333Y258225D01*
X296725Y256833D01*
X298363Y255738D01*
X300183Y254984D01*
X302115Y254600D01*
X302600D01*
Y264100D01*
D02*
G37*
G36*
X22000Y263800D02*
X12500D01*
Y254300D01*
X12985D01*
X14917Y254684D01*
X16737Y255438D01*
X18375Y256533D01*
X19768Y257925D01*
X20862Y259563D01*
X21616Y261383D01*
X22000Y263315D01*
Y263800D01*
D02*
G37*
G36*
X11500D02*
X2000D01*
Y263315D01*
X2384Y261383D01*
X3138Y259563D01*
X4233Y257925D01*
X5625Y256533D01*
X7263Y255438D01*
X9083Y254684D01*
X11015Y254300D01*
X11500D01*
Y263800D01*
D02*
G37*
G36*
X289935Y256182D02*
X281655D01*
Y247902D01*
X289935D01*
Y256182D01*
D02*
G37*
G36*
X264345D02*
X256065D01*
Y247902D01*
X264345D01*
Y256182D01*
D02*
G37*
G36*
X8440Y249700D02*
X8394D01*
Y246050D01*
X12043D01*
Y246096D01*
X11761Y247152D01*
X11214Y248098D01*
X10442Y248871D01*
X9495Y249417D01*
X8440Y249700D01*
D02*
G37*
G36*
X7394D02*
X7347D01*
X6292Y249417D01*
X5346Y248871D01*
X4573Y248098D01*
X4027Y247152D01*
X3744Y246096D01*
Y246050D01*
X7394D01*
Y249700D01*
D02*
G37*
G36*
X12043Y245050D02*
X8394D01*
Y241401D01*
X8440D01*
X9495Y241683D01*
X10442Y242230D01*
X11214Y243002D01*
X11761Y243948D01*
X12043Y245004D01*
Y245050D01*
D02*
G37*
G36*
X7394D02*
X3744D01*
Y245004D01*
X4027Y243948D01*
X4573Y243002D01*
X5346Y242230D01*
X6292Y241683D01*
X7347Y241401D01*
X7394D01*
Y245050D01*
D02*
G37*
G36*
X176368Y237209D02*
Y235769D01*
X177809D01*
X177551Y236392D01*
X176992Y236951D01*
X176368Y237209D01*
D02*
G37*
G36*
X171432D02*
X170808Y236951D01*
X170249Y236392D01*
X169991Y235769D01*
X171432D01*
Y237209D01*
D02*
G37*
G36*
X302946Y237050D02*
X302900D01*
Y233400D01*
X306550D01*
Y233446D01*
X306267Y234502D01*
X305720Y235448D01*
X304948Y236221D01*
X304002Y236767D01*
X302946Y237050D01*
D02*
G37*
G36*
X301900D02*
X301854D01*
X300798Y236767D01*
X299852Y236221D01*
X299079Y235448D01*
X298533Y234502D01*
X298250Y233446D01*
Y233400D01*
X301900D01*
Y237050D01*
D02*
G37*
G36*
X11443Y239100D02*
X4344D01*
Y232000D01*
X11443D01*
Y239100D01*
D02*
G37*
G36*
X306550Y232400D02*
X302900D01*
Y228750D01*
X302946D01*
X304002Y229033D01*
X304948Y229579D01*
X305720Y230352D01*
X306267Y231298D01*
X306550Y232354D01*
Y232400D01*
D02*
G37*
G36*
X301900D02*
X298250D01*
Y232354D01*
X298533Y231298D01*
X299079Y230352D01*
X299852Y229579D01*
X300798Y229033D01*
X301854Y228750D01*
X301900D01*
Y232400D01*
D02*
G37*
G36*
X177809Y226894D02*
X176368D01*
Y225454D01*
X176992Y225712D01*
X177551Y226271D01*
X177809Y226894D01*
D02*
G37*
G36*
X172432Y237209D02*
Y235268D01*
X171932D01*
Y234769D01*
X169991D01*
X170249Y234144D01*
X170753Y233641D01*
X170783Y233300D01*
X170753Y232959D01*
X170249Y232455D01*
X169991Y231832D01*
X171932D01*
Y230832D01*
X169991D01*
X170249Y230207D01*
X170753Y229704D01*
X170783Y229363D01*
X170753Y229022D01*
X170249Y228519D01*
X169991Y227894D01*
X171932D01*
Y227395D01*
X172432D01*
Y225454D01*
X173056Y225712D01*
X173559Y226216D01*
X173900Y226246D01*
X174241Y226216D01*
X174744Y225712D01*
X175368Y225454D01*
Y227395D01*
X175868D01*
Y227894D01*
X177809D01*
X177551Y228519D01*
X177047Y229022D01*
X177017Y229363D01*
X177047Y229704D01*
X177551Y230207D01*
X177809Y230832D01*
X175868D01*
Y231832D01*
X177809D01*
X177551Y232455D01*
X177047Y232959D01*
X177017Y233300D01*
X177047Y233641D01*
X177551Y234144D01*
X177809Y234769D01*
X175868D01*
Y235268D01*
X175368D01*
Y237209D01*
X174744Y236951D01*
X174241Y236447D01*
X173900Y236417D01*
X173559Y236447D01*
X173056Y236951D01*
X172432Y237209D01*
D02*
G37*
G36*
X171432Y226894D02*
X169991D01*
X170249Y226271D01*
X170808Y225712D01*
X171432Y225454D01*
Y226894D01*
D02*
G37*
G36*
X305950Y226450D02*
X298850D01*
Y219350D01*
X305950D01*
Y226450D01*
D02*
G37*
G36*
X126197Y222200D02*
X122547D01*
Y218550D01*
X126197D01*
Y222200D01*
D02*
G37*
G36*
X121547D02*
X117898D01*
Y218550D01*
X121547D01*
Y222200D01*
D02*
G37*
G36*
X164778Y223000D02*
X164222D01*
X163707Y222787D01*
X163313Y222393D01*
X163100Y221879D01*
Y221322D01*
X163313Y220807D01*
X163686Y220434D01*
Y218461D01*
X163507Y218387D01*
X163113Y217993D01*
X162900Y217478D01*
Y216921D01*
X163113Y216407D01*
X163507Y216013D01*
X164022Y215800D01*
X164578D01*
X165093Y216013D01*
X165487Y216407D01*
X165700Y216921D01*
Y217478D01*
X165487Y217993D01*
X165114Y218366D01*
Y220339D01*
X165293Y220413D01*
X165687Y220807D01*
X165900Y221322D01*
Y221879D01*
X165687Y222393D01*
X165293Y222787D01*
X164778Y223000D01*
D02*
G37*
G36*
X50693Y224934D02*
X50136D01*
X49621Y224721D01*
X49228Y224327D01*
X49014Y223813D01*
Y223256D01*
X49228Y222741D01*
X49621Y222347D01*
X49693Y222318D01*
Y218310D01*
X49606Y218274D01*
X49212Y217880D01*
X48999Y217365D01*
Y216809D01*
X49212Y216294D01*
X49606Y215900D01*
X50121Y215687D01*
X50678D01*
X51192Y215900D01*
X51586Y216294D01*
X51799Y216809D01*
Y217365D01*
X51586Y217880D01*
X51192Y218274D01*
X51121Y218303D01*
Y222311D01*
X51208Y222347D01*
X51601Y222741D01*
X51814Y223256D01*
Y223813D01*
X51601Y224327D01*
X51208Y224721D01*
X50693Y224934D01*
D02*
G37*
G36*
X28957Y224539D02*
X28400D01*
X27886Y224326D01*
X27492Y223932D01*
X27279Y223418D01*
Y222861D01*
X27492Y222346D01*
X27886Y221952D01*
X28400Y221739D01*
X28678D01*
Y217905D01*
X28598Y217872D01*
X28205Y217478D01*
X27991Y216964D01*
Y216407D01*
X28205Y215892D01*
X28598Y215498D01*
X29113Y215285D01*
X29670D01*
X30184Y215498D01*
X30578Y215892D01*
X30791Y216407D01*
Y216964D01*
X30578Y217478D01*
X30184Y217872D01*
X30105Y217905D01*
Y222088D01*
X30051Y222361D01*
X29940Y222526D01*
X30079Y222861D01*
Y223418D01*
X29866Y223932D01*
X29472Y224326D01*
X28957Y224539D01*
D02*
G37*
G36*
X112515Y221600D02*
X111580D01*
X110677Y221358D01*
X109868Y220890D01*
X109207Y220230D01*
X108740Y219420D01*
X108498Y218517D01*
Y217583D01*
X108740Y216680D01*
X109207Y215871D01*
X109868Y215210D01*
X110677Y214742D01*
X111580Y214500D01*
X112515D01*
X113417Y214742D01*
X114227Y215210D01*
X114888Y215871D01*
X115355Y216680D01*
X115597Y217583D01*
Y218517D01*
X115355Y219420D01*
X114888Y220230D01*
X114227Y220890D01*
X113417Y221358D01*
X112515Y221600D01*
D02*
G37*
G36*
X126197Y217550D02*
X122547D01*
Y213900D01*
X126197D01*
Y217550D01*
D02*
G37*
G36*
X121547D02*
X117898D01*
Y213900D01*
X121547D01*
Y217550D01*
D02*
G37*
G36*
X91504Y222450D02*
X90947D01*
X90433Y222237D01*
X90039Y221843D01*
X89826Y221329D01*
Y220772D01*
X90039Y220257D01*
X90433Y219863D01*
X90947Y219650D01*
X91504D01*
X91584Y219683D01*
X92391Y218875D01*
Y215574D01*
X92446Y215301D01*
X92464Y215274D01*
X92300Y214879D01*
Y214321D01*
X92513Y213807D01*
X92907Y213413D01*
X93422Y213200D01*
X93979D01*
X94493Y213413D01*
X94887Y213807D01*
X95100Y214321D01*
Y214879D01*
X94887Y215393D01*
X94493Y215787D01*
X93979Y216000D01*
X93819D01*
Y219171D01*
X93764Y219444D01*
X93610Y219675D01*
X92593Y220692D01*
X92626Y220772D01*
Y221329D01*
X92413Y221843D01*
X92019Y222237D01*
X91504Y222450D01*
D02*
G37*
G36*
X82086Y215407D02*
X81529D01*
X81015Y215194D01*
X80621Y214800D01*
X80408Y214285D01*
Y213728D01*
X80621Y213214D01*
X81015Y212820D01*
X81170Y212756D01*
Y212596D01*
X81225Y212323D01*
X81379Y212091D01*
X84326Y209145D01*
X84293Y209065D01*
Y208508D01*
X84506Y207994D01*
X84900Y207600D01*
X85415Y207387D01*
X85971D01*
X86486Y207600D01*
X86880Y207994D01*
X87093Y208508D01*
Y209065D01*
X86880Y209580D01*
X86486Y209974D01*
X85971Y210187D01*
X85415D01*
X85335Y210154D01*
X82635Y212854D01*
X82995Y213214D01*
X83208Y213728D01*
Y214285D01*
X82995Y214800D01*
X82601Y215194D01*
X82086Y215407D01*
D02*
G37*
G36*
X79204Y209946D02*
X78647D01*
X78132Y209733D01*
X77738Y209339D01*
X77525Y208824D01*
Y208334D01*
X76359Y207168D01*
X76205Y206937D01*
X76184Y206833D01*
X75408Y206057D01*
X75043D01*
X74529Y205844D01*
X74135Y205450D01*
X73922Y204936D01*
Y204379D01*
X74135Y203864D01*
X74529Y203470D01*
X75043Y203257D01*
X75600D01*
X76115Y203470D01*
X76509Y203864D01*
X76722Y204379D01*
Y204936D01*
X76600Y205231D01*
X77369Y205999D01*
X77523Y206231D01*
X77544Y206334D01*
X78441Y207231D01*
X78647Y207146D01*
X79204D01*
X79718Y207359D01*
X80112Y207753D01*
X80325Y208267D01*
Y208824D01*
X80112Y209339D01*
X79718Y209733D01*
X79204Y209946D01*
D02*
G37*
G36*
X85813Y215522D02*
X85256D01*
X84741Y215308D01*
X84347Y214915D01*
X84134Y214400D01*
Y213843D01*
X84347Y213329D01*
X84741Y212935D01*
X85256Y212722D01*
X85813D01*
X85892Y212755D01*
X91151Y207495D01*
X91383Y207341D01*
X91656Y207286D01*
X92580D01*
X92613Y207207D01*
X93007Y206813D01*
X93521Y206600D01*
X94078D01*
X94593Y206813D01*
X94987Y207207D01*
X95200Y207721D01*
Y208278D01*
X94987Y208793D01*
X94593Y209187D01*
X94078Y209400D01*
X93521D01*
X93007Y209187D01*
X92613Y208793D01*
X92580Y208714D01*
X91951D01*
X86901Y213764D01*
X86934Y213843D01*
Y214400D01*
X86721Y214915D01*
X86327Y215308D01*
X85813Y215522D01*
D02*
G37*
G36*
X78579Y217600D02*
X78022D01*
X77507Y217387D01*
X77113Y216993D01*
X76900Y216478D01*
Y215921D01*
X77113Y215407D01*
X77507Y215013D01*
X77586Y214980D01*
Y213200D01*
X77641Y212927D01*
X77795Y212695D01*
X81686Y208804D01*
Y208161D01*
X81507Y208087D01*
X81113Y207693D01*
X80900Y207178D01*
Y206622D01*
X81113Y206107D01*
X81507Y205713D01*
X82021Y205500D01*
X82578D01*
X83093Y205713D01*
X83487Y206107D01*
X83700Y206622D01*
Y207178D01*
X83487Y207693D01*
X83114Y208066D01*
Y209100D01*
X83059Y209373D01*
X82905Y209605D01*
X79014Y213496D01*
Y214980D01*
X79093Y215013D01*
X79487Y215407D01*
X79700Y215921D01*
Y216478D01*
X79487Y216993D01*
X79093Y217387D01*
X78579Y217600D01*
D02*
G37*
G36*
X100979Y214200D02*
X100422D01*
X99907Y213987D01*
X99513Y213593D01*
X99300Y213078D01*
Y212522D01*
X99513Y212007D01*
X99907Y211613D01*
X100422Y211400D01*
X100979D01*
X101058Y211433D01*
X101686Y210804D01*
Y207020D01*
X101607Y206987D01*
X101213Y206593D01*
X101000Y206079D01*
Y205521D01*
X101213Y205007D01*
X101607Y204613D01*
X102121Y204400D01*
X102679D01*
X103193Y204613D01*
X103587Y205007D01*
X103800Y205521D01*
Y206079D01*
X103587Y206593D01*
X103193Y206987D01*
X103114Y207020D01*
Y211100D01*
X103059Y211373D01*
X102905Y211605D01*
X102067Y212442D01*
X102100Y212522D01*
Y213078D01*
X101887Y213593D01*
X101493Y213987D01*
X100979Y214200D01*
D02*
G37*
G36*
X288679Y213100D02*
X288122D01*
X287607Y212887D01*
X287213Y212493D01*
X287000Y211979D01*
Y211421D01*
X287213Y210907D01*
X287607Y210513D01*
X287786Y210439D01*
Y205566D01*
X287413Y205193D01*
X287200Y204679D01*
Y204121D01*
X287413Y203607D01*
X287807Y203213D01*
X288321Y203000D01*
X288878D01*
X289393Y203213D01*
X289787Y203607D01*
X290000Y204121D01*
Y204679D01*
X289787Y205193D01*
X289393Y205587D01*
X289214Y205661D01*
Y210534D01*
X289587Y210907D01*
X289800Y211421D01*
Y211979D01*
X289587Y212493D01*
X289193Y212887D01*
X288679Y213100D01*
D02*
G37*
G36*
X52381Y202765D02*
X51824D01*
X51310Y202552D01*
X50916Y202158D01*
X50772Y201811D01*
X50396D01*
X50122Y201757D01*
X49891Y201602D01*
X49044Y200755D01*
X45905D01*
X45872Y200834D01*
X45478Y201228D01*
X44963Y201441D01*
X44407D01*
X43892Y201228D01*
X43498Y200834D01*
X43285Y200320D01*
Y199763D01*
X43498Y199248D01*
X43892Y198854D01*
X44407Y198641D01*
X44963D01*
X45478Y198854D01*
X45872Y199248D01*
X45905Y199327D01*
X49339D01*
X49613Y199382D01*
X49844Y199536D01*
X50691Y200383D01*
X51104D01*
X51310Y200178D01*
X51824Y199965D01*
X52381D01*
X52896Y200178D01*
X53290Y200572D01*
X53503Y201087D01*
Y201644D01*
X53290Y202158D01*
X52896Y202552D01*
X52381Y202765D01*
D02*
G37*
G36*
X291078Y201300D02*
X290522D01*
X290007Y201087D01*
X289613Y200693D01*
X289462Y200328D01*
X289392Y200314D01*
X287120D01*
X287087Y200393D01*
X286693Y200787D01*
X286178Y201000D01*
X285622D01*
X285107Y200787D01*
X284713Y200393D01*
X284500Y199879D01*
Y199321D01*
X284713Y198807D01*
X285107Y198413D01*
X285622Y198200D01*
X286178D01*
X286693Y198413D01*
X287087Y198807D01*
X287120Y198886D01*
X289521D01*
X289683Y198918D01*
X289802D01*
X290007Y198713D01*
X290522Y198500D01*
X291078D01*
X291593Y198713D01*
X291987Y199107D01*
X292200Y199621D01*
Y200179D01*
X291987Y200693D01*
X291593Y201087D01*
X291078Y201300D01*
D02*
G37*
G36*
X30863Y202450D02*
X30306D01*
X29791Y202237D01*
X29397Y201843D01*
X29184Y201328D01*
Y200771D01*
X29397Y200257D01*
X29791Y199863D01*
X30306Y199650D01*
X30863D01*
X31377Y199863D01*
X31771Y200257D01*
X31984Y200771D01*
Y201328D01*
X31771Y201843D01*
X31377Y202237D01*
X30863Y202450D01*
D02*
G37*
G36*
X227878Y202500D02*
X227322D01*
X226807Y202287D01*
X226413Y201893D01*
X226200Y201378D01*
Y200821D01*
X226413Y200307D01*
X226807Y199913D01*
X227322Y199700D01*
X227878D01*
X228393Y199913D01*
X228766Y200286D01*
X233439D01*
X233513Y200107D01*
X233907Y199713D01*
X234421Y199500D01*
X234979D01*
X235493Y199713D01*
X235887Y200107D01*
X236100Y200622D01*
Y201179D01*
X235887Y201693D01*
X235493Y202087D01*
X234979Y202300D01*
X234421D01*
X233907Y202087D01*
X233534Y201714D01*
X228861D01*
X228787Y201893D01*
X228393Y202287D01*
X227878Y202500D01*
D02*
G37*
G36*
X37078Y202300D02*
X36522D01*
X36007Y202087D01*
X35613Y201693D01*
X35400Y201179D01*
Y200622D01*
X35613Y200107D01*
X36007Y199713D01*
X36522Y199500D01*
X37078D01*
X37122Y199518D01*
X39748Y196893D01*
X39700Y196779D01*
Y196221D01*
X39913Y195707D01*
X40307Y195313D01*
X40821Y195100D01*
X41379D01*
X41893Y195313D01*
X42287Y195707D01*
X42500Y196221D01*
Y196779D01*
X42287Y197293D01*
X41893Y197687D01*
X41379Y197900D01*
X40821D01*
X40778Y197882D01*
X38153Y200507D01*
X38200Y200622D01*
Y201179D01*
X37987Y201693D01*
X37593Y202087D01*
X37078Y202300D01*
D02*
G37*
G36*
X81626Y201378D02*
X81069D01*
X80554Y201165D01*
X80160Y200771D01*
X79947Y200257D01*
Y199700D01*
X80160Y199185D01*
X80554Y198792D01*
X80634Y198759D01*
Y197025D01*
X80259Y196650D01*
X79969D01*
X79454Y196437D01*
X79060Y196043D01*
X78847Y195529D01*
Y194972D01*
X79060Y194457D01*
X79454Y194063D01*
X79969Y193850D01*
X80526D01*
X81040Y194063D01*
X81434Y194457D01*
X81647Y194972D01*
Y195529D01*
X81503Y195876D01*
X81852Y196224D01*
X82007Y196456D01*
X82061Y196729D01*
Y198759D01*
X82140Y198792D01*
X82534Y199185D01*
X82747Y199700D01*
Y200257D01*
X82534Y200771D01*
X82140Y201165D01*
X81626Y201378D01*
D02*
G37*
G36*
X60926Y200729D02*
X60369D01*
X59854Y200516D01*
X59460Y200122D01*
X59247Y199607D01*
Y199050D01*
X59460Y198536D01*
X59854Y198142D01*
X60090Y198044D01*
Y196170D01*
X59713Y195793D01*
X59500Y195279D01*
Y194721D01*
X59713Y194207D01*
X60107Y193813D01*
X60622Y193600D01*
X61178D01*
X61693Y193813D01*
X62087Y194207D01*
X62300Y194721D01*
Y195279D01*
X62087Y195793D01*
X61693Y196187D01*
X61518Y196260D01*
Y198219D01*
X61834Y198536D01*
X62047Y199050D01*
Y199607D01*
X61834Y200122D01*
X61440Y200516D01*
X60926Y200729D01*
D02*
G37*
G36*
X75720Y200394D02*
X75163D01*
X74649Y200181D01*
X74255Y199787D01*
X74042Y199273D01*
Y198716D01*
X74255Y198201D01*
X74649Y197807D01*
X74757Y197762D01*
Y195908D01*
X74707Y195887D01*
X74313Y195493D01*
X74100Y194978D01*
Y194422D01*
X74313Y193907D01*
X74707Y193513D01*
X75222Y193300D01*
X75779D01*
X76293Y193513D01*
X76687Y193907D01*
X76900Y194422D01*
Y194978D01*
X76687Y195493D01*
X76293Y195887D01*
X76185Y195932D01*
Y197787D01*
X76235Y197807D01*
X76629Y198201D01*
X76842Y198716D01*
Y199273D01*
X76629Y199787D01*
X76235Y200181D01*
X75720Y200394D01*
D02*
G37*
G36*
X72079Y200600D02*
X71522D01*
X71007Y200387D01*
X70613Y199993D01*
X70400Y199478D01*
Y198922D01*
X70613Y198407D01*
X71007Y198013D01*
X71186Y197939D01*
Y195666D01*
X70813Y195293D01*
X70600Y194779D01*
Y194221D01*
X70813Y193707D01*
X71207Y193313D01*
X71722Y193100D01*
X72278D01*
X72793Y193313D01*
X73187Y193707D01*
X73400Y194221D01*
Y194779D01*
X73187Y195293D01*
X72793Y195687D01*
X72614Y195761D01*
Y198034D01*
X72987Y198407D01*
X73200Y198922D01*
Y199478D01*
X72987Y199993D01*
X72593Y200387D01*
X72079Y200600D01*
D02*
G37*
G36*
X68278D02*
X67721D01*
X67207Y200387D01*
X66813Y199993D01*
X66600Y199478D01*
Y198922D01*
X66813Y198407D01*
X67207Y198013D01*
X67386Y197939D01*
Y195666D01*
X67013Y195293D01*
X66800Y194779D01*
Y194221D01*
X67013Y193707D01*
X67407Y193313D01*
X67922Y193100D01*
X68479D01*
X68993Y193313D01*
X69387Y193707D01*
X69600Y194221D01*
Y194779D01*
X69387Y195293D01*
X68993Y195687D01*
X68814Y195761D01*
Y198034D01*
X69187Y198407D01*
X69400Y198922D01*
Y199478D01*
X69187Y199993D01*
X68793Y200387D01*
X68278Y200600D01*
D02*
G37*
G36*
X64878Y200700D02*
X64322D01*
X63807Y200487D01*
X63413Y200093D01*
X63200Y199578D01*
Y199021D01*
X63413Y198507D01*
X63786Y198134D01*
Y195761D01*
X63607Y195687D01*
X63213Y195293D01*
X63000Y194779D01*
Y194221D01*
X63213Y193707D01*
X63607Y193313D01*
X64122Y193100D01*
X64679D01*
X65193Y193313D01*
X65587Y193707D01*
X65800Y194221D01*
Y194779D01*
X65587Y195293D01*
X65214Y195666D01*
Y198039D01*
X65393Y198113D01*
X65787Y198507D01*
X66000Y199021D01*
Y199578D01*
X65787Y200093D01*
X65393Y200487D01*
X64878Y200700D01*
D02*
G37*
G36*
X21478Y191900D02*
X20922D01*
X20407Y191687D01*
X20184Y191464D01*
X15216D01*
X14993Y191687D01*
X14479Y191900D01*
X13922D01*
X13407Y191687D01*
X13013Y191293D01*
X12800Y190779D01*
Y190222D01*
X13013Y189707D01*
X13028Y189692D01*
X13395Y189300D01*
X13028Y188908D01*
X13013Y188893D01*
X12800Y188379D01*
Y187821D01*
X13013Y187307D01*
X13407Y186913D01*
X13922Y186700D01*
X14479D01*
X14993Y186913D01*
X15216Y187136D01*
X20184D01*
X20407Y186913D01*
X20922Y186700D01*
X21478D01*
X21993Y186913D01*
X22387Y187307D01*
X22600Y187821D01*
Y188379D01*
X22387Y188893D01*
X22372Y188908D01*
X22005Y189300D01*
X22372Y189692D01*
X22387Y189707D01*
X22600Y190222D01*
Y190779D01*
X22387Y191293D01*
X21993Y191687D01*
X21478Y191900D01*
D02*
G37*
G36*
X272579D02*
X272022D01*
X271507Y191687D01*
X271113Y191293D01*
X270900Y190779D01*
Y190222D01*
X271113Y189707D01*
X271507Y189313D01*
X272022Y189100D01*
X272579D01*
X273093Y189313D01*
X273466Y189686D01*
X276139D01*
X276213Y189507D01*
X276607Y189113D01*
X277121Y188900D01*
X277678D01*
X278193Y189113D01*
X278587Y189507D01*
X278800Y190022D01*
Y190578D01*
X278587Y191093D01*
X278193Y191487D01*
X277678Y191700D01*
X277121D01*
X276607Y191487D01*
X276234Y191114D01*
X273561D01*
X273487Y191293D01*
X273093Y191687D01*
X272579Y191900D01*
D02*
G37*
G36*
X221292Y187107D02*
X220735D01*
X220220Y186894D01*
X219826Y186500D01*
X219613Y185985D01*
Y185429D01*
X219826Y184914D01*
X220220Y184520D01*
X220735Y184307D01*
X221292D01*
X221371Y184340D01*
X222824Y182887D01*
X223056Y182732D01*
X223329Y182678D01*
X223858D01*
X225292Y181244D01*
X225259Y181165D01*
Y180608D01*
X225472Y180093D01*
X225866Y179699D01*
X226380Y179486D01*
X226937D01*
X227452Y179699D01*
X227846Y180093D01*
X228059Y180608D01*
Y181165D01*
X227846Y181679D01*
X227452Y182073D01*
X226937Y182286D01*
X226380D01*
X226301Y182253D01*
X224658Y183896D01*
X224427Y184051D01*
X224154Y184105D01*
X223624D01*
X222380Y185349D01*
X222413Y185429D01*
Y185985D01*
X222200Y186500D01*
X221806Y186894D01*
X221292Y187107D01*
D02*
G37*
G36*
X57694Y171000D02*
X57647D01*
Y167350D01*
X61297D01*
Y167396D01*
X61014Y168452D01*
X60468Y169398D01*
X59695Y170171D01*
X58749Y170717D01*
X57694Y171000D01*
D02*
G37*
G36*
X56647D02*
X56601D01*
X55546Y170717D01*
X54599Y170171D01*
X53827Y169398D01*
X53280Y168452D01*
X52998Y167396D01*
Y167350D01*
X56647D01*
Y171000D01*
D02*
G37*
G36*
X50697Y170400D02*
X43598D01*
Y163301D01*
X50697D01*
Y170400D01*
D02*
G37*
G36*
X221678Y163600D02*
X221122D01*
X220607Y163387D01*
X220213Y162993D01*
X220160Y162864D01*
X215499D01*
X215487Y162893D01*
X215093Y163287D01*
X214579Y163500D01*
X214021D01*
X213507Y163287D01*
X213113Y162893D01*
X212900Y162379D01*
Y161821D01*
X213113Y161307D01*
X213507Y160913D01*
X214021Y160700D01*
X214579D01*
X215093Y160913D01*
X215487Y161307D01*
X215540Y161436D01*
X220201D01*
X220213Y161407D01*
X220607Y161013D01*
X221122Y160800D01*
X221678D01*
X222193Y161013D01*
X222587Y161407D01*
X222800Y161922D01*
Y162478D01*
X222587Y162993D01*
X222193Y163387D01*
X221678Y163600D01*
D02*
G37*
G36*
X61297Y166350D02*
X57647D01*
Y162700D01*
X57694D01*
X58749Y162983D01*
X59695Y163530D01*
X60468Y164302D01*
X61014Y165248D01*
X61297Y166304D01*
Y166350D01*
D02*
G37*
G36*
X56647D02*
X52998D01*
Y166304D01*
X53280Y165248D01*
X53827Y164302D01*
X54599Y163530D01*
X55546Y162983D01*
X56601Y162700D01*
X56647D01*
Y166350D01*
D02*
G37*
G36*
X203379Y165600D02*
X202821D01*
X202307Y165387D01*
X201913Y164993D01*
X201700Y164479D01*
Y163921D01*
X201913Y163407D01*
X202307Y163013D01*
X202386Y162980D01*
Y161206D01*
X202307Y161173D01*
X201913Y160779D01*
X201700Y160265D01*
Y159708D01*
X201913Y159193D01*
X202307Y158799D01*
X202821Y158586D01*
X203379D01*
X203893Y158799D01*
X204287Y159193D01*
X204500Y159708D01*
Y160265D01*
X204287Y160779D01*
X203893Y161173D01*
X203814Y161206D01*
Y162980D01*
X203893Y163013D01*
X204287Y163407D01*
X204500Y163921D01*
Y164479D01*
X204287Y164993D01*
X203893Y165387D01*
X203379Y165600D01*
D02*
G37*
G36*
X189759Y169338D02*
X189202D01*
X188687Y169125D01*
X188294Y168731D01*
X188081Y168217D01*
Y167660D01*
X188294Y167145D01*
X188687Y166752D01*
X188827Y166694D01*
Y160895D01*
X188807Y160887D01*
X188413Y160493D01*
X188200Y159978D01*
Y159422D01*
X188413Y158907D01*
X188807Y158513D01*
X189321Y158300D01*
X189878D01*
X190393Y158513D01*
X190787Y158907D01*
X191000Y159422D01*
Y159978D01*
X190787Y160493D01*
X190393Y160887D01*
X190254Y160944D01*
Y166743D01*
X190273Y166752D01*
X190667Y167145D01*
X190881Y167660D01*
Y168217D01*
X190667Y168731D01*
X190273Y169125D01*
X189759Y169338D01*
D02*
G37*
G36*
X197929Y168350D02*
X197371D01*
X196857Y168137D01*
X196463Y167743D01*
X196250Y167228D01*
Y166672D01*
X196463Y166157D01*
X196786Y165834D01*
Y160820D01*
X196707Y160787D01*
X196313Y160393D01*
X196100Y159879D01*
Y159321D01*
X196313Y158807D01*
X196707Y158413D01*
X197222Y158200D01*
X197778D01*
X198293Y158413D01*
X198687Y158807D01*
X198900Y159321D01*
Y159879D01*
X198687Y160393D01*
X198293Y160787D01*
X198214Y160820D01*
Y165668D01*
X198443Y165763D01*
X198837Y166157D01*
X199050Y166672D01*
Y167228D01*
X198837Y167743D01*
X198443Y168137D01*
X197929Y168350D01*
D02*
G37*
G36*
X214421Y159300D02*
X213864D01*
X213350Y159087D01*
X212956Y158693D01*
X212743Y158178D01*
Y157622D01*
X212956Y157107D01*
X213350Y156713D01*
X213864Y156500D01*
X214421D01*
X214936Y156713D01*
X215330Y157107D01*
X215342Y157136D01*
X220538D01*
X220592Y157007D01*
X220985Y156613D01*
X221500Y156400D01*
X222057D01*
X222571Y156613D01*
X222965Y157007D01*
X223179Y157521D01*
Y158079D01*
X222965Y158593D01*
X222571Y158987D01*
X222057Y159200D01*
X221500D01*
X220985Y158987D01*
X220592Y158593D01*
X220580Y158564D01*
X215383D01*
X215330Y158693D01*
X214936Y159087D01*
X214421Y159300D01*
D02*
G37*
G36*
X285388Y151869D02*
Y150412D01*
X286846D01*
X286584Y151045D01*
X286021Y151607D01*
X285388Y151869D01*
D02*
G37*
G36*
X279888D02*
Y150412D01*
X281346D01*
X281084Y151045D01*
X280521Y151607D01*
X279888Y151869D01*
D02*
G37*
G36*
X284388Y151869D02*
X283755Y151607D01*
X283193Y151045D01*
X282930Y150412D01*
X284388D01*
Y151869D01*
D02*
G37*
G36*
X278888D02*
X278255Y151607D01*
X277693Y151045D01*
X277431Y150412D01*
X278888D01*
Y151869D01*
D02*
G37*
G36*
X274188Y151670D02*
Y150212D01*
X275646D01*
X275384Y150845D01*
X274821Y151407D01*
X274188Y151670D01*
D02*
G37*
G36*
X273188Y151670D02*
X272555Y151407D01*
X271993Y150845D01*
X271730Y150212D01*
X273188D01*
Y151670D01*
D02*
G37*
G36*
X286846Y149412D02*
X285388D01*
Y147954D01*
X286021Y148216D01*
X286584Y148779D01*
X286846Y149412D01*
D02*
G37*
G36*
X281346D02*
X279888D01*
Y147954D01*
X280521Y148216D01*
X281084Y148779D01*
X281346Y149412D01*
D02*
G37*
G36*
X284388D02*
X282930D01*
X283193Y148779D01*
X283755Y148216D01*
X284388Y147954D01*
Y149412D01*
D02*
G37*
G36*
X278888D02*
X277431D01*
X277693Y148779D01*
X278255Y148216D01*
X278888Y147954D01*
Y149412D01*
D02*
G37*
G36*
X275646Y149212D02*
X274188D01*
Y147754D01*
X274821Y148016D01*
X275384Y148579D01*
X275646Y149212D01*
D02*
G37*
G36*
X273188D02*
X271730D01*
X271993Y148579D01*
X272555Y148016D01*
X273188Y147754D01*
Y149212D01*
D02*
G37*
G36*
X289388Y147570D02*
Y146112D01*
X290846D01*
X290584Y146745D01*
X290021Y147307D01*
X289388Y147570D01*
D02*
G37*
G36*
X288388Y147570D02*
X287755Y147307D01*
X287193Y146745D01*
X286930Y146112D01*
X288388D01*
Y147570D01*
D02*
G37*
G36*
X270188Y147269D02*
Y145812D01*
X271646D01*
X271384Y146445D01*
X270821Y147007D01*
X270188Y147269D01*
D02*
G37*
G36*
X269188Y147269D02*
X268555Y147007D01*
X267993Y146445D01*
X267730Y145812D01*
X269188D01*
Y147269D01*
D02*
G37*
G36*
X112583Y153849D02*
X104302D01*
Y145568D01*
X112583D01*
Y153849D01*
D02*
G37*
G36*
X86992D02*
X78712D01*
Y145568D01*
X86992D01*
Y153849D01*
D02*
G37*
G36*
X290846Y145112D02*
X289388D01*
Y143654D01*
X290021Y143916D01*
X290584Y144479D01*
X290846Y145112D01*
D02*
G37*
G36*
X288388D02*
X286930D01*
X287193Y144479D01*
X287755Y143916D01*
X288388Y143654D01*
Y145112D01*
D02*
G37*
G36*
X271646Y144812D02*
X270188D01*
Y143354D01*
X270821Y143616D01*
X271384Y144179D01*
X271646Y144812D01*
D02*
G37*
G36*
X269188D02*
X267730D01*
X267993Y144179D01*
X268555Y143616D01*
X269188Y143354D01*
Y144812D01*
D02*
G37*
G36*
X289488Y142169D02*
Y140712D01*
X290946D01*
X290684Y141345D01*
X290121Y141907D01*
X289488Y142169D01*
D02*
G37*
G36*
X288488Y142169D02*
X287855Y141907D01*
X287293Y141345D01*
X287031Y140712D01*
X288488D01*
Y142169D01*
D02*
G37*
G36*
X270188Y141569D02*
Y140112D01*
X271646D01*
X271384Y140745D01*
X270821Y141307D01*
X270188Y141569D01*
D02*
G37*
G36*
X269188Y141569D02*
X268555Y141307D01*
X267993Y140745D01*
X267730Y140112D01*
X269188D01*
Y141569D01*
D02*
G37*
G36*
X290946Y139712D02*
X289488D01*
Y138254D01*
X290121Y138516D01*
X290684Y139079D01*
X290946Y139712D01*
D02*
G37*
G36*
X288488D02*
X287031D01*
X287293Y139079D01*
X287855Y138516D01*
X288488Y138254D01*
Y139712D01*
D02*
G37*
G36*
X271646Y139112D02*
X270188D01*
Y137654D01*
X270821Y137916D01*
X271384Y138479D01*
X271646Y139112D01*
D02*
G37*
G36*
X269188D02*
X267730D01*
X267993Y138479D01*
X268555Y137916D01*
X269188Y137654D01*
Y139112D01*
D02*
G37*
G36*
X289388Y136469D02*
Y135012D01*
X290846D01*
X290584Y135645D01*
X290021Y136207D01*
X289388Y136469D01*
D02*
G37*
G36*
X288388Y136469D02*
X287755Y136207D01*
X287193Y135645D01*
X286930Y135012D01*
X288388D01*
Y136469D01*
D02*
G37*
G36*
X270288Y136070D02*
Y134612D01*
X271746D01*
X271484Y135245D01*
X270921Y135807D01*
X270288Y136070D01*
D02*
G37*
G36*
X269288Y136070D02*
X268655Y135807D01*
X268093Y135245D01*
X267830Y134612D01*
X269288D01*
Y136070D01*
D02*
G37*
G36*
X290846Y134012D02*
X289388D01*
Y132554D01*
X290021Y132816D01*
X290584Y133379D01*
X290846Y134012D01*
D02*
G37*
G36*
X288388D02*
X286930D01*
X287193Y133379D01*
X287755Y132816D01*
X288388Y132554D01*
Y134012D01*
D02*
G37*
G36*
X87592Y136732D02*
X83352D01*
Y132492D01*
X87592D01*
Y136732D01*
D02*
G37*
G36*
X82352D02*
X78112D01*
Y132492D01*
X82352D01*
Y136732D01*
D02*
G37*
G36*
X113183D02*
X108942D01*
Y132492D01*
X113183D01*
Y136732D01*
D02*
G37*
G36*
X107942D02*
X103702D01*
Y132492D01*
X107942D01*
Y136732D01*
D02*
G37*
G36*
X271746Y133612D02*
X270288D01*
Y132154D01*
X270921Y132416D01*
X271484Y132979D01*
X271746Y133612D01*
D02*
G37*
G36*
X269288D02*
X267830D01*
X268093Y132979D01*
X268655Y132416D01*
X269288Y132154D01*
Y133612D01*
D02*
G37*
G36*
X285288Y132070D02*
Y130612D01*
X286746D01*
X286484Y131245D01*
X285921Y131807D01*
X285288Y132070D01*
D02*
G37*
G36*
X284288Y132070D02*
X283655Y131807D01*
X283093Y131245D01*
X282831Y130612D01*
X284288D01*
Y132070D01*
D02*
G37*
G36*
X279788Y131969D02*
Y130512D01*
X281246D01*
X280984Y131145D01*
X280421Y131707D01*
X279788Y131969D01*
D02*
G37*
G36*
X274288D02*
Y130512D01*
X275746D01*
X275484Y131145D01*
X274921Y131707D01*
X274288Y131969D01*
D02*
G37*
G36*
X278788Y131969D02*
X278155Y131707D01*
X277593Y131145D01*
X277330Y130512D01*
X278788D01*
Y131969D01*
D02*
G37*
G36*
X273288D02*
X272655Y131707D01*
X272093Y131145D01*
X271831Y130512D01*
X273288D01*
Y131969D01*
D02*
G37*
G36*
X286746Y129612D02*
X285288D01*
Y128154D01*
X285921Y128416D01*
X286484Y128979D01*
X286746Y129612D01*
D02*
G37*
G36*
X284288D02*
X282831D01*
X283093Y128979D01*
X283655Y128416D01*
X284288Y128154D01*
Y129612D01*
D02*
G37*
G36*
X281246Y129512D02*
X279788D01*
Y128054D01*
X280421Y128316D01*
X280984Y128879D01*
X281246Y129512D01*
D02*
G37*
G36*
X275746D02*
X274288D01*
Y128054D01*
X274921Y128316D01*
X275484Y128879D01*
X275746Y129512D01*
D02*
G37*
G36*
X278788D02*
X277330D01*
X277593Y128879D01*
X278155Y128316D01*
X278788Y128054D01*
Y129512D01*
D02*
G37*
G36*
X273288D02*
X271831D01*
X272093Y128879D01*
X272655Y128316D01*
X273288Y128054D01*
Y129512D01*
D02*
G37*
G36*
X113183Y131492D02*
X108942D01*
Y127252D01*
X113183D01*
Y131492D01*
D02*
G37*
G36*
X107942D02*
X103702D01*
Y127252D01*
X107942D01*
Y131492D01*
D02*
G37*
G36*
X87592Y131492D02*
X83352D01*
Y127252D01*
X87592D01*
Y131492D01*
D02*
G37*
G36*
X82352D02*
X78112D01*
Y127252D01*
X82352D01*
Y131492D01*
D02*
G37*
G36*
X222179Y105450D02*
X221621D01*
X221107Y105237D01*
X220713Y104843D01*
X220680Y104764D01*
X214970D01*
X214937Y104843D01*
X214543Y105237D01*
X214029Y105450D01*
X213472D01*
X212957Y105237D01*
X212563Y104843D01*
X212350Y104329D01*
Y103771D01*
X212563Y103257D01*
X212957Y102863D01*
X213472Y102650D01*
X214029D01*
X214543Y102863D01*
X214937Y103257D01*
X214970Y103336D01*
X220680D01*
X220713Y103257D01*
X221107Y102863D01*
X221621Y102650D01*
X222179D01*
X222693Y102863D01*
X223087Y103257D01*
X223300Y103771D01*
Y104329D01*
X223087Y104843D01*
X222693Y105237D01*
X222179Y105450D01*
D02*
G37*
G36*
X145081Y101619D02*
X144524D01*
X144010Y101406D01*
X143616Y101012D01*
X143403Y100498D01*
Y99941D01*
X143616Y99426D01*
X144010Y99032D01*
X144524Y98819D01*
X145036D01*
X146046Y97809D01*
X145967Y97619D01*
Y97062D01*
X146180Y96547D01*
X146574Y96154D01*
X147089Y95940D01*
X147646D01*
X148160Y96154D01*
X148554Y96547D01*
X148767Y97062D01*
Y97619D01*
X148554Y98133D01*
X148160Y98527D01*
X147646Y98740D01*
X147134D01*
X146124Y99750D01*
X146203Y99941D01*
Y100498D01*
X145990Y101012D01*
X145596Y101406D01*
X145081Y101619D01*
D02*
G37*
G36*
X287178Y94600D02*
X286621D01*
X286107Y94387D01*
X285713Y93993D01*
X285660Y93864D01*
X282670D01*
X282637Y93943D01*
X282243Y94337D01*
X281729Y94550D01*
X281171D01*
X280657Y94337D01*
X280263Y93943D01*
X280050Y93428D01*
Y92871D01*
X280263Y92357D01*
X280657Y91963D01*
X281171Y91750D01*
X281729D01*
X282243Y91963D01*
X282637Y92357D01*
X282670Y92436D01*
X285701D01*
X285713Y92407D01*
X286107Y92013D01*
X286621Y91800D01*
X287178D01*
X287693Y92013D01*
X288087Y92407D01*
X288300Y92922D01*
Y93479D01*
X288087Y93993D01*
X287693Y94387D01*
X287178Y94600D01*
D02*
G37*
G36*
X141830Y98476D02*
X141273D01*
X140759Y98263D01*
X140365Y97869D01*
X140152Y97354D01*
Y96797D01*
X140365Y96283D01*
X140759Y95889D01*
X141273Y95676D01*
X141830D01*
X142050Y95767D01*
X143050Y94767D01*
Y94297D01*
X143263Y93782D01*
X143657Y93388D01*
X144172Y93175D01*
X144729D01*
X145243Y93388D01*
X145637Y93782D01*
X145850Y94297D01*
Y94854D01*
X145637Y95368D01*
X145243Y95762D01*
X144729Y95975D01*
X144172D01*
X143952Y95884D01*
X142952Y96884D01*
Y97354D01*
X142739Y97869D01*
X142345Y98263D01*
X141830Y98476D01*
D02*
G37*
G36*
X228479Y95500D02*
X227922D01*
X227407Y95287D01*
X227013Y94893D01*
X226800Y94379D01*
Y93822D01*
X227013Y93307D01*
X227407Y92913D01*
X227436Y92901D01*
Y90340D01*
X227307Y90287D01*
X226913Y89893D01*
X226700Y89378D01*
Y88822D01*
X226913Y88307D01*
X227307Y87913D01*
X227821Y87700D01*
X228379D01*
X228893Y87913D01*
X229287Y88307D01*
X229500Y88822D01*
Y89378D01*
X229287Y89893D01*
X228893Y90287D01*
X228864Y90299D01*
Y92860D01*
X228993Y92913D01*
X229387Y93307D01*
X229600Y93822D01*
Y94379D01*
X229387Y94893D01*
X228993Y95287D01*
X228479Y95500D01*
D02*
G37*
G36*
X97278Y93800D02*
X96722D01*
X96207Y93587D01*
X95813Y93193D01*
X95600Y92678D01*
Y92121D01*
X95813Y91607D01*
X96207Y91213D01*
X96336Y91160D01*
Y89899D01*
X96307Y89887D01*
X95913Y89493D01*
X95700Y88978D01*
Y88421D01*
X95913Y87907D01*
X96307Y87513D01*
X96821Y87300D01*
X97378D01*
X97893Y87513D01*
X98287Y87907D01*
X98500Y88421D01*
Y88978D01*
X98287Y89493D01*
X97893Y89887D01*
X97764Y89940D01*
Y91201D01*
X97793Y91213D01*
X98187Y91607D01*
X98400Y92121D01*
Y92678D01*
X98187Y93193D01*
X97793Y93587D01*
X97278Y93800D01*
D02*
G37*
G36*
X101479Y100300D02*
X100921D01*
X100407Y100087D01*
X100013Y99693D01*
X99800Y99178D01*
Y98621D01*
X100013Y98107D01*
X100407Y97713D01*
X100486Y97680D01*
Y96420D01*
X100407Y96387D01*
X100013Y95993D01*
X99800Y95478D01*
Y94921D01*
X100013Y94407D01*
X100292Y94128D01*
X100387Y93860D01*
X100328Y93397D01*
X100099Y93168D01*
X99886Y92653D01*
Y92096D01*
X100099Y91582D01*
X100493Y91188D01*
X100586Y91149D01*
Y89820D01*
X100507Y89787D01*
X100113Y89393D01*
X99900Y88879D01*
Y88322D01*
X100113Y87807D01*
X100507Y87413D01*
X101022Y87200D01*
X101578D01*
X102093Y87413D01*
X102487Y87807D01*
X102700Y88322D01*
Y88879D01*
X102487Y89393D01*
X102093Y89787D01*
X102014Y89820D01*
Y91161D01*
X102079Y91188D01*
X102473Y91582D01*
X102686Y92096D01*
Y92653D01*
X102473Y93168D01*
X102194Y93447D01*
X102099Y93715D01*
X102158Y94178D01*
X102387Y94407D01*
X102600Y94921D01*
Y95478D01*
X102387Y95993D01*
X101993Y96387D01*
X101914Y96420D01*
Y97680D01*
X101993Y97713D01*
X102387Y98107D01*
X102600Y98621D01*
Y99178D01*
X102387Y99693D01*
X101993Y100087D01*
X101479Y100300D01*
D02*
G37*
G36*
X236878Y96179D02*
X236321D01*
X235807Y95965D01*
X235413Y95572D01*
X235200Y95057D01*
Y94500D01*
X235413Y93985D01*
X235807Y93592D01*
X235886Y93559D01*
Y89479D01*
X235941Y89206D01*
X235963Y89172D01*
X235800Y88779D01*
Y88222D01*
X236013Y87707D01*
X236407Y87313D01*
X236922Y87100D01*
X237478D01*
X237993Y87313D01*
X238387Y87707D01*
X238600Y88222D01*
Y88779D01*
X238387Y89293D01*
X237993Y89687D01*
X237478Y89900D01*
X237314D01*
Y93559D01*
X237393Y93592D01*
X237787Y93985D01*
X238000Y94500D01*
Y95057D01*
X237787Y95572D01*
X237393Y95965D01*
X236878Y96179D01*
D02*
G37*
G36*
X233379Y95800D02*
X232821D01*
X232307Y95587D01*
X231913Y95193D01*
X231700Y94678D01*
Y94121D01*
X231913Y93607D01*
X232307Y93213D01*
X232386Y93180D01*
Y89720D01*
X232307Y89687D01*
X231913Y89293D01*
X231700Y88779D01*
Y88222D01*
X231913Y87707D01*
X232307Y87313D01*
X232821Y87100D01*
X233379D01*
X233893Y87313D01*
X234287Y87707D01*
X234500Y88222D01*
Y88779D01*
X234287Y89293D01*
X233893Y89687D01*
X233814Y89720D01*
Y93180D01*
X233893Y93213D01*
X234287Y93607D01*
X234500Y94121D01*
Y94678D01*
X234287Y95193D01*
X233893Y95587D01*
X233379Y95800D01*
D02*
G37*
G36*
X295078Y92700D02*
X294521D01*
X294007Y92487D01*
X293613Y92093D01*
X293400Y91579D01*
Y91022D01*
X293613Y90507D01*
X294007Y90113D01*
X294086Y90080D01*
Y88620D01*
X294007Y88587D01*
X293613Y88193D01*
X293400Y87678D01*
Y87121D01*
X293613Y86607D01*
X294007Y86213D01*
X294521Y86000D01*
X295078D01*
X295593Y86213D01*
X295987Y86607D01*
X296200Y87121D01*
Y87678D01*
X295987Y88193D01*
X295593Y88587D01*
X295514Y88620D01*
Y90080D01*
X295593Y90113D01*
X295987Y90507D01*
X296200Y91022D01*
Y91579D01*
X295987Y92093D01*
X295593Y92487D01*
X295078Y92700D01*
D02*
G37*
G36*
X117429Y88428D02*
X116872D01*
X116357Y88215D01*
X115963Y87822D01*
X115750Y87307D01*
Y86750D01*
X115963Y86235D01*
X116357Y85842D01*
X116561Y85757D01*
Y84084D01*
X116213Y83736D01*
X116000Y83222D01*
Y82665D01*
X116213Y82150D01*
X116607Y81756D01*
X117122Y81543D01*
X117678D01*
X118193Y81756D01*
X118587Y82150D01*
X118800Y82665D01*
Y83222D01*
X118587Y83736D01*
X118193Y84130D01*
X117989Y84215D01*
Y85887D01*
X118337Y86235D01*
X118550Y86750D01*
Y87307D01*
X118337Y87822D01*
X117943Y88215D01*
X117429Y88428D01*
D02*
G37*
G36*
X113972Y88494D02*
X113415D01*
X112901Y88281D01*
X112507Y87887D01*
X112294Y87372D01*
Y86815D01*
X112507Y86301D01*
X112901Y85907D01*
X112980Y85874D01*
Y84126D01*
X112901Y84093D01*
X112507Y83699D01*
X112294Y83185D01*
Y82628D01*
X112507Y82113D01*
X112901Y81719D01*
X113415Y81506D01*
X113972D01*
X114487Y81719D01*
X114881Y82113D01*
X115094Y82628D01*
Y83185D01*
X114881Y83699D01*
X114487Y84093D01*
X114408Y84126D01*
Y85874D01*
X114487Y85907D01*
X114881Y86301D01*
X115094Y86815D01*
Y87372D01*
X114881Y87887D01*
X114487Y88281D01*
X113972Y88494D01*
D02*
G37*
G36*
X245279Y95300D02*
X244722D01*
X244207Y95087D01*
X243813Y94693D01*
X243600Y94178D01*
Y93621D01*
X243813Y93107D01*
X244207Y92713D01*
X244286Y92680D01*
Y89181D01*
X244252Y89146D01*
X244039Y88632D01*
Y88075D01*
X244252Y87560D01*
X244646Y87166D01*
X244725Y87133D01*
Y82540D01*
X244773Y82297D01*
X244600Y81879D01*
Y81322D01*
X244813Y80807D01*
X245207Y80413D01*
X245722Y80200D01*
X246279D01*
X246793Y80413D01*
X247187Y80807D01*
X247400Y81322D01*
Y81879D01*
X247187Y82393D01*
X246793Y82787D01*
X246279Y83000D01*
X246152D01*
Y87133D01*
X246232Y87166D01*
X246625Y87560D01*
X246838Y88075D01*
Y88632D01*
X246625Y89146D01*
X246232Y89540D01*
X245717Y89753D01*
X245714D01*
Y92680D01*
X245793Y92713D01*
X246187Y93107D01*
X246400Y93621D01*
Y94178D01*
X246187Y94693D01*
X245793Y95087D01*
X245279Y95300D01*
D02*
G37*
G36*
X266778Y86000D02*
X266221D01*
X265707Y85787D01*
X265313Y85393D01*
X265100Y84878D01*
Y84321D01*
X265313Y83807D01*
X265707Y83413D01*
X266221Y83200D01*
X266721D01*
X268405Y81516D01*
X268322Y81317D01*
Y80760D01*
X268536Y80245D01*
X268929Y79852D01*
X269444Y79638D01*
X270001D01*
X270515Y79852D01*
X270909Y80245D01*
X271122Y80760D01*
Y81317D01*
X270909Y81832D01*
X270515Y82225D01*
X270001Y82438D01*
X269501D01*
X267817Y84122D01*
X267900Y84321D01*
Y84878D01*
X267687Y85393D01*
X267293Y85787D01*
X266778Y86000D01*
D02*
G37*
G36*
X59978Y80100D02*
X59421D01*
X58907Y79887D01*
X58684Y79664D01*
X55623D01*
X55254Y79591D01*
X54941Y79382D01*
X54908Y79348D01*
X52420D01*
X52197Y79571D01*
X51683Y79784D01*
X51126D01*
X50611Y79571D01*
X50217Y79177D01*
X50004Y78662D01*
Y78641D01*
X49986Y78105D01*
X49450Y78087D01*
X49428D01*
X48914Y77874D01*
X48520Y77480D01*
X48307Y76965D01*
Y76408D01*
X48520Y75894D01*
X48914Y75500D01*
X49428Y75287D01*
X49985D01*
X50334Y75431D01*
X50367Y75409D01*
X50736Y75336D01*
X50736Y75336D01*
X58684D01*
X58907Y75113D01*
X59421Y74900D01*
X59978D01*
X60493Y75113D01*
X60887Y75507D01*
X61100Y76021D01*
Y76578D01*
X60887Y77093D01*
X60872Y77108D01*
X60505Y77500D01*
X60872Y77892D01*
X60887Y77907D01*
X61100Y78421D01*
Y78979D01*
X60887Y79493D01*
X60493Y79887D01*
X59978Y80100D01*
D02*
G37*
G36*
X312340Y86957D02*
X304060D01*
Y78676D01*
X312340D01*
Y86957D01*
D02*
G37*
G36*
X286750D02*
X278469D01*
Y78676D01*
X286750D01*
Y86957D01*
D02*
G37*
G36*
X239223Y85231D02*
X238666D01*
X238151Y85018D01*
X237757Y84624D01*
X237544Y84109D01*
Y83552D01*
X237757Y83038D01*
X238151Y82644D01*
X238666Y82431D01*
X239223D01*
X239265Y82449D01*
X242123Y79590D01*
X242075Y79474D01*
Y78917D01*
X242288Y78402D01*
X242682Y78009D01*
X243197Y77795D01*
X243754D01*
X244268Y78009D01*
X244662Y78402D01*
X244875Y78917D01*
Y79474D01*
X244662Y79988D01*
X244268Y80382D01*
X243754Y80595D01*
X243197D01*
X243154Y80578D01*
X240296Y83436D01*
X240344Y83552D01*
Y84109D01*
X240131Y84624D01*
X239737Y85018D01*
X239223Y85231D01*
D02*
G37*
G36*
X268611Y78372D02*
X268054D01*
X267539Y78159D01*
X267146Y77765D01*
X267078Y77602D01*
X264052D01*
X263663Y77991D01*
X263149Y78204D01*
X262592D01*
X262077Y77991D01*
X261683Y77597D01*
X261470Y77083D01*
Y76526D01*
X261683Y76011D01*
X262077Y75617D01*
X262592Y75404D01*
X263149D01*
X263663Y75617D01*
X264057Y76011D01*
X264125Y76174D01*
X267150D01*
X267539Y75785D01*
X268054Y75572D01*
X268611D01*
X269126Y75785D01*
X269519Y76179D01*
X269732Y76694D01*
Y77251D01*
X269519Y77765D01*
X269126Y78159D01*
X268611Y78372D01*
D02*
G37*
G36*
X7976Y78617D02*
X7400D01*
Y76117D01*
X10911D01*
X10875Y76393D01*
X10575Y77117D01*
X10098Y77738D01*
X9477Y78215D01*
X8753Y78515D01*
X7976Y78617D01*
D02*
G37*
G36*
X6400D02*
X5824D01*
X5047Y78515D01*
X4324Y78215D01*
X3702Y77738D01*
X3225Y77117D01*
X2925Y76393D01*
X2889Y76117D01*
X6400D01*
Y78617D01*
D02*
G37*
G36*
X236748Y82652D02*
X236191D01*
X235676Y82439D01*
X235282Y82045D01*
X235069Y81530D01*
Y80973D01*
X235282Y80459D01*
X235676Y80065D01*
X236191Y79852D01*
X236748D01*
X236790Y79869D01*
X239509Y77150D01*
X239461Y77034D01*
Y76477D01*
X239674Y75963D01*
X240068Y75569D01*
X240583Y75355D01*
X241140D01*
X241654Y75569D01*
X242048Y75963D01*
X242261Y76477D01*
Y77034D01*
X242048Y77549D01*
X241654Y77942D01*
X241140Y78155D01*
X240583D01*
X240540Y78138D01*
X237821Y80857D01*
X237869Y80973D01*
Y81530D01*
X237656Y82045D01*
X237262Y82439D01*
X236748Y82652D01*
D02*
G37*
G36*
X65765Y78033D02*
X65208D01*
X64694Y77820D01*
X64300Y77426D01*
X64087Y76911D01*
Y76354D01*
X64300Y75840D01*
X64694Y75446D01*
X65208Y75233D01*
X65765D01*
X66280Y75446D01*
X66503Y75669D01*
X69622D01*
X70300Y74991D01*
Y74922D01*
X70513Y74407D01*
X70907Y74013D01*
X71421Y73800D01*
X71978D01*
X72493Y74013D01*
X72887Y74407D01*
X73100Y74922D01*
Y75479D01*
X72887Y75993D01*
X72493Y76387D01*
X71978Y76600D01*
X71421D01*
X71419Y76599D01*
X70703Y77315D01*
X70390Y77524D01*
X70021Y77597D01*
X66503D01*
X66280Y77820D01*
X65765Y78033D01*
D02*
G37*
G36*
X10911Y75116D02*
X7400D01*
Y72616D01*
X7976D01*
X8753Y72718D01*
X9477Y73018D01*
X10098Y73495D01*
X10575Y74116D01*
X10875Y74840D01*
X10911Y75116D01*
D02*
G37*
G36*
X6400D02*
X2889D01*
X2925Y74840D01*
X3225Y74116D01*
X3702Y73495D01*
X4324Y73018D01*
X5047Y72718D01*
X5824Y72616D01*
X6400D01*
Y75116D01*
D02*
G37*
G36*
X18030Y75196D02*
Y72180D01*
X20304D01*
Y72489D01*
X20209Y73207D01*
X19932Y73875D01*
X19491Y74450D01*
X18917Y74891D01*
X18248Y75168D01*
X18030Y75196D01*
D02*
G37*
G36*
X17030Y75196D02*
X16812Y75168D01*
X16143Y74891D01*
X15569Y74450D01*
X15128Y73875D01*
X14851Y73207D01*
X14756Y72489D01*
Y72180D01*
X17030D01*
Y75196D01*
D02*
G37*
G36*
X88478Y74000D02*
X87922D01*
X87407Y73787D01*
X87013Y73393D01*
X86800Y72878D01*
Y72809D01*
X86055Y72064D01*
X84416D01*
X84193Y72287D01*
X83679Y72500D01*
X83122D01*
X82607Y72287D01*
X82213Y71893D01*
X82000Y71378D01*
Y70821D01*
X82213Y70307D01*
X82607Y69913D01*
X83122Y69700D01*
X83679D01*
X84193Y69913D01*
X84416Y70136D01*
X86454D01*
X86823Y70209D01*
X87136Y70418D01*
X87919Y71201D01*
X87922Y71200D01*
X88478D01*
X88993Y71413D01*
X89387Y71807D01*
X89600Y72321D01*
Y72878D01*
X89387Y73393D01*
X88993Y73787D01*
X88478Y74000D01*
D02*
G37*
G36*
X229379Y73700D02*
X228821D01*
X228307Y73487D01*
X227913Y73093D01*
X227700Y72579D01*
Y72209D01*
X224458Y68967D01*
X224378Y69000D01*
X223821D01*
X223307Y68787D01*
X222913Y68393D01*
X222700Y67879D01*
Y67321D01*
X222913Y66807D01*
X223307Y66413D01*
X223821Y66200D01*
X224378D01*
X224893Y66413D01*
X225287Y66807D01*
X225500Y67321D01*
Y67879D01*
X225467Y67958D01*
X228530Y71021D01*
X228821Y70900D01*
X229379D01*
X229893Y71113D01*
X230287Y71507D01*
X230500Y72022D01*
Y72579D01*
X230287Y73093D01*
X229893Y73487D01*
X229379Y73700D01*
D02*
G37*
G36*
X226479Y76400D02*
X225922D01*
X225407Y76187D01*
X225013Y75793D01*
X224800Y75279D01*
Y74721D01*
X224877Y74536D01*
X221941Y71600D01*
X221422D01*
X220907Y71387D01*
X220513Y70993D01*
X220300Y70478D01*
Y69921D01*
X220513Y69407D01*
X220907Y69013D01*
X221422Y68800D01*
X221978D01*
X222493Y69013D01*
X222887Y69407D01*
X223100Y69921D01*
Y70478D01*
X223023Y70664D01*
X225959Y73600D01*
X226479D01*
X226993Y73813D01*
X227387Y74207D01*
X227600Y74721D01*
Y75279D01*
X227387Y75793D01*
X226993Y76187D01*
X226479Y76400D01*
D02*
G37*
G36*
X71378Y69200D02*
X70821D01*
X70307Y68987D01*
X70292Y68972D01*
X69900Y68605D01*
X69508Y68972D01*
X69493Y68987D01*
X68979Y69200D01*
X68422D01*
X67907Y68987D01*
X67513Y68593D01*
X67300Y68079D01*
Y67522D01*
X67513Y67007D01*
X67786Y66734D01*
Y63566D01*
X67613Y63393D01*
X67400Y62879D01*
Y62322D01*
X67613Y61807D01*
X68007Y61413D01*
X68521Y61200D01*
X69078D01*
X69593Y61413D01*
X69608Y61428D01*
X70000Y61795D01*
X70392Y61428D01*
X70407Y61413D01*
X70921Y61200D01*
X71478D01*
X71993Y61413D01*
X72387Y61807D01*
X72600Y62322D01*
Y62879D01*
X72387Y63393D01*
X72114Y63666D01*
Y66834D01*
X72287Y67007D01*
X72500Y67522D01*
Y68079D01*
X72287Y68593D01*
X71893Y68987D01*
X71378Y69200D01*
D02*
G37*
G36*
X20304Y71179D02*
X18030D01*
Y68163D01*
X18248Y68191D01*
X18917Y68468D01*
X19491Y68909D01*
X19932Y69484D01*
X20209Y70153D01*
X20304Y70871D01*
Y71179D01*
D02*
G37*
G36*
X17030D02*
X14756D01*
Y70871D01*
X14851Y70153D01*
X15128Y69484D01*
X15569Y68909D01*
X16143Y68468D01*
X16812Y68191D01*
X17030Y68163D01*
Y71179D01*
D02*
G37*
G36*
X232085Y70587D02*
X231528D01*
X231014Y70374D01*
X230620Y69980D01*
X230407Y69465D01*
Y68908D01*
X230440Y68829D01*
X228470Y66859D01*
X228342D01*
X228068Y66805D01*
X227837Y66650D01*
X227396Y66210D01*
X227179Y66300D01*
X226622D01*
X226107Y66087D01*
X225713Y65693D01*
X225500Y65179D01*
Y64622D01*
X225713Y64107D01*
X226107Y63713D01*
X226622Y63500D01*
X227179D01*
X227693Y63713D01*
X228087Y64107D01*
X228300Y64622D01*
Y65095D01*
X228637Y65432D01*
X228766D01*
X229039Y65486D01*
X229270Y65641D01*
X231449Y67820D01*
X231528Y67787D01*
X232085D01*
X232600Y68000D01*
X232994Y68394D01*
X233207Y68908D01*
Y69465D01*
X232994Y69980D01*
X232600Y70374D01*
X232085Y70587D01*
D02*
G37*
G36*
X167378Y73500D02*
X166822D01*
X166307Y73287D01*
X165913Y72893D01*
X165700Y72378D01*
Y71821D01*
X165913Y71307D01*
X166307Y70913D01*
X166486Y70839D01*
Y69566D01*
X166113Y69193D01*
X165900Y68678D01*
Y68121D01*
X166113Y67607D01*
X166507Y67213D01*
X167022Y67000D01*
X167578D01*
X168093Y67213D01*
X168487Y67607D01*
X168700Y68121D01*
Y68678D01*
X168487Y69193D01*
X168093Y69587D01*
X167914Y69661D01*
Y70934D01*
X168287Y71307D01*
X168500Y71821D01*
Y72378D01*
X168287Y72893D01*
X167893Y73287D01*
X167378Y73500D01*
D02*
G37*
G36*
X171079Y73900D02*
X170521D01*
X170007Y73687D01*
X169613Y73293D01*
X169400Y72778D01*
Y72221D01*
X169613Y71707D01*
X170007Y71313D01*
X170086Y71280D01*
Y69520D01*
X170007Y69487D01*
X169613Y69093D01*
X169400Y68578D01*
Y68022D01*
X169613Y67507D01*
X170007Y67113D01*
X170521Y66900D01*
X171079D01*
X171593Y67113D01*
X171987Y67507D01*
X172200Y68022D01*
Y68578D01*
X171987Y69093D01*
X171593Y69487D01*
X171514Y69520D01*
Y71280D01*
X171593Y71313D01*
X171987Y71707D01*
X172200Y72221D01*
Y72778D01*
X171987Y73293D01*
X171593Y73687D01*
X171079Y73900D01*
D02*
G37*
G36*
X312940Y69840D02*
X308700D01*
Y65600D01*
X312940D01*
Y69840D01*
D02*
G37*
G36*
X307700D02*
X303460D01*
Y65600D01*
X307700D01*
Y69840D01*
D02*
G37*
G36*
X287350D02*
X283109D01*
Y65600D01*
X287350D01*
Y69840D01*
D02*
G37*
G36*
X282109D02*
X277869D01*
Y65600D01*
X282109D01*
Y69840D01*
D02*
G37*
G36*
X263163Y68315D02*
X262607D01*
X262092Y68102D01*
X261698Y67708D01*
X261485Y67193D01*
Y66636D01*
X261698Y66122D01*
X262092Y65728D01*
X262607Y65515D01*
X263163D01*
X263678Y65728D01*
X264044Y66094D01*
X266736D01*
X266813Y65907D01*
X267207Y65513D01*
X267722Y65300D01*
X268279D01*
X268793Y65513D01*
X269187Y65907D01*
X269400Y66422D01*
Y66979D01*
X269187Y67493D01*
X268793Y67887D01*
X268279Y68100D01*
X267722D01*
X267207Y67887D01*
X266841Y67521D01*
X264149D01*
X264072Y67708D01*
X263678Y68102D01*
X263163Y68315D01*
D02*
G37*
G36*
X263079Y63423D02*
X262522D01*
X262008Y63210D01*
X261614Y62816D01*
X261401Y62302D01*
Y61745D01*
X261614Y61230D01*
X262008Y60836D01*
X262522Y60623D01*
X263079D01*
X263594Y60836D01*
X263988Y61230D01*
X263995Y61248D01*
X266755D01*
X266813Y61107D01*
X267207Y60713D01*
X267722Y60500D01*
X268279D01*
X268793Y60713D01*
X269187Y61107D01*
X269400Y61621D01*
Y62178D01*
X269187Y62693D01*
X268793Y63087D01*
X268279Y63300D01*
X267722D01*
X267207Y63087D01*
X266813Y62693D01*
X266806Y62675D01*
X264046D01*
X263988Y62816D01*
X263594Y63210D01*
X263079Y63423D01*
D02*
G37*
G36*
X312940Y64600D02*
X308700D01*
Y60360D01*
X312940D01*
Y64600D01*
D02*
G37*
G36*
X307700D02*
X303460D01*
Y60360D01*
X307700D01*
Y64600D01*
D02*
G37*
G36*
X287350Y64600D02*
X283109D01*
Y60360D01*
X287350D01*
Y64600D01*
D02*
G37*
G36*
X282109D02*
X277869D01*
Y60360D01*
X282109D01*
Y64600D01*
D02*
G37*
G36*
X86504Y69209D02*
X85947D01*
X85433Y68996D01*
X85039Y68602D01*
X84826Y68088D01*
Y67531D01*
X85039Y67016D01*
X85308Y66747D01*
Y63745D01*
X82365Y60802D01*
X81984D01*
X81470Y60589D01*
X81076Y60195D01*
X80863Y59681D01*
Y59124D01*
X81076Y58609D01*
X81470Y58215D01*
X81984Y58002D01*
X82541D01*
X83056Y58215D01*
X83450Y58609D01*
X83663Y59124D01*
Y59504D01*
X86875Y62716D01*
X87073Y63014D01*
X87143Y63365D01*
Y66747D01*
X87413Y67016D01*
X87626Y67531D01*
Y68088D01*
X87413Y68602D01*
X87019Y68996D01*
X86504Y69209D01*
D02*
G37*
G36*
X275578Y61500D02*
X275022D01*
X274507Y61287D01*
X274113Y60893D01*
X273900Y60378D01*
Y59821D01*
X274006Y59565D01*
X272841Y58400D01*
X272422D01*
X271907Y58187D01*
X271513Y57793D01*
X271300Y57279D01*
Y56722D01*
X271513Y56207D01*
X271907Y55813D01*
X272422Y55600D01*
X272978D01*
X273493Y55813D01*
X273887Y56207D01*
X274100Y56722D01*
Y57279D01*
X273994Y57535D01*
X275159Y58700D01*
X275578D01*
X276093Y58913D01*
X276487Y59307D01*
X276700Y59821D01*
Y60378D01*
X276487Y60893D01*
X276093Y61287D01*
X275578Y61500D01*
D02*
G37*
G36*
X18030Y55511D02*
Y52495D01*
X20304D01*
Y52803D01*
X20209Y53521D01*
X19932Y54190D01*
X19491Y54765D01*
X18917Y55206D01*
X18248Y55483D01*
X18030Y55511D01*
D02*
G37*
G36*
X17030Y55511D02*
X16812Y55483D01*
X16143Y55206D01*
X15569Y54765D01*
X15128Y54190D01*
X14851Y53521D01*
X14756Y52803D01*
Y52495D01*
X17030D01*
Y55511D01*
D02*
G37*
G36*
X7976Y51058D02*
X7400D01*
Y48557D01*
X10911D01*
X10875Y48834D01*
X10575Y49558D01*
X10098Y50179D01*
X9477Y50656D01*
X8753Y50956D01*
X7976Y51058D01*
D02*
G37*
G36*
X6400D02*
X5824D01*
X5047Y50956D01*
X4324Y50656D01*
X3702Y50179D01*
X3225Y49558D01*
X2925Y48834D01*
X2889Y48557D01*
X6400D01*
Y51058D01*
D02*
G37*
G36*
X20304Y51494D02*
X18030D01*
Y48478D01*
X18248Y48506D01*
X18917Y48783D01*
X19491Y49224D01*
X19932Y49799D01*
X20209Y50467D01*
X20304Y51185D01*
Y51494D01*
D02*
G37*
G36*
X17030D02*
X14756D01*
Y51185D01*
X14851Y50467D01*
X15128Y49799D01*
X15569Y49224D01*
X16143Y48783D01*
X16812Y48506D01*
X17030Y48478D01*
Y51494D01*
D02*
G37*
G36*
X10911Y47558D02*
X7400D01*
Y45057D01*
X7976D01*
X8753Y45159D01*
X9477Y45459D01*
X10098Y45936D01*
X10575Y46557D01*
X10875Y47281D01*
X10911Y47558D01*
D02*
G37*
G36*
X6400D02*
X2889D01*
X2925Y47281D01*
X3225Y46557D01*
X3702Y45936D01*
X4324Y45459D01*
X5047Y45159D01*
X5824Y45057D01*
X6400D01*
Y47558D01*
D02*
G37*
G36*
X307167Y50450D02*
X306233D01*
X305330Y50208D01*
X304521Y49740D01*
X303860Y49079D01*
X303392Y48270D01*
X303150Y47367D01*
Y46433D01*
X303392Y45530D01*
X303860Y44721D01*
X304521Y44060D01*
X305330Y43592D01*
X306233Y43350D01*
X307167D01*
X308070Y43592D01*
X308879Y44060D01*
X309540Y44721D01*
X310008Y45530D01*
X310250Y46433D01*
Y47367D01*
X310008Y48270D01*
X309540Y49079D01*
X308879Y49740D01*
X308070Y50208D01*
X307167Y50450D01*
D02*
G37*
G36*
X62979Y48200D02*
X62422D01*
X61907Y47987D01*
X61513Y47593D01*
X61300Y47078D01*
Y46521D01*
X61513Y46007D01*
X61907Y45613D01*
X62422Y45400D01*
X62612D01*
X64320Y43692D01*
Y43253D01*
X64533Y42739D01*
X64927Y42345D01*
X65442Y42132D01*
X65999D01*
X66513Y42345D01*
X66907Y42739D01*
X67120Y43253D01*
Y43810D01*
X66907Y44325D01*
X66513Y44719D01*
X65999Y44932D01*
X65808D01*
X64100Y46639D01*
Y47078D01*
X63887Y47593D01*
X63493Y47987D01*
X62979Y48200D01*
D02*
G37*
G36*
X57679Y47000D02*
X57121D01*
X56607Y46787D01*
X56213Y46393D01*
X56000Y45878D01*
Y45322D01*
X56213Y44807D01*
X56386Y44634D01*
Y42466D01*
X56113Y42193D01*
X55900Y41679D01*
Y41122D01*
X56113Y40607D01*
X56507Y40213D01*
X57021Y40000D01*
X57578D01*
X58093Y40213D01*
X58487Y40607D01*
X58700Y41122D01*
Y41679D01*
X58487Y42193D01*
X58314Y42366D01*
Y44534D01*
X58587Y44807D01*
X58800Y45322D01*
Y45878D01*
X58587Y46393D01*
X58193Y46787D01*
X57679Y47000D01*
D02*
G37*
G36*
X270630Y43049D02*
X270073D01*
X269558Y42836D01*
X269164Y42442D01*
X268951Y41927D01*
Y41370D01*
X269164Y40856D01*
X269558Y40462D01*
X270073Y40249D01*
X270630D01*
X270709Y40282D01*
X273190Y37801D01*
X273421Y37646D01*
X273694Y37592D01*
X273823D01*
X274200Y37215D01*
Y36821D01*
X274413Y36307D01*
X274807Y35913D01*
X275322Y35700D01*
X275879D01*
X276393Y35913D01*
X276787Y36307D01*
X277000Y36821D01*
Y37378D01*
X276787Y37893D01*
X276393Y38287D01*
X275879Y38500D01*
X275322D01*
X275047Y38386D01*
X274623Y38810D01*
X274392Y38965D01*
X274119Y39019D01*
X273990D01*
X271718Y41291D01*
X271751Y41370D01*
Y41927D01*
X271538Y42442D01*
X271144Y42836D01*
X270630Y43049D01*
D02*
G37*
G36*
X310250Y40450D02*
X303150D01*
Y33350D01*
X310250D01*
Y40450D01*
D02*
G37*
G36*
X303985Y21900D02*
X303500D01*
Y12400D01*
X313000D01*
Y12885D01*
X312616Y14817D01*
X311862Y16637D01*
X310768Y18275D01*
X309375Y19668D01*
X307737Y20762D01*
X305917Y21516D01*
X303985Y21900D01*
D02*
G37*
G36*
X302500D02*
X302015D01*
X300083Y21516D01*
X298263Y20762D01*
X296625Y19668D01*
X295233Y18275D01*
X294138Y16637D01*
X293384Y14817D01*
X293000Y12885D01*
Y12400D01*
X302500D01*
Y21900D01*
D02*
G37*
G36*
X13485Y21800D02*
X13000D01*
Y12300D01*
X22500D01*
Y12785D01*
X22116Y14717D01*
X21362Y16537D01*
X20267Y18175D01*
X18875Y19568D01*
X17237Y20662D01*
X15417Y21416D01*
X13485Y21800D01*
D02*
G37*
G36*
X12000D02*
X11515D01*
X9583Y21416D01*
X7763Y20662D01*
X6125Y19568D01*
X4733Y18175D01*
X3638Y16537D01*
X2884Y14717D01*
X2500Y12785D01*
Y12300D01*
X12000D01*
Y21800D01*
D02*
G37*
G36*
X313000Y11400D02*
X303500D01*
Y1900D01*
X303985D01*
X305917Y2284D01*
X307737Y3038D01*
X309375Y4132D01*
X310768Y5525D01*
X311862Y7163D01*
X312616Y8983D01*
X313000Y10915D01*
Y11400D01*
D02*
G37*
G36*
X302500D02*
X293000D01*
Y10915D01*
X293384Y8983D01*
X294138Y7163D01*
X295233Y5525D01*
X296625Y4132D01*
X298263Y3038D01*
X300083Y2284D01*
X302015Y1900D01*
X302500D01*
Y11400D01*
D02*
G37*
G36*
X22500Y11300D02*
X13000D01*
Y1800D01*
X13485D01*
X15417Y2184D01*
X17237Y2938D01*
X18875Y4033D01*
X20267Y5425D01*
X21362Y7063D01*
X22116Y8883D01*
X22500Y10815D01*
Y11300D01*
D02*
G37*
G36*
X12000D02*
X2500D01*
Y10815D01*
X2884Y8883D01*
X3638Y7063D01*
X4733Y5425D01*
X6125Y4033D01*
X7763Y2938D01*
X9583Y2184D01*
X11515Y1800D01*
X12000D01*
Y11300D01*
D02*
G37*
%LPD*%
D14*
X82263Y59402D02*
X86226Y63365D01*
Y67809D01*
D16*
X82400Y207000D02*
Y209100D01*
X78300Y213200D02*
X82400Y209100D01*
X82300Y206900D02*
X82400Y207000D01*
X50399Y217087D02*
X50407Y217095D01*
Y223527D01*
X50414Y223534D01*
X28679Y222800D02*
X29391Y222088D01*
Y216685D02*
Y222088D01*
X28679Y222800D02*
Y223139D01*
X51835Y201097D02*
X52103Y201365D01*
X49339Y200041D02*
X50396Y201097D01*
X51835D01*
X44685Y200041D02*
X49339D01*
X36800Y200850D02*
X41100Y196550D01*
X36800Y200850D02*
Y200900D01*
X41100Y196500D02*
Y196550D01*
X81884Y212596D02*
Y213931D01*
Y212596D02*
X85693Y208787D01*
X81808Y214007D02*
X81884Y213931D01*
X75322Y204962D02*
X76864Y206504D01*
Y206663D02*
X78746Y208546D01*
X75322Y204657D02*
Y204962D01*
X76864Y206504D02*
Y206663D01*
X78746Y208546D02*
X78925D01*
X78300Y213200D02*
Y216200D01*
X147367Y97340D02*
Y97497D01*
X144803Y100062D02*
X147367Y97497D01*
X144803Y100062D02*
Y100219D01*
X141751Y97076D02*
X144251Y94575D01*
X144450D01*
X141552Y97076D02*
X141751D01*
X189480Y167938D02*
X189540Y167879D01*
Y159760D02*
X189600Y159700D01*
X189540Y159760D02*
Y167879D01*
X245439Y82540D02*
Y88732D01*
X246000Y81600D02*
Y81979D01*
X245439Y82540D02*
X246000Y81979D01*
X245000Y89170D02*
X245439Y88732D01*
X245000Y89170D02*
Y93900D01*
X238944Y83779D02*
X243475Y79248D01*
X238944Y83779D02*
Y83831D01*
X243475Y79195D02*
Y79248D01*
X240861Y76755D02*
Y76808D01*
X236469Y81200D02*
X240861Y76808D01*
X236469Y81200D02*
Y81252D01*
X269722Y81038D02*
Y81208D01*
X266500Y84430D02*
Y84600D01*
Y84430D02*
X269722Y81208D01*
X262954Y76888D02*
X268249D01*
X262870Y76804D02*
X262954Y76888D01*
X268249D02*
X268333Y76972D01*
X267938Y61962D02*
X268000Y61900D01*
X262862Y61962D02*
X267938D01*
X262801Y62023D02*
X262862Y61962D01*
X262993Y66807D02*
X267893D01*
X268000Y66700D01*
X262885Y66915D02*
X262993Y66807D01*
X91656Y208000D02*
X93800D01*
X85534Y214122D02*
X91656Y208000D01*
X102400Y205800D02*
Y211100D01*
X100700Y212800D02*
X102400Y211100D01*
X80247Y195250D02*
Y195629D01*
X81347Y196729D02*
Y199978D01*
X80247Y195629D02*
X81347Y196729D01*
X71800Y199200D02*
X71900Y199100D01*
Y194600D02*
X72000Y194500D01*
X71900Y194600D02*
Y199100D01*
X68000Y199200D02*
X68100Y199100D01*
Y194600D02*
X68200Y194500D01*
X68100Y194600D02*
Y199100D01*
X75471Y194729D02*
X75500Y194700D01*
X75471Y194729D02*
Y198965D01*
X75442Y198994D02*
X75471Y198965D01*
X60647Y199329D02*
X60804Y199172D01*
Y195096D02*
Y199172D01*
Y195096D02*
X60900Y195000D01*
X93105Y215574D02*
Y219171D01*
X93700Y214600D02*
Y214979D01*
X93105Y215574D02*
X93700Y214979D01*
X91226Y221050D02*
X93105Y219171D01*
X64500Y199200D02*
X64600Y199300D01*
X64500Y194600D02*
Y199200D01*
X64400Y194500D02*
X64500Y194600D01*
X214193Y157850D02*
X221728D01*
X221778Y157800D01*
X214143Y157900D02*
X214193Y157850D01*
X281450Y93150D02*
X286850D01*
X286900Y93200D01*
X290532Y199632D02*
X290800Y199900D01*
X289553Y199632D02*
X290532D01*
X289521Y199600D02*
X289553Y199632D01*
X285900Y199600D02*
X289521D01*
X197500Y159600D02*
Y166800D01*
X197650Y166950D01*
X97000Y92400D02*
X97050Y92350D01*
Y88750D02*
Y92350D01*
Y88750D02*
X97100Y88700D01*
X221350Y162150D02*
X221400Y162200D01*
X214300Y162100D02*
X214350Y162150D01*
X221350D01*
X101200Y95200D02*
Y98900D01*
X101286Y92375D02*
X101300Y92361D01*
Y88600D02*
Y92361D01*
X213750Y104050D02*
X221900D01*
X234600Y201000D02*
X234700Y200900D01*
X227700Y201000D02*
X234600D01*
X227600Y201100D02*
X227700Y201000D01*
X223329Y183391D02*
X224154D01*
X226659Y180886D01*
X221013Y185707D02*
X223329Y183391D01*
X277300Y190400D02*
X277400Y190300D01*
X272400Y190400D02*
X277300D01*
X272300Y190500D02*
X272400Y190400D01*
X288500Y204500D02*
X288600Y204400D01*
X288500Y204500D02*
Y211600D01*
X288400Y211700D02*
X288500Y211600D01*
X221700Y70350D02*
X226200Y74850D01*
Y75000D01*
X221700Y70200D02*
Y70350D01*
X167200Y68500D02*
X167300Y68400D01*
X167200Y68500D02*
Y72000D01*
X231787Y69167D02*
X231787D01*
X167100Y72100D02*
X167200Y72000D01*
X227096Y64900D02*
X228342Y66145D01*
X226900Y64900D02*
X227096D01*
X228342Y66145D02*
X228766D01*
X231787Y69167D01*
X294800Y87400D02*
Y91300D01*
X170800Y68300D02*
Y72500D01*
X224100Y67600D02*
X228800Y72300D01*
X229100D01*
X236600Y89479D02*
Y94779D01*
X237200Y88500D02*
Y88879D01*
X236600Y89479D02*
X237200Y88879D01*
X233100Y88500D02*
Y94400D01*
X228150Y94050D02*
X228200Y94100D01*
X228150Y89150D02*
Y94050D01*
X228100Y89100D02*
X228150Y89150D01*
X164400Y221500D02*
X164500Y221600D01*
X164400Y217300D02*
Y221500D01*
X164300Y217200D02*
X164400Y217300D01*
X203100Y159986D02*
Y164200D01*
X272700Y57250D02*
X275300Y59850D01*
X272700Y57000D02*
Y57250D01*
X275300Y59850D02*
Y60100D01*
X273694Y38306D02*
X274119D01*
X275324Y37100D01*
X270351Y41649D02*
X273694Y38306D01*
X275324Y37100D02*
X275600D01*
X113694Y82906D02*
Y87094D01*
X117275Y83068D02*
X117400Y82943D01*
X117275Y83068D02*
Y86904D01*
X117150Y87028D02*
X117275Y86904D01*
D97*
X65720Y43532D02*
Y43656D01*
X62700Y46676D02*
Y46800D01*
Y46676D02*
X65720Y43656D01*
X71454Y75200D02*
X71700D01*
X87954Y72600D02*
X88200D01*
X65487Y76633D02*
X70021D01*
X71454Y75200D01*
X83400Y71100D02*
X86454D01*
X87954Y72600D01*
X71150Y62650D02*
X71200Y62600D01*
X71150Y62650D02*
Y67750D01*
X71100Y67800D02*
X71150Y67750D01*
X49707Y76687D02*
X49881Y76513D01*
X50736Y76300D02*
X59700D01*
X49881Y76513D02*
X50524D01*
X50736Y76300D01*
X14200Y190500D02*
X21200D01*
X57311Y45511D02*
X57350Y45472D01*
Y41450D02*
Y45472D01*
X57300Y41400D02*
X57350Y41450D01*
X68750Y62650D02*
X68800Y62600D01*
X68700Y67800D02*
X68750Y67750D01*
Y62650D02*
Y67750D01*
X14200Y188100D02*
X21200D01*
X55623Y78700D02*
X59700D01*
X55307Y78384D02*
X55623Y78700D01*
X51404Y78384D02*
X55307D01*
D99*
X171932Y227395D02*
D03*
X173900Y229363D02*
D03*
X171932Y235268D02*
D03*
X175868D02*
D03*
X173900Y233300D02*
D03*
X171932Y231331D02*
D03*
X175868D02*
D03*
Y227395D02*
D03*
D100*
X7894Y245550D02*
D03*
X302400Y232900D02*
D03*
X57147Y166850D02*
D03*
X112047Y218050D02*
D03*
X306700Y46900D02*
D03*
D101*
X285795Y269758D02*
D03*
X260205D02*
D03*
X82852Y131992D02*
D03*
X108442D02*
D03*
X282610Y65100D02*
D03*
X308200D02*
D03*
X282610Y82816D02*
D03*
X308200D02*
D03*
X108442Y149708D02*
D03*
X82852D02*
D03*
X260205Y252042D02*
D03*
X285795D02*
D03*
D102*
X12500Y11800D02*
D03*
X303000Y11900D02*
D03*
X12000Y264300D02*
D03*
X303100Y264600D02*
D03*
D103*
X6900Y48057D02*
D03*
Y75617D02*
D03*
D104*
X17530Y51995D02*
D03*
Y71680D02*
D03*
D105*
X122047Y218050D02*
D03*
X47147Y166850D02*
D03*
D106*
X284788Y130112D02*
D03*
X269688Y139612D02*
D03*
Y145312D02*
D03*
X273788Y130012D02*
D03*
X269788Y134112D02*
D03*
X273688Y149712D02*
D03*
X279288Y130012D02*
D03*
X279388Y149912D02*
D03*
X288988Y140212D02*
D03*
X288888Y145612D02*
D03*
Y134512D02*
D03*
X284888Y149912D02*
D03*
X82300Y206900D02*
D03*
X183100Y227400D02*
D03*
X88000Y76100D02*
D03*
X75447Y140250D02*
D03*
X16331Y203900D02*
D03*
X46189Y214600D02*
D03*
X90500Y212900D02*
D03*
X88547Y223250D02*
D03*
X234200Y156900D02*
D03*
X258200Y185600D02*
D03*
X269700Y199900D02*
D03*
X297700Y45600D02*
D03*
X113700Y208800D02*
D03*
X176100Y207700D02*
D03*
X213300Y220900D02*
D03*
X251800Y247800D02*
D03*
X224200Y258200D02*
D03*
X97200Y49100D02*
D03*
X97800Y75900D02*
D03*
X104700Y75800D02*
D03*
X97800Y68900D02*
D03*
X104700Y69000D02*
D03*
X101300Y72400D02*
D03*
X66222Y212019D02*
D03*
X66147Y214350D02*
D03*
X66122Y216719D02*
D03*
X68522Y214419D02*
D03*
X63847Y214350D02*
D03*
X285990Y40153D02*
D03*
X288790D02*
D03*
Y42953D02*
D03*
X285990D02*
D03*
X62700Y46800D02*
D03*
X65720Y43532D02*
D03*
X88200Y72600D02*
D03*
X71700Y75200D02*
D03*
X65487Y76633D02*
D03*
X83400Y71100D02*
D03*
X71100Y67800D02*
D03*
X71200Y62600D02*
D03*
X21200Y190500D02*
D03*
X14200D02*
D03*
X59700Y76300D02*
D03*
X57400Y45600D02*
D03*
X57300Y41400D02*
D03*
X49707Y76687D02*
D03*
X68700Y67800D02*
D03*
X68800Y62600D02*
D03*
X21200Y188100D02*
D03*
X14200D02*
D03*
X59700Y78700D02*
D03*
X51404Y78384D02*
D03*
X86226Y67809D02*
D03*
X82263Y59402D02*
D03*
X50414Y223534D02*
D03*
X50399Y217087D02*
D03*
X29391Y216685D02*
D03*
X28679Y223139D02*
D03*
X52103Y201365D02*
D03*
X44685Y200041D02*
D03*
X41100Y196500D02*
D03*
X36800Y200900D02*
D03*
X30584Y201050D02*
D03*
X75322Y204657D02*
D03*
X78925Y208546D02*
D03*
X144803Y100219D02*
D03*
X147367Y97340D02*
D03*
X141552Y97076D02*
D03*
X144450Y94575D02*
D03*
X189480Y167938D02*
D03*
X246000Y81600D02*
D03*
X245439Y88353D02*
D03*
X238944Y83831D02*
D03*
X236469Y81252D02*
D03*
X243475Y79195D02*
D03*
X240861Y76755D02*
D03*
X269722Y81038D02*
D03*
X266500Y84600D02*
D03*
X268333Y76972D02*
D03*
X262870Y76804D02*
D03*
X262801Y62023D02*
D03*
X262885Y66915D02*
D03*
X268000Y61900D02*
D03*
Y66700D02*
D03*
X85693Y208787D02*
D03*
X93800Y208000D02*
D03*
X100700Y212800D02*
D03*
X102400Y205800D02*
D03*
X85534Y214122D02*
D03*
X80247Y195250D02*
D03*
X81347Y199978D02*
D03*
X71800Y199200D02*
D03*
X72000Y194500D02*
D03*
X81808Y214007D02*
D03*
X68000Y199200D02*
D03*
X68200Y194500D02*
D03*
X75442Y198994D02*
D03*
X78300Y216200D02*
D03*
X75500Y194700D02*
D03*
X60647Y199329D02*
D03*
X60900Y195000D02*
D03*
X91226Y221050D02*
D03*
X93700Y214600D02*
D03*
X64600Y199300D02*
D03*
X64400Y194500D02*
D03*
X221778Y157800D02*
D03*
X214143Y157900D02*
D03*
X281450Y93150D02*
D03*
X286900Y93200D02*
D03*
X290800Y199900D02*
D03*
X197650Y166950D02*
D03*
X197500Y159600D02*
D03*
X189600Y159700D02*
D03*
X97000Y92400D02*
D03*
X97100Y88700D02*
D03*
X214300Y162100D02*
D03*
X101200Y98900D02*
D03*
Y95200D02*
D03*
X101286Y92375D02*
D03*
X101300Y88600D02*
D03*
X221900Y104050D02*
D03*
X213750D02*
D03*
X234700Y200900D02*
D03*
X227600Y201100D02*
D03*
X277400Y190300D02*
D03*
X226659Y180886D02*
D03*
X221013Y185707D02*
D03*
X288600Y204400D02*
D03*
X272300Y190500D02*
D03*
X288400Y211700D02*
D03*
X245000Y93900D02*
D03*
X221700Y70200D02*
D03*
X226200Y75000D02*
D03*
X167300Y68400D02*
D03*
X167100Y72100D02*
D03*
X231807Y69187D02*
D03*
X226900Y64900D02*
D03*
X294800Y87400D02*
D03*
Y91300D02*
D03*
X170800Y68300D02*
D03*
Y72500D02*
D03*
X229100Y72300D02*
D03*
X224100Y67600D02*
D03*
X237200Y88500D02*
D03*
X233100D02*
D03*
X228200Y94100D02*
D03*
X233100Y94400D02*
D03*
X236600Y94779D02*
D03*
X228100Y89100D02*
D03*
X164500Y221600D02*
D03*
X285900Y199600D02*
D03*
X203100Y164200D02*
D03*
X275300Y60100D02*
D03*
X272700Y57000D02*
D03*
X221400Y162200D02*
D03*
X275600Y37100D02*
D03*
X270351Y41649D02*
D03*
X113694Y82906D02*
D03*
Y87094D02*
D03*
X203100Y159986D02*
D03*
X117400Y82943D02*
D03*
X117150Y87028D02*
D03*
X164300Y217200D02*
D03*
D107*
X306700Y36900D02*
D03*
X302400Y222900D02*
D03*
X7894Y235550D02*
D03*
D108*
X27700Y78700D02*
D03*
X58100Y176500D02*
D03*
X59600Y183500D02*
D03*
X59300Y190600D02*
D03*
X75100Y83600D02*
D03*
X79900Y83700D02*
D03*
X18000Y209600D02*
D03*
X24000Y209500D02*
D03*
X36900Y208600D02*
D03*
X56400Y196700D02*
D03*
X31000Y209000D02*
D03*
X20900Y248300D02*
D03*
X28500Y248500D02*
D03*
X48600Y241000D02*
D03*
X36400Y248600D02*
D03*
X82100Y240500D02*
D03*
X94100Y249300D02*
D03*
X101800Y249400D02*
D03*
X109500D02*
D03*
X279600Y16600D02*
D03*
X291600Y19400D02*
D03*
X309900Y91600D02*
D03*
X292600Y185700D02*
D03*
X293000Y193600D02*
D03*
X310900Y176900D02*
D03*
X117200Y249400D02*
D03*
X124900D02*
D03*
X198500Y243300D02*
D03*
X204600Y244000D02*
D03*
X57000Y63700D02*
D03*
X214300Y244365D02*
D03*
X73900Y35300D02*
D03*
X87800Y36100D02*
D03*
X158800Y207700D02*
D03*
X158600Y218000D02*
D03*
X144100Y223700D02*
D03*
X131900Y223400D02*
D03*
X142600Y207500D02*
D03*
X138100Y215900D02*
D03*
X82100Y180800D02*
D03*
X103000D02*
D03*
X111600Y185400D02*
D03*
X106300Y196000D02*
D03*
X120900Y194100D02*
D03*
X130400Y203400D02*
D03*
X122000Y208000D02*
D03*
M02*
