G04*
G04 #@! TF.GenerationSoftware,Altium Limited,Altium Designer,25.8.1 (18)*
G04*
G04 Layer_Color=2752767*
%FSLAX25Y25*%
%MOIN*%
G70*
G04*
G04 #@! TF.SameCoordinates,64F7C8A9-438D-4F9F-9055-C3E4DFCE694A*
G04*
G04*
G04 #@! TF.FilePolarity,Positive*
G04*
G01*
G75*
%ADD15C,0.00500*%
%ADD115C,0.00667*%
%ADD116C,0.00400*%
D15*
X169931Y225395D02*
Y229395D01*
X173932D01*
Y225395D01*
X169931D01*
X171900Y227363D02*
Y231363D01*
X175900D01*
Y227363D01*
X171900D01*
X169931Y233268D02*
Y237268D01*
X173932D01*
Y233268D01*
X169931D01*
X173869D02*
Y237268D01*
X177868D01*
Y233268D01*
X173869D01*
X171900Y231300D02*
Y235300D01*
X175900D01*
Y231300D01*
X171900D01*
X169931Y229331D02*
Y233331D01*
X173932D01*
Y229331D01*
X169931D01*
X173869D02*
Y233331D01*
X177868D01*
Y229331D01*
X173869D01*
Y225395D02*
Y229395D01*
X177868D01*
Y225395D01*
X173869D01*
X285795Y267758D02*
X283795Y271758D01*
X287795D01*
X285795Y267758D01*
X260205D02*
X258205Y271758D01*
X262205D01*
X260205Y267758D01*
X82852Y129992D02*
X80852Y133992D01*
X84852D01*
X82852Y129992D01*
X108442D02*
X106442Y133992D01*
X110442D01*
X108442Y129992D01*
X282610Y63100D02*
X280609Y67100D01*
X284610D01*
X282610Y63100D01*
X308200D02*
X306200Y67100D01*
X310200D01*
X308200Y63100D01*
X11500Y10800D02*
Y9800D01*
X13500D01*
Y10800D01*
X14500D01*
Y12800D01*
X13500D01*
Y13800D01*
X11500D01*
Y12800D01*
X10500D01*
Y10800D01*
X11500D01*
X302000Y10900D02*
Y9900D01*
X304000D01*
Y10900D01*
X305000D01*
Y12900D01*
X304000D01*
Y13900D01*
X302000D01*
Y12900D01*
X301000D01*
Y10900D01*
X302000D01*
X11000Y263300D02*
Y262300D01*
X13000D01*
Y263300D01*
X14000D01*
Y265300D01*
X13000D01*
Y266300D01*
X11000D01*
Y265300D01*
X10000D01*
Y263300D01*
X11000D01*
X302100Y263600D02*
Y262600D01*
X304100D01*
Y263600D01*
X305100D01*
Y265600D01*
X304100D01*
Y266600D01*
X302100D01*
Y265600D01*
X301100D01*
Y263600D01*
X302100D01*
X6900Y46058D02*
X7900Y47058D01*
X8900D01*
X7900Y48057D01*
X8900Y49057D01*
X7900D01*
X6900Y50058D01*
X5900Y49057D01*
X4900D01*
X5900Y48057D01*
X4900Y47058D01*
X5900D01*
X6900Y46058D01*
X15530Y49995D02*
X16530Y51995D01*
X15530Y53995D01*
X17530Y52995D01*
X19530Y53995D01*
X18530Y51995D01*
X19530Y49995D01*
X17530Y50994D01*
X15530Y49995D01*
Y69679D02*
X16530Y71680D01*
X15530Y73680D01*
X17530Y72680D01*
X19530Y73680D01*
X18530Y71680D01*
X19530Y69679D01*
X17530Y70679D01*
X15530Y69679D01*
X6900Y73616D02*
X7900Y74616D01*
X8900D01*
X7900Y75617D01*
X8900Y76617D01*
X7900D01*
X6900Y77617D01*
X5900Y76617D01*
X4900D01*
X5900Y75617D01*
X4900Y74616D01*
X5900D01*
X6900Y73616D01*
X282788Y130112D02*
X284788Y132112D01*
X286788Y130112D01*
X284788Y128112D01*
X282788Y130112D01*
X267688Y139612D02*
X269688Y141612D01*
X271688Y139612D01*
X269688Y137612D01*
X267688Y139612D01*
Y145312D02*
X269688Y147312D01*
X271688Y145312D01*
X269688Y143312D01*
X267688Y145312D01*
X271788Y130012D02*
X273788Y132012D01*
X275788Y130012D01*
X273788Y128012D01*
X271788Y130012D01*
X267788Y134112D02*
X269788Y136112D01*
X271788Y134112D01*
X269788Y132112D01*
X267788Y134112D01*
X271688Y149712D02*
X273688Y151712D01*
X275688Y149712D01*
X273688Y147712D01*
X271688Y149712D01*
X277288Y130012D02*
X279288Y132012D01*
X281288Y130012D01*
X279288Y128012D01*
X277288Y130012D01*
X277388Y149912D02*
X279388Y151912D01*
X281388Y149912D01*
X279388Y147912D01*
X277388Y149912D01*
X286988Y140212D02*
X288988Y142212D01*
X290988Y140212D01*
X288988Y138212D01*
X286988Y140212D01*
X286888Y145612D02*
X288888Y147612D01*
X290888Y145612D01*
X288888Y143612D01*
X286888Y145612D01*
Y134512D02*
X288888Y136512D01*
X290888Y134512D01*
X288888Y132512D01*
X286888Y134512D01*
X282888Y149912D02*
X284888Y151912D01*
X286888Y149912D01*
X284888Y147912D01*
X282888Y149912D01*
X282610Y80817D02*
X280609Y84816D01*
X284610D01*
X282610Y80817D01*
X308200D02*
X306200Y84816D01*
X310200D01*
X308200Y80817D01*
X108442Y147708D02*
X106442Y151708D01*
X110442D01*
X108442Y147708D01*
X82852D02*
X80852Y151708D01*
X84852D01*
X82852Y147708D01*
X260205Y250042D02*
X258205Y254042D01*
X262205D01*
X260205Y250042D01*
X285795D02*
X283795Y254042D01*
X287795D01*
X285795Y250042D01*
X80300Y206900D02*
X82300Y208900D01*
X84300Y206900D01*
X82300Y204900D01*
X80300Y206900D01*
X181100Y227400D02*
X183100Y229400D01*
X185100Y227400D01*
X183100Y225400D01*
X181100Y227400D01*
X56100Y174500D02*
Y178500D01*
X60100D01*
Y174500D01*
X56100D01*
X56900Y175300D02*
Y177700D01*
X59300D01*
Y175300D01*
X56900D01*
X57600Y181500D02*
Y185500D01*
X61600D01*
Y181500D01*
X57600D01*
X58400Y182300D02*
Y184700D01*
X60800D01*
Y182300D01*
X58400D01*
X57300Y188600D02*
Y192600D01*
X61300D01*
Y188600D01*
X57300D01*
X58100Y189400D02*
Y191800D01*
X60500D01*
Y189400D01*
X58100D01*
X86000Y76100D02*
X88000Y78100D01*
X90000Y76100D01*
X88000Y74100D01*
X86000Y76100D01*
X73100Y81600D02*
Y85600D01*
X77100D01*
Y81600D01*
X73100D01*
X73900Y82400D02*
Y84800D01*
X76300D01*
Y82400D01*
X73900D01*
X73447Y140250D02*
X75447Y142250D01*
X77447Y140250D01*
X75447Y138250D01*
X73447Y140250D01*
X77900Y81700D02*
Y85700D01*
X81900D01*
Y81700D01*
X77900D01*
X78700Y82500D02*
Y84900D01*
X81100D01*
Y82500D01*
X78700D01*
X14332Y203900D02*
X16331Y205900D01*
X18331Y203900D01*
X16331Y201900D01*
X14332Y203900D01*
X16000Y207600D02*
Y211600D01*
X20000D01*
Y207600D01*
X16000D01*
X16800Y208400D02*
Y210800D01*
X19200D01*
Y208400D01*
X16800D01*
X22000Y207500D02*
Y211500D01*
X26000D01*
Y207500D01*
X22000D01*
X22800Y208300D02*
Y210700D01*
X25200D01*
Y208300D01*
X22800D01*
X34900Y206600D02*
Y210600D01*
X38900D01*
Y206600D01*
X34900D01*
X35700Y207400D02*
Y209800D01*
X38100D01*
Y207400D01*
X35700D01*
X54400Y194700D02*
Y198700D01*
X58400D01*
Y194700D01*
X54400D01*
X55200Y195500D02*
Y197900D01*
X57600D01*
Y195500D01*
X55200D01*
X29000Y207000D02*
Y211000D01*
X33000D01*
Y207000D01*
X29000D01*
X29800Y207800D02*
Y210200D01*
X32200D01*
Y207800D01*
X29800D01*
X18900Y246300D02*
Y250300D01*
X22900D01*
Y246300D01*
X18900D01*
X19700Y247100D02*
Y249500D01*
X22100D01*
Y247100D01*
X19700D01*
X26500Y246500D02*
Y250500D01*
X30500D01*
Y246500D01*
X26500D01*
X27300Y247300D02*
Y249700D01*
X29700D01*
Y247300D01*
X27300D01*
X44189Y214600D02*
X46189Y216600D01*
X48189Y214600D01*
X46189Y212600D01*
X44189Y214600D01*
X46600Y239000D02*
Y243000D01*
X50600D01*
Y239000D01*
X46600D01*
X47400Y239800D02*
Y242200D01*
X49800D01*
Y239800D01*
X47400D01*
X34400Y246600D02*
Y250600D01*
X38400D01*
Y246600D01*
X34400D01*
X35200Y247400D02*
Y249800D01*
X37600D01*
Y247400D01*
X35200D01*
X88500Y212900D02*
X90500Y214900D01*
X92500Y212900D01*
X90500Y210900D01*
X88500Y212900D01*
X80100Y238500D02*
Y242500D01*
X84100D01*
Y238500D01*
X80100D01*
X80900Y239300D02*
Y241700D01*
X83300D01*
Y239300D01*
X80900D01*
X86547Y223250D02*
X88547Y225250D01*
X90547Y223250D01*
X88547Y221250D01*
X86547Y223250D01*
X92100Y247300D02*
Y251300D01*
X96100D01*
Y247300D01*
X92100D01*
X92900Y248100D02*
Y250500D01*
X95300D01*
Y248100D01*
X92900D01*
X99800Y247400D02*
Y251400D01*
X103800D01*
Y247400D01*
X99800D01*
X100600Y248200D02*
Y250600D01*
X103000D01*
Y248200D01*
X100600D01*
X107500Y247400D02*
Y251400D01*
X111500D01*
Y247400D01*
X107500D01*
X108300Y248200D02*
Y250600D01*
X110700D01*
Y248200D01*
X108300D01*
X277600Y14600D02*
Y18600D01*
X281600D01*
Y14600D01*
X277600D01*
X278400Y15400D02*
Y17800D01*
X280800D01*
Y15400D01*
X278400D01*
X232200Y156900D02*
X234200Y158900D01*
X236200Y156900D01*
X234200Y154900D01*
X232200Y156900D01*
X256200Y185600D02*
X258200Y187600D01*
X260200Y185600D01*
X258200Y183600D01*
X256200Y185600D01*
X267700Y199900D02*
X269700Y201900D01*
X271700Y199900D01*
X269700Y197900D01*
X267700Y199900D01*
X289600Y17400D02*
Y21400D01*
X293600D01*
Y17400D01*
X289600D01*
X290400Y18200D02*
Y20600D01*
X292800D01*
Y18200D01*
X290400D01*
X295700Y45600D02*
X297700Y47600D01*
X299700Y45600D01*
X297700Y43600D01*
X295700Y45600D01*
X307900Y89600D02*
Y93600D01*
X311900D01*
Y89600D01*
X307900D01*
X308700Y90400D02*
Y92800D01*
X311100D01*
Y90400D01*
X308700D01*
X290600Y183700D02*
Y187700D01*
X294600D01*
Y183700D01*
X290600D01*
X291400Y184500D02*
Y186900D01*
X293800D01*
Y184500D01*
X291400D01*
X291000Y191600D02*
Y195600D01*
X295000D01*
Y191600D01*
X291000D01*
X291800Y192400D02*
Y194800D01*
X294200D01*
Y192400D01*
X291800D01*
X308900Y174900D02*
Y178900D01*
X312900D01*
Y174900D01*
X308900D01*
X309700Y175700D02*
Y178100D01*
X312100D01*
Y175700D01*
X309700D01*
X111700Y208800D02*
X113700Y210800D01*
X115700Y208800D01*
X113700Y206800D01*
X111700Y208800D01*
X115200Y247400D02*
Y251400D01*
X119200D01*
Y247400D01*
X115200D01*
X116000Y248200D02*
Y250600D01*
X118400D01*
Y248200D01*
X116000D01*
X122900Y247400D02*
Y251400D01*
X126900D01*
Y247400D01*
X122900D01*
X123700Y248200D02*
Y250600D01*
X126100D01*
Y248200D01*
X123700D01*
X174100Y207700D02*
X176100Y209700D01*
X178100Y207700D01*
X176100Y205700D01*
X174100Y207700D01*
X211300Y220900D02*
X213300Y222900D01*
X215300Y220900D01*
X213300Y218900D01*
X211300Y220900D01*
X196500Y241300D02*
Y245300D01*
X200500D01*
Y241300D01*
X196500D01*
X197300Y242100D02*
Y244500D01*
X199700D01*
Y242100D01*
X197300D01*
X202600Y242000D02*
Y246000D01*
X206600D01*
Y242000D01*
X202600D01*
X203400Y242800D02*
Y245200D01*
X205800D01*
Y242800D01*
X203400D01*
X249800Y247800D02*
X251800Y249800D01*
X253800Y247800D01*
X251800Y245800D01*
X249800Y247800D01*
X222200Y258200D02*
X224200Y260200D01*
X226200Y258200D01*
X224200Y256200D01*
X222200Y258200D01*
X55000Y61700D02*
Y65700D01*
X59000D01*
Y61700D01*
X55000D01*
X55800Y62500D02*
Y64900D01*
X58200D01*
Y62500D01*
X55800D01*
X95200Y49100D02*
X97200Y51100D01*
X99200Y49100D01*
X97200Y47100D01*
X95200Y49100D01*
X212300Y242365D02*
Y246365D01*
X216300D01*
Y242365D01*
X212300D01*
X213100Y243165D02*
Y245565D01*
X215500D01*
Y243165D01*
X213100D01*
X71900Y33300D02*
Y37300D01*
X75900D01*
Y33300D01*
X71900D01*
X72700Y34100D02*
Y36500D01*
X75100D01*
Y34100D01*
X72700D01*
X85800D02*
Y38100D01*
X89800D01*
Y34100D01*
X85800D01*
X86600Y34900D02*
Y37300D01*
X89000D01*
Y34900D01*
X86600D01*
X156800Y205700D02*
Y209700D01*
X160800D01*
Y205700D01*
X156800D01*
X157600Y206500D02*
Y208900D01*
X160000D01*
Y206500D01*
X157600D01*
X156600Y216000D02*
Y220000D01*
X160600D01*
Y216000D01*
X156600D01*
X157400Y216800D02*
Y219200D01*
X159800D01*
Y216800D01*
X157400D01*
X142100Y221700D02*
Y225700D01*
X146100D01*
Y221700D01*
X142100D01*
X142900Y222500D02*
Y224900D01*
X145300D01*
Y222500D01*
X142900D01*
X129900Y221400D02*
Y225400D01*
X133900D01*
Y221400D01*
X129900D01*
X130700Y222200D02*
Y224600D01*
X133100D01*
Y222200D01*
X130700D01*
X140600Y205500D02*
Y209500D01*
X144600D01*
Y205500D01*
X140600D01*
X141400Y206300D02*
Y208700D01*
X143800D01*
Y206300D01*
X141400D01*
X136100Y213900D02*
Y217900D01*
X140100D01*
Y213900D01*
X136100D01*
X136900Y214700D02*
Y217100D01*
X139300D01*
Y214700D01*
X136900D01*
X80100Y178800D02*
Y182800D01*
X84100D01*
Y178800D01*
X80100D01*
X80900Y179600D02*
Y182000D01*
X83300D01*
Y179600D01*
X80900D01*
X101000Y178800D02*
Y182800D01*
X105000D01*
Y178800D01*
X101000D01*
X101800Y179600D02*
Y182000D01*
X104200D01*
Y179600D01*
X101800D01*
X109600Y183400D02*
Y187400D01*
X113600D01*
Y183400D01*
X109600D01*
X110400Y184200D02*
Y186600D01*
X112800D01*
Y184200D01*
X110400D01*
X104300Y194000D02*
Y198000D01*
X108300D01*
Y194000D01*
X104300D01*
X105100Y194800D02*
Y197200D01*
X107500D01*
Y194800D01*
X105100D01*
X118900Y192100D02*
Y196100D01*
X122900D01*
Y192100D01*
X118900D01*
X119700Y192900D02*
Y195300D01*
X122100D01*
Y192900D01*
X119700D01*
X128400Y201400D02*
Y205400D01*
X132400D01*
Y201400D01*
X128400D01*
X129200Y202200D02*
Y204600D01*
X131600D01*
Y202200D01*
X129200D01*
X120000Y206000D02*
Y210000D01*
X124000D01*
Y206000D01*
X120000D01*
X120800Y206800D02*
Y209200D01*
X123200D01*
Y206800D01*
X120800D01*
X95800Y75900D02*
X97800Y77900D01*
X99800Y75900D01*
X97800Y73900D01*
X95800Y75900D01*
X102700Y75800D02*
X104700Y77800D01*
X106700Y75800D01*
X104700Y73800D01*
X102700Y75800D01*
X95800Y68900D02*
X97800Y70900D01*
X99800Y68900D01*
X97800Y66900D01*
X95800Y68900D01*
X102700Y69000D02*
X104700Y71000D01*
X106700Y69000D01*
X104700Y67000D01*
X102700Y69000D01*
X99300Y72400D02*
X101300Y74400D01*
X103300Y72400D01*
X101300Y70400D01*
X99300Y72400D01*
X64222Y212019D02*
X66222Y214019D01*
X68222Y212019D01*
X66222Y210019D01*
X64222Y212019D01*
X64147Y214350D02*
X66147Y216350D01*
X68147Y214350D01*
X66147Y212350D01*
X64147Y214350D01*
X64122Y216719D02*
X66122Y218719D01*
X68122Y216719D01*
X66122Y214719D01*
X64122Y216719D01*
X66522Y214419D02*
X68522Y216419D01*
X70522Y214419D01*
X68522Y212419D01*
X66522Y214419D01*
X61847Y214350D02*
X63847Y216350D01*
X65847Y214350D01*
X63847Y212350D01*
X61847Y214350D01*
X283990Y40153D02*
X285990Y42153D01*
X287990Y40153D01*
X285990Y38153D01*
X283990Y40153D01*
X286790D02*
X288790Y42153D01*
X290790Y40153D01*
X288790Y38153D01*
X286790Y40153D01*
Y42953D02*
X288790Y44953D01*
X290790Y42953D01*
X288790Y40953D01*
X286790Y42953D01*
X283990D02*
X285990Y44953D01*
X287990Y42953D01*
X285990Y40953D01*
X283990Y42953D01*
X60700Y46800D02*
X62700Y48800D01*
X64700Y46800D01*
X62700Y44800D01*
X60700Y46800D01*
X63720Y43532D02*
X65720Y45532D01*
X67720Y43532D01*
X65720Y41532D01*
X63720Y43532D01*
X86200Y72600D02*
X88200Y74600D01*
X90200Y72600D01*
X88200Y70600D01*
X86200Y72600D01*
X69700Y75200D02*
X71700Y77200D01*
X73700Y75200D01*
X71700Y73200D01*
X69700Y75200D01*
X63487Y76633D02*
X65487Y78633D01*
X67487Y76633D01*
X65487Y74633D01*
X63487Y76633D01*
X81400Y71100D02*
X83400Y73100D01*
X85400Y71100D01*
X83400Y69100D01*
X81400Y71100D01*
X69100Y67800D02*
X71100Y69800D01*
X73100Y67800D01*
X71100Y65800D01*
X69100Y67800D01*
X69200Y62600D02*
X71200Y64600D01*
X73200Y62600D01*
X71200Y60600D01*
X69200Y62600D01*
X19200Y190500D02*
X21200Y192500D01*
X23200Y190500D01*
X21200Y188500D01*
X19200Y190500D01*
X12200D02*
X14200Y192500D01*
X16200Y190500D01*
X14200Y188500D01*
X12200Y190500D01*
X57700Y76300D02*
X59700Y78300D01*
X61700Y76300D01*
X59700Y74300D01*
X57700Y76300D01*
X55400Y45600D02*
X57400Y47600D01*
X59400Y45600D01*
X57400Y43600D01*
X55400Y45600D01*
X55300Y41400D02*
X57300Y43400D01*
X59300Y41400D01*
X57300Y39400D01*
X55300Y41400D01*
X47707Y76687D02*
X49707Y78687D01*
X51707Y76687D01*
X49707Y74687D01*
X47707Y76687D01*
X66700Y67800D02*
X68700Y69800D01*
X70700Y67800D01*
X68700Y65800D01*
X66700Y67800D01*
X66800Y62600D02*
X68800Y64600D01*
X70800Y62600D01*
X68800Y60600D01*
X66800Y62600D01*
X19200Y188100D02*
X21200Y190100D01*
X23200Y188100D01*
X21200Y186100D01*
X19200Y188100D01*
X12200D02*
X14200Y190100D01*
X16200Y188100D01*
X14200Y186100D01*
X12200Y188100D01*
X57700Y78700D02*
X59700Y80700D01*
X61700Y78700D01*
X59700Y76700D01*
X57700Y78700D01*
X49404Y78384D02*
X51404Y80384D01*
X53404Y78384D01*
X51404Y76384D01*
X49404Y78384D01*
X84226Y67809D02*
X86226Y69809D01*
X88226Y67809D01*
X86226Y65809D01*
X84226Y67809D01*
X80263Y59402D02*
X82263Y61402D01*
X84263Y59402D01*
X82263Y57402D01*
X80263Y59402D01*
X48414Y223534D02*
X50414Y225534D01*
X52414Y223534D01*
X50414Y221534D01*
X48414Y223534D01*
X48399Y217087D02*
X50399Y219087D01*
X52399Y217087D01*
X50399Y215087D01*
X48399Y217087D01*
X27391Y216685D02*
X29391Y218685D01*
X31391Y216685D01*
X29391Y214685D01*
X27391Y216685D01*
X26679Y223139D02*
X28679Y225139D01*
X30679Y223139D01*
X28679Y221139D01*
X26679Y223139D01*
X50103Y201365D02*
X52103Y203365D01*
X54103Y201365D01*
X52103Y199365D01*
X50103Y201365D01*
X42685Y200041D02*
X44685Y202041D01*
X46685Y200041D01*
X44685Y198041D01*
X42685Y200041D01*
X39100Y196500D02*
X41100Y198500D01*
X43100Y196500D01*
X41100Y194500D01*
X39100Y196500D01*
X34800Y200900D02*
X36800Y202900D01*
X38800Y200900D01*
X36800Y198900D01*
X34800Y200900D01*
X28584Y201050D02*
X30584Y203050D01*
X32584Y201050D01*
X30584Y199050D01*
X28584Y201050D01*
X73322Y204657D02*
X75322Y206657D01*
X77322Y204657D01*
X75322Y202657D01*
X73322Y204657D01*
X76925Y208546D02*
X78925Y210546D01*
X80925Y208546D01*
X78925Y206546D01*
X76925Y208546D01*
X142803Y100219D02*
X144803Y102219D01*
X146803Y100219D01*
X144803Y98219D01*
X142803Y100219D01*
X145367Y97340D02*
X147367Y99340D01*
X149367Y97340D01*
X147367Y95340D01*
X145367Y97340D01*
X139552Y97076D02*
X141552Y99076D01*
X143552Y97076D01*
X141552Y95076D01*
X139552Y97076D01*
X142450Y94575D02*
X144450Y96575D01*
X146450Y94575D01*
X144450Y92575D01*
X142450Y94575D01*
X187480Y167938D02*
X189480Y169938D01*
X191481Y167938D01*
X189480Y165938D01*
X187480Y167938D01*
X244000Y81600D02*
X246000Y83600D01*
X248000Y81600D01*
X246000Y79600D01*
X244000Y81600D01*
X243439Y88353D02*
X245439Y90353D01*
X247439Y88353D01*
X245439Y86353D01*
X243439Y88353D01*
X236944Y83831D02*
X238944Y85831D01*
X240944Y83831D01*
X238944Y81831D01*
X236944Y83831D01*
X234469Y81252D02*
X236469Y83252D01*
X238469Y81252D01*
X236469Y79252D01*
X234469Y81252D01*
X241475Y79195D02*
X243475Y81195D01*
X245475Y79195D01*
X243475Y77195D01*
X241475Y79195D01*
X238861Y76755D02*
X240861Y78755D01*
X242861Y76755D01*
X240861Y74756D01*
X238861Y76755D01*
X267722Y81038D02*
X269722Y83039D01*
X271722Y81038D01*
X269722Y79039D01*
X267722Y81038D01*
X264500Y84600D02*
X266500Y86600D01*
X268500Y84600D01*
X266500Y82600D01*
X264500Y84600D01*
X266333Y76972D02*
X268333Y78972D01*
X270333Y76972D01*
X268333Y74972D01*
X266333Y76972D01*
X260870Y76804D02*
X262870Y78804D01*
X264870Y76804D01*
X262870Y74804D01*
X260870Y76804D01*
X260801Y62023D02*
X262801Y64023D01*
X264801Y62023D01*
X262801Y60023D01*
X260801Y62023D01*
X260885Y66915D02*
X262885Y68915D01*
X264885Y66915D01*
X262885Y64915D01*
X260885Y66915D01*
X266000Y61900D02*
X268000Y63900D01*
X270000Y61900D01*
X268000Y59900D01*
X266000Y61900D01*
Y66700D02*
X268000Y68700D01*
X270000Y66700D01*
X268000Y64700D01*
X266000Y66700D01*
X83693Y208787D02*
X85693Y210787D01*
X87693Y208787D01*
X85693Y206787D01*
X83693Y208787D01*
X91800Y208000D02*
X93800Y210000D01*
X95800Y208000D01*
X93800Y206000D01*
X91800Y208000D01*
X98700Y212800D02*
X100700Y214800D01*
X102700Y212800D01*
X100700Y210800D01*
X98700Y212800D01*
X100400Y205800D02*
X102400Y207800D01*
X104400Y205800D01*
X102400Y203800D01*
X100400Y205800D01*
X83534Y214122D02*
X85534Y216122D01*
X87534Y214122D01*
X85534Y212122D01*
X83534Y214122D01*
X78247Y195250D02*
X80247Y197250D01*
X82247Y195250D01*
X80247Y193250D01*
X78247Y195250D01*
X79347Y199978D02*
X81347Y201978D01*
X83347Y199978D01*
X81347Y197978D01*
X79347Y199978D01*
X69800Y199200D02*
X71800Y201200D01*
X73800Y199200D01*
X71800Y197200D01*
X69800Y199200D01*
X70000Y194500D02*
X72000Y196500D01*
X74000Y194500D01*
X72000Y192500D01*
X70000Y194500D01*
X79808Y214007D02*
X81808Y216007D01*
X83808Y214007D01*
X81808Y212007D01*
X79808Y214007D01*
X66000Y199200D02*
X68000Y201200D01*
X70000Y199200D01*
X68000Y197200D01*
X66000Y199200D01*
X66200Y194500D02*
X68200Y196500D01*
X70200Y194500D01*
X68200Y192500D01*
X66200Y194500D01*
X73442Y198994D02*
X75442Y200994D01*
X77442Y198994D01*
X75442Y196994D01*
X73442Y198994D01*
X76300Y216200D02*
X78300Y218200D01*
X80300Y216200D01*
X78300Y214200D01*
X76300Y216200D01*
X73500Y194700D02*
X75500Y196700D01*
X77500Y194700D01*
X75500Y192700D01*
X73500Y194700D01*
X58647Y199329D02*
X60647Y201329D01*
X62647Y199329D01*
X60647Y197329D01*
X58647Y199329D01*
X58900Y195000D02*
X60900Y197000D01*
X62900Y195000D01*
X60900Y193000D01*
X58900Y195000D01*
X89226Y221050D02*
X91226Y223050D01*
X93226Y221050D01*
X91226Y219050D01*
X89226Y221050D01*
X91700Y214600D02*
X93700Y216600D01*
X95700Y214600D01*
X93700Y212600D01*
X91700Y214600D01*
X62600Y199300D02*
X64600Y201300D01*
X66600Y199300D01*
X64600Y197300D01*
X62600Y199300D01*
X62400Y194500D02*
X64400Y196500D01*
X66400Y194500D01*
X64400Y192500D01*
X62400Y194500D01*
X219778Y157800D02*
X221778Y159800D01*
X223779Y157800D01*
X221778Y155800D01*
X219778Y157800D01*
X212143Y157900D02*
X214143Y159900D01*
X216143Y157900D01*
X214143Y155900D01*
X212143Y157900D01*
X279450Y93150D02*
X281450Y95150D01*
X283450Y93150D01*
X281450Y91150D01*
X279450Y93150D01*
X284900Y93200D02*
X286900Y95200D01*
X288900Y93200D01*
X286900Y91200D01*
X284900Y93200D01*
X288800Y199900D02*
X290800Y201900D01*
X292800Y199900D01*
X290800Y197900D01*
X288800Y199900D01*
X195650Y166950D02*
X197650Y168950D01*
X199650Y166950D01*
X197650Y164950D01*
X195650Y166950D01*
X195500Y159600D02*
X197500Y161600D01*
X199500Y159600D01*
X197500Y157600D01*
X195500Y159600D01*
X187600Y159700D02*
X189600Y161700D01*
X191600Y159700D01*
X189600Y157700D01*
X187600Y159700D01*
X95000Y92400D02*
X97000Y94400D01*
X99000Y92400D01*
X97000Y90400D01*
X95000Y92400D01*
X95100Y88700D02*
X97100Y90700D01*
X99100Y88700D01*
X97100Y86700D01*
X95100Y88700D01*
X212300Y162100D02*
X214300Y164100D01*
X216300Y162100D01*
X214300Y160100D01*
X212300Y162100D01*
X99200Y98900D02*
X101200Y100900D01*
X103200Y98900D01*
X101200Y96900D01*
X99200Y98900D01*
Y95200D02*
X101200Y97200D01*
X103200Y95200D01*
X101200Y93200D01*
X99200Y95200D01*
X99286Y92375D02*
X101286Y94375D01*
X103286Y92375D01*
X101286Y90375D01*
X99286Y92375D01*
X99300Y88600D02*
X101300Y90600D01*
X103300Y88600D01*
X101300Y86600D01*
X99300Y88600D01*
X219900Y104050D02*
X221900Y106050D01*
X223900Y104050D01*
X221900Y102050D01*
X219900Y104050D01*
X211750D02*
X213750Y106050D01*
X215750Y104050D01*
X213750Y102050D01*
X211750Y104050D01*
X232700Y200900D02*
X234700Y202900D01*
X236700Y200900D01*
X234700Y198900D01*
X232700Y200900D01*
X225600Y201100D02*
X227600Y203100D01*
X229600Y201100D01*
X227600Y199100D01*
X225600Y201100D01*
X275400Y190300D02*
X277400Y192300D01*
X279400Y190300D01*
X277400Y188300D01*
X275400Y190300D01*
X224659Y180886D02*
X226659Y182886D01*
X228659Y180886D01*
X226659Y178886D01*
X224659Y180886D01*
X219013Y185707D02*
X221013Y187707D01*
X223013Y185707D01*
X221013Y183707D01*
X219013Y185707D01*
X286600Y204400D02*
X288600Y206400D01*
X290600Y204400D01*
X288600Y202400D01*
X286600Y204400D01*
X270300Y190500D02*
X272300Y192500D01*
X274300Y190500D01*
X272300Y188500D01*
X270300Y190500D01*
X286400Y211700D02*
X288400Y213700D01*
X290400Y211700D01*
X288400Y209700D01*
X286400Y211700D01*
X243000Y93900D02*
X245000Y95900D01*
X247000Y93900D01*
X245000Y91900D01*
X243000Y93900D01*
X219700Y70200D02*
X221700Y72200D01*
X223700Y70200D01*
X221700Y68200D01*
X219700Y70200D01*
X224200Y75000D02*
X226200Y77000D01*
X228200Y75000D01*
X226200Y73000D01*
X224200Y75000D01*
X165300Y68400D02*
X167300Y70400D01*
X169300Y68400D01*
X167300Y66400D01*
X165300Y68400D01*
X165100Y72100D02*
X167100Y74100D01*
X169100Y72100D01*
X167100Y70100D01*
X165100Y72100D01*
X229807Y69187D02*
X231807Y71187D01*
X233807Y69187D01*
X231807Y67187D01*
X229807Y69187D01*
X224900Y64900D02*
X226900Y66900D01*
X228900Y64900D01*
X226900Y62900D01*
X224900Y64900D01*
X292800Y87400D02*
X294800Y89400D01*
X296800Y87400D01*
X294800Y85400D01*
X292800Y87400D01*
Y91300D02*
X294800Y93300D01*
X296800Y91300D01*
X294800Y89300D01*
X292800Y91300D01*
X168800Y68300D02*
X170800Y70300D01*
X172800Y68300D01*
X170800Y66300D01*
X168800Y68300D01*
Y72500D02*
X170800Y74500D01*
X172800Y72500D01*
X170800Y70500D01*
X168800Y72500D01*
X227100Y72300D02*
X229100Y74300D01*
X231100Y72300D01*
X229100Y70300D01*
X227100Y72300D01*
X222100Y67600D02*
X224100Y69600D01*
X226100Y67600D01*
X224100Y65600D01*
X222100Y67600D01*
X235200Y88500D02*
X237200Y90500D01*
X239200Y88500D01*
X237200Y86500D01*
X235200Y88500D01*
X231100D02*
X233100Y90500D01*
X235100Y88500D01*
X233100Y86500D01*
X231100Y88500D01*
X226200Y94100D02*
X228200Y96100D01*
X230200Y94100D01*
X228200Y92100D01*
X226200Y94100D01*
X231100Y94400D02*
X233100Y96400D01*
X235100Y94400D01*
X233100Y92400D01*
X231100Y94400D01*
X234600Y94779D02*
X236600Y96779D01*
X238600Y94779D01*
X236600Y92778D01*
X234600Y94779D01*
X226100Y89100D02*
X228100Y91100D01*
X230100Y89100D01*
X228100Y87100D01*
X226100Y89100D01*
X162500Y221600D02*
X164500Y223600D01*
X166500Y221600D01*
X164500Y219600D01*
X162500Y221600D01*
X283900Y199600D02*
X285900Y201600D01*
X287900Y199600D01*
X285900Y197600D01*
X283900Y199600D01*
X201100Y164200D02*
X203100Y166200D01*
X205100Y164200D01*
X203100Y162200D01*
X201100Y164200D01*
X273300Y60100D02*
X275300Y62100D01*
X277300Y60100D01*
X275300Y58100D01*
X273300Y60100D01*
X270700Y57000D02*
X272700Y59000D01*
X274700Y57000D01*
X272700Y55000D01*
X270700Y57000D01*
X219400Y162200D02*
X221400Y164200D01*
X223400Y162200D01*
X221400Y160200D01*
X219400Y162200D01*
X273600Y37100D02*
X275600Y39100D01*
X277600Y37100D01*
X275600Y35100D01*
X273600Y37100D01*
X268351Y41649D02*
X270351Y43649D01*
X272351Y41649D01*
X270351Y39649D01*
X268351Y41649D01*
X111694Y82906D02*
X113694Y84906D01*
X115694Y82906D01*
X113694Y80906D01*
X111694Y82906D01*
Y87094D02*
X113694Y89094D01*
X115694Y87094D01*
X113694Y85094D01*
X111694Y87094D01*
X201100Y159986D02*
X203100Y161986D01*
X205100Y159986D01*
X203100Y157986D01*
X201100Y159986D01*
X115400Y82943D02*
X117400Y84943D01*
X119400Y82943D01*
X117400Y80943D01*
X115400Y82943D01*
X115150Y87028D02*
X117150Y89029D01*
X119150Y87028D01*
X117150Y85028D01*
X115150Y87028D01*
X162300Y217200D02*
X164300Y219200D01*
X166300Y217200D01*
X164300Y215200D01*
X162300Y217200D01*
D115*
X9894Y245550D02*
G03*
X9894Y245550I-2000J0D01*
G01*
X304400Y232900D02*
G03*
X304400Y232900I-2000J0D01*
G01*
X124047Y218050D02*
G03*
X124047Y218050I-2000J0D01*
G01*
X59147Y166850D02*
G03*
X59147Y166850I-2000J0D01*
G01*
X49147D02*
G03*
X49147Y166850I-2000J0D01*
G01*
X114047Y218050D02*
G03*
X114047Y218050I-2000J0D01*
G01*
X308700Y36900D02*
G03*
X308700Y36900I-2000J0D01*
G01*
Y46900D02*
G03*
X308700Y46900I-2000J0D01*
G01*
X304400Y222900D02*
G03*
X304400Y222900I-2000J0D01*
G01*
X9894Y235550D02*
G03*
X9894Y235550I-2000J0D01*
G01*
X29700Y78700D02*
G03*
X29700Y78700I-2000J0D01*
G01*
D116*
X28900D02*
G03*
X28900Y78700I-1200J0D01*
G01*
M02*
