G04*
G04 #@! TF.GenerationSoftware,Altium Limited,Altium Designer,25.8.1 (18)*
G04*
G04 Layer_Color=128*
%FSLAX25Y25*%
%MOIN*%
G70*
G04*
G04 #@! TF.SameCoordinates,64F7C8A9-438D-4F9F-9055-C3E4DFCE694A*
G04*
G04*
G04 #@! TF.FilePolarity,Positive*
G04*
G01*
G75*
%ADD15C,0.00500*%
D15*
X171144Y227395D02*
X172719D01*
X171932Y226607D02*
Y228182D01*
X173113Y229363D02*
X174687D01*
X173900Y228576D02*
Y230150D01*
X171144Y235268D02*
X172719D01*
X171932Y234481D02*
Y236056D01*
X175081Y235268D02*
X176656D01*
X175868Y234481D02*
Y236056D01*
X173113Y233300D02*
X174687D01*
X173900Y232513D02*
Y234087D01*
X171144Y231331D02*
X172719D01*
X171932Y230544D02*
Y232119D01*
X175081Y231331D02*
X176656D01*
X175868Y230544D02*
Y232119D01*
X175081Y227395D02*
X176656D01*
X175868Y226607D02*
Y228182D01*
X5886Y245550D02*
X9902D01*
X7894Y243542D02*
Y247558D01*
X300392Y232900D02*
X304408D01*
X302400Y230892D02*
Y234908D01*
X283827Y269758D02*
X287764D01*
X285795Y267790D02*
Y271727D01*
X258236Y269758D02*
X262173D01*
X260205Y267790D02*
Y271727D01*
X80884Y131992D02*
X84820D01*
X82852Y130023D02*
Y133960D01*
X106474Y131992D02*
X110411D01*
X108442Y130023D02*
Y133960D01*
X280641Y65100D02*
X284578D01*
X282610Y63131D02*
Y67068D01*
X306231Y65100D02*
X310169D01*
X308200Y63131D02*
Y67068D01*
X5500Y11800D02*
X19500D01*
X12500Y4800D02*
Y18800D01*
X296000Y11900D02*
X310000D01*
X303000Y4900D02*
Y18900D01*
X5000Y264300D02*
X19000D01*
X12000Y257300D02*
Y271300D01*
X296100Y264600D02*
X310100D01*
X303100Y257600D02*
Y271600D01*
X5916Y48057D02*
X7884D01*
X6900Y47073D02*
Y49042D01*
X16447Y51995D02*
X18613D01*
X17530Y50912D02*
Y53077D01*
X16447Y71680D02*
X18613D01*
X17530Y70597D02*
Y72762D01*
X5916Y75617D02*
X7884D01*
X6900Y74632D02*
Y76601D01*
X120039Y218050D02*
X124055D01*
X122047Y216042D02*
Y220058D01*
X55139Y166850D02*
X59155D01*
X57147Y164842D02*
Y168858D01*
X284188Y130112D02*
X285388D01*
X284788Y129512D02*
Y130712D01*
X269088Y139612D02*
X270288D01*
X269688Y139012D02*
Y140212D01*
X269088Y145312D02*
X270288D01*
X269688Y144712D02*
Y145912D01*
X273188Y130012D02*
X274388D01*
X273788Y129412D02*
Y130612D01*
X269188Y134112D02*
X270388D01*
X269788Y133512D02*
Y134712D01*
X273088Y149712D02*
X274288D01*
X273688Y149112D02*
Y150312D01*
X278688Y130012D02*
X279888D01*
X279288Y129412D02*
Y130612D01*
X278788Y149912D02*
X279988D01*
X279388Y149312D02*
Y150512D01*
X288388Y140212D02*
X289588D01*
X288988Y139612D02*
Y140812D01*
X288288Y145612D02*
X289488D01*
X288888Y145012D02*
Y146212D01*
X288288Y134512D02*
X289488D01*
X288888Y133912D02*
Y135112D01*
X284288Y149912D02*
X285488D01*
X284888Y149312D02*
Y150512D01*
X45139Y166850D02*
X49155D01*
X47147Y164842D02*
Y168858D01*
X110039Y218050D02*
X114055D01*
X112047Y216042D02*
Y220058D01*
X304692Y36900D02*
X308708D01*
X306700Y34892D02*
Y38908D01*
X304692Y46900D02*
X308708D01*
X306700Y44892D02*
Y48908D01*
X280641Y82816D02*
X284578D01*
X282610Y80848D02*
Y84785D01*
X306231Y82816D02*
X310169D01*
X308200Y80848D02*
Y84785D01*
X106474Y149708D02*
X110411D01*
X108442Y147740D02*
Y151677D01*
X80884Y149708D02*
X84820D01*
X82852Y147740D02*
Y151677D01*
X258236Y252042D02*
X262173D01*
X260205Y250073D02*
Y254010D01*
X283827Y252042D02*
X287764D01*
X285795Y250073D02*
Y254010D01*
X300392Y222900D02*
X304408D01*
X302400Y220892D02*
Y224908D01*
X5886Y235550D02*
X9902D01*
X7894Y233542D02*
Y237558D01*
X81700Y206900D02*
X82900D01*
X82300Y206300D02*
Y207500D01*
X182500Y227400D02*
X183700D01*
X183100Y226800D02*
Y228000D01*
X26637Y78700D02*
X28763D01*
X27700Y77637D02*
Y79763D01*
X57100Y176500D02*
X59100D01*
X58100Y175500D02*
Y177500D01*
X58600Y183500D02*
X60600D01*
X59600Y182500D02*
Y184500D01*
X58300Y190600D02*
X60300D01*
X59300Y189600D02*
Y191600D01*
X87400Y76100D02*
X88600D01*
X88000Y75500D02*
Y76700D01*
X74100Y83600D02*
X76100D01*
X75100Y82600D02*
Y84600D01*
X74847Y140250D02*
X76047D01*
X75447Y139650D02*
Y140850D01*
X78900Y83700D02*
X80900D01*
X79900Y82700D02*
Y84700D01*
X15732Y203900D02*
X16931D01*
X16331Y203300D02*
Y204500D01*
X17000Y209600D02*
X19000D01*
X18000Y208600D02*
Y210600D01*
X23000Y209500D02*
X25000D01*
X24000Y208500D02*
Y210500D01*
X35900Y208600D02*
X37900D01*
X36900Y207600D02*
Y209600D01*
X55400Y196700D02*
X57400D01*
X56400Y195700D02*
Y197700D01*
X30000Y209000D02*
X32000D01*
X31000Y208000D02*
Y210000D01*
X19900Y248300D02*
X21900D01*
X20900Y247300D02*
Y249300D01*
X27500Y248500D02*
X29500D01*
X28500Y247500D02*
Y249500D01*
X45589Y214600D02*
X46789D01*
X46189Y214000D02*
Y215200D01*
X47600Y241000D02*
X49600D01*
X48600Y240000D02*
Y242000D01*
X35400Y248600D02*
X37400D01*
X36400Y247600D02*
Y249600D01*
X89900Y212900D02*
X91100D01*
X90500Y212300D02*
Y213500D01*
X81100Y240500D02*
X83100D01*
X82100Y239500D02*
Y241500D01*
X87947Y223250D02*
X89147D01*
X88547Y222650D02*
Y223850D01*
X93100Y249300D02*
X95100D01*
X94100Y248300D02*
Y250300D01*
X100800Y249400D02*
X102800D01*
X101800Y248400D02*
Y250400D01*
X108500Y249400D02*
X110500D01*
X109500Y248400D02*
Y250400D01*
X278600Y16600D02*
X280600D01*
X279600Y15600D02*
Y17600D01*
X233600Y156900D02*
X234800D01*
X234200Y156300D02*
Y157500D01*
X257600Y185600D02*
X258800D01*
X258200Y185000D02*
Y186200D01*
X269100Y199900D02*
X270300D01*
X269700Y199300D02*
Y200500D01*
X290600Y19400D02*
X292600D01*
X291600Y18400D02*
Y20400D01*
X297100Y45600D02*
X298300D01*
X297700Y45000D02*
Y46200D01*
X308900Y91600D02*
X310900D01*
X309900Y90600D02*
Y92600D01*
X291600Y185700D02*
X293600D01*
X292600Y184700D02*
Y186700D01*
X292000Y193600D02*
X294000D01*
X293000Y192600D02*
Y194600D01*
X309900Y176900D02*
X311900D01*
X310900Y175900D02*
Y177900D01*
X113100Y208800D02*
X114300D01*
X113700Y208200D02*
Y209400D01*
X116200Y249400D02*
X118200D01*
X117200Y248400D02*
Y250400D01*
X123900Y249400D02*
X125900D01*
X124900Y248400D02*
Y250400D01*
X175500Y207700D02*
X176700D01*
X176100Y207100D02*
Y208300D01*
X212700Y220900D02*
X213900D01*
X213300Y220300D02*
Y221500D01*
X197500Y243300D02*
X199500D01*
X198500Y242300D02*
Y244300D01*
X203600Y244000D02*
X205600D01*
X204600Y243000D02*
Y245000D01*
X251200Y247800D02*
X252400D01*
X251800Y247200D02*
Y248400D01*
X223600Y258200D02*
X224800D01*
X224200Y257600D02*
Y258800D01*
X56000Y63700D02*
X58000D01*
X57000Y62700D02*
Y64700D01*
X96600Y49100D02*
X97800D01*
X97200Y48500D02*
Y49700D01*
X213300Y244365D02*
X215300D01*
X214300Y243365D02*
Y245365D01*
X72900Y35300D02*
X74900D01*
X73900Y34300D02*
Y36300D01*
X86800Y36100D02*
X88800D01*
X87800Y35100D02*
Y37100D01*
X157800Y207700D02*
X159800D01*
X158800Y206700D02*
Y208700D01*
X157600Y218000D02*
X159600D01*
X158600Y217000D02*
Y219000D01*
X143100Y223700D02*
X145100D01*
X144100Y222700D02*
Y224700D01*
X130900Y223400D02*
X132900D01*
X131900Y222400D02*
Y224400D01*
X141600Y207500D02*
X143600D01*
X142600Y206500D02*
Y208500D01*
X137100Y215900D02*
X139100D01*
X138100Y214900D02*
Y216900D01*
X81100Y180800D02*
X83100D01*
X82100Y179800D02*
Y181800D01*
X102000Y180800D02*
X104000D01*
X103000Y179800D02*
Y181800D01*
X110600Y185400D02*
X112600D01*
X111600Y184400D02*
Y186400D01*
X105300Y196000D02*
X107300D01*
X106300Y195000D02*
Y197000D01*
X119900Y194100D02*
X121900D01*
X120900Y193100D02*
Y195100D01*
X129400Y203400D02*
X131400D01*
X130400Y202400D02*
Y204400D01*
X121000Y208000D02*
X123000D01*
X122000Y207000D02*
Y209000D01*
X97200Y75900D02*
X98400D01*
X97800Y75300D02*
Y76500D01*
X104100Y75800D02*
X105300D01*
X104700Y75200D02*
Y76400D01*
X97200Y68900D02*
X98400D01*
X97800Y68300D02*
Y69500D01*
X104100Y69000D02*
X105300D01*
X104700Y68400D02*
Y69600D01*
X100700Y72400D02*
X101900D01*
X101300Y71800D02*
Y73000D01*
X65622Y212019D02*
X66822D01*
X66222Y211419D02*
Y212619D01*
X65547Y214350D02*
X66747D01*
X66147Y213750D02*
Y214950D01*
X65522Y216719D02*
X66722D01*
X66122Y216119D02*
Y217319D01*
X67922Y214419D02*
X69122D01*
X68522Y213819D02*
Y215019D01*
X63247Y214350D02*
X64447D01*
X63847Y213750D02*
Y214950D01*
X285390Y40153D02*
X286590D01*
X285990Y39553D02*
Y40753D01*
X288190Y40153D02*
X289390D01*
X288790Y39553D02*
Y40753D01*
X288190Y42953D02*
X289390D01*
X288790Y42353D02*
Y43553D01*
X285390Y42953D02*
X286590D01*
X285990Y42353D02*
Y43553D01*
X62100Y46800D02*
X63300D01*
X62700Y46200D02*
Y47400D01*
X65120Y43532D02*
X66320D01*
X65720Y42932D02*
Y44132D01*
X87600Y72600D02*
X88800D01*
X88200Y72000D02*
Y73200D01*
X71100Y75200D02*
X72300D01*
X71700Y74600D02*
Y75800D01*
X64887Y76633D02*
X66087D01*
X65487Y76033D02*
Y77233D01*
X82800Y71100D02*
X84000D01*
X83400Y70500D02*
Y71700D01*
X70500Y67800D02*
X71700D01*
X71100Y67200D02*
Y68400D01*
X70600Y62600D02*
X71800D01*
X71200Y62000D02*
Y63200D01*
X20600Y190500D02*
X21800D01*
X21200Y189900D02*
Y191100D01*
X13600Y190500D02*
X14800D01*
X14200Y189900D02*
Y191100D01*
X59100Y76300D02*
X60300D01*
X59700Y75700D02*
Y76900D01*
X56800Y45600D02*
X58000D01*
X57400Y45000D02*
Y46200D01*
X56700Y41400D02*
X57900D01*
X57300Y40800D02*
Y42000D01*
X49107Y76687D02*
X50307D01*
X49707Y76087D02*
Y77287D01*
X68100Y67800D02*
X69300D01*
X68700Y67200D02*
Y68400D01*
X68200Y62600D02*
X69400D01*
X68800Y62000D02*
Y63200D01*
X20600Y188100D02*
X21800D01*
X21200Y187500D02*
Y188700D01*
X13600Y188100D02*
X14800D01*
X14200Y187500D02*
Y188700D01*
X59100Y78700D02*
X60300D01*
X59700Y78100D02*
Y79300D01*
X50804Y78384D02*
X52004D01*
X51404Y77784D02*
Y78984D01*
X85626Y67809D02*
X86826D01*
X86226Y67209D02*
Y68409D01*
X81663Y59402D02*
X82863D01*
X82263Y58802D02*
Y60002D01*
X49814Y223534D02*
X51014D01*
X50414Y222934D02*
Y224134D01*
X49799Y217087D02*
X50999D01*
X50399Y216487D02*
Y217687D01*
X28791Y216685D02*
X29991D01*
X29391Y216085D02*
Y217285D01*
X28079Y223139D02*
X29279D01*
X28679Y222539D02*
Y223739D01*
X51503Y201365D02*
X52703D01*
X52103Y200765D02*
Y201965D01*
X44085Y200041D02*
X45285D01*
X44685Y199441D02*
Y200641D01*
X40500Y196500D02*
X41700D01*
X41100Y195900D02*
Y197100D01*
X36200Y200900D02*
X37400D01*
X36800Y200300D02*
Y201500D01*
X29984Y201050D02*
X31184D01*
X30584Y200450D02*
Y201650D01*
X74722Y204657D02*
X75922D01*
X75322Y204057D02*
Y205257D01*
X78325Y208546D02*
X79525D01*
X78925Y207946D02*
Y209146D01*
X144203Y100219D02*
X145403D01*
X144803Y99619D02*
Y100819D01*
X146767Y97340D02*
X147967D01*
X147367Y96740D02*
Y97940D01*
X140952Y97076D02*
X142152D01*
X141552Y96476D02*
Y97676D01*
X143850Y94575D02*
X145050D01*
X144450Y93975D02*
Y95175D01*
X188881Y167938D02*
X190080D01*
X189480Y167338D02*
Y168538D01*
X245400Y81600D02*
X246600D01*
X246000Y81000D02*
Y82200D01*
X244839Y88353D02*
X246039D01*
X245439Y87753D02*
Y88953D01*
X238344Y83831D02*
X239544D01*
X238944Y83231D02*
Y84431D01*
X235869Y81252D02*
X237069D01*
X236469Y80652D02*
Y81852D01*
X242875Y79195D02*
X244075D01*
X243475Y78595D02*
Y79795D01*
X240261Y76755D02*
X241461D01*
X240861Y76156D02*
Y77355D01*
X269122Y81038D02*
X270322D01*
X269722Y80439D02*
Y81638D01*
X265900Y84600D02*
X267100D01*
X266500Y84000D02*
Y85200D01*
X267733Y76972D02*
X268933D01*
X268333Y76372D02*
Y77572D01*
X262270Y76804D02*
X263470D01*
X262870Y76204D02*
Y77404D01*
X262201Y62023D02*
X263401D01*
X262801Y61423D02*
Y62623D01*
X262285Y66915D02*
X263485D01*
X262885Y66315D02*
Y67515D01*
X267400Y61900D02*
X268600D01*
X268000Y61300D02*
Y62500D01*
X267400Y66700D02*
X268600D01*
X268000Y66100D02*
Y67300D01*
X85093Y208787D02*
X86293D01*
X85693Y208187D02*
Y209387D01*
X93200Y208000D02*
X94400D01*
X93800Y207400D02*
Y208600D01*
X100100Y212800D02*
X101300D01*
X100700Y212200D02*
Y213400D01*
X101800Y205800D02*
X103000D01*
X102400Y205200D02*
Y206400D01*
X84934Y214122D02*
X86134D01*
X85534Y213522D02*
Y214722D01*
X79647Y195250D02*
X80847D01*
X80247Y194650D02*
Y195850D01*
X80747Y199978D02*
X81947D01*
X81347Y199378D02*
Y200578D01*
X71200Y199200D02*
X72400D01*
X71800Y198600D02*
Y199800D01*
X71400Y194500D02*
X72600D01*
X72000Y193900D02*
Y195100D01*
X81208Y214007D02*
X82408D01*
X81808Y213407D02*
Y214607D01*
X67400Y199200D02*
X68600D01*
X68000Y198600D02*
Y199800D01*
X67600Y194500D02*
X68800D01*
X68200Y193900D02*
Y195100D01*
X74842Y198994D02*
X76042D01*
X75442Y198394D02*
Y199594D01*
X77700Y216200D02*
X78900D01*
X78300Y215600D02*
Y216800D01*
X74900Y194700D02*
X76100D01*
X75500Y194100D02*
Y195300D01*
X60047Y199329D02*
X61247D01*
X60647Y198729D02*
Y199929D01*
X60300Y195000D02*
X61500D01*
X60900Y194400D02*
Y195600D01*
X90626Y221050D02*
X91826D01*
X91226Y220450D02*
Y221650D01*
X93100Y214600D02*
X94300D01*
X93700Y214000D02*
Y215200D01*
X64000Y199300D02*
X65200D01*
X64600Y198700D02*
Y199900D01*
X63800Y194500D02*
X65000D01*
X64400Y193900D02*
Y195100D01*
X221179Y157800D02*
X222378D01*
X221778Y157200D02*
Y158400D01*
X213543Y157900D02*
X214743D01*
X214143Y157300D02*
Y158500D01*
X280850Y93150D02*
X282050D01*
X281450Y92550D02*
Y93750D01*
X286300Y93200D02*
X287500D01*
X286900Y92600D02*
Y93800D01*
X290200Y199900D02*
X291400D01*
X290800Y199300D02*
Y200500D01*
X197050Y166950D02*
X198250D01*
X197650Y166350D02*
Y167550D01*
X196900Y159600D02*
X198100D01*
X197500Y159000D02*
Y160200D01*
X189000Y159700D02*
X190200D01*
X189600Y159100D02*
Y160300D01*
X96400Y92400D02*
X97600D01*
X97000Y91800D02*
Y93000D01*
X96500Y88700D02*
X97700D01*
X97100Y88100D02*
Y89300D01*
X213700Y162100D02*
X214900D01*
X214300Y161500D02*
Y162700D01*
X100600Y98900D02*
X101800D01*
X101200Y98300D02*
Y99500D01*
X100600Y95200D02*
X101800D01*
X101200Y94600D02*
Y95800D01*
X100686Y92375D02*
X101886D01*
X101286Y91775D02*
Y92975D01*
X100700Y88600D02*
X101900D01*
X101300Y88000D02*
Y89200D01*
X221300Y104050D02*
X222500D01*
X221900Y103450D02*
Y104650D01*
X213150Y104050D02*
X214350D01*
X213750Y103450D02*
Y104650D01*
X234100Y200900D02*
X235300D01*
X234700Y200300D02*
Y201500D01*
X227000Y201100D02*
X228200D01*
X227600Y200500D02*
Y201700D01*
X276800Y190300D02*
X278000D01*
X277400Y189700D02*
Y190900D01*
X226059Y180886D02*
X227259D01*
X226659Y180286D02*
Y181486D01*
X220413Y185707D02*
X221613D01*
X221013Y185107D02*
Y186307D01*
X288000Y204400D02*
X289200D01*
X288600Y203800D02*
Y205000D01*
X271700Y190500D02*
X272900D01*
X272300Y189900D02*
Y191100D01*
X287800Y211700D02*
X289000D01*
X288400Y211100D02*
Y212300D01*
X244400Y93900D02*
X245600D01*
X245000Y93300D02*
Y94500D01*
X221100Y70200D02*
X222300D01*
X221700Y69600D02*
Y70800D01*
X225600Y75000D02*
X226800D01*
X226200Y74400D02*
Y75600D01*
X166700Y68400D02*
X167900D01*
X167300Y67800D02*
Y69000D01*
X166500Y72100D02*
X167700D01*
X167100Y71500D02*
Y72700D01*
X231207Y69187D02*
X232407D01*
X231807Y68587D02*
Y69787D01*
X226300Y64900D02*
X227500D01*
X226900Y64300D02*
Y65500D01*
X294200Y87400D02*
X295400D01*
X294800Y86800D02*
Y88000D01*
X294200Y91300D02*
X295400D01*
X294800Y90700D02*
Y91900D01*
X170200Y68300D02*
X171400D01*
X170800Y67700D02*
Y68900D01*
X170200Y72500D02*
X171400D01*
X170800Y71900D02*
Y73100D01*
X228500Y72300D02*
X229700D01*
X229100Y71700D02*
Y72900D01*
X223500Y67600D02*
X224700D01*
X224100Y67000D02*
Y68200D01*
X236600Y88500D02*
X237800D01*
X237200Y87900D02*
Y89100D01*
X232500Y88500D02*
X233700D01*
X233100Y87900D02*
Y89100D01*
X227600Y94100D02*
X228800D01*
X228200Y93500D02*
Y94700D01*
X232500Y94400D02*
X233700D01*
X233100Y93800D02*
Y95000D01*
X236000Y94779D02*
X237200D01*
X236600Y94178D02*
Y95379D01*
X227500Y89100D02*
X228700D01*
X228100Y88500D02*
Y89700D01*
X163900Y221600D02*
X165100D01*
X164500Y221000D02*
Y222200D01*
X285300Y199600D02*
X286500D01*
X285900Y199000D02*
Y200200D01*
X202500Y164200D02*
X203700D01*
X203100Y163600D02*
Y164800D01*
X274700Y60100D02*
X275900D01*
X275300Y59500D02*
Y60700D01*
X272100Y57000D02*
X273300D01*
X272700Y56400D02*
Y57600D01*
X220800Y162200D02*
X222000D01*
X221400Y161600D02*
Y162800D01*
X275000Y37100D02*
X276200D01*
X275600Y36500D02*
Y37700D01*
X269751Y41649D02*
X270951D01*
X270351Y41049D02*
Y42249D01*
X113094Y82906D02*
X114294D01*
X113694Y82306D02*
Y83506D01*
X113094Y87094D02*
X114294D01*
X113694Y86494D02*
Y87694D01*
X202500Y159986D02*
X203700D01*
X203100Y159386D02*
Y160586D01*
X116800Y82943D02*
X118000D01*
X117400Y82343D02*
Y83543D01*
X116550Y87028D02*
X117750D01*
X117150Y86428D02*
Y87629D01*
X163700Y217200D02*
X164900D01*
X164300Y216600D02*
Y217800D01*
M02*
