M48
;Layer_Color=9474304
;FILE_FORMAT=2:5
INCH,TZ
;TYPE=PLATED
T01F00S00C0.01200
T02F00S00C0.01575
T04F00S00C0.02000
T05F00S00C0.02126
T07F00S00C0.03937
T08F00S00C0.04016
T09F00S00C0.14000
%
T01
X224100Y67600
X221700Y70200
X226200Y75000
X229100Y72300
X231807Y69187
X226900Y64900
X228100Y89100
X228200Y94100
X233100Y94400
X236600Y94779
X237200Y88500
X233100
X238944Y83831
X236469Y81252
X240861Y76755
X243475Y79195
X246000Y81600
X245439Y88353
X245000Y93900
X266500Y84600
X269722Y81038
X268333Y76972
X262870Y76804
X262885Y66915
X262801Y62023
X268000Y61900
Y66700
X275300Y60100
X272700Y57000
X270351Y41649
X275600Y37100
X285990Y40153
X288790
Y42953
X285990
X297700Y45600
X294800Y87400
Y91300
X286900Y93200
X281450Y93150
X279288Y130012
X273788
X269788Y134112
X269688Y139612
Y145312
X273688Y149712
X279388Y149912
X284888
X288888Y145612
X288988Y140212
X288888Y134512
X284788Y130112
X234200Y156900
X221778Y157800
X221400Y162200
X214300Y162100
X214143Y157900
X213750Y104050
X221900
X203100Y159986
Y164200
X197650Y166950
X197500Y159600
X189600Y159700
X189480Y167938
X144803Y100219
X147367Y97340
X144450Y94575
X141552Y97076
X117150Y87028
X113694Y87094
Y82906
X117400Y82943
X104700Y75800
Y69000
X101300Y72400
X97800Y75900
Y68900
X86226Y67809
X83400Y71100
X88200Y72600
X88000Y76100
X71700Y75200
X65487Y76633
X59700Y76300
Y78700
X68700Y67800
X71100
X71200Y62600
X68800
X82263Y59402
X97200Y49100
X62700Y46800
X65720Y43532
X57400Y45600
X57300Y41400
X97100Y88700
X97000Y92400
X101286Y92375
X101200Y95200
Y98900
X101300Y88600
X75447Y140250
X167100Y72100
X167300Y68400
X170800Y68300
Y72500
X49707Y76687
X51404Y78384
X52103Y201365
X44685Y200041
X41100Y196500
X36800Y200900
X30584Y201050
X29391Y216685
X28679Y223139
X50414Y223534
X50399Y217087
X46189Y214600
X16331Y203900
X14200Y190500
Y188100
X21200
Y190500
X60900Y195000
X64400Y194500
X68200
X72000
X75500Y194700
X75442Y198994
X71800Y199200
X68000
X64600Y199300
X60647Y199329
X63847Y214350
X66147
X66122Y216719
X68522Y214419
X66222Y212019
X78925Y208546
X82300Y206900
X85693Y208787
X85534Y214122
X81808Y214007
X78300Y216200
X75322Y204657
X81347Y199978
X80247Y195250
X93800Y208000
X93700Y214600
X90500Y212900
X91226Y221050
X88547Y223250
X100700Y212800
X102400Y205800
X113700Y208800
X164300Y217200
X164500Y221600
X183100Y227400
X176100Y207700
X213300Y220900
X227600Y201100
X234700Y200900
X226659Y180886
X221013Y185707
X258200Y185600
X272300Y190500
X277400Y190300
X269700Y199900
X285900Y199600
X290800Y199900
X288600Y204400
X288400Y211700
X251800Y247800
X224200Y258200
T02
X171932Y227395
X175868
X173900Y229363
Y233300
X171932Y231331
X175868
Y235268
X171932
T04
X279600Y16600
X291600Y19400
X309900Y91600
X79900Y83700
X75100Y83600
X57000Y63700
X73900Y35300
X87800Y36100
X36900Y208600
X31000Y209000
X24000Y209500
X18000Y209600
X20900Y248300
X28500Y248500
X36400Y248600
X48600Y241000
X82100Y240500
X94100Y249300
X101800Y249400
X109500
X117200
X124900
X131900Y223400
X144100Y223700
X138100Y215900
X142600Y207500
X130400Y203400
X122000Y208000
X120900Y194100
X106300Y196000
X111600Y185400
X103000Y180800
X82100
X59600Y183500
X59300Y190600
X56400Y196700
X58100Y176500
X158800Y207700
X158600Y218000
X198500Y243300
X204600Y244000
X214300Y244365
X293000Y193600
X292600Y185700
X310900Y176900
T05
X27700Y78700
T07
X282610Y65100
Y82816
X308200
Y65100
X108442Y131992
Y149708
X82852
Y131992
X260205Y252042
Y269758
X285795
Y252042
T08
X306700Y36900
Y46900
X57147Y166850
X47147
X7894Y235550
Y245550
X112047Y218050
X122047
X302400Y222900
Y232900
T09
X12500Y11800
X303000Y11900
X12000Y264300
X303100Y264600
M30
